G04 #@! TF.GenerationSoftware,KiCad,Pcbnew,8.0.6*
G04 #@! TF.CreationDate,2025-02-23T16:49:15+00:00*
G04 #@! TF.ProjectId,Northstart Floating point,4e6f7274-6873-4746-9172-7420466c6f61,rev?*
G04 #@! TF.SameCoordinates,Original*
G04 #@! TF.FileFunction,Copper,L2,Bot*
G04 #@! TF.FilePolarity,Positive*
%FSLAX46Y46*%
G04 Gerber Fmt 4.6, Leading zero omitted, Abs format (unit mm)*
G04 Created by KiCad (PCBNEW 8.0.6) date 2025-02-23 16:49:15*
%MOMM*%
%LPD*%
G01*
G04 APERTURE LIST*
G04 Aperture macros list*
%AMHorizOval*
0 Thick line with rounded ends*
0 $1 width*
0 $2 $3 position (X,Y) of the first rounded end (center of the circle)*
0 $4 $5 position (X,Y) of the second rounded end (center of the circle)*
0 Add line between two ends*
20,1,$1,$2,$3,$4,$5,0*
0 Add two circle primitives to create the rounded ends*
1,1,$1,$2,$3*
1,1,$1,$4,$5*%
%AMRotRect*
0 Rectangle, with rotation*
0 The origin of the aperture is its center*
0 $1 length*
0 $2 width*
0 $3 Rotation angle, in degrees counterclockwise*
0 Add horizontal line*
21,1,$1,$2,0,0,$3*%
G04 Aperture macros list end*
G04 #@! TA.AperFunction,Conductor*
%ADD10C,0.304800*%
G04 #@! TD*
G04 #@! TA.AperFunction,Conductor*
%ADD11C,0.877107*%
G04 #@! TD*
G04 #@! TA.AperFunction,ComponentPad*
%ADD12C,2.000000*%
G04 #@! TD*
G04 #@! TA.AperFunction,ComponentPad*
%ADD13R,1.600000X1.600000*%
G04 #@! TD*
G04 #@! TA.AperFunction,ComponentPad*
%ADD14O,1.600000X1.600000*%
G04 #@! TD*
G04 #@! TA.AperFunction,ComponentPad*
%ADD15C,2.400000*%
G04 #@! TD*
G04 #@! TA.AperFunction,ComponentPad*
%ADD16O,2.400000X2.400000*%
G04 #@! TD*
G04 #@! TA.AperFunction,ComponentPad*
%ADD17C,1.600000*%
G04 #@! TD*
G04 #@! TA.AperFunction,ConnectorPad*
%ADD18R,2.794000X8.382000*%
G04 #@! TD*
G04 #@! TA.AperFunction,ConnectorPad*
%ADD19R,1.778000X8.382000*%
G04 #@! TD*
G04 #@! TA.AperFunction,ComponentPad*
%ADD20RotRect,1.905000X2.000000X225.000000*%
G04 #@! TD*
G04 #@! TA.AperFunction,ComponentPad*
%ADD21HorizOval,1.905000X-0.033588X0.033588X0.033588X-0.033588X0*%
G04 #@! TD*
G04 #@! TA.AperFunction,ComponentPad*
%ADD22C,1.500000*%
G04 #@! TD*
G04 #@! TA.AperFunction,ComponentPad*
%ADD23RotRect,1.905000X2.000000X45.000000*%
G04 #@! TD*
G04 #@! TA.AperFunction,ViaPad*
%ADD24C,0.889000*%
G04 #@! TD*
G04 #@! TA.AperFunction,ViaPad*
%ADD25C,1.500000*%
G04 #@! TD*
G04 #@! TA.AperFunction,ViaPad*
%ADD26C,1.600000*%
G04 #@! TD*
G04 #@! TA.AperFunction,ViaPad*
%ADD27C,2.000000*%
G04 #@! TD*
G04 #@! TA.AperFunction,ViaPad*
%ADD28C,4.700000*%
G04 #@! TD*
G04 #@! TA.AperFunction,ViaPad*
%ADD29C,2.032000*%
G04 #@! TD*
G04 #@! TA.AperFunction,Conductor*
%ADD30C,0.508000*%
G04 #@! TD*
G04 #@! TA.AperFunction,Conductor*
%ADD31C,0.370000*%
G04 #@! TD*
G04 #@! TA.AperFunction,Conductor*
%ADD32C,1.016000*%
G04 #@! TD*
G04 #@! TA.AperFunction,Conductor*
%ADD33C,0.609600*%
G04 #@! TD*
G04 #@! TA.AperFunction,Conductor*
%ADD34C,2.032000*%
G04 #@! TD*
G04 #@! TA.AperFunction,Conductor*
%ADD35C,1.300000*%
G04 #@! TD*
G04 #@! TA.AperFunction,Conductor*
%ADD36C,0.203200*%
G04 #@! TD*
G04 #@! TA.AperFunction,Conductor*
%ADD37C,1.524000*%
G04 #@! TD*
G04 APERTURE END LIST*
D10*
X147960000Y-115180000D02*
X149260000Y-115180000D01*
X149260000Y-118330000D01*
X147960000Y-118330000D01*
X147960000Y-115180000D01*
G04 #@! TA.AperFunction,Conductor*
G36*
X147960000Y-115180000D02*
G01*
X149260000Y-115180000D01*
X149260000Y-118330000D01*
X147960000Y-118330000D01*
X147960000Y-115180000D01*
G37*
G04 #@! TD.AperFunction*
X145000000Y-115240000D02*
X146300000Y-115240000D01*
X146300000Y-118390000D01*
X145000000Y-118390000D01*
X145000000Y-115240000D01*
G04 #@! TA.AperFunction,Conductor*
G36*
X145000000Y-115240000D02*
G01*
X146300000Y-115240000D01*
X146300000Y-118390000D01*
X145000000Y-118390000D01*
X145000000Y-115240000D01*
G37*
G04 #@! TD.AperFunction*
D11*
X153173846Y-116190000D02*
G75*
G02*
X152296740Y-116190000I-438553J0D01*
G01*
X152296740Y-116190000D02*
G75*
G02*
X153173846Y-116190000I438553J0D01*
G01*
D10*
X138500000Y-115220000D02*
X139800000Y-115220000D01*
X139800000Y-118370000D01*
X138500000Y-118370000D01*
X138500000Y-115220000D01*
G04 #@! TA.AperFunction,Conductor*
G36*
X138500000Y-115220000D02*
G01*
X139800000Y-115220000D01*
X139800000Y-118370000D01*
X138500000Y-118370000D01*
X138500000Y-115220000D01*
G37*
G04 #@! TD.AperFunction*
X141670000Y-115210000D02*
X142970000Y-115210000D01*
X142970000Y-118360000D01*
X141670000Y-118360000D01*
X141670000Y-115210000D01*
G04 #@! TA.AperFunction,Conductor*
G36*
X141670000Y-115210000D02*
G01*
X142970000Y-115210000D01*
X142970000Y-118360000D01*
X141670000Y-118360000D01*
X141670000Y-115210000D01*
G37*
G04 #@! TD.AperFunction*
D12*
X246790000Y-132120000D03*
X241960000Y-132140000D03*
D13*
X28620000Y-132000000D03*
D14*
X31160000Y-132000000D03*
X33700000Y-132000000D03*
X36240000Y-132000000D03*
X38780000Y-132000000D03*
X41320000Y-132000000D03*
X43860000Y-132000000D03*
X43860000Y-124380000D03*
X41320000Y-124380000D03*
X38780000Y-124380000D03*
X36240000Y-124380000D03*
X33700000Y-124380000D03*
X31160000Y-124380000D03*
X28620000Y-124380000D03*
D13*
X109040000Y-131900000D03*
D14*
X111580000Y-131900000D03*
X114120000Y-131900000D03*
X116660000Y-131900000D03*
X119200000Y-131900000D03*
X121740000Y-131900000D03*
X124280000Y-131900000D03*
X124280000Y-124280000D03*
X121740000Y-124280000D03*
X119200000Y-124280000D03*
X116660000Y-124280000D03*
X114120000Y-124280000D03*
X111580000Y-124280000D03*
X109040000Y-124280000D03*
D12*
X128430000Y-103710000D03*
X128450000Y-109600000D03*
D13*
X28550000Y-89720000D03*
D14*
X31090000Y-89720000D03*
X33630000Y-89720000D03*
X36170000Y-89720000D03*
X38710000Y-89720000D03*
X41250000Y-89720000D03*
X43790000Y-89720000D03*
X43790000Y-82100000D03*
X41250000Y-82100000D03*
X38710000Y-82100000D03*
X36170000Y-82100000D03*
X33630000Y-82100000D03*
X31090000Y-82100000D03*
X28550000Y-82100000D03*
D13*
X165040000Y-132160000D03*
D14*
X167580000Y-132160000D03*
X170120000Y-132160000D03*
X172660000Y-132160000D03*
X175200000Y-132160000D03*
X177740000Y-132160000D03*
X180280000Y-132160000D03*
X180280000Y-124540000D03*
X177740000Y-124540000D03*
X175200000Y-124540000D03*
X172660000Y-124540000D03*
X170120000Y-124540000D03*
X167580000Y-124540000D03*
X165040000Y-124540000D03*
D12*
X201460000Y-78792500D03*
X201420000Y-72422500D03*
D13*
X251060000Y-44950000D03*
D14*
X251060000Y-42410000D03*
X251060000Y-39870000D03*
X251060000Y-37330000D03*
X251060000Y-34790000D03*
X251060000Y-32250000D03*
X251060000Y-29710000D03*
X251060000Y-27170000D03*
X243440000Y-27170000D03*
X243440000Y-29710000D03*
X243440000Y-32250000D03*
X243440000Y-34790000D03*
X243440000Y-37330000D03*
X243440000Y-39870000D03*
X243440000Y-42410000D03*
X243440000Y-44950000D03*
D12*
X192675000Y-53440000D03*
X186355000Y-53510000D03*
D13*
X132580000Y-45110000D03*
D14*
X132580000Y-42570000D03*
X132580000Y-40030000D03*
X132580000Y-37490000D03*
X132580000Y-34950000D03*
X132580000Y-32410000D03*
X132580000Y-29870000D03*
X132580000Y-27330000D03*
X124960000Y-27330000D03*
X124960000Y-29870000D03*
X124960000Y-32410000D03*
X124960000Y-34950000D03*
X124960000Y-37490000D03*
X124960000Y-40030000D03*
X124960000Y-42570000D03*
X124960000Y-45110000D03*
D13*
X111990000Y-45125000D03*
D14*
X111990000Y-42585000D03*
X111990000Y-40045000D03*
X111990000Y-37505000D03*
X111990000Y-34965000D03*
X111990000Y-32425000D03*
X111990000Y-29885000D03*
X111990000Y-27345000D03*
X104370000Y-27345000D03*
X104370000Y-29885000D03*
X104370000Y-32425000D03*
X104370000Y-34965000D03*
X104370000Y-37505000D03*
X104370000Y-40045000D03*
X104370000Y-42585000D03*
X104370000Y-45125000D03*
D15*
X26250000Y-74610000D03*
D16*
X51250000Y-74610000D03*
D13*
X252090000Y-106910000D03*
D14*
X254630000Y-106910000D03*
X257170000Y-106910000D03*
X259710000Y-106910000D03*
X262250000Y-106910000D03*
X264790000Y-106910000D03*
X267330000Y-106910000D03*
X269870000Y-106910000D03*
X269870000Y-99290000D03*
X267330000Y-99290000D03*
X264790000Y-99290000D03*
X262250000Y-99290000D03*
X259710000Y-99290000D03*
X257170000Y-99290000D03*
X254630000Y-99290000D03*
X252090000Y-99290000D03*
D13*
X233210000Y-45200000D03*
D14*
X233210000Y-42660000D03*
X233210000Y-40120000D03*
X233210000Y-37580000D03*
X233210000Y-35040000D03*
X233210000Y-32500000D03*
X233210000Y-29960000D03*
X233210000Y-27420000D03*
X225590000Y-27420000D03*
X225590000Y-29960000D03*
X225590000Y-32500000D03*
X225590000Y-35040000D03*
X225590000Y-37580000D03*
X225590000Y-40120000D03*
X225590000Y-42660000D03*
X225590000Y-45200000D03*
D17*
X77060000Y-102460000D03*
D14*
X77040000Y-117390000D03*
D17*
X132090000Y-116010000D03*
D14*
X132090000Y-103310000D03*
D13*
X28605000Y-110870000D03*
D14*
X31145000Y-110870000D03*
X33685000Y-110870000D03*
X36225000Y-110870000D03*
X38765000Y-110870000D03*
X41305000Y-110870000D03*
X43845000Y-110870000D03*
X46385000Y-110870000D03*
X46385000Y-103250000D03*
X43845000Y-103250000D03*
X41305000Y-103250000D03*
X38765000Y-103250000D03*
X36225000Y-103250000D03*
X33685000Y-103250000D03*
X31145000Y-103250000D03*
X28605000Y-103250000D03*
D17*
X105180000Y-103130000D03*
D14*
X105210000Y-117020000D03*
D13*
X137070000Y-110600000D03*
D14*
X139610000Y-110600000D03*
X142150000Y-110600000D03*
X144690000Y-110600000D03*
X147230000Y-110600000D03*
X149770000Y-110600000D03*
X152310000Y-110600000D03*
X154850000Y-110600000D03*
X154850000Y-102980000D03*
X152310000Y-102980000D03*
X149770000Y-102980000D03*
X147230000Y-102980000D03*
X144690000Y-102980000D03*
X142150000Y-102980000D03*
X139610000Y-102980000D03*
X137070000Y-102980000D03*
D13*
X193295000Y-113570000D03*
D14*
X195835000Y-113570000D03*
X198375000Y-113570000D03*
X200915000Y-113570000D03*
X203455000Y-113570000D03*
X205995000Y-113570000D03*
X208535000Y-113570000D03*
X211075000Y-113570000D03*
X211075000Y-105950000D03*
X208535000Y-105950000D03*
X205995000Y-105950000D03*
X203455000Y-105950000D03*
X200915000Y-105950000D03*
X198375000Y-105950000D03*
X195835000Y-105950000D03*
X193295000Y-105950000D03*
D17*
X104770000Y-120110000D03*
D14*
X92070000Y-120110000D03*
D12*
X76490000Y-82710000D03*
X76540000Y-89200000D03*
X175210000Y-45330000D03*
X175170000Y-39710000D03*
X128340000Y-83300000D03*
X128390000Y-89890000D03*
D13*
X165450000Y-96240000D03*
D14*
X167990000Y-96240000D03*
X170530000Y-96240000D03*
X173070000Y-96240000D03*
X175610000Y-96240000D03*
X178150000Y-96240000D03*
X180690000Y-96240000D03*
X183230000Y-96240000D03*
X183230000Y-88620000D03*
X180690000Y-88620000D03*
X178150000Y-88620000D03*
X175610000Y-88620000D03*
X173070000Y-88620000D03*
X170530000Y-88620000D03*
X167990000Y-88620000D03*
X165450000Y-88620000D03*
D12*
X258550000Y-50230000D03*
X263620000Y-50180000D03*
X162785000Y-80197500D03*
X156325000Y-79127500D03*
X48340000Y-82520000D03*
X48340000Y-88900000D03*
D13*
X252360000Y-61540000D03*
D14*
X254900000Y-61540000D03*
X257440000Y-61540000D03*
X259980000Y-61540000D03*
X262520000Y-61540000D03*
X265060000Y-61540000D03*
X267600000Y-61540000D03*
X270140000Y-61540000D03*
X270140000Y-53920000D03*
X267600000Y-53920000D03*
X265060000Y-53920000D03*
X262520000Y-53920000D03*
X259980000Y-53920000D03*
X257440000Y-53920000D03*
X254900000Y-53920000D03*
X252360000Y-53920000D03*
D13*
X165650000Y-77910000D03*
D14*
X168190000Y-77910000D03*
X170730000Y-77910000D03*
X173270000Y-77910000D03*
X175810000Y-77910000D03*
X178350000Y-77910000D03*
X180890000Y-77910000D03*
X183430000Y-77910000D03*
X183430000Y-70290000D03*
X180890000Y-70290000D03*
X178350000Y-70290000D03*
X175810000Y-70290000D03*
X173270000Y-70290000D03*
X170730000Y-70290000D03*
X168190000Y-70290000D03*
X165650000Y-70290000D03*
D12*
X264520000Y-94530000D03*
X270270000Y-94490000D03*
X161850000Y-124350000D03*
X161870000Y-130730000D03*
D13*
X252100000Y-137260000D03*
D14*
X254640000Y-137260000D03*
X257180000Y-137260000D03*
X259720000Y-137260000D03*
X262260000Y-137260000D03*
X264800000Y-137260000D03*
X267340000Y-137260000D03*
X269880000Y-137260000D03*
X269880000Y-129640000D03*
X267340000Y-129640000D03*
X264800000Y-129640000D03*
X262260000Y-129640000D03*
X259720000Y-129640000D03*
X257180000Y-129640000D03*
X254640000Y-129640000D03*
X252100000Y-129640000D03*
D13*
X221490000Y-132590000D03*
D14*
X224030000Y-132590000D03*
X226570000Y-132590000D03*
X229110000Y-132590000D03*
X231650000Y-132590000D03*
X234190000Y-132590000D03*
X236730000Y-132590000D03*
X239270000Y-132590000D03*
X239270000Y-124970000D03*
X236730000Y-124970000D03*
X234190000Y-124970000D03*
X231650000Y-124970000D03*
X229110000Y-124970000D03*
X226570000Y-124970000D03*
X224030000Y-124970000D03*
X221490000Y-124970000D03*
D13*
X137315000Y-90380000D03*
D14*
X139855000Y-90380000D03*
X142395000Y-90380000D03*
X144935000Y-90380000D03*
X147475000Y-90380000D03*
X150015000Y-90380000D03*
X152555000Y-90380000D03*
X155095000Y-90380000D03*
X155095000Y-82760000D03*
X152555000Y-82760000D03*
X150015000Y-82760000D03*
X147475000Y-82760000D03*
X144935000Y-82760000D03*
X142395000Y-82760000D03*
X139855000Y-82760000D03*
X137315000Y-82760000D03*
D13*
X109430000Y-109880000D03*
D14*
X111970000Y-109880000D03*
X114510000Y-109880000D03*
X117050000Y-109880000D03*
X119590000Y-109880000D03*
X122130000Y-109880000D03*
X124670000Y-109880000D03*
X124670000Y-102260000D03*
X122130000Y-102260000D03*
X119590000Y-102260000D03*
X117050000Y-102260000D03*
X114510000Y-102260000D03*
X111970000Y-102260000D03*
X109430000Y-102260000D03*
D13*
X266770000Y-44950000D03*
D14*
X266770000Y-42410000D03*
X266770000Y-39870000D03*
X266770000Y-37330000D03*
X266770000Y-34790000D03*
X266770000Y-32250000D03*
X266770000Y-29710000D03*
X266770000Y-27170000D03*
X259150000Y-27170000D03*
X259150000Y-29710000D03*
X259150000Y-32250000D03*
X259150000Y-34790000D03*
X259150000Y-37330000D03*
X259150000Y-39870000D03*
X259150000Y-42410000D03*
X259150000Y-44950000D03*
D12*
X189550000Y-126920000D03*
X189610000Y-133210000D03*
D13*
X165430000Y-113480000D03*
D14*
X167970000Y-113480000D03*
X170510000Y-113480000D03*
X173050000Y-113480000D03*
X175590000Y-113480000D03*
X178130000Y-113480000D03*
X180670000Y-113480000D03*
X183210000Y-113480000D03*
X183210000Y-105860000D03*
X180670000Y-105860000D03*
X178130000Y-105860000D03*
X175590000Y-105860000D03*
X173050000Y-105860000D03*
X170510000Y-105860000D03*
X167970000Y-105860000D03*
X165430000Y-105860000D03*
D13*
X196500000Y-52625000D03*
D14*
X196500000Y-55165000D03*
X196500000Y-57705000D03*
X196500000Y-60245000D03*
X196500000Y-62785000D03*
X196500000Y-65325000D03*
X196500000Y-67865000D03*
X204120000Y-67865000D03*
X204120000Y-65325000D03*
X204120000Y-62785000D03*
X204120000Y-60245000D03*
X204120000Y-57705000D03*
X204120000Y-55165000D03*
X204120000Y-52625000D03*
D17*
X99325000Y-116900000D03*
X99325000Y-110760000D03*
X93680000Y-75740000D03*
D14*
X93690000Y-65630000D03*
D13*
X124810000Y-51950000D03*
D14*
X124810000Y-54490000D03*
X124810000Y-57030000D03*
X124810000Y-59570000D03*
X124810000Y-62110000D03*
X124810000Y-64650000D03*
X124810000Y-67190000D03*
X124810000Y-69730000D03*
X132430000Y-69730000D03*
X132430000Y-67190000D03*
X132430000Y-64650000D03*
X132430000Y-62110000D03*
X132430000Y-59570000D03*
X132430000Y-57030000D03*
X132430000Y-54490000D03*
X132430000Y-51950000D03*
D17*
X94080000Y-50150000D03*
X94070000Y-56250000D03*
D13*
X203910000Y-44585000D03*
D14*
X203910000Y-42045000D03*
X203910000Y-39505000D03*
X203910000Y-36965000D03*
X203910000Y-34425000D03*
X203910000Y-31885000D03*
X203910000Y-29345000D03*
X203910000Y-26805000D03*
X196290000Y-26805000D03*
X196290000Y-29345000D03*
X196290000Y-31885000D03*
X196290000Y-34425000D03*
X196290000Y-36965000D03*
X196290000Y-39505000D03*
X196290000Y-42045000D03*
X196290000Y-44585000D03*
D13*
X193015000Y-132370000D03*
D14*
X195555000Y-132370000D03*
X198095000Y-132370000D03*
X200635000Y-132370000D03*
X203175000Y-132370000D03*
X205715000Y-132370000D03*
X208255000Y-132370000D03*
X210795000Y-132370000D03*
X210795000Y-124750000D03*
X208255000Y-124750000D03*
X205715000Y-124750000D03*
X203175000Y-124750000D03*
X200635000Y-124750000D03*
X198095000Y-124750000D03*
X195555000Y-124750000D03*
X193015000Y-124750000D03*
D13*
X80545000Y-132050000D03*
D14*
X83085000Y-132050000D03*
X85625000Y-132050000D03*
X88165000Y-132050000D03*
X90705000Y-132050000D03*
X93245000Y-132050000D03*
X95785000Y-132050000D03*
X95785000Y-124430000D03*
X93245000Y-124430000D03*
X90705000Y-124430000D03*
X88165000Y-124430000D03*
X85625000Y-124430000D03*
X83085000Y-124430000D03*
X80545000Y-124430000D03*
D12*
X48420000Y-123200000D03*
X48460000Y-129840000D03*
D13*
X252200000Y-76630000D03*
D14*
X254740000Y-76630000D03*
X257280000Y-76630000D03*
X259820000Y-76630000D03*
X262360000Y-76630000D03*
X264900000Y-76630000D03*
X267440000Y-76630000D03*
X269980000Y-76630000D03*
X269980000Y-69010000D03*
X267440000Y-69010000D03*
X264900000Y-69010000D03*
X262360000Y-69010000D03*
X259820000Y-69010000D03*
X257280000Y-69010000D03*
X254740000Y-69010000D03*
X252200000Y-69010000D03*
D17*
X94980000Y-45920000D03*
X94980000Y-40920000D03*
D18*
X61050000Y-152810000D03*
D19*
X64733000Y-152810000D03*
X67908000Y-152810000D03*
X71083000Y-152810000D03*
X74258000Y-152810000D03*
X77433000Y-152810000D03*
X80608000Y-152810000D03*
X83783000Y-152810000D03*
X86958000Y-152810000D03*
X90133000Y-152810000D03*
X93308000Y-152810000D03*
X96483000Y-152810000D03*
X99658000Y-152810000D03*
X102833000Y-152810000D03*
X106008000Y-152810000D03*
X109183000Y-152810000D03*
X112358000Y-152810000D03*
X115533000Y-152810000D03*
X118708000Y-152810000D03*
X121883000Y-152810000D03*
X125058000Y-152810000D03*
X128233000Y-152810000D03*
X131408000Y-152810000D03*
X134583000Y-152810000D03*
X137758000Y-152810000D03*
X140933000Y-152810000D03*
X144108000Y-152810000D03*
X147283000Y-152810000D03*
X150458000Y-152810000D03*
X153633000Y-152810000D03*
X156808000Y-152810000D03*
X159983000Y-152810000D03*
X163158000Y-152810000D03*
X166333000Y-152810000D03*
X169508000Y-152810000D03*
X172683000Y-152810000D03*
X175858000Y-152810000D03*
X179033000Y-152810000D03*
X182208000Y-152810000D03*
X185383000Y-152810000D03*
X188558000Y-152810000D03*
X191733000Y-152810000D03*
X194908000Y-152810000D03*
X198083000Y-152810000D03*
X201258000Y-152810000D03*
X204433000Y-152810000D03*
X207608000Y-152810000D03*
X210783000Y-152810000D03*
X213958000Y-152810000D03*
D18*
X217641000Y-152810000D03*
D13*
X81180000Y-110270000D03*
D14*
X83720000Y-110270000D03*
X86260000Y-110270000D03*
X88800000Y-110270000D03*
X91340000Y-110270000D03*
X93880000Y-110270000D03*
X96420000Y-110270000D03*
X96420000Y-102650000D03*
X93880000Y-102650000D03*
X91340000Y-102650000D03*
X88800000Y-102650000D03*
X86260000Y-102650000D03*
X83720000Y-102650000D03*
X81180000Y-102650000D03*
D13*
X186710000Y-44205000D03*
D14*
X186710000Y-41665000D03*
X186710000Y-39125000D03*
X186710000Y-36585000D03*
X186710000Y-34045000D03*
X186710000Y-31505000D03*
X186710000Y-28965000D03*
X186710000Y-26425000D03*
X179090000Y-26425000D03*
X179090000Y-28965000D03*
X179090000Y-31505000D03*
X179090000Y-34045000D03*
X179090000Y-36585000D03*
X179090000Y-39125000D03*
X179090000Y-41665000D03*
X179090000Y-44205000D03*
D13*
X252075000Y-122340000D03*
D14*
X254615000Y-122340000D03*
X257155000Y-122340000D03*
X259695000Y-122340000D03*
X262235000Y-122340000D03*
X264775000Y-122340000D03*
X267315000Y-122340000D03*
X269855000Y-122340000D03*
X269855000Y-114720000D03*
X267315000Y-114720000D03*
X264775000Y-114720000D03*
X262235000Y-114720000D03*
X259695000Y-114720000D03*
X257155000Y-114720000D03*
X254615000Y-114720000D03*
X252075000Y-114720000D03*
D12*
X260220000Y-47775000D03*
X265240000Y-47765000D03*
D13*
X109195000Y-90200000D03*
D14*
X111735000Y-90200000D03*
X114275000Y-90200000D03*
X116815000Y-90200000D03*
X119355000Y-90200000D03*
X121895000Y-90200000D03*
X124435000Y-90200000D03*
X124435000Y-82580000D03*
X121895000Y-82580000D03*
X119355000Y-82580000D03*
X116815000Y-82580000D03*
X114275000Y-82580000D03*
X111735000Y-82580000D03*
X109195000Y-82580000D03*
D13*
X145130000Y-52060000D03*
D14*
X145130000Y-54600000D03*
X145130000Y-57140000D03*
X145130000Y-59680000D03*
X145130000Y-62220000D03*
X145130000Y-64760000D03*
X145130000Y-67300000D03*
X145130000Y-69840000D03*
X152750000Y-69840000D03*
X152750000Y-67300000D03*
X152750000Y-64760000D03*
X152750000Y-62220000D03*
X152750000Y-59680000D03*
X152750000Y-57140000D03*
X152750000Y-54600000D03*
X152750000Y-52060000D03*
D13*
X54830000Y-132110000D03*
D14*
X57370000Y-132110000D03*
X59910000Y-132110000D03*
X62450000Y-132110000D03*
X64990000Y-132110000D03*
X67530000Y-132110000D03*
X70070000Y-132110000D03*
X70070000Y-124490000D03*
X67530000Y-124490000D03*
X64990000Y-124490000D03*
X62450000Y-124490000D03*
X59910000Y-124490000D03*
X57370000Y-124490000D03*
X54830000Y-124490000D03*
D13*
X171000000Y-44250000D03*
D14*
X171000000Y-41710000D03*
X171000000Y-39170000D03*
X171000000Y-36630000D03*
X171000000Y-34090000D03*
X171000000Y-31550000D03*
X171000000Y-29010000D03*
X171000000Y-26470000D03*
X163380000Y-26470000D03*
X163380000Y-29010000D03*
X163380000Y-31550000D03*
X163380000Y-34090000D03*
X163380000Y-36630000D03*
X163380000Y-39170000D03*
X163380000Y-41710000D03*
X163380000Y-44250000D03*
D13*
X219180000Y-44585000D03*
D14*
X219180000Y-42045000D03*
X219180000Y-39505000D03*
X219180000Y-36965000D03*
X219180000Y-34425000D03*
X219180000Y-31885000D03*
X219180000Y-29345000D03*
X219180000Y-26805000D03*
X211560000Y-26805000D03*
X211560000Y-29345000D03*
X211560000Y-31885000D03*
X211560000Y-34425000D03*
X211560000Y-36965000D03*
X211560000Y-39505000D03*
X211560000Y-42045000D03*
X211560000Y-44585000D03*
D20*
X46407836Y-33435733D03*
D21*
X42638957Y-33343809D03*
X42815734Y-37027835D03*
D17*
X91660000Y-75820000D03*
X84520000Y-75820000D03*
D13*
X152730000Y-45160000D03*
D14*
X152730000Y-42620000D03*
X152730000Y-40080000D03*
X152730000Y-37540000D03*
X152730000Y-35000000D03*
X152730000Y-32460000D03*
X152730000Y-29920000D03*
X152730000Y-27380000D03*
X145110000Y-27380000D03*
X145110000Y-29920000D03*
X145110000Y-32460000D03*
X145110000Y-35000000D03*
X145110000Y-37540000D03*
X145110000Y-40080000D03*
X145110000Y-42620000D03*
X145110000Y-45160000D03*
D13*
X137195000Y-131560000D03*
D14*
X139735000Y-131560000D03*
X142275000Y-131560000D03*
X144815000Y-131560000D03*
X147355000Y-131560000D03*
X149895000Y-131560000D03*
X152435000Y-131560000D03*
X152435000Y-123940000D03*
X149895000Y-123940000D03*
X147355000Y-123940000D03*
X144815000Y-123940000D03*
X142275000Y-123940000D03*
X139735000Y-123940000D03*
X137195000Y-123940000D03*
D17*
X88470000Y-62310000D03*
X93470000Y-62310000D03*
D13*
X252360000Y-91400000D03*
D14*
X254900000Y-91400000D03*
X257440000Y-91400000D03*
X259980000Y-91400000D03*
X262520000Y-91400000D03*
X265060000Y-91400000D03*
X267600000Y-91400000D03*
X270140000Y-91400000D03*
X270140000Y-83780000D03*
X267600000Y-83780000D03*
X265060000Y-83780000D03*
X262520000Y-83780000D03*
X259980000Y-83780000D03*
X257440000Y-83780000D03*
X254900000Y-83780000D03*
X252360000Y-83780000D03*
D17*
X73430000Y-117500000D03*
X73470000Y-110970000D03*
D22*
X86170000Y-58690000D03*
X82370000Y-58690000D03*
D13*
X165910000Y-59980000D03*
D14*
X168450000Y-59980000D03*
X170990000Y-59980000D03*
X173530000Y-59980000D03*
X176070000Y-59980000D03*
X178610000Y-59980000D03*
X181150000Y-59980000D03*
X183690000Y-59980000D03*
X183690000Y-52360000D03*
X181150000Y-52360000D03*
X178610000Y-52360000D03*
X176070000Y-52360000D03*
X173530000Y-52360000D03*
X170990000Y-52360000D03*
X168450000Y-52360000D03*
X165910000Y-52360000D03*
D13*
X231550000Y-52745000D03*
D14*
X231550000Y-55285000D03*
X231550000Y-57825000D03*
X231550000Y-60365000D03*
X231550000Y-62905000D03*
X231550000Y-65445000D03*
X231550000Y-67985000D03*
X231550000Y-70525000D03*
X239170000Y-70525000D03*
X239170000Y-67985000D03*
X239170000Y-65445000D03*
X239170000Y-62905000D03*
X239170000Y-60365000D03*
X239170000Y-57825000D03*
X239170000Y-55285000D03*
X239170000Y-52745000D03*
D17*
X80340000Y-65295000D03*
D14*
X80290000Y-75565000D03*
D13*
X55060000Y-110360000D03*
D14*
X57600000Y-110360000D03*
X60140000Y-110360000D03*
X62680000Y-110360000D03*
X65220000Y-110360000D03*
X67760000Y-110360000D03*
X70300000Y-110360000D03*
X70300000Y-102740000D03*
X67760000Y-102740000D03*
X65220000Y-102740000D03*
X62680000Y-102740000D03*
X60140000Y-102740000D03*
X57600000Y-102740000D03*
X55060000Y-102740000D03*
D13*
X104020000Y-51890000D03*
D14*
X104020000Y-54430000D03*
X104020000Y-56970000D03*
X104020000Y-59510000D03*
X104020000Y-62050000D03*
X104020000Y-64590000D03*
X104020000Y-67130000D03*
X104020000Y-69670000D03*
X111640000Y-69670000D03*
X111640000Y-67130000D03*
X111640000Y-64590000D03*
X111640000Y-62050000D03*
X111640000Y-59510000D03*
X111640000Y-56970000D03*
X111640000Y-54430000D03*
X111640000Y-51890000D03*
D13*
X54950000Y-89820000D03*
D14*
X57490000Y-89820000D03*
X60030000Y-89820000D03*
X62570000Y-89820000D03*
X65110000Y-89820000D03*
X67650000Y-89820000D03*
X70190000Y-89820000D03*
X72730000Y-89820000D03*
X72730000Y-82200000D03*
X70190000Y-82200000D03*
X67650000Y-82200000D03*
X65110000Y-82200000D03*
X62570000Y-82200000D03*
X60030000Y-82200000D03*
X57490000Y-82200000D03*
X54950000Y-82200000D03*
D23*
X41138415Y-54780517D03*
D21*
X45381056Y-55431055D03*
X44730517Y-51188415D03*
D13*
X80735000Y-90200000D03*
D14*
X83275000Y-90200000D03*
X85815000Y-90200000D03*
X88355000Y-90200000D03*
X90895000Y-90200000D03*
X93435000Y-90200000D03*
X95975000Y-90200000D03*
X95975000Y-82580000D03*
X93435000Y-82580000D03*
X90895000Y-82580000D03*
X88355000Y-82580000D03*
X85815000Y-82580000D03*
X83275000Y-82580000D03*
X80735000Y-82580000D03*
D13*
X203435000Y-96185000D03*
D14*
X205975000Y-96185000D03*
X208515000Y-96185000D03*
X211055000Y-96185000D03*
X213595000Y-96185000D03*
X216135000Y-96185000D03*
X218675000Y-96185000D03*
X221215000Y-96185000D03*
X223755000Y-96185000D03*
X226295000Y-96185000D03*
X228835000Y-96185000D03*
X231375000Y-96185000D03*
X231375000Y-80945000D03*
X228835000Y-80945000D03*
X226295000Y-80945000D03*
X223755000Y-80945000D03*
X221215000Y-80945000D03*
X218675000Y-80945000D03*
X216135000Y-80945000D03*
X213595000Y-80945000D03*
X211055000Y-80945000D03*
X208515000Y-80945000D03*
X205975000Y-80945000D03*
X203435000Y-80945000D03*
D13*
X221190000Y-113510000D03*
D14*
X223730000Y-113510000D03*
X226270000Y-113510000D03*
X228810000Y-113510000D03*
X231350000Y-113510000D03*
X233890000Y-113510000D03*
X236430000Y-113510000D03*
X238970000Y-113510000D03*
X238970000Y-105890000D03*
X236430000Y-105890000D03*
X233890000Y-105890000D03*
X231350000Y-105890000D03*
X228810000Y-105890000D03*
X226270000Y-105890000D03*
X223730000Y-105890000D03*
X221190000Y-105890000D03*
D13*
X213840000Y-52445000D03*
D14*
X213840000Y-54985000D03*
X213840000Y-57525000D03*
X213840000Y-60065000D03*
X213840000Y-62605000D03*
X213840000Y-65145000D03*
X213840000Y-67685000D03*
X213840000Y-70225000D03*
X221460000Y-70225000D03*
X221460000Y-67685000D03*
X221460000Y-65145000D03*
X221460000Y-62605000D03*
X221460000Y-60065000D03*
X221460000Y-57525000D03*
X221460000Y-54985000D03*
X221460000Y-52445000D03*
D24*
X77050000Y-140550000D03*
X203560000Y-142160000D03*
X186950000Y-109780000D03*
X31390000Y-127490000D03*
X186470000Y-128290000D03*
X194750000Y-109900000D03*
X99240000Y-127200000D03*
X112840000Y-118130000D03*
X91220000Y-116470000D03*
X119590000Y-96960000D03*
X96070000Y-96990000D03*
X106220000Y-123930000D03*
X86950000Y-118200000D03*
X177500000Y-147240000D03*
X161540000Y-147410000D03*
X164740000Y-147400000D03*
X122060000Y-118620000D03*
X168090000Y-147170000D03*
X210920000Y-71020000D03*
X70030000Y-93970000D03*
X249220000Y-85760000D03*
X59710000Y-93560000D03*
X166390000Y-90410000D03*
X205280000Y-70190000D03*
X192270000Y-40010000D03*
X246110000Y-49160000D03*
X196540000Y-49570000D03*
X238020000Y-30660000D03*
X190670000Y-60540000D03*
X140400000Y-61690000D03*
X224050000Y-88210000D03*
X140600000Y-73380000D03*
X157020000Y-72870000D03*
X31080000Y-77190000D03*
X157290000Y-54050000D03*
X25830000Y-78940000D03*
X25790000Y-100080000D03*
X162615611Y-110660000D03*
X25690000Y-125880000D03*
X250530000Y-88450000D03*
X162510000Y-99230000D03*
X128990000Y-72960000D03*
X201260000Y-69750000D03*
X190320000Y-120000000D03*
X48030000Y-114670000D03*
X189630000Y-113570000D03*
X137310000Y-73020000D03*
X115020000Y-65520000D03*
X74810000Y-73540000D03*
X147980000Y-73570000D03*
X148050000Y-69470000D03*
X143200000Y-73020000D03*
X139270000Y-73090000D03*
X252800000Y-50490000D03*
X210490000Y-89510000D03*
X66030000Y-84450000D03*
X63460000Y-97520000D03*
X38890000Y-96830000D03*
X85850000Y-96860000D03*
X215080000Y-98300000D03*
X143750000Y-143580000D03*
X151300000Y-143510000D03*
X236420000Y-102470000D03*
X206990000Y-101640000D03*
X197330000Y-109790000D03*
X202580000Y-102220000D03*
X166490000Y-116010000D03*
X206500000Y-88230000D03*
X217250000Y-71020000D03*
X84060000Y-143950000D03*
X153020000Y-144550000D03*
X163160000Y-145820000D03*
X213520000Y-141090000D03*
X90990000Y-138470000D03*
X148660000Y-141550000D03*
X146710000Y-143220000D03*
X158390000Y-147270000D03*
X214010000Y-84380000D03*
X141260000Y-144160000D03*
X160700000Y-97880000D03*
X161080000Y-57220000D03*
X201090000Y-117440000D03*
X161760000Y-53930000D03*
X160680000Y-115780000D03*
X211350000Y-100840000D03*
X188960000Y-97440000D03*
X191090000Y-29890000D03*
X181780000Y-118510000D03*
X181670000Y-56160000D03*
X208700000Y-118730000D03*
X187130000Y-100790000D03*
X170220000Y-100570000D03*
X204990000Y-100900000D03*
X187440000Y-55050000D03*
X37520000Y-86940000D03*
X98800000Y-72510000D03*
X72740000Y-72210000D03*
X236320000Y-71830000D03*
X236690000Y-79430000D03*
X245980000Y-58650000D03*
X192490000Y-65070000D03*
X228590000Y-71170000D03*
X230320000Y-100920000D03*
X77680000Y-87230000D03*
X203810000Y-90780000D03*
X136160000Y-78060000D03*
X245380000Y-56750000D03*
X100980000Y-77710000D03*
X192200000Y-62250000D03*
D25*
X74400000Y-59480000D03*
D24*
X120930000Y-86910000D03*
X208990000Y-85540000D03*
X72520000Y-104480000D03*
X105550000Y-135960000D03*
X46770000Y-135960000D03*
X41530000Y-137230000D03*
X112050000Y-139520000D03*
X219030000Y-89560000D03*
X159460000Y-102420000D03*
X161710000Y-50830000D03*
X248560000Y-116140000D03*
X161420000Y-135190000D03*
X243130000Y-134710000D03*
X159500000Y-67340000D03*
X158360000Y-78250000D03*
X244940000Y-135960000D03*
X159350000Y-52030000D03*
X158430000Y-135080000D03*
X116420000Y-26010000D03*
X116340000Y-73280000D03*
X119090000Y-137170000D03*
X66190000Y-137370000D03*
X31110000Y-135780000D03*
X57260000Y-137210000D03*
X70310000Y-97520000D03*
X200640000Y-99710000D03*
X119500000Y-72710000D03*
X106630000Y-57820000D03*
X225210000Y-108540000D03*
X225930000Y-66700000D03*
X225930000Y-71080000D03*
X190470000Y-71060000D03*
X136340000Y-49140000D03*
X215410000Y-48580000D03*
X135770000Y-73100000D03*
X134950000Y-105360000D03*
X89240000Y-142110000D03*
X246530000Y-122620000D03*
X247160000Y-94810000D03*
X258909624Y-125130000D03*
X268630000Y-125130000D03*
X271070000Y-125750000D03*
X245850000Y-92470000D03*
X245360000Y-120060000D03*
X61530000Y-95450000D03*
X141860000Y-95950000D03*
X36260000Y-145900000D03*
X61060000Y-145980000D03*
X23100000Y-73870000D03*
X49150000Y-145990000D03*
X105380000Y-106750000D03*
X215720000Y-118760000D03*
X199850000Y-147870000D03*
X203700000Y-117580000D03*
X223980000Y-143650000D03*
X262180000Y-143270000D03*
X211270000Y-118920000D03*
X202860000Y-147760000D03*
X218950000Y-113620000D03*
X197210000Y-116130000D03*
X267170000Y-144780000D03*
X234210000Y-144600000D03*
X196480000Y-147570000D03*
X236140000Y-145610000D03*
X121630000Y-141130000D03*
X191640000Y-144960000D03*
X226550000Y-142470000D03*
X257050000Y-141880000D03*
X178420000Y-64950000D03*
X178710000Y-101840000D03*
X151230000Y-99880000D03*
X241590000Y-99820000D03*
X141030000Y-99740000D03*
X247990000Y-55120000D03*
X241150000Y-82050000D03*
X170590000Y-66370000D03*
X232710000Y-111090000D03*
X246570000Y-71900000D03*
X243200000Y-102180000D03*
X242760000Y-111810000D03*
X244550000Y-123330000D03*
X169230000Y-91780000D03*
X247230000Y-73930000D03*
X244670000Y-107310000D03*
X244720000Y-90290000D03*
X146140000Y-95250000D03*
X241700000Y-96720000D03*
X226640000Y-85770000D03*
X246830000Y-68680000D03*
X171630000Y-84170000D03*
X222060000Y-126490000D03*
X268660000Y-139330000D03*
X155680000Y-135570000D03*
X124020000Y-76870000D03*
X150760000Y-77180000D03*
X193050000Y-138780000D03*
D26*
X135330000Y-116460000D03*
D24*
X57210000Y-85770000D03*
X63350000Y-115980000D03*
X252650000Y-111380000D03*
X198950000Y-69570000D03*
X188290000Y-121140000D03*
X187050000Y-137760000D03*
X248740000Y-136490000D03*
X208490000Y-69030000D03*
X207040000Y-70870000D03*
X213550000Y-88160000D03*
X209770000Y-66980000D03*
X230760000Y-26370000D03*
D26*
X142330000Y-115890000D03*
X142320000Y-117710000D03*
X145630000Y-117700000D03*
X145640000Y-115880000D03*
X148600000Y-115880000D03*
X148590000Y-117700000D03*
X139160000Y-115890000D03*
X139150000Y-117710000D03*
D27*
X110460000Y-135700000D03*
D28*
X63000000Y-64460000D03*
D24*
X230600000Y-134220000D03*
D28*
X63000000Y-26360000D03*
D24*
X185069690Y-108410000D03*
X240800000Y-108790000D03*
X105420000Y-92470000D03*
D29*
X70330000Y-70150000D03*
D26*
X152750000Y-116190000D03*
D24*
X185239089Y-90620000D03*
X184940000Y-65220000D03*
D27*
X115730000Y-135760000D03*
D24*
X154980000Y-112890000D03*
D28*
X24900000Y-64460000D03*
D24*
X155110000Y-92780000D03*
X155910000Y-51590000D03*
X102810000Y-133846311D03*
X156920000Y-131640000D03*
X141110000Y-92711596D03*
D28*
X24900000Y-26360000D03*
D24*
X100170000Y-122140000D03*
X62870000Y-119330000D03*
X44010000Y-117530000D03*
X70130000Y-117430000D03*
X41480000Y-115400000D03*
D30*
X200510000Y-142410000D02*
X195980000Y-142820000D01*
X95420000Y-142020000D02*
X93810000Y-141780000D01*
X149330000Y-138530000D02*
X147700000Y-138530000D01*
X121670000Y-139860000D02*
X120420000Y-140240000D01*
X155460000Y-139610000D02*
X151690000Y-138850000D01*
X116960000Y-141720000D02*
X116100000Y-141990000D01*
X137130000Y-139410000D02*
X131510000Y-139760000D01*
X140390000Y-139130000D02*
X137130000Y-139410000D01*
X195980000Y-142820000D02*
X192640000Y-143150000D01*
X120420000Y-140240000D02*
X118440000Y-141070000D01*
X116100000Y-141990000D02*
X113310000Y-142110000D01*
X85550000Y-140320000D02*
X82100000Y-140510000D01*
X164650000Y-140990000D02*
X160070000Y-140470000D01*
X123450000Y-139860000D02*
X121670000Y-139860000D01*
X179770000Y-142380000D02*
X175030000Y-141770000D01*
X89400000Y-140410000D02*
X87350000Y-140260000D01*
X144960000Y-138710000D02*
X140390000Y-139130000D01*
X192640000Y-143150000D02*
X190130000Y-143060000D01*
X182200000Y-142630000D02*
X179770000Y-142380000D01*
X203560000Y-142160000D02*
X200510000Y-142410000D01*
X190130000Y-143060000D02*
X186520000Y-142980000D01*
X147700000Y-138530000D02*
X144960000Y-138710000D01*
X175030000Y-141770000D02*
X171670000Y-141570000D01*
X93810000Y-141780000D02*
X91170000Y-140970000D01*
X127100000Y-139960000D02*
X123450000Y-139860000D01*
X186520000Y-142980000D02*
X182200000Y-142630000D01*
X100570000Y-142150000D02*
X95420000Y-142020000D01*
X109230000Y-142180000D02*
X100570000Y-142150000D01*
X82100000Y-140510000D02*
X77050000Y-140550000D01*
X91170000Y-140970000D02*
X89400000Y-140410000D01*
X131510000Y-139760000D02*
X127100000Y-139960000D01*
X171670000Y-141570000D02*
X164650000Y-140990000D01*
X87350000Y-140260000D02*
X85550000Y-140320000D01*
X113310000Y-142110000D02*
X109230000Y-142180000D01*
X160070000Y-140470000D02*
X155460000Y-139610000D01*
X151690000Y-138850000D02*
X149330000Y-138530000D01*
X118440000Y-141070000D02*
X116960000Y-141720000D01*
D31*
X176870000Y-127760000D02*
X181500000Y-127930000D01*
X97470000Y-127230000D02*
X99240000Y-127200000D01*
X185460000Y-128150000D02*
X186470000Y-128290000D01*
X88260000Y-127370000D02*
X39920000Y-126880000D01*
X181500000Y-127930000D02*
X185460000Y-128150000D01*
X186950000Y-109780000D02*
X194750000Y-109900000D01*
X39920000Y-126880000D02*
X36600000Y-127070000D01*
X32170000Y-127320000D02*
X31390000Y-127490000D01*
X99240000Y-127200000D02*
X176870000Y-127760000D01*
X97470000Y-127230000D02*
X88260000Y-127370000D01*
X36600000Y-127070000D02*
X33900000Y-127300000D01*
X33900000Y-127300000D02*
X32170000Y-127320000D01*
X99890000Y-118580000D02*
X102370000Y-118680000D01*
X111960000Y-118240000D02*
X112840000Y-118130000D01*
X88870000Y-116700000D02*
X80830000Y-117090000D01*
X106310000Y-118550000D02*
X111960000Y-118240000D01*
X92690000Y-116790000D02*
X95780000Y-117820000D01*
X73430000Y-117500000D02*
X77040000Y-117390000D01*
X98230000Y-118280000D02*
X99890000Y-118580000D01*
X91220000Y-116470000D02*
X88870000Y-116700000D01*
X102370000Y-118680000D02*
X106310000Y-118550000D01*
X80830000Y-117090000D02*
X78600000Y-117390000D01*
X95780000Y-117820000D02*
X98230000Y-118280000D01*
X91220000Y-116470000D02*
X92690000Y-116790000D01*
X78600000Y-117390000D02*
X77040000Y-117390000D01*
X119590000Y-96960000D02*
X105240000Y-97030000D01*
X105240000Y-97030000D02*
X96070000Y-96990000D01*
X97060000Y-119320000D02*
X100300000Y-120590000D01*
X100300000Y-120590000D02*
X104220000Y-122550000D01*
X104220000Y-122550000D02*
X106220000Y-123930000D01*
X95800000Y-118970000D02*
X93720000Y-118510000D01*
X87450000Y-118200000D02*
X86950000Y-118200000D01*
X91370000Y-118200000D02*
X87450000Y-118200000D01*
X93720000Y-118510000D02*
X91370000Y-118200000D01*
X97060000Y-119320000D02*
X95800000Y-118970000D01*
X224140000Y-34960000D02*
X225590000Y-35040000D01*
X224080000Y-54950000D02*
X224140000Y-34960000D01*
X221460000Y-54985000D02*
X224080000Y-54950000D01*
X177500000Y-147240000D02*
X176370000Y-148340000D01*
X176370000Y-148340000D02*
X175858000Y-152810000D01*
D30*
X159983000Y-152810000D02*
X160010000Y-148400000D01*
D31*
X161540000Y-147410000D02*
X160010000Y-148400000D01*
X163160000Y-148630000D02*
X163430000Y-148230000D01*
X163158000Y-152810000D02*
X163160000Y-148630000D01*
X163430000Y-148230000D02*
X164740000Y-147400000D01*
X139170000Y-119360000D02*
X131570000Y-119050000D01*
X176740000Y-121270000D02*
X163270000Y-119850000D01*
X180390000Y-121520000D02*
X176740000Y-121270000D01*
X163270000Y-119850000D02*
X157960000Y-119480000D01*
X180200000Y-122570000D02*
X180390000Y-121520000D01*
X125760000Y-118860000D02*
X122060000Y-118620000D01*
X151280000Y-119360000D02*
X139170000Y-119360000D01*
X180280000Y-124540000D02*
X180200000Y-122570000D01*
X157960000Y-119480000D02*
X151280000Y-119360000D01*
X131570000Y-119050000D02*
X125760000Y-118860000D01*
D30*
X166333000Y-152810000D02*
X166450000Y-148570000D01*
D31*
X168090000Y-147170000D02*
X166450000Y-148570000D01*
D30*
X115520000Y-45050000D02*
X111990000Y-45125000D01*
X115620000Y-61980000D02*
X115520000Y-45050000D01*
X115620000Y-61980000D02*
X111640000Y-62050000D01*
X132430000Y-62110000D02*
X127310000Y-62010000D01*
X127310000Y-62010000D02*
X127460000Y-29930000D01*
X127460000Y-29930000D02*
X132580000Y-29870000D01*
D31*
X214480000Y-34360000D02*
X214420000Y-43940000D01*
X211560000Y-34425000D02*
X214480000Y-34360000D01*
X214420000Y-43940000D02*
X214300000Y-45160000D01*
X211940000Y-49720000D02*
X211420000Y-50700000D01*
X213840000Y-46540000D02*
X212800000Y-48160000D01*
X214300000Y-45160000D02*
X213840000Y-46540000D01*
X212800000Y-48160000D02*
X211940000Y-49720000D01*
X211420000Y-50700000D02*
X210920000Y-71020000D01*
D30*
X132430000Y-57030000D02*
X129960000Y-56980000D01*
X130110000Y-35190000D02*
X132580000Y-34950000D01*
X129960000Y-56980000D02*
X130110000Y-35190000D01*
X107800000Y-56140000D02*
X107100000Y-53270000D01*
X111640000Y-64590000D02*
X109270000Y-64430000D01*
X107100000Y-53270000D02*
X106770000Y-50080000D01*
X109270000Y-64430000D02*
X109230000Y-62600000D01*
X106640000Y-42750000D02*
X104370000Y-42585000D01*
X109230000Y-62600000D02*
X107800000Y-56140000D01*
X106770000Y-50080000D02*
X106640000Y-42750000D01*
X132430000Y-59570000D02*
X128560000Y-59450000D01*
X128820000Y-32450000D02*
X132580000Y-32410000D01*
X128560000Y-59450000D02*
X128820000Y-32450000D01*
X109530000Y-56800000D02*
X111640000Y-56970000D01*
X108000000Y-40190000D02*
X111990000Y-40045000D01*
X108130000Y-50050000D02*
X108500000Y-52320000D01*
X107980000Y-48070000D02*
X108130000Y-50050000D01*
X108500000Y-52320000D02*
X109530000Y-56800000D01*
X107980000Y-48070000D02*
X108000000Y-40190000D01*
X134980000Y-51890000D02*
X135060000Y-37510000D01*
X135060000Y-37510000D02*
X132580000Y-37490000D01*
X134980000Y-64550000D02*
X132430000Y-64650000D01*
X134980000Y-51890000D02*
X135040000Y-55470000D01*
X135040000Y-55470000D02*
X134980000Y-64550000D01*
X111640000Y-59510000D02*
X114300000Y-59520000D01*
X114230000Y-47620000D02*
X109230000Y-47470000D01*
X109250000Y-42640000D02*
X111990000Y-42585000D01*
X109230000Y-47470000D02*
X109250000Y-42640000D01*
X114300000Y-59520000D02*
X114230000Y-47620000D01*
D31*
X162930000Y-90840000D02*
X166390000Y-90410000D01*
X105540000Y-94240000D02*
X106720000Y-94240000D01*
X106720000Y-94240000D02*
X108370000Y-93900000D01*
X173010000Y-90460000D02*
X173070000Y-88620000D01*
X103250000Y-94240000D02*
X105540000Y-94240000D01*
X249220000Y-85760000D02*
X258750000Y-85830000D01*
X70030000Y-93970000D02*
X73600000Y-93750000D01*
X108370000Y-93900000D02*
X111130000Y-93900000D01*
X195170000Y-60090000D02*
X194190000Y-59280000D01*
X195080000Y-55840000D02*
X196500000Y-55165000D01*
X151610000Y-93930000D02*
X152730000Y-94020000D01*
X153970000Y-94250000D02*
X155290000Y-94280000D01*
X152730000Y-94020000D02*
X153970000Y-94250000D01*
X258750000Y-85830000D02*
X259980000Y-83780000D01*
X194190000Y-59280000D02*
X194240000Y-56750000D01*
X194240000Y-56750000D02*
X195080000Y-55840000D01*
X157340000Y-93930000D02*
X158540000Y-93290000D01*
X158540000Y-93290000D02*
X161400000Y-91560000D01*
X155290000Y-94280000D02*
X156270000Y-94190000D01*
X59710000Y-93560000D02*
X70030000Y-93970000D01*
X161400000Y-91560000D02*
X162930000Y-90840000D01*
X166390000Y-90410000D02*
X173010000Y-90460000D01*
X196500000Y-60245000D02*
X195170000Y-60090000D01*
X156270000Y-94190000D02*
X157340000Y-93930000D01*
X73600000Y-93750000D02*
X100450000Y-93780000D01*
X111130000Y-93900000D02*
X151610000Y-93930000D01*
X101560000Y-93990000D02*
X103250000Y-94240000D01*
X100450000Y-93780000D02*
X101560000Y-93990000D01*
X206490000Y-66860000D02*
X206360000Y-67940000D01*
X206580000Y-65730000D02*
X206490000Y-66860000D01*
X206360000Y-67940000D02*
X206200000Y-68490000D01*
X204120000Y-60245000D02*
X206550000Y-60210000D01*
X206200000Y-68490000D02*
X205750000Y-69370000D01*
X205750000Y-69370000D02*
X205280000Y-70190000D01*
X206550000Y-60210000D02*
X206580000Y-65730000D01*
X191090000Y-52440000D02*
X191470000Y-50600000D01*
X192430000Y-60490000D02*
X191340000Y-57540000D01*
X196500000Y-65325000D02*
X195190000Y-64790000D01*
X195190000Y-64790000D02*
X194030000Y-63060000D01*
X191340000Y-57540000D02*
X191210000Y-54900000D01*
X191090000Y-53850000D02*
X191090000Y-52440000D01*
X192360000Y-41090000D02*
X192270000Y-40010000D01*
X191210000Y-54900000D02*
X191090000Y-53850000D01*
X194030000Y-63060000D02*
X192430000Y-60490000D01*
X191470000Y-50600000D02*
X191850000Y-46230000D01*
X191850000Y-46230000D02*
X192360000Y-41090000D01*
X241590000Y-32280000D02*
X243440000Y-32250000D01*
X241580000Y-33340000D02*
X241590000Y-32280000D01*
X241670000Y-59090000D02*
X240600000Y-60080000D01*
X241580000Y-33340000D02*
X241670000Y-59090000D01*
X240600000Y-60080000D02*
X239170000Y-60365000D01*
X246420000Y-47760000D02*
X246110000Y-49160000D01*
X246610000Y-35820000D02*
X246550000Y-46730000D01*
X246610000Y-35820000D02*
X246640000Y-34870000D01*
X196540000Y-49570000D02*
X196500000Y-52625000D01*
X246550000Y-46730000D02*
X246420000Y-47760000D01*
X246640000Y-34870000D02*
X243440000Y-34790000D01*
X237250000Y-43530000D02*
X237830000Y-40260000D01*
X233940000Y-63630000D02*
X234280000Y-62160000D01*
X232690000Y-65320000D02*
X233360000Y-64760000D01*
X234280000Y-62160000D02*
X234330000Y-54250000D01*
X235720000Y-48200000D02*
X236890000Y-45410000D01*
X234370000Y-52680000D02*
X234820000Y-50530000D01*
X234330000Y-54250000D02*
X234370000Y-52680000D01*
X237830000Y-40260000D02*
X238020000Y-30660000D01*
X236890000Y-45410000D02*
X237250000Y-43530000D01*
X234820000Y-50530000D02*
X235720000Y-48200000D01*
X231550000Y-65445000D02*
X232690000Y-65320000D01*
X233360000Y-64760000D02*
X233940000Y-63630000D01*
X247640000Y-46720000D02*
X247650000Y-28270000D01*
X241580000Y-62900000D02*
X241740000Y-62110000D01*
X245250000Y-53980000D02*
X246500000Y-51790000D01*
X242750000Y-59890000D02*
X242850000Y-59250000D01*
X246500000Y-51790000D02*
X246970000Y-50770000D01*
X241740000Y-62110000D02*
X242310000Y-60680000D01*
X247650000Y-28270000D02*
X247640000Y-27200000D01*
X246970000Y-50770000D02*
X247440000Y-49460000D01*
X247440000Y-49460000D02*
X247640000Y-46720000D01*
X243510000Y-56860000D02*
X245250000Y-53980000D01*
X247640000Y-27200000D02*
X243440000Y-27170000D01*
X243010000Y-57890000D02*
X243510000Y-56860000D01*
X242850000Y-59250000D02*
X243010000Y-57890000D01*
X239170000Y-67985000D02*
X241550000Y-67970000D01*
X241550000Y-67970000D02*
X241580000Y-63660000D01*
X241580000Y-63660000D02*
X241580000Y-62900000D01*
X242310000Y-60680000D02*
X242750000Y-59890000D01*
X194230000Y-52380000D02*
X193850000Y-50990000D01*
X192970000Y-55660000D02*
X193880000Y-54340000D01*
X194160000Y-53880000D02*
X194270000Y-53460000D01*
X194270000Y-53460000D02*
X194230000Y-52380000D01*
X195350000Y-62610000D02*
X194410000Y-61810000D01*
X196500000Y-62785000D02*
X195350000Y-62610000D01*
X194410000Y-61810000D02*
X193570000Y-60690000D01*
X193600000Y-50370000D02*
X193520000Y-49210000D01*
X193880000Y-54340000D02*
X194160000Y-53880000D01*
X192450000Y-56890000D02*
X192970000Y-55660000D01*
X193850000Y-50990000D02*
X193600000Y-50370000D01*
X194200000Y-29290000D02*
X196290000Y-29345000D01*
X193740000Y-44390000D02*
X194200000Y-29290000D01*
X192450000Y-57830000D02*
X192450000Y-56890000D01*
X192660000Y-58770000D02*
X192450000Y-57830000D01*
X193520000Y-49210000D02*
X193740000Y-44390000D01*
X193570000Y-60690000D02*
X192660000Y-58770000D01*
X186220000Y-58080000D02*
X190670000Y-60540000D01*
X157070000Y-56270000D02*
X159640000Y-55950000D01*
X176170000Y-56620000D02*
X178160000Y-57050000D01*
X173780000Y-56190000D02*
X176170000Y-56620000D01*
X167830000Y-55700000D02*
X170580000Y-55910000D01*
X184650000Y-57550000D02*
X185400000Y-57690000D01*
X159640000Y-55950000D02*
X163340000Y-55730000D01*
X179730000Y-57330000D02*
X181580000Y-57440000D01*
X170580000Y-55910000D02*
X173780000Y-56190000D01*
X178160000Y-57050000D02*
X179730000Y-57330000D01*
X185400000Y-57690000D02*
X186220000Y-58080000D01*
X152750000Y-57140000D02*
X157070000Y-56270000D01*
X163340000Y-55730000D02*
X167830000Y-55700000D01*
X181580000Y-57440000D02*
X184650000Y-57550000D01*
X200420000Y-31910000D02*
X196290000Y-31885000D01*
X200720000Y-47190000D02*
X200570000Y-44940000D01*
X201470000Y-57430000D02*
X201520000Y-51080000D01*
X201050000Y-48680000D02*
X200720000Y-47190000D01*
X201410000Y-50210000D02*
X201050000Y-48680000D01*
X200570000Y-44940000D02*
X200390000Y-41660000D01*
X204120000Y-57705000D02*
X201470000Y-57430000D01*
X200390000Y-41660000D02*
X200420000Y-31910000D01*
X201520000Y-51080000D02*
X201410000Y-50210000D01*
X188350000Y-83680000D02*
X193150000Y-84470000D01*
X174520000Y-83150000D02*
X176590000Y-83460000D01*
X216030000Y-89460000D02*
X217130000Y-89060000D01*
X140400000Y-61690000D02*
X140600000Y-73380000D01*
X218130000Y-88510000D02*
X219230000Y-88150000D01*
X213800000Y-89640000D02*
X215050000Y-89610000D01*
X204120000Y-62785000D02*
X205520000Y-62780000D01*
X148800000Y-86550000D02*
X153140000Y-86360000D01*
X201960000Y-86100000D02*
X204070000Y-86100000D01*
X211820000Y-88880000D02*
X212890000Y-89460000D01*
X208130000Y-87600000D02*
X209580000Y-87860000D01*
X212890000Y-89460000D02*
X213800000Y-89640000D01*
X204070000Y-86100000D02*
X206140000Y-86590000D01*
X210370000Y-88080000D02*
X211820000Y-88880000D01*
X209580000Y-87860000D02*
X210370000Y-88080000D01*
X219230000Y-88150000D02*
X224050000Y-88210000D01*
X205540000Y-65330000D02*
X204120000Y-65325000D01*
X161820000Y-85030000D02*
X166000000Y-83620000D01*
X145870000Y-87250000D02*
X148800000Y-86550000D01*
X156540000Y-86320000D02*
X158650000Y-86000000D01*
X176590000Y-83460000D02*
X178970000Y-83460000D01*
X217130000Y-89060000D02*
X218130000Y-88510000D01*
X142750000Y-88780000D02*
X145870000Y-87250000D01*
X193150000Y-84470000D02*
X200150000Y-85880000D01*
X215050000Y-89610000D02*
X216030000Y-89460000D01*
X169520000Y-82880000D02*
X171780000Y-82640000D01*
X142395000Y-90380000D02*
X142750000Y-88780000D01*
X158650000Y-86000000D02*
X161820000Y-85030000D01*
X184170000Y-83370000D02*
X188350000Y-83680000D01*
X166000000Y-83620000D02*
X169520000Y-82880000D01*
X200150000Y-85880000D02*
X201960000Y-86100000D01*
X153140000Y-86360000D02*
X156540000Y-86320000D01*
X171780000Y-82640000D02*
X174520000Y-83150000D01*
X205520000Y-62780000D02*
X205540000Y-65330000D01*
X206140000Y-86590000D02*
X208130000Y-87600000D01*
X178970000Y-83460000D02*
X184170000Y-83370000D01*
X157020000Y-72870000D02*
X154140000Y-73860000D01*
X163380000Y-29010000D02*
X158350000Y-28960000D01*
X124080000Y-75380000D02*
X120830000Y-76210000D01*
X96720000Y-77550000D02*
X95760000Y-77830000D01*
X95760000Y-77830000D02*
X94120000Y-77940000D01*
X151180000Y-74840000D02*
X149270000Y-75250000D01*
X157690000Y-52180000D02*
X157290000Y-54050000D01*
X112170000Y-76610000D02*
X109180000Y-76630000D01*
X99510000Y-76440000D02*
X96720000Y-77550000D01*
X37570000Y-77510000D02*
X31080000Y-77190000D01*
X129240000Y-75520000D02*
X128130000Y-75450000D01*
X92590000Y-77940000D02*
X44860000Y-77640000D01*
X114600000Y-76630000D02*
X112170000Y-76610000D01*
X149270000Y-75250000D02*
X146570000Y-75590000D01*
X158000000Y-49700000D02*
X157940000Y-50860000D01*
X143170000Y-75690000D02*
X137900000Y-75660000D01*
X120830000Y-76210000D02*
X119910000Y-76340000D01*
X100460000Y-76150000D02*
X99510000Y-76440000D01*
X109180000Y-76630000D02*
X105650000Y-76570000D01*
X117840000Y-76540000D02*
X114600000Y-76630000D01*
X125020000Y-75170000D02*
X124080000Y-75380000D01*
X94120000Y-77940000D02*
X92590000Y-77940000D01*
X44860000Y-77640000D02*
X37570000Y-77510000D01*
X146570000Y-75590000D02*
X143170000Y-75690000D01*
X119910000Y-76340000D02*
X117840000Y-76540000D01*
X105650000Y-76570000D02*
X103390000Y-76350000D01*
X157940000Y-50860000D02*
X157690000Y-52180000D01*
X101550000Y-76190000D02*
X100460000Y-76150000D01*
X133810000Y-75590000D02*
X129240000Y-75520000D01*
X154140000Y-73860000D02*
X151180000Y-74840000D01*
X128130000Y-75450000D02*
X125020000Y-75170000D01*
X158350000Y-28960000D02*
X158000000Y-49700000D01*
X103390000Y-76350000D02*
X101550000Y-76190000D01*
X135800000Y-75590000D02*
X133810000Y-75590000D01*
X137900000Y-75660000D02*
X135800000Y-75590000D01*
D30*
X129060000Y-70930000D02*
X128990000Y-72100000D01*
D32*
X45340000Y-61250000D02*
X47660000Y-59590000D01*
D31*
X250540000Y-129760000D02*
X252100000Y-129640000D01*
D30*
X132430000Y-67190000D02*
X130830000Y-67330000D01*
D31*
X152750000Y-62220000D02*
X156230000Y-62120000D01*
X262750000Y-94420000D02*
X262370000Y-93360000D01*
D32*
X68030000Y-49700000D02*
X74010000Y-49510000D01*
X39190000Y-65690000D02*
X42060000Y-63490000D01*
D31*
X41270000Y-100340000D02*
X41305000Y-103250000D01*
X109590000Y-99702352D02*
X105180000Y-99804329D01*
X262370000Y-93360000D02*
X262520000Y-91400000D01*
X80550000Y-126010000D02*
X95460000Y-126160000D01*
X57810000Y-100260000D02*
X57600000Y-102740000D01*
X165090000Y-126110000D02*
X165040000Y-124540000D01*
D30*
X28550000Y-82100000D02*
X28590000Y-79040000D01*
D31*
X28580000Y-100320000D02*
X31260000Y-100340000D01*
X48340000Y-82520000D02*
X48310000Y-78959233D01*
X170960000Y-97960000D02*
X168500000Y-98450000D01*
X31260000Y-100340000D02*
X41270000Y-100340000D01*
X193610000Y-126240000D02*
X193530000Y-128790000D01*
D30*
X130830000Y-67330000D02*
X129980000Y-68310000D01*
X128990000Y-72100000D02*
X128990000Y-72960000D01*
X80750000Y-79140000D02*
X109140000Y-79540000D01*
D31*
X164770000Y-99270000D02*
X162510000Y-99230000D01*
X48440000Y-125914160D02*
X54780000Y-125930000D01*
X38780000Y-124380000D02*
X38770000Y-125890000D01*
X175590000Y-113480000D02*
X174290000Y-110790000D01*
D30*
X38860000Y-79080000D02*
X48310000Y-78959233D01*
D31*
X55020000Y-100250000D02*
X55060000Y-102740000D01*
D32*
X25830000Y-78940000D02*
X32880000Y-71800000D01*
D31*
X128910000Y-100090000D02*
X128450000Y-100078103D01*
D32*
X49390000Y-29360000D02*
X53140000Y-29410000D01*
D30*
X28590000Y-79040000D02*
X28940000Y-79041363D01*
D32*
X42060000Y-63490000D02*
X45340000Y-61250000D01*
D30*
X154810000Y-80000000D02*
X155310000Y-80420000D01*
D32*
X47640000Y-52160000D02*
X44730517Y-51188415D01*
D31*
X128340000Y-83300000D02*
X128370000Y-79716984D01*
X54780000Y-125930000D02*
X80550000Y-126010000D01*
X132090000Y-103310000D02*
X132090000Y-100548079D01*
X165090000Y-126110000D02*
X193050000Y-126230000D01*
X259780000Y-88550000D02*
X260640000Y-88760000D01*
X48420000Y-123200000D02*
X48440000Y-125914160D01*
D30*
X38860000Y-79080000D02*
X38710000Y-82100000D01*
D32*
X51090000Y-52010000D02*
X55300000Y-52010000D01*
D31*
X76990000Y-100326094D02*
X81150000Y-100360000D01*
D30*
X109140000Y-79540000D02*
X128370000Y-79716984D01*
D31*
X80550000Y-126010000D02*
X80545000Y-124430000D01*
X249470000Y-129630000D02*
X250540000Y-129760000D01*
X98750000Y-125470000D02*
X99680000Y-125470000D01*
D30*
X129980000Y-68310000D02*
X129060000Y-70930000D01*
D31*
X259780000Y-88550000D02*
X250530000Y-88450000D01*
D32*
X59090000Y-30170000D02*
X62050000Y-31190000D01*
D31*
X101870000Y-125870000D02*
X109000000Y-125870000D01*
X55020000Y-100250000D02*
X57810000Y-100260000D01*
X168500000Y-98450000D02*
X166700000Y-99110000D01*
X156230000Y-62120000D02*
X156370000Y-71330000D01*
D32*
X47660000Y-59590000D02*
X48780000Y-58470000D01*
D30*
X28940000Y-79041363D02*
X25830000Y-78940000D01*
D32*
X48780000Y-58470000D02*
X49860000Y-56650000D01*
D31*
X97570000Y-125720000D02*
X98750000Y-125470000D01*
X121950000Y-99910000D02*
X109590000Y-99702352D01*
X128430000Y-103710000D02*
X128450000Y-100078103D01*
X99680000Y-125470000D02*
X101340000Y-125720000D01*
X65200000Y-100230000D02*
X65220000Y-102740000D01*
X164440000Y-71050000D02*
X165650000Y-70290000D01*
X261990000Y-89640000D02*
X262550000Y-90330000D01*
D32*
X51090000Y-53140000D02*
X51090000Y-52010000D01*
D31*
X28605000Y-103250000D02*
X28580000Y-100320000D01*
D32*
X38780000Y-29460000D02*
X49390000Y-29360000D01*
X56100000Y-29670000D02*
X59090000Y-30170000D01*
D30*
X159400000Y-80670000D02*
X160770000Y-80550000D01*
D31*
X260640000Y-88760000D02*
X261520000Y-89160000D01*
D32*
X64820000Y-50150000D02*
X68030000Y-49700000D01*
D31*
X38770000Y-125890000D02*
X48440000Y-125914160D01*
D30*
X80750000Y-79140000D02*
X80735000Y-82580000D01*
D32*
X36330000Y-68060000D02*
X39190000Y-65690000D01*
D31*
X262750000Y-94420000D02*
X264520000Y-94530000D01*
X193530000Y-128790000D02*
X231640000Y-128909843D01*
D30*
X137390000Y-79800000D02*
X154040000Y-79950000D01*
D31*
X109000000Y-125870000D02*
X109040000Y-124280000D01*
D32*
X38780000Y-36980000D02*
X38780000Y-29460000D01*
D31*
X137190000Y-125880000D02*
X137195000Y-123940000D01*
D32*
X51090000Y-52010000D02*
X47640000Y-52160000D01*
D31*
X193050000Y-126230000D02*
X193015000Y-124750000D01*
D32*
X68850000Y-34100000D02*
X73560000Y-36190000D01*
X73560000Y-36190000D02*
X79380000Y-38570000D01*
D31*
X65200000Y-100230000D02*
X76990000Y-100326094D01*
X231650000Y-132590000D02*
X231640000Y-128909843D01*
D32*
X79380000Y-38570000D02*
X84090000Y-40200000D01*
D31*
X247900000Y-129270000D02*
X249470000Y-129630000D01*
D32*
X50680000Y-55150000D02*
X51090000Y-53140000D01*
X74010000Y-49510000D02*
X94080000Y-50150000D01*
D31*
X28640000Y-125905978D02*
X25690000Y-125880000D01*
X175610000Y-96240000D02*
X175560000Y-97920000D01*
D30*
X25790000Y-100080000D02*
X28580000Y-100320000D01*
D31*
X105180000Y-103130000D02*
X105180000Y-99804329D01*
X109000000Y-125870000D02*
X137190000Y-125880000D01*
D30*
X155310000Y-80420000D02*
X156210000Y-80720000D01*
D32*
X53140000Y-29410000D02*
X56100000Y-29670000D01*
D30*
X54510000Y-78880000D02*
X54950000Y-82200000D01*
X160770000Y-80550000D02*
X162785000Y-80197500D01*
D31*
X133700000Y-100780000D02*
X132090000Y-100548079D01*
X81150000Y-100360000D02*
X81180000Y-102650000D01*
D32*
X59870000Y-51440000D02*
X64820000Y-50150000D01*
D31*
X41270000Y-100340000D02*
X55020000Y-100250000D01*
X109450000Y-99700000D02*
X109430000Y-102260000D01*
D32*
X49860000Y-56650000D02*
X50680000Y-55150000D01*
X32880000Y-71800000D02*
X36330000Y-68060000D01*
D31*
X136960000Y-101610000D02*
X133700000Y-100780000D01*
D30*
X154040000Y-79950000D02*
X154810000Y-80000000D01*
D32*
X55300000Y-52010000D02*
X59870000Y-51440000D01*
X89140000Y-41660000D02*
X93330000Y-43570000D01*
D31*
X28640000Y-125905978D02*
X28620000Y-124380000D01*
D30*
X156210000Y-80720000D02*
X158150000Y-80670000D01*
D31*
X175560000Y-97920000D02*
X170960000Y-97960000D01*
X31260000Y-100340000D02*
X31145000Y-103250000D01*
D30*
X128370000Y-79716984D02*
X137390000Y-79800000D01*
D31*
X262550000Y-90330000D02*
X262520000Y-91400000D01*
X244410000Y-128950000D02*
X246400000Y-128990000D01*
X156370000Y-71330000D02*
X164440000Y-71050000D01*
X174290000Y-110790000D02*
X162615611Y-110660000D01*
D30*
X109140000Y-79540000D02*
X109195000Y-82580000D01*
D32*
X62050000Y-31190000D02*
X68850000Y-34100000D01*
D31*
X246400000Y-128990000D02*
X247900000Y-129270000D01*
X54780000Y-125930000D02*
X54830000Y-124490000D01*
X137070000Y-102980000D02*
X136960000Y-101610000D01*
X38770000Y-125890000D02*
X28640000Y-125905978D01*
X77060000Y-102460000D02*
X76990000Y-100326094D01*
D32*
X84090000Y-40200000D02*
X89140000Y-41660000D01*
D30*
X137390000Y-79800000D02*
X137315000Y-82760000D01*
D31*
X261520000Y-89160000D02*
X261990000Y-89640000D01*
X101340000Y-125720000D02*
X101870000Y-125870000D01*
D30*
X76510000Y-79097988D02*
X80750000Y-79140000D01*
D31*
X166700000Y-99110000D02*
X164770000Y-99270000D01*
X128450000Y-100078103D02*
X121950000Y-99910000D01*
X95460000Y-126160000D02*
X97570000Y-125720000D01*
X231640000Y-128909843D02*
X244410000Y-128950000D01*
D30*
X158150000Y-80670000D02*
X159400000Y-80670000D01*
X48310000Y-78959233D02*
X54510000Y-78880000D01*
X54510000Y-78880000D02*
X76510000Y-79097988D01*
D31*
X76490000Y-82710000D02*
X76510000Y-79097988D01*
X109590000Y-99702352D02*
X109450000Y-99700000D01*
X105180000Y-99804329D02*
X81150000Y-100360000D01*
D32*
X43000000Y-37140000D02*
X38780000Y-36980000D01*
D31*
X132090000Y-100548079D02*
X128910000Y-100090000D01*
X193050000Y-126230000D02*
X193610000Y-126240000D01*
D32*
X93330000Y-43570000D02*
X94980000Y-45920000D01*
D31*
X57810000Y-100260000D02*
X65200000Y-100230000D01*
D30*
X28940000Y-79041363D02*
X38860000Y-79080000D01*
D31*
X137190000Y-125880000D02*
X165090000Y-126110000D01*
X201260000Y-69750000D02*
X200880000Y-64690000D01*
X199550000Y-49900000D02*
X199420000Y-46950000D01*
X40640000Y-114350000D02*
X48030000Y-114670000D01*
X179810000Y-119990000D02*
X182580000Y-119990000D01*
X81040000Y-114470000D02*
X97850000Y-114430000D01*
X162960000Y-118100000D02*
X166160000Y-118330000D01*
X154920000Y-114800000D02*
X156080000Y-115260000D01*
X157160000Y-115870000D02*
X158770000Y-116950000D01*
X156080000Y-115260000D02*
X157160000Y-115870000D01*
X31550000Y-118430000D02*
X33560000Y-116100000D01*
X31160000Y-124380000D02*
X30970000Y-122070000D01*
X189630000Y-113570000D02*
X193295000Y-113570000D01*
X158770000Y-116950000D02*
X160230000Y-117600000D01*
X48030000Y-114670000D02*
X64200000Y-114460000D01*
X200880000Y-64690000D02*
X200460000Y-58610000D01*
X199050000Y-34430000D02*
X196290000Y-34425000D01*
X111800000Y-114310000D02*
X123280000Y-114230000D01*
X64200000Y-114460000D02*
X81040000Y-114470000D01*
X31030000Y-119800000D02*
X31550000Y-118430000D01*
X36810000Y-115060000D02*
X40640000Y-114350000D01*
X30970000Y-122070000D02*
X31030000Y-119800000D01*
X144990000Y-114330000D02*
X149160000Y-114330000D01*
X200460000Y-58610000D02*
X199780000Y-52720000D01*
X177390000Y-119530000D02*
X179810000Y-119990000D01*
X33560000Y-116100000D02*
X36810000Y-115060000D01*
X199780000Y-52720000D02*
X199550000Y-49900000D01*
X153810000Y-114560000D02*
X154920000Y-114800000D01*
X149160000Y-114330000D02*
X152370000Y-114530000D01*
X123280000Y-114230000D02*
X134280000Y-114330000D01*
X199220000Y-41460000D02*
X199050000Y-34430000D01*
X152370000Y-114530000D02*
X153810000Y-114560000D01*
X97850000Y-114430000D02*
X111800000Y-114310000D01*
X199420000Y-46950000D02*
X199220000Y-41460000D01*
X182580000Y-119990000D02*
X190320000Y-120000000D01*
X160230000Y-117600000D02*
X162960000Y-118100000D01*
X171690000Y-118640000D02*
X174890000Y-118950000D01*
X174890000Y-118950000D02*
X177390000Y-119530000D01*
X134280000Y-114330000D02*
X144990000Y-114330000D01*
X166160000Y-118330000D02*
X171690000Y-118640000D01*
D30*
X121190000Y-32380000D02*
X124960000Y-32410000D01*
X121020000Y-59640000D02*
X124810000Y-59570000D01*
X121020000Y-59640000D02*
X121190000Y-32380000D01*
X119740000Y-29820000D02*
X124960000Y-29870000D01*
X124810000Y-62110000D02*
X119830000Y-62070000D01*
X119830000Y-62070000D02*
X119740000Y-29820000D01*
D31*
X124960000Y-27330000D02*
X118390000Y-27250000D01*
X118390000Y-27250000D02*
X118300000Y-63650000D01*
D30*
X118300000Y-63650000D02*
X124810000Y-64650000D01*
X99120000Y-29960000D02*
X104370000Y-29885000D01*
X104020000Y-62050000D02*
X98840000Y-62090000D01*
X98840000Y-62090000D02*
X99120000Y-29960000D01*
X97600000Y-64530000D02*
X97690000Y-27310000D01*
X97690000Y-27310000D02*
X104370000Y-27345000D01*
X97600000Y-64530000D02*
X104020000Y-64590000D01*
X101520000Y-56950000D02*
X101590000Y-34990000D01*
X104020000Y-56970000D02*
X101520000Y-56950000D01*
X101590000Y-34990000D02*
X104370000Y-34965000D01*
X100170000Y-59430000D02*
X100620000Y-32380000D01*
X100170000Y-59430000D02*
X104020000Y-59510000D01*
X100620000Y-32380000D02*
X104370000Y-32425000D01*
D31*
X138420000Y-85240000D02*
X136910000Y-85240000D01*
D30*
X137680000Y-51020000D02*
X137310000Y-73020000D01*
X138490000Y-45440000D02*
X138050000Y-47380000D01*
D31*
X136910000Y-85240000D02*
X125790000Y-85160000D01*
X123080000Y-84580000D02*
X122430000Y-83770000D01*
X122430000Y-83770000D02*
X121895000Y-82580000D01*
X125790000Y-85160000D02*
X124440000Y-85080000D01*
D30*
X138050000Y-47380000D02*
X137680000Y-51020000D01*
D31*
X124440000Y-85080000D02*
X123740000Y-84970000D01*
X139855000Y-82760000D02*
X139770000Y-84190000D01*
D30*
X140090000Y-33660000D02*
X140280000Y-27430000D01*
D31*
X139770000Y-84190000D02*
X139270000Y-84730000D01*
D30*
X139620000Y-42050000D02*
X139240000Y-43930000D01*
D31*
X123740000Y-84970000D02*
X123080000Y-84580000D01*
X139270000Y-84730000D02*
X138420000Y-85240000D01*
D30*
X139620000Y-42050000D02*
X140090000Y-33660000D01*
X140280000Y-27430000D02*
X145110000Y-27380000D01*
X139240000Y-43930000D02*
X138490000Y-45440000D01*
D31*
X141710000Y-29960000D02*
X145110000Y-29920000D01*
X141340000Y-48150000D02*
X141710000Y-29960000D01*
X147840000Y-66190000D02*
X147700000Y-48240000D01*
X147700000Y-48240000D02*
X141340000Y-48150000D01*
X151180000Y-69760000D02*
X147840000Y-66190000D01*
X152750000Y-69840000D02*
X151180000Y-69760000D01*
X150280000Y-35230000D02*
X145110000Y-35000000D01*
X152750000Y-64760000D02*
X150240000Y-64740000D01*
X150240000Y-64740000D02*
X150280000Y-35230000D01*
X143050000Y-32500000D02*
X145110000Y-32460000D01*
X142700000Y-46720000D02*
X149080000Y-46830000D01*
X148960000Y-65390000D02*
X150950000Y-67380000D01*
X142700000Y-46720000D02*
X143050000Y-32500000D01*
X149080000Y-46830000D02*
X148960000Y-65390000D01*
X150950000Y-67380000D02*
X152750000Y-67300000D01*
D30*
X114880000Y-72930000D02*
X115020000Y-65520000D01*
X106640000Y-73830000D02*
X110050000Y-73100000D01*
X74810000Y-73540000D02*
X97050000Y-74120000D01*
X114270000Y-72960000D02*
X114880000Y-72930000D01*
X97050000Y-74120000D02*
X99810000Y-74260000D01*
X110050000Y-73100000D02*
X114270000Y-72960000D01*
X102790000Y-74190000D02*
X106640000Y-73830000D01*
X99810000Y-74260000D02*
X102790000Y-74190000D01*
D31*
X147980000Y-73570000D02*
X148050000Y-69470000D01*
D30*
X145130000Y-57140000D02*
X142480000Y-57120000D01*
X142480000Y-57120000D02*
X142080000Y-69550000D01*
X142080000Y-70470000D02*
X142210000Y-71190000D01*
X142210000Y-71190000D02*
X142670000Y-72100000D01*
X142080000Y-69550000D02*
X142080000Y-70470000D01*
X142670000Y-72100000D02*
X143200000Y-73020000D01*
X139200000Y-51880000D02*
X139010000Y-69220000D01*
X139010000Y-69220000D02*
X139270000Y-73090000D01*
X145130000Y-52060000D02*
X139200000Y-51880000D01*
D31*
X111800000Y-84970000D02*
X111735000Y-82580000D01*
X103170000Y-84220000D02*
X100500000Y-83230000D01*
X111800000Y-84970000D02*
X107910000Y-84900000D01*
X105610000Y-84680000D02*
X103170000Y-84220000D01*
X100500000Y-83230000D02*
X97760000Y-83230000D01*
X114275000Y-82580000D02*
X114290000Y-84970000D01*
X97760000Y-83230000D02*
X95975000Y-82580000D01*
X114290000Y-84970000D02*
X111800000Y-84970000D01*
X107910000Y-84900000D02*
X105610000Y-84680000D01*
X255110000Y-48180000D02*
X254780000Y-49830000D01*
X255420000Y-30870000D02*
X255140000Y-46460000D01*
X255420000Y-30870000D02*
X255450000Y-29750000D01*
X255450000Y-29750000D02*
X259150000Y-29710000D01*
X254200000Y-51320000D02*
X254900000Y-53920000D01*
X254780000Y-49830000D02*
X254200000Y-51320000D01*
X255140000Y-46460000D02*
X255110000Y-48180000D01*
X261820000Y-35920000D02*
X261790000Y-34820000D01*
X261660000Y-47730000D02*
X261390000Y-49510000D01*
X260620000Y-52220000D02*
X259980000Y-53920000D01*
X261790000Y-44900000D02*
X261660000Y-47730000D01*
X261790000Y-34820000D02*
X259150000Y-34790000D01*
X261790000Y-44900000D02*
X261820000Y-35920000D01*
X261390000Y-49510000D02*
X260620000Y-52220000D01*
X256460000Y-32230000D02*
X259150000Y-32250000D01*
X256470000Y-33410000D02*
X256320000Y-51380000D01*
X256470000Y-33410000D02*
X256460000Y-32230000D01*
X256320000Y-51380000D02*
X257440000Y-53920000D01*
X254010000Y-47050000D02*
X253750000Y-48140000D01*
X253750000Y-48140000D02*
X253370000Y-49490000D01*
X254180000Y-28290000D02*
X254090000Y-46050000D01*
X254180000Y-28290000D02*
X254230000Y-27250000D01*
X253370000Y-49490000D02*
X252800000Y-50490000D01*
X254230000Y-27250000D02*
X259150000Y-27170000D01*
X254090000Y-46050000D02*
X254010000Y-47050000D01*
X206120000Y-89570000D02*
X210490000Y-89510000D01*
X185970000Y-85830000D02*
X192170000Y-86680000D01*
X184140000Y-85410000D02*
X185970000Y-85830000D01*
X198160000Y-88010000D02*
X202320000Y-88930000D01*
X178150000Y-88620000D02*
X178220000Y-85900000D01*
X192170000Y-86680000D02*
X198160000Y-88010000D01*
X178220000Y-85900000D02*
X184140000Y-85410000D01*
X202320000Y-88930000D02*
X206120000Y-89570000D01*
X49170000Y-84410000D02*
X66030000Y-84450000D01*
X36330000Y-84370000D02*
X36170000Y-82100000D01*
X36330000Y-84370000D02*
X49170000Y-84410000D01*
X33610000Y-84370000D02*
X36330000Y-84370000D01*
X33630000Y-82100000D02*
X33610000Y-84370000D01*
X103820000Y-108080000D02*
X105880000Y-108040000D01*
X105880000Y-108040000D02*
X114610000Y-107970000D01*
X57600000Y-110360000D02*
X57630000Y-108060000D01*
X114610000Y-107970000D02*
X114510000Y-109880000D01*
X57630000Y-108060000D02*
X101910000Y-107880000D01*
X101910000Y-107880000D02*
X103820000Y-108080000D01*
X58020000Y-97520000D02*
X63460000Y-97520000D01*
X70630000Y-96600000D02*
X69120000Y-96710000D01*
X85850000Y-96860000D02*
X73160000Y-96520000D01*
X43950000Y-97300000D02*
X49350000Y-97560000D01*
X67470000Y-96940000D02*
X63460000Y-97520000D01*
X69120000Y-96710000D02*
X67470000Y-96940000D01*
X73160000Y-96520000D02*
X70630000Y-96600000D01*
X38890000Y-96830000D02*
X43950000Y-97300000D01*
X49350000Y-97560000D02*
X58020000Y-97520000D01*
X189320000Y-95610000D02*
X193220000Y-95480000D01*
X196980000Y-95680000D02*
X200550000Y-96140000D01*
X203610000Y-98290000D02*
X204110000Y-98380000D01*
X200550000Y-96140000D02*
X202400000Y-97530000D01*
X204110000Y-98380000D02*
X215080000Y-98300000D01*
X184230000Y-95680000D02*
X189320000Y-95610000D01*
X193220000Y-95480000D02*
X196980000Y-95680000D01*
X183230000Y-96240000D02*
X184230000Y-95680000D01*
X202400000Y-97530000D02*
X203610000Y-98290000D01*
X205940000Y-93450000D02*
X165400000Y-93050000D01*
X165400000Y-93050000D02*
X165450000Y-96240000D01*
X205975000Y-96185000D02*
X205940000Y-93450000D01*
X216500000Y-107080000D02*
X221350000Y-106940000D01*
X200910000Y-108160000D02*
X211530000Y-108310000D01*
X213580000Y-107980000D02*
X214860000Y-107490000D01*
X212470000Y-108250000D02*
X213580000Y-107980000D01*
X214860000Y-107490000D02*
X215860000Y-107110000D01*
X221350000Y-106940000D02*
X221190000Y-105890000D01*
X215860000Y-107110000D02*
X216500000Y-107080000D01*
X200915000Y-105950000D02*
X200910000Y-108160000D01*
X211530000Y-108310000D02*
X212470000Y-108250000D01*
X238930000Y-103720000D02*
X238970000Y-105890000D01*
X208600000Y-103530000D02*
X238930000Y-103720000D01*
X208535000Y-105950000D02*
X208600000Y-103530000D01*
D30*
X153633000Y-152810000D02*
X153680000Y-148580000D01*
X153680000Y-148580000D02*
X152790000Y-148050000D01*
X145670000Y-145000000D02*
X143750000Y-143580000D01*
X147710000Y-145710000D02*
X145670000Y-145000000D01*
X152790000Y-148050000D02*
X149930000Y-146660000D01*
X149930000Y-146660000D02*
X147710000Y-145710000D01*
D31*
X160860000Y-144090000D02*
X156270000Y-143680000D01*
X169420000Y-146070000D02*
X167530000Y-145180000D01*
X170050000Y-147210000D02*
X169420000Y-146070000D01*
X169440000Y-148510000D02*
X169730000Y-148270000D01*
X167530000Y-145180000D02*
X165020000Y-144620000D01*
X152290000Y-143440000D02*
X151300000Y-143510000D01*
X156270000Y-143680000D02*
X152290000Y-143440000D01*
X165020000Y-144620000D02*
X160860000Y-144090000D01*
X169730000Y-148270000D02*
X170050000Y-147210000D01*
X169508000Y-152810000D02*
X169440000Y-148510000D01*
X210560000Y-102160000D02*
X206990000Y-101640000D01*
X211720000Y-102330000D02*
X210560000Y-102160000D01*
X236420000Y-102470000D02*
X211720000Y-102330000D01*
X221060000Y-108540000D02*
X217110000Y-108540000D01*
X212620000Y-109470000D02*
X211300000Y-109750000D01*
X211300000Y-109750000D02*
X208380000Y-109750000D01*
X223770000Y-108510000D02*
X221060000Y-108540000D01*
X217110000Y-108540000D02*
X214930000Y-108830000D01*
X208380000Y-109750000D02*
X197330000Y-109790000D01*
X223730000Y-105890000D02*
X223770000Y-108510000D01*
X214930000Y-108830000D02*
X212620000Y-109470000D01*
X180670000Y-105860000D02*
X180660000Y-102400000D01*
X180660000Y-102400000D02*
X202580000Y-102220000D01*
X186340000Y-108850000D02*
X187220000Y-108360000D01*
X188260000Y-108190000D02*
X198430000Y-108340000D01*
X176300000Y-109210000D02*
X177910000Y-109540000D01*
X167990000Y-108340000D02*
X173350000Y-108300000D01*
X174120000Y-108340000D02*
X174830000Y-108610000D01*
X185280000Y-109400000D02*
X186340000Y-108850000D01*
X184050000Y-109740000D02*
X184670000Y-109670000D01*
X184670000Y-109670000D02*
X185280000Y-109400000D01*
X182370000Y-109740000D02*
X184050000Y-109740000D01*
X179790000Y-109640000D02*
X182370000Y-109740000D01*
X174830000Y-108610000D02*
X176300000Y-109210000D01*
X187220000Y-108360000D02*
X188260000Y-108190000D01*
X167970000Y-105860000D02*
X167990000Y-108340000D01*
X198430000Y-108340000D02*
X198375000Y-105950000D01*
X177910000Y-109540000D02*
X179790000Y-109640000D01*
X173350000Y-108300000D02*
X174120000Y-108340000D01*
X183210000Y-105860000D02*
X183110000Y-103450000D01*
X183110000Y-103450000D02*
X205930000Y-103580000D01*
X205930000Y-103580000D02*
X205995000Y-105950000D01*
X195835000Y-113570000D02*
X195940000Y-116180000D01*
X177310000Y-116010000D02*
X166490000Y-116010000D01*
X190530000Y-116240000D02*
X177310000Y-116010000D01*
X195940000Y-116180000D02*
X190530000Y-116240000D01*
X173080000Y-85210000D02*
X175900000Y-84740000D01*
X175900000Y-84740000D02*
X179260000Y-84570000D01*
X179260000Y-84570000D02*
X183650000Y-84570000D01*
X171190000Y-86200000D02*
X173080000Y-85210000D01*
X183650000Y-84570000D02*
X188250000Y-85000000D01*
X198710000Y-86890000D02*
X203320000Y-87670000D01*
X203320000Y-87670000D02*
X206500000Y-88230000D01*
X188250000Y-85000000D02*
X191090000Y-85560000D01*
X191090000Y-85560000D02*
X194410000Y-86120000D01*
X170630000Y-87100000D02*
X171190000Y-86200000D01*
X170530000Y-88620000D02*
X170630000Y-87100000D01*
X194410000Y-86120000D02*
X198710000Y-86890000D01*
X217820000Y-55100000D02*
X217630000Y-56320000D01*
X221670000Y-27430000D02*
X221690000Y-47020000D01*
X217630000Y-56320000D02*
X217480000Y-57800000D01*
X217930000Y-53700000D02*
X217820000Y-55100000D01*
X221690000Y-47020000D02*
X218080000Y-48840000D01*
X217480000Y-57800000D02*
X217250000Y-71020000D01*
X225590000Y-27420000D02*
X221670000Y-27430000D01*
X218080000Y-48840000D02*
X217930000Y-53700000D01*
D30*
X85600000Y-145190000D02*
X84060000Y-143950000D01*
X108890000Y-146150000D02*
X102430000Y-146250000D01*
X102430000Y-146250000D02*
X97050000Y-146150000D01*
X128260000Y-148300000D02*
X127560000Y-147620000D01*
X86840000Y-145960000D02*
X85600000Y-145190000D01*
X88530000Y-146230000D02*
X87340000Y-146150000D01*
X87340000Y-146150000D02*
X86840000Y-145960000D01*
X97050000Y-146150000D02*
X88530000Y-146230000D01*
X112380000Y-146200000D02*
X108890000Y-146150000D01*
X122560000Y-146670000D02*
X118270000Y-146340000D01*
X118270000Y-146340000D02*
X112380000Y-146200000D01*
X126240000Y-147050000D02*
X122560000Y-146670000D01*
X127560000Y-147620000D02*
X126240000Y-147050000D01*
X128233000Y-152810000D02*
X128260000Y-148300000D01*
D31*
X162390000Y-145850000D02*
X161200000Y-145780000D01*
X161200000Y-145780000D02*
X158180000Y-145360000D01*
X158180000Y-145360000D02*
X153020000Y-144550000D01*
X163160000Y-145820000D02*
X162390000Y-145850000D01*
X194900000Y-141800000D02*
X199300000Y-141110000D01*
X96830000Y-140690000D02*
X104690000Y-141090000D01*
X172590000Y-140350000D02*
X181150000Y-140650000D01*
X90990000Y-138470000D02*
X91530000Y-138980000D01*
X114710000Y-140970000D02*
X117780000Y-139890000D01*
X104690000Y-141090000D02*
X111970000Y-141090000D01*
X134750000Y-138130000D02*
X139410000Y-137870000D01*
X91530000Y-138980000D02*
X93240000Y-140120000D01*
X181150000Y-140650000D02*
X186240000Y-141180000D01*
X203670000Y-140750000D02*
X205490000Y-140750000D01*
X205490000Y-140750000D02*
X210290000Y-140950000D01*
X145720000Y-137220000D02*
X149600000Y-137270000D01*
X120510000Y-138750000D02*
X124040000Y-138530000D01*
X124040000Y-138530000D02*
X131270000Y-138350000D01*
X166980000Y-140020000D02*
X172590000Y-140350000D01*
X191830000Y-141800000D02*
X194900000Y-141800000D01*
X149600000Y-137270000D02*
X154740000Y-138290000D01*
X139410000Y-137870000D02*
X145720000Y-137220000D01*
X154740000Y-138290000D02*
X160200000Y-139510000D01*
X210290000Y-140950000D02*
X213520000Y-141090000D01*
X160200000Y-139510000D02*
X166980000Y-140020000D01*
X186240000Y-141180000D02*
X191830000Y-141800000D01*
X199300000Y-141110000D02*
X203670000Y-140750000D01*
X111970000Y-141090000D02*
X114710000Y-140970000D01*
X93240000Y-140120000D02*
X96830000Y-140690000D01*
X117780000Y-139890000D02*
X120510000Y-138750000D01*
X131270000Y-138350000D02*
X134750000Y-138130000D01*
X165550000Y-143490000D02*
X162020000Y-142910000D01*
X172800000Y-148830000D02*
X172990000Y-148390000D01*
X168060000Y-143920000D02*
X165550000Y-143490000D01*
X158330000Y-142520000D02*
X155090000Y-142080000D01*
X173260000Y-146720000D02*
X172410000Y-145680000D01*
X173480000Y-147500000D02*
X173260000Y-146720000D01*
X155090000Y-142080000D02*
X151560000Y-141790000D01*
X172683000Y-152810000D02*
X172800000Y-148830000D01*
X151560000Y-141790000D02*
X148660000Y-141550000D01*
X172410000Y-145680000D02*
X170840000Y-144670000D01*
X172990000Y-148390000D02*
X173330000Y-148000000D01*
X173330000Y-148000000D02*
X173480000Y-147500000D01*
X170840000Y-144670000D02*
X168060000Y-143920000D01*
X162020000Y-142910000D02*
X158330000Y-142520000D01*
X146710000Y-143220000D02*
X147790000Y-144190000D01*
X149410000Y-145220000D02*
X151750000Y-145850000D01*
X154030000Y-146330000D02*
X157190000Y-146900000D01*
X157190000Y-146900000D02*
X157960000Y-147040000D01*
X157960000Y-147040000D02*
X158390000Y-147270000D01*
X147790000Y-144190000D02*
X149410000Y-145220000D01*
X151750000Y-145850000D02*
X154030000Y-146330000D01*
X239440000Y-83730000D02*
X237050000Y-83580000D01*
X232430000Y-84260000D02*
X230880000Y-84450000D01*
X242200000Y-83230000D02*
X240570000Y-83580000D01*
X235160000Y-83800000D02*
X232430000Y-84260000D01*
X257320000Y-79510000D02*
X260120000Y-79880000D01*
X260120000Y-79880000D02*
X262260000Y-80510000D01*
X230880000Y-84450000D02*
X227740000Y-84370000D01*
X247800000Y-80770000D02*
X242200000Y-83230000D01*
X217330000Y-84410000D02*
X214010000Y-84380000D01*
X253100000Y-79460000D02*
X257320000Y-79510000D01*
X262260000Y-80510000D02*
X263720000Y-81540000D01*
X222900000Y-84180000D02*
X217330000Y-84410000D01*
X237050000Y-83580000D02*
X235160000Y-83800000D01*
X250410000Y-79830000D02*
X253100000Y-79460000D01*
X240570000Y-83580000D02*
X239440000Y-83730000D01*
X263720000Y-81540000D02*
X265060000Y-83780000D01*
X250410000Y-79830000D02*
X247800000Y-80770000D01*
X227740000Y-84370000D02*
X225320000Y-84180000D01*
X225320000Y-84180000D02*
X222900000Y-84180000D01*
X150450000Y-148720000D02*
X150080000Y-148280000D01*
X147220000Y-146710000D02*
X145880000Y-146220000D01*
X143010000Y-145320000D02*
X141260000Y-144160000D01*
X144120000Y-145620000D02*
X143010000Y-145320000D01*
X150458000Y-152810000D02*
X150450000Y-148720000D01*
X150080000Y-148280000D02*
X148790000Y-147520000D01*
X148790000Y-147520000D02*
X147220000Y-146710000D01*
X145880000Y-146220000D02*
X144120000Y-145620000D01*
X171360000Y-57170000D02*
X173250000Y-57170000D01*
X176470000Y-40810000D02*
X176720000Y-39570000D01*
X167990000Y-96240000D02*
X167000000Y-97760000D01*
X176720000Y-39570000D02*
X176850000Y-34109122D01*
X173490000Y-45080000D02*
X173730000Y-44200000D01*
X161080000Y-57220000D02*
X171360000Y-57170000D01*
X164390000Y-49750000D02*
X165730000Y-48570000D01*
X165420000Y-97860000D02*
X161750000Y-97690000D01*
X178660000Y-117040000D02*
X184470000Y-117120000D01*
X161760000Y-53930000D02*
X162310000Y-52910000D01*
X174990000Y-57530000D02*
X175630000Y-58090000D01*
X194260000Y-117510000D02*
X199640000Y-117470000D01*
X175430000Y-42060000D02*
X175990000Y-41370000D01*
X165250000Y-117140000D02*
X166390000Y-117360000D01*
X184470000Y-117120000D02*
X194260000Y-117510000D01*
X165730000Y-48570000D02*
X167580000Y-47750000D01*
X161750000Y-97690000D02*
X160700000Y-97880000D01*
X173250000Y-57170000D02*
X174330000Y-57280000D01*
X166390000Y-117360000D02*
X170370000Y-117200000D01*
X176850000Y-34109122D02*
X179090000Y-34045000D01*
X167580000Y-47750000D02*
X169680000Y-47380000D01*
X169680000Y-47380000D02*
X173290000Y-47380000D01*
X174330000Y-57280000D02*
X174990000Y-57530000D01*
X170370000Y-117200000D02*
X178660000Y-117040000D01*
X167000000Y-97760000D02*
X165420000Y-97860000D01*
X173290000Y-46490000D02*
X173490000Y-45080000D01*
X175630000Y-58090000D02*
X176070000Y-59980000D01*
X160680000Y-115780000D02*
X162270000Y-116250000D01*
X163390000Y-51120000D02*
X164390000Y-49750000D01*
X199640000Y-117470000D02*
X201090000Y-117440000D01*
X175990000Y-41370000D02*
X176470000Y-40810000D01*
X162310000Y-52910000D02*
X163390000Y-51120000D01*
X162270000Y-116250000D02*
X165250000Y-117140000D01*
X174500000Y-43270000D02*
X175430000Y-42060000D01*
X173730000Y-44200000D02*
X174500000Y-43270000D01*
X173290000Y-47380000D02*
X173290000Y-46490000D01*
X186520000Y-97620000D02*
X187130000Y-97440000D01*
X179090000Y-26425000D02*
X183950000Y-26400000D01*
X203680000Y-99540000D02*
X204350000Y-99600000D01*
X199080000Y-97220000D02*
X199690000Y-97350000D01*
X202920000Y-99270000D02*
X203410000Y-99480000D01*
X199690000Y-97350000D02*
X200820000Y-97920000D01*
X196550000Y-97130000D02*
X198070000Y-97160000D01*
X201980000Y-98660000D02*
X202920000Y-99270000D01*
X183950000Y-26400000D02*
X183710000Y-50310000D01*
X208770000Y-99970000D02*
X209670000Y-100190000D01*
X180690000Y-96240000D02*
X180670000Y-97990000D01*
X198070000Y-97160000D02*
X199080000Y-97220000D01*
X187950000Y-97410000D02*
X188960000Y-97440000D01*
X200820000Y-97920000D02*
X201980000Y-98660000D01*
X183710000Y-50310000D02*
X183690000Y-52360000D01*
X185300000Y-98140000D02*
X185610000Y-98080000D01*
X206980000Y-99660000D02*
X207680000Y-99690000D01*
X180670000Y-97990000D02*
X184840000Y-98140000D01*
X188960000Y-97440000D02*
X196550000Y-97130000D01*
X207680000Y-99690000D02*
X208020000Y-99740000D01*
X184840000Y-98140000D02*
X185300000Y-98140000D01*
X185610000Y-98080000D02*
X185970000Y-97890000D01*
X210710000Y-100500000D02*
X211350000Y-100840000D01*
X187130000Y-97440000D02*
X187950000Y-97410000D01*
X185970000Y-97890000D02*
X186520000Y-97620000D01*
X204350000Y-99600000D02*
X206980000Y-99660000D01*
X209670000Y-100190000D02*
X210710000Y-100500000D01*
X208020000Y-99740000D02*
X208770000Y-99970000D01*
X203410000Y-99480000D02*
X203680000Y-99540000D01*
X190900000Y-35710000D02*
X191090000Y-29890000D01*
X184190000Y-118580000D02*
X182520000Y-118580000D01*
X189940000Y-50210000D02*
X190500000Y-45970000D01*
X190780000Y-40180000D02*
X190900000Y-35710000D01*
X186430000Y-56600000D02*
X187900000Y-57040000D01*
X182520000Y-118580000D02*
X181780000Y-118510000D01*
X201130000Y-118940000D02*
X192940000Y-118760000D01*
X181670000Y-56160000D02*
X184110000Y-56160000D01*
X190500000Y-45970000D02*
X190780000Y-40180000D01*
X184110000Y-56160000D02*
X186430000Y-56600000D01*
X192940000Y-118760000D02*
X188000000Y-118650000D01*
X204770000Y-118960000D02*
X201130000Y-118940000D01*
X188000000Y-118650000D02*
X184190000Y-118580000D01*
X187900000Y-57040000D02*
X189580000Y-56960000D01*
X208700000Y-118730000D02*
X204770000Y-118960000D01*
X189580000Y-56960000D02*
X189940000Y-50210000D01*
X182940000Y-100610000D02*
X185350000Y-100730000D01*
X179220000Y-49220000D02*
X179930000Y-47790000D01*
X170220000Y-100570000D02*
X180660000Y-100480000D01*
X182960000Y-54760000D02*
X178850000Y-54760000D01*
X187750000Y-100940000D02*
X189420000Y-101020000D01*
X203130000Y-100640000D02*
X203920000Y-100620000D01*
X181050000Y-45330000D02*
X181330000Y-43590000D01*
X187440000Y-55050000D02*
X182960000Y-54760000D01*
X202020000Y-100740000D02*
X203130000Y-100640000D01*
X181270000Y-31520000D02*
X179090000Y-31505000D01*
X179930000Y-47790000D02*
X180490000Y-46610000D01*
X180490000Y-46610000D02*
X181050000Y-45330000D01*
X192610000Y-100940000D02*
X195660000Y-100920000D01*
X185350000Y-100730000D02*
X187130000Y-100790000D01*
X195660000Y-100920000D02*
X199350000Y-100960000D01*
X181270000Y-41350000D02*
X181270000Y-31520000D01*
X199350000Y-100960000D02*
X200790000Y-100920000D01*
X187130000Y-100790000D02*
X187750000Y-100940000D01*
X203920000Y-100620000D02*
X204360000Y-100660000D01*
X200790000Y-100920000D02*
X202020000Y-100740000D01*
X181330000Y-43590000D02*
X181270000Y-41350000D01*
X180660000Y-100480000D02*
X182940000Y-100610000D01*
X178890000Y-50530000D02*
X179220000Y-49220000D01*
X204360000Y-100660000D02*
X204990000Y-100900000D01*
X178850000Y-54760000D02*
X178610000Y-52360000D01*
X189420000Y-101020000D02*
X192610000Y-100940000D01*
X178610000Y-52360000D02*
X178890000Y-50530000D01*
X91770000Y-72310000D02*
X98800000Y-72510000D01*
X72740000Y-72210000D02*
X91770000Y-72310000D01*
X52920000Y-88030000D02*
X54950000Y-89820000D01*
X37520000Y-86940000D02*
X42690000Y-86980000D01*
X46690000Y-86940000D02*
X52920000Y-88030000D01*
X42690000Y-86980000D02*
X46690000Y-86940000D01*
X236460000Y-63180000D02*
X239170000Y-62905000D01*
X236400000Y-64230000D02*
X236460000Y-63180000D01*
X254410000Y-77740000D02*
X254740000Y-76630000D01*
X241710000Y-79330000D02*
X239990000Y-79430000D01*
X253390000Y-78380000D02*
X254410000Y-77740000D01*
X239990000Y-79430000D02*
X236690000Y-79430000D01*
X249080000Y-78550000D02*
X247900000Y-79130000D01*
X244680000Y-79430000D02*
X241710000Y-79330000D01*
X247900000Y-79130000D02*
X246760000Y-79390000D01*
X250350000Y-78350000D02*
X249080000Y-78550000D01*
X236320000Y-71830000D02*
X236400000Y-64230000D01*
X250350000Y-78350000D02*
X253390000Y-78380000D01*
X246760000Y-79390000D02*
X244680000Y-79430000D01*
X251110000Y-58070000D02*
X254810000Y-58080000D01*
X247270000Y-58360000D02*
X245980000Y-58650000D01*
X254810000Y-58080000D02*
X254900000Y-61540000D01*
X251110000Y-58070000D02*
X248930000Y-58160000D01*
X248930000Y-58160000D02*
X247270000Y-58360000D01*
X168450000Y-59980000D02*
X168510000Y-63610000D01*
X189280000Y-64000000D02*
X192490000Y-65070000D01*
X168510000Y-63610000D02*
X186460000Y-63530000D01*
X187530000Y-63610000D02*
X189280000Y-64000000D01*
X186460000Y-63530000D02*
X187530000Y-63610000D01*
X250530000Y-103880000D02*
X246570000Y-104000000D01*
X236650000Y-100950000D02*
X234510000Y-100770000D01*
X241760000Y-103880000D02*
X240790000Y-103440000D01*
X250530000Y-103880000D02*
X254730000Y-103800000D01*
X242760000Y-104030000D02*
X241760000Y-103880000D01*
X239700000Y-102650000D02*
X238380000Y-101590000D01*
X234510000Y-100770000D02*
X230320000Y-100920000D01*
X228590000Y-71170000D02*
X228590000Y-69270000D01*
X246570000Y-104000000D02*
X242760000Y-104030000D01*
X237680000Y-101240000D02*
X236650000Y-100950000D01*
X240790000Y-103440000D02*
X239700000Y-102650000D01*
X228700000Y-68040000D02*
X231550000Y-67985000D01*
X254730000Y-103800000D02*
X254630000Y-106910000D01*
X228590000Y-69270000D02*
X228700000Y-68040000D01*
X238380000Y-101590000D02*
X237680000Y-101240000D01*
X67650000Y-89820000D02*
X67730000Y-87390000D01*
X98230000Y-87680000D02*
X96610000Y-87390000D01*
X109140000Y-89020000D02*
X106260000Y-88970000D01*
X102030000Y-88470000D02*
X99960000Y-88030000D01*
X104460000Y-88820000D02*
X102030000Y-88470000D01*
X67730000Y-87390000D02*
X77680000Y-87230000D01*
X90870000Y-87180000D02*
X90895000Y-90200000D01*
X93370000Y-87140000D02*
X90870000Y-87180000D01*
X99960000Y-88030000D02*
X98230000Y-87680000D01*
X109195000Y-90200000D02*
X109140000Y-89020000D01*
X106260000Y-88970000D02*
X104460000Y-88820000D01*
X96610000Y-87390000D02*
X93370000Y-87140000D01*
X246360000Y-89030000D02*
X250040000Y-91210000D01*
X238530000Y-90050000D02*
X236220000Y-90420000D01*
X244540000Y-88440000D02*
X243770000Y-88630000D01*
X231450000Y-90820000D02*
X229760000Y-91000000D01*
X224810000Y-90950000D02*
X219780000Y-90950000D01*
X242510000Y-88970000D02*
X240900000Y-89490000D01*
X236220000Y-90420000D02*
X234100000Y-90570000D01*
X245370000Y-88630000D02*
X244540000Y-88440000D01*
X246360000Y-89030000D02*
X245370000Y-88630000D01*
X243770000Y-88630000D02*
X242510000Y-88970000D01*
X219780000Y-90950000D02*
X203810000Y-90780000D01*
X229760000Y-91000000D02*
X224810000Y-90950000D01*
X234100000Y-90570000D02*
X231450000Y-90820000D01*
X240900000Y-89490000D02*
X238530000Y-90050000D01*
X250040000Y-91210000D02*
X252360000Y-91400000D01*
X137290000Y-78100000D02*
X136160000Y-78060000D01*
X170990000Y-59980000D02*
X171000000Y-62570000D01*
X115350000Y-77980000D02*
X100980000Y-77710000D01*
X246640000Y-56930000D02*
X245380000Y-56750000D01*
X168140000Y-75800000D02*
X166290000Y-75320000D01*
X250740000Y-56870000D02*
X249250000Y-56930000D01*
X150770000Y-78650000D02*
X137290000Y-78100000D01*
X136160000Y-78060000D02*
X115350000Y-77980000D01*
X164250000Y-75090000D02*
X162830000Y-75090000D01*
X157790000Y-76560000D02*
X155510000Y-77600000D01*
X159550000Y-75940000D02*
X157790000Y-76560000D01*
X155510000Y-77600000D02*
X153710000Y-78270000D01*
X250740000Y-56870000D02*
X257490000Y-57010000D01*
X153710000Y-78270000D02*
X152140000Y-78650000D01*
X257490000Y-57010000D02*
X257440000Y-61540000D01*
X168190000Y-77910000D02*
X168140000Y-75800000D01*
X152140000Y-78650000D02*
X150770000Y-78650000D01*
X166290000Y-75320000D02*
X164250000Y-75090000D01*
X161310000Y-75320000D02*
X159550000Y-75940000D01*
X162830000Y-75090000D02*
X161310000Y-75320000D01*
X171000000Y-62570000D02*
X192200000Y-62250000D01*
X249250000Y-56930000D02*
X246640000Y-56930000D01*
X120930000Y-86910000D02*
X117920000Y-86690000D01*
X67850000Y-83790000D02*
X67680000Y-83330000D01*
X113850000Y-86510000D02*
X109330000Y-86240000D01*
X117920000Y-86690000D02*
X113850000Y-86510000D01*
X67680000Y-83330000D02*
X67650000Y-82200000D01*
X98390000Y-85000000D02*
X96050000Y-84830000D01*
X104370000Y-85930000D02*
X100960000Y-85450000D01*
X100960000Y-85450000D02*
X98390000Y-85000000D01*
X73110000Y-84780000D02*
X69640000Y-84780000D01*
X79950000Y-84810000D02*
X73110000Y-84780000D01*
X109330000Y-86240000D02*
X104370000Y-85930000D01*
X96050000Y-84830000D02*
X91750000Y-84690000D01*
X69640000Y-84780000D02*
X68230000Y-84230000D01*
X68230000Y-84230000D02*
X67850000Y-83790000D01*
X91750000Y-84690000D02*
X79950000Y-84810000D01*
X226260000Y-87130000D02*
X224620000Y-87020000D01*
X239360000Y-84990000D02*
X237120000Y-85280000D01*
X224620000Y-87020000D02*
X223160000Y-86880000D01*
X230390000Y-86450000D02*
X228320000Y-87060000D01*
X237120000Y-85280000D02*
X234840000Y-85670000D01*
X210610000Y-85920000D02*
X209970000Y-85720000D01*
X241140000Y-84600000D02*
X239360000Y-84990000D01*
X213620000Y-86800000D02*
X212950000Y-86690000D01*
X211630000Y-86400000D02*
X210610000Y-85920000D01*
X244180000Y-83790000D02*
X242810000Y-84190000D01*
X249920000Y-81620000D02*
X252810000Y-80830000D01*
X223160000Y-86880000D02*
X213620000Y-86800000D01*
X252810000Y-80830000D02*
X253730000Y-80800000D01*
X256610000Y-82250000D02*
X257440000Y-83780000D01*
X209970000Y-85720000D02*
X208990000Y-85540000D01*
X249920000Y-81620000D02*
X244180000Y-83790000D01*
X212950000Y-86690000D02*
X211630000Y-86400000D01*
X255470000Y-81430000D02*
X256610000Y-82250000D01*
X234840000Y-85670000D02*
X232530000Y-86060000D01*
X228320000Y-87060000D02*
X226260000Y-87130000D01*
X253730000Y-80800000D02*
X255470000Y-81430000D01*
X242810000Y-84190000D02*
X241140000Y-84600000D01*
X232530000Y-86060000D02*
X230390000Y-86450000D01*
X117970000Y-106660000D02*
X110200000Y-106660000D01*
X105680000Y-105070000D02*
X101660000Y-105030000D01*
X101660000Y-105030000D02*
X79230000Y-105290000D01*
X122130000Y-109880000D02*
X121990000Y-108900000D01*
X121990000Y-108900000D02*
X120560000Y-107350000D01*
X107300000Y-105570000D02*
X105680000Y-105070000D01*
X110200000Y-106660000D02*
X107300000Y-105570000D01*
X79230000Y-105290000D02*
X76170000Y-105160000D01*
X76170000Y-105160000D02*
X73740000Y-104820000D01*
X120560000Y-107350000D02*
X117970000Y-106660000D01*
X73740000Y-104820000D02*
X72520000Y-104480000D01*
X103830000Y-136170000D02*
X100520000Y-136090000D01*
X88010000Y-135130000D02*
X85220000Y-135370000D01*
X90480000Y-135090000D02*
X88010000Y-135130000D01*
X79000000Y-135490000D02*
X71080000Y-135400000D01*
X85220000Y-135370000D02*
X82310000Y-135410000D01*
X82310000Y-135410000D02*
X79000000Y-135490000D01*
X63700000Y-135630000D02*
X61610000Y-135920000D01*
X105550000Y-135960000D02*
X103830000Y-136170000D01*
X100520000Y-136090000D02*
X97210000Y-135690000D01*
X97210000Y-135690000D02*
X93590000Y-135290000D01*
X66330000Y-135260000D02*
X65070000Y-135430000D01*
X93590000Y-135290000D02*
X90480000Y-135090000D01*
X61610000Y-135920000D02*
X59100000Y-135890000D01*
X59100000Y-135890000D02*
X46770000Y-135960000D01*
X65070000Y-135430000D02*
X63700000Y-135630000D01*
X71080000Y-135400000D02*
X66330000Y-135260000D01*
X88160000Y-137420000D02*
X90210000Y-137420000D01*
X44590000Y-138560000D02*
X46440000Y-138650000D01*
X80790000Y-138790000D02*
X84880000Y-138100000D01*
X96280000Y-138600000D02*
X99380000Y-139160000D01*
X99380000Y-139160000D02*
X102730000Y-139530000D01*
X41530000Y-137230000D02*
X43080000Y-137920000D01*
X90210000Y-137420000D02*
X93000000Y-137800000D01*
X84880000Y-138100000D02*
X88160000Y-137420000D01*
X46440000Y-138650000D02*
X75460000Y-138970000D01*
X102730000Y-139530000D02*
X112050000Y-139520000D01*
X75460000Y-138970000D02*
X77630000Y-139100000D01*
X93000000Y-137800000D02*
X96280000Y-138600000D01*
X43080000Y-137920000D02*
X44590000Y-138560000D01*
X77630000Y-139100000D02*
X80790000Y-138790000D01*
X247570000Y-87120000D02*
X260980000Y-87290000D01*
X235380000Y-89400000D02*
X231190000Y-89770000D01*
X264440000Y-87830000D02*
X266890000Y-88630000D01*
X247570000Y-87120000D02*
X243880000Y-87740000D01*
X225950000Y-89710000D02*
X219030000Y-89560000D01*
X239810000Y-88660000D02*
X235380000Y-89400000D01*
X268810000Y-89580000D02*
X269960000Y-90380000D01*
X269960000Y-90380000D02*
X270140000Y-91400000D01*
X243880000Y-87740000D02*
X239810000Y-88660000D01*
X266890000Y-88630000D02*
X268810000Y-89580000D01*
X262980000Y-87480000D02*
X264440000Y-87830000D01*
X260980000Y-87290000D02*
X262980000Y-87480000D01*
X231190000Y-89770000D02*
X225950000Y-89710000D01*
X242060000Y-135180000D02*
X243130000Y-134710000D01*
X153890000Y-100650000D02*
X154700000Y-100440000D01*
X156600000Y-100460000D02*
X157140000Y-100730000D01*
X156220000Y-100350000D02*
X156600000Y-100460000D01*
X152310000Y-102980000D02*
X152580000Y-101710000D01*
X180920000Y-67600000D02*
X170200000Y-67570000D01*
X248560000Y-116140000D02*
X249660000Y-116430000D01*
X152770000Y-101330000D02*
X153150000Y-101020000D01*
X161710000Y-50830000D02*
X161160000Y-48920000D01*
X167350000Y-67450000D02*
X164910000Y-67290000D01*
X161420000Y-135190000D02*
X242060000Y-135180000D01*
X157140000Y-100730000D02*
X157990000Y-101410000D01*
X180890000Y-70290000D02*
X180920000Y-67600000D01*
X160610000Y-44020000D02*
X160730000Y-33780000D01*
X170200000Y-67570000D02*
X167350000Y-67450000D01*
X158650000Y-101860000D02*
X159460000Y-102420000D01*
X152580000Y-101710000D02*
X152770000Y-101330000D01*
X155760000Y-100320000D02*
X156220000Y-100350000D01*
X154700000Y-100440000D02*
X155760000Y-100320000D01*
X249660000Y-116430000D02*
X267330000Y-116460000D01*
X160730000Y-33780000D02*
X163380000Y-34090000D01*
X153150000Y-101020000D02*
X153890000Y-100650000D01*
X160780000Y-47250000D02*
X160610000Y-44020000D01*
X164910000Y-67290000D02*
X162420000Y-67320000D01*
X162420000Y-67320000D02*
X159500000Y-67340000D01*
X267330000Y-116460000D02*
X267315000Y-114720000D01*
X157990000Y-101410000D02*
X158650000Y-101860000D01*
X161160000Y-48920000D02*
X160780000Y-47250000D01*
X164850000Y-136400000D02*
X166630000Y-136280000D01*
X158430000Y-135080000D02*
X160760000Y-136820000D01*
X244150000Y-136150000D02*
X244940000Y-135960000D01*
X166630000Y-136280000D02*
X168560000Y-136280000D01*
X159460000Y-31610000D02*
X159350000Y-52030000D01*
X160760000Y-136820000D02*
X161620000Y-137130000D01*
X163380000Y-31550000D02*
X159460000Y-31610000D01*
X164350000Y-78530000D02*
X165650000Y-77910000D01*
X158360000Y-78250000D02*
X164350000Y-78530000D01*
X162950000Y-136970000D02*
X164850000Y-136400000D01*
X168560000Y-136280000D02*
X244150000Y-136150000D01*
X161620000Y-137130000D02*
X162950000Y-136970000D01*
X117040000Y-29350000D02*
X117060000Y-28040000D01*
X116340000Y-73280000D02*
X117125636Y-33670000D01*
X117060000Y-28040000D02*
X116860000Y-26990000D01*
X117100000Y-30280000D02*
X117040000Y-29350000D01*
X116860000Y-26990000D02*
X116420000Y-26010000D01*
X117125636Y-33670000D02*
X117100000Y-30280000D01*
X119090000Y-137170000D02*
X117650000Y-137690000D01*
X105400000Y-138070000D02*
X100300000Y-137800000D01*
X77470000Y-137420000D02*
X66190000Y-137370000D01*
X92780000Y-136620000D02*
X89500000Y-136240000D01*
X96480000Y-137260000D02*
X92780000Y-136620000D01*
X84400000Y-136880000D02*
X81010000Y-137420000D01*
X112490000Y-138120000D02*
X105400000Y-138070000D01*
X117650000Y-137690000D02*
X112490000Y-138120000D01*
X87140000Y-136350000D02*
X84400000Y-136880000D01*
X89500000Y-136240000D02*
X87140000Y-136350000D01*
X81010000Y-137420000D02*
X77470000Y-137420000D01*
X100300000Y-137800000D02*
X96480000Y-137260000D01*
X31110000Y-135780000D02*
X35610000Y-135560000D01*
X53420000Y-137230000D02*
X57260000Y-137210000D01*
X42130000Y-135660000D02*
X43770000Y-136190000D01*
X46100000Y-137090000D02*
X48580000Y-137290000D01*
X43770000Y-136190000D02*
X46100000Y-137090000D01*
X35610000Y-135560000D02*
X39520000Y-135520000D01*
X48580000Y-137290000D02*
X53420000Y-137230000D01*
X39520000Y-135520000D02*
X42130000Y-135660000D01*
X159690000Y-99370000D02*
X161700000Y-100430000D01*
X105090000Y-98410000D02*
X121450000Y-98450000D01*
X172130000Y-99090000D02*
X177560000Y-99280000D01*
X169950000Y-99250000D02*
X171180000Y-99030000D01*
X177560000Y-99280000D02*
X181810000Y-99370000D01*
X153000000Y-97860000D02*
X155450000Y-97920000D01*
X70310000Y-97520000D02*
X76600000Y-97880000D01*
X193420000Y-99460000D02*
X200640000Y-99710000D01*
X171180000Y-99030000D02*
X172130000Y-99090000D01*
X89700000Y-98320000D02*
X105090000Y-98410000D01*
X135440000Y-98550000D02*
X143540000Y-98480000D01*
X155450000Y-97920000D02*
X157960000Y-98420000D01*
X161700000Y-100430000D02*
X163260000Y-100700000D01*
X143540000Y-98480000D02*
X148790000Y-98160000D01*
X181810000Y-99370000D02*
X187260000Y-99250000D01*
X83370000Y-98280000D02*
X89700000Y-98320000D01*
X157960000Y-98420000D02*
X159690000Y-99370000D01*
X165430000Y-100700000D02*
X166940000Y-100430000D01*
X166940000Y-100430000D02*
X168500000Y-99920000D01*
X187260000Y-99250000D02*
X193420000Y-99460000D01*
X121450000Y-98450000D02*
X135440000Y-98550000D01*
X150600000Y-97860000D02*
X153000000Y-97860000D01*
X163260000Y-100700000D02*
X165430000Y-100700000D01*
X168500000Y-99920000D02*
X169950000Y-99250000D01*
X148790000Y-98160000D02*
X150600000Y-97860000D01*
X76600000Y-97880000D02*
X83370000Y-98280000D01*
X119200000Y-124280000D02*
X119200000Y-120670000D01*
X114130000Y-120570000D02*
X109480000Y-120620000D01*
X119200000Y-120670000D02*
X119420000Y-120671057D01*
X144740000Y-120792752D02*
X152490000Y-120830000D01*
X144815000Y-123940000D02*
X144740000Y-120792752D01*
X107230000Y-120510000D02*
X104770000Y-120110000D01*
X152490000Y-120830000D02*
X152435000Y-123940000D01*
X124280000Y-124280000D02*
X124280000Y-120694416D01*
X109480000Y-120620000D02*
X107230000Y-120510000D01*
X114120000Y-124280000D02*
X114130000Y-120570000D01*
X124280000Y-120694416D02*
X144740000Y-120792752D01*
X114130000Y-120570000D02*
X119420000Y-120671057D01*
X119420000Y-120671057D02*
X124280000Y-120694416D01*
X142360000Y-86090000D02*
X141280000Y-86400000D01*
X121650000Y-85320000D02*
X120840000Y-84770000D01*
X141280000Y-86400000D02*
X139380000Y-86520000D01*
X122810000Y-85970000D02*
X122350000Y-85780000D01*
X142980000Y-85780000D02*
X142360000Y-86090000D01*
X120840000Y-84770000D02*
X119720000Y-83960000D01*
X139380000Y-86520000D02*
X124830000Y-86360000D01*
X147240000Y-84040000D02*
X143990000Y-85280000D01*
D30*
X124810000Y-67190000D02*
X122790000Y-67690000D01*
X121060000Y-70090000D02*
X119500000Y-72710000D01*
D31*
X119720000Y-83960000D02*
X119355000Y-82580000D01*
X147475000Y-82760000D02*
X147240000Y-84040000D01*
X124830000Y-86360000D02*
X124130000Y-86360000D01*
X143990000Y-85280000D02*
X142980000Y-85780000D01*
X122350000Y-85780000D02*
X121650000Y-85320000D01*
X123590000Y-86210000D02*
X122810000Y-85970000D01*
D30*
X122790000Y-67690000D02*
X121060000Y-70090000D01*
D31*
X124130000Y-86360000D02*
X123590000Y-86210000D01*
D30*
X107220000Y-66950000D02*
X106980000Y-64050000D01*
X106700000Y-61630000D02*
X106530000Y-58790000D01*
X106530000Y-58790000D02*
X106630000Y-57820000D01*
X106980000Y-64050000D02*
X106700000Y-61630000D01*
X111640000Y-67130000D02*
X107220000Y-66950000D01*
D31*
X269550000Y-109970000D02*
X269855000Y-114720000D01*
X239030000Y-110230000D02*
X233330000Y-110010000D01*
X248680000Y-109970000D02*
X269550000Y-109970000D01*
X229650000Y-109970000D02*
X227020000Y-109400000D01*
X233330000Y-110010000D02*
X229650000Y-109970000D01*
X248680000Y-109970000D02*
X245080000Y-110100000D01*
X245080000Y-110100000D02*
X239030000Y-110230000D01*
X227020000Y-109400000D02*
X225210000Y-108540000D01*
X225930000Y-71080000D02*
X225930000Y-66700000D01*
X183430000Y-70290000D02*
X183440000Y-71120000D01*
X189870000Y-71060000D02*
X190470000Y-71060000D01*
X183440000Y-71120000D02*
X189870000Y-71060000D01*
X216261379Y-49050000D02*
X215410000Y-48580000D01*
X154820000Y-105400000D02*
X134950000Y-105360000D01*
X216261379Y-49050000D02*
X216650000Y-50660000D01*
D33*
X136170000Y-70760000D02*
X136340000Y-49140000D01*
X136170000Y-70760000D02*
X136030000Y-71720000D01*
X136030000Y-71720000D02*
X135770000Y-73100000D01*
D31*
X154850000Y-102980000D02*
X154820000Y-105400000D01*
X216740000Y-55030000D02*
X213840000Y-54985000D01*
X216650000Y-50660000D02*
X216740000Y-55030000D01*
X225650000Y-54470000D02*
X226030000Y-52190000D01*
X225470000Y-57470000D02*
X225650000Y-54470000D01*
X226740000Y-49700000D02*
X227470000Y-48510000D01*
X228240000Y-47430000D02*
X228760000Y-46630000D01*
X229440000Y-43040000D02*
X229370000Y-32490000D01*
X227470000Y-48510000D02*
X228240000Y-47430000D01*
X229410000Y-44720000D02*
X229440000Y-43040000D01*
X221460000Y-57525000D02*
X225470000Y-57470000D01*
X226030000Y-52190000D02*
X226740000Y-49700000D01*
X229370000Y-32490000D02*
X225590000Y-32500000D01*
X228760000Y-46630000D02*
X229120000Y-45700000D01*
X229120000Y-45700000D02*
X229410000Y-44720000D01*
X221460000Y-60065000D02*
X219010000Y-60010000D01*
X223150000Y-29910000D02*
X225590000Y-29960000D01*
X219010000Y-60010000D02*
X219240000Y-50310000D01*
X222980000Y-48890000D02*
X223150000Y-29910000D01*
X219240000Y-50310000D02*
X222980000Y-48890000D01*
X125840000Y-143660000D02*
X121430000Y-143570000D01*
X129930000Y-144070000D02*
X125840000Y-143660000D01*
X93370000Y-143310000D02*
X92230000Y-143000000D01*
X135300000Y-144530000D02*
X129930000Y-144070000D01*
X96390000Y-143460000D02*
X94180000Y-143380000D01*
X94180000Y-143380000D02*
X93370000Y-143310000D01*
X143200000Y-146680000D02*
X140360000Y-145510000D01*
X114960000Y-143570000D02*
X105390000Y-143530000D01*
X146870000Y-148270000D02*
X143200000Y-146680000D01*
X105390000Y-143530000D02*
X96390000Y-143460000D01*
X121430000Y-143570000D02*
X114960000Y-143570000D01*
X140360000Y-145510000D02*
X138550000Y-145020000D01*
X92230000Y-143000000D02*
X90580000Y-142510000D01*
X147283000Y-152810000D02*
X147280000Y-148610000D01*
X138550000Y-145020000D02*
X135300000Y-144530000D01*
X90580000Y-142510000D02*
X89240000Y-142110000D01*
X147280000Y-148610000D02*
X146870000Y-148270000D01*
X205800000Y-121950000D02*
X238910000Y-121580000D01*
X245740000Y-122480000D02*
X246530000Y-122620000D01*
X244020000Y-121990000D02*
X245740000Y-122480000D01*
X241080000Y-121660000D02*
X244020000Y-121990000D01*
X247160000Y-94810000D02*
X257230000Y-94790000D01*
X238910000Y-121580000D02*
X241080000Y-121660000D01*
X257230000Y-94790000D02*
X257440000Y-91400000D01*
X205715000Y-124750000D02*
X205800000Y-121950000D01*
X258909624Y-125130000D02*
X268630000Y-125130000D01*
X268630000Y-127020000D02*
X269740000Y-126800000D01*
X269740000Y-126800000D02*
X271070000Y-125750000D01*
X264800000Y-129640000D02*
X264880000Y-126970000D01*
X264880000Y-126970000D02*
X268630000Y-127020000D01*
X200650000Y-120410000D02*
X245360000Y-120060000D01*
X245850000Y-92470000D02*
X250000000Y-93600000D01*
X254900000Y-93680000D02*
X254900000Y-91400000D01*
X200635000Y-124750000D02*
X200650000Y-120410000D01*
X250000000Y-93600000D02*
X254900000Y-93680000D01*
X73930000Y-95300000D02*
X81410000Y-95210000D01*
X71880000Y-95430000D02*
X73930000Y-95300000D01*
X70540000Y-95570000D02*
X71880000Y-95430000D01*
X81410000Y-95210000D02*
X133870000Y-95280000D01*
X140330000Y-95770000D02*
X141860000Y-95950000D01*
X133870000Y-95280000D02*
X137300000Y-95500000D01*
X68800000Y-95570000D02*
X61530000Y-95450000D01*
X68800000Y-95570000D02*
X70540000Y-95570000D01*
X137300000Y-95500000D02*
X140330000Y-95770000D01*
D32*
X36260000Y-145900000D02*
X36260000Y-144905958D01*
X60990000Y-145030000D02*
X61060000Y-145980000D01*
X60990000Y-145030000D02*
X49170000Y-144970713D01*
X23050000Y-147060000D02*
X36260000Y-147108778D01*
X36260000Y-145900000D02*
X36260000Y-147108778D01*
X49150000Y-145990000D02*
X49170000Y-144970713D01*
X23110000Y-144840000D02*
X23050000Y-147060000D01*
D34*
X23100000Y-73870000D02*
X25020000Y-72710000D01*
D32*
X26250000Y-74610000D02*
X23100000Y-73870000D01*
X61050000Y-152810000D02*
X60964351Y-147200000D01*
X49180000Y-147156486D02*
X60964351Y-147200000D01*
D34*
X48740000Y-38450000D02*
X49810000Y-36770000D01*
D32*
X49150000Y-145990000D02*
X49180000Y-147156486D01*
D35*
X49810000Y-36770000D02*
X46407836Y-33435733D01*
D32*
X36260000Y-147108778D02*
X49180000Y-147156486D01*
D35*
X39085085Y-52395085D02*
X41138415Y-54780517D01*
D32*
X49170000Y-144970713D02*
X36260000Y-144905958D01*
X36260000Y-144905958D02*
X23110000Y-144840000D01*
X61060000Y-145980000D02*
X60964351Y-147200000D01*
D34*
X39085085Y-52395085D02*
X48740000Y-38450000D01*
X25020000Y-72710000D02*
X39085085Y-52395085D01*
D31*
X62680000Y-102740000D02*
X62650000Y-106340000D01*
X62650000Y-106340000D02*
X105380000Y-106750000D01*
X236430000Y-113510000D02*
X236340000Y-118760000D01*
X236340000Y-118760000D02*
X215720000Y-118760000D01*
X221050000Y-116330000D02*
X219190000Y-115980000D01*
X211710000Y-117230000D02*
X203700000Y-117580000D01*
X219190000Y-115980000D02*
X217060000Y-115770000D01*
X217060000Y-115770000D02*
X215610000Y-115890000D01*
D30*
X198083000Y-152810000D02*
X198160000Y-148510000D01*
X198160000Y-148510000D02*
X199850000Y-147870000D01*
D31*
X223730000Y-116390000D02*
X221050000Y-116330000D01*
X212930000Y-116850000D02*
X211710000Y-117230000D01*
X223730000Y-113510000D02*
X223730000Y-116390000D01*
X215610000Y-115890000D02*
X214560000Y-116210000D01*
X214560000Y-116210000D02*
X212930000Y-116850000D01*
X228700000Y-143490000D02*
X232010000Y-143060000D01*
D30*
X206320000Y-145020000D02*
X208260000Y-145190000D01*
X197110000Y-145230000D02*
X198990000Y-144820000D01*
X203570000Y-144800000D02*
X206320000Y-145020000D01*
X210570000Y-145170000D02*
X212470000Y-145090000D01*
X198990000Y-144820000D02*
X201100000Y-144740000D01*
D31*
X236580000Y-143010000D02*
X240380000Y-143060000D01*
D30*
X216010000Y-144170000D02*
X217820000Y-143860000D01*
X192470000Y-147970000D02*
X193570000Y-147010000D01*
X193570000Y-147010000D02*
X195210000Y-145990000D01*
D31*
X223980000Y-143650000D02*
X225770000Y-143770000D01*
X261510000Y-143280000D02*
X262180000Y-143270000D01*
D30*
X217820000Y-143860000D02*
X220260000Y-143710000D01*
X220260000Y-143710000D02*
X223980000Y-143650000D01*
X201100000Y-144740000D02*
X203570000Y-144800000D01*
X208260000Y-145190000D02*
X210570000Y-145170000D01*
D31*
X240380000Y-143060000D02*
X246360000Y-143170000D01*
D30*
X212470000Y-145090000D02*
X215010000Y-144490000D01*
D31*
X225770000Y-143770000D02*
X228700000Y-143490000D01*
D30*
X215010000Y-144490000D02*
X216010000Y-144170000D01*
X192110000Y-148460000D02*
X192470000Y-147970000D01*
X195210000Y-145990000D02*
X197110000Y-145230000D01*
D31*
X232010000Y-143060000D02*
X236580000Y-143010000D01*
X246360000Y-143170000D02*
X261510000Y-143280000D01*
D30*
X191733000Y-152810000D02*
X192110000Y-148460000D01*
D31*
X213800000Y-117990000D02*
X212630000Y-118340000D01*
X215120000Y-117410000D02*
X213800000Y-117990000D01*
X217020000Y-117210000D02*
X215930000Y-117210000D01*
X218380000Y-117290000D02*
X217020000Y-117210000D01*
X215550000Y-117250000D02*
X215120000Y-117410000D01*
X212630000Y-118340000D02*
X212160000Y-118490000D01*
X219860000Y-117480000D02*
X218380000Y-117290000D01*
X222080000Y-117560000D02*
X219860000Y-117480000D01*
X234010000Y-117600000D02*
X224290000Y-117720000D01*
X233890000Y-113510000D02*
X234010000Y-117600000D01*
X215930000Y-117210000D02*
X215550000Y-117250000D01*
X212160000Y-118490000D02*
X211270000Y-118920000D01*
X224290000Y-117720000D02*
X222080000Y-117560000D01*
X215840000Y-113650000D02*
X217830000Y-113650000D01*
X213330000Y-115400000D02*
X214510000Y-114410000D01*
X197210000Y-116130000D02*
X211870000Y-116280000D01*
X214510000Y-114410000D02*
X215840000Y-113650000D01*
X212180000Y-116160000D02*
X213330000Y-115400000D01*
D30*
X201258000Y-152810000D02*
X201190000Y-148560000D01*
D31*
X211870000Y-116280000D02*
X212180000Y-116160000D01*
X217830000Y-113650000D02*
X218950000Y-113620000D01*
D30*
X201190000Y-148560000D02*
X202860000Y-147760000D01*
D31*
X236380000Y-144440000D02*
X241460000Y-144480000D01*
D30*
X201470000Y-145650000D02*
X204450000Y-145770000D01*
X194930000Y-148130000D02*
X195140000Y-147530000D01*
X217550000Y-144740000D02*
X219960000Y-144810000D01*
X204450000Y-145770000D02*
X207230000Y-146000000D01*
X196200000Y-146470000D02*
X197240000Y-146110000D01*
X199000000Y-145740000D02*
X201470000Y-145650000D01*
D31*
X247800000Y-144590000D02*
X256080000Y-144860000D01*
D30*
X228000000Y-144780000D02*
X234210000Y-144600000D01*
X216770000Y-144880000D02*
X217550000Y-144740000D01*
D31*
X234210000Y-144600000D02*
X236380000Y-144440000D01*
D30*
X195140000Y-147530000D02*
X195450000Y-147060000D01*
D31*
X241460000Y-144480000D02*
X247800000Y-144590000D01*
D30*
X197240000Y-146110000D02*
X199000000Y-145740000D01*
X210090000Y-146120000D02*
X213350000Y-145980000D01*
X223860000Y-144910000D02*
X228000000Y-144780000D01*
D31*
X266510000Y-144820000D02*
X267170000Y-144780000D01*
D30*
X207230000Y-146000000D02*
X210090000Y-146120000D01*
X219960000Y-144810000D02*
X223860000Y-144910000D01*
X194908000Y-152810000D02*
X194930000Y-148130000D01*
D31*
X261470000Y-144970000D02*
X266510000Y-144820000D01*
X256080000Y-144860000D02*
X261470000Y-144970000D01*
D30*
X213350000Y-145980000D02*
X215150000Y-145530000D01*
X195450000Y-147060000D02*
X196200000Y-146470000D01*
X215150000Y-145530000D02*
X216770000Y-144880000D01*
D31*
X139510000Y-140970000D02*
X143270000Y-140470000D01*
X176420000Y-143600000D02*
X182010000Y-144350000D01*
X225740000Y-145920000D02*
X227900000Y-145860000D01*
X197430000Y-147160000D02*
X199250000Y-146650000D01*
X172300000Y-143150000D02*
X176420000Y-143600000D01*
X204590000Y-146560000D02*
X206370000Y-146930000D01*
X159920000Y-141550000D02*
X165070000Y-142270000D01*
X146840000Y-139860000D02*
X149410000Y-139670000D01*
X232730000Y-145780000D02*
X236140000Y-145610000D01*
X149410000Y-139670000D02*
X150910000Y-139860000D01*
X214680000Y-146630000D02*
X216850000Y-145870000D01*
X213740000Y-146930000D02*
X214680000Y-146630000D01*
X182010000Y-144350000D02*
X185830000Y-144730000D01*
X153790000Y-140550000D02*
X155970000Y-140870000D01*
X122550000Y-141200000D02*
X127110000Y-141550000D01*
X206370000Y-146930000D02*
X208900000Y-147040000D01*
X201550000Y-146470000D02*
X204590000Y-146560000D01*
X155970000Y-140870000D02*
X159920000Y-141550000D01*
X121630000Y-141130000D02*
X122550000Y-141200000D01*
X130610000Y-141620000D02*
X134640000Y-141510000D01*
X127110000Y-141550000D02*
X130610000Y-141620000D01*
X199250000Y-146650000D02*
X201550000Y-146470000D01*
X165070000Y-142270000D02*
X170280000Y-142930000D01*
X216850000Y-145870000D02*
X218400000Y-145730000D01*
X212330000Y-147000000D02*
X213740000Y-146930000D01*
X190100000Y-144920000D02*
X191640000Y-144960000D01*
X143270000Y-140470000D02*
X146840000Y-139860000D01*
X185830000Y-144730000D02*
X190100000Y-144920000D01*
X196480000Y-147570000D02*
X197430000Y-147160000D01*
X134640000Y-141510000D02*
X139510000Y-140970000D01*
X208900000Y-147040000D02*
X212330000Y-147000000D01*
X150910000Y-139860000D02*
X153790000Y-140550000D01*
X170280000Y-142930000D02*
X172300000Y-143150000D01*
X221210000Y-145890000D02*
X225740000Y-145920000D01*
X218400000Y-145730000D02*
X221210000Y-145890000D01*
X227900000Y-145860000D02*
X232730000Y-145780000D01*
D30*
X197510000Y-144040000D02*
X199560000Y-143850000D01*
D31*
X256420000Y-141890000D02*
X257050000Y-141880000D01*
D30*
X188620000Y-148340000D02*
X189130000Y-148130000D01*
X188620000Y-148340000D02*
X188558000Y-152810000D01*
D31*
X231570000Y-142070000D02*
X234360000Y-141890000D01*
X226550000Y-142470000D02*
X227430000Y-142430000D01*
D30*
X195480000Y-144720000D02*
X197510000Y-144040000D01*
X204950000Y-143940000D02*
X208050000Y-144160000D01*
X190190000Y-147620000D02*
X192610000Y-146270000D01*
D31*
X238200000Y-141920000D02*
X256420000Y-141890000D01*
D30*
X218710000Y-142790000D02*
X222490000Y-142550000D01*
X210220000Y-144220000D02*
X212360000Y-144100000D01*
X192610000Y-146270000D02*
X195480000Y-144720000D01*
X222490000Y-142550000D02*
X226550000Y-142470000D01*
D31*
X229590000Y-142310000D02*
X231570000Y-142070000D01*
D30*
X214250000Y-143620000D02*
X216400000Y-143040000D01*
D31*
X227430000Y-142430000D02*
X229590000Y-142310000D01*
D30*
X208050000Y-144160000D02*
X210220000Y-144220000D01*
X212360000Y-144100000D02*
X214250000Y-143620000D01*
D31*
X234360000Y-141890000D02*
X238200000Y-141920000D01*
D30*
X201950000Y-143830000D02*
X204950000Y-143940000D01*
X189130000Y-148130000D02*
X190190000Y-147620000D01*
X199560000Y-143850000D02*
X201950000Y-143830000D01*
X216400000Y-143040000D02*
X218710000Y-142790000D01*
D31*
X246690000Y-78370000D02*
X247480000Y-78180000D01*
X195700000Y-77760000D02*
X197220000Y-77860000D01*
X192090000Y-77010000D02*
X193520000Y-77300000D01*
X181050000Y-73860000D02*
X181690000Y-73910000D01*
X187060000Y-75510000D02*
X188330000Y-75880000D01*
X249680000Y-76570000D02*
X250690000Y-76490000D01*
X201119877Y-77286407D02*
X201799839Y-77291494D01*
X247480000Y-78180000D02*
X248050000Y-77910000D01*
X244160000Y-78350000D02*
X246160000Y-78430000D01*
X201799839Y-77291494D02*
X202460000Y-77420000D01*
X197220000Y-77860000D02*
X199670000Y-77860000D01*
X181690000Y-73910000D02*
X182480000Y-74010000D01*
X199670000Y-77860000D02*
X200230000Y-77580000D01*
X202860000Y-77920000D02*
X239370000Y-78110000D01*
X193520000Y-77300000D02*
X195700000Y-77760000D01*
X188330000Y-75880000D02*
X189860000Y-76380000D01*
X249290000Y-76880000D02*
X249680000Y-76570000D01*
X239370000Y-78110000D02*
X241530000Y-78210000D01*
X185750000Y-75090000D02*
X187060000Y-75510000D01*
X246160000Y-78430000D02*
X246690000Y-78370000D01*
X184790000Y-74800000D02*
X185750000Y-75090000D01*
X189860000Y-76380000D02*
X192090000Y-77010000D01*
X250690000Y-76490000D02*
X252200000Y-76630000D01*
X200230000Y-77580000D02*
X201119877Y-77286407D01*
X183610000Y-74430000D02*
X184790000Y-74800000D01*
X182480000Y-74010000D02*
X183610000Y-74430000D01*
X241530000Y-78210000D02*
X244160000Y-78350000D01*
X173270000Y-70290000D02*
X173190000Y-73860000D01*
X202460000Y-77420000D02*
X202860000Y-77920000D01*
X173190000Y-73860000D02*
X181050000Y-73860000D01*
X248730000Y-77440000D02*
X249290000Y-76880000D01*
X248050000Y-77910000D02*
X248730000Y-77440000D01*
X187350000Y-66910000D02*
X184830000Y-66230000D01*
X184830000Y-66230000D02*
X182050000Y-65450000D01*
X198400000Y-73030000D02*
X196610000Y-71790000D01*
X179710000Y-64980000D02*
X178420000Y-64950000D01*
X190940000Y-68160000D02*
X190040000Y-67820000D01*
X242800000Y-74500000D02*
X204240000Y-74220000D01*
X166020000Y-65190000D02*
X178420000Y-64950000D01*
X165910000Y-59980000D02*
X166020000Y-65190000D01*
X259440000Y-63260000D02*
X259820000Y-69010000D01*
X194870000Y-70380000D02*
X193700000Y-69570000D01*
X182050000Y-65450000D02*
X179710000Y-64980000D01*
X242840000Y-63110000D02*
X259440000Y-63260000D01*
X200760000Y-74200000D02*
X199880000Y-73890000D01*
X192420000Y-68850000D02*
X190940000Y-68160000D01*
X242840000Y-63110000D02*
X242800000Y-74500000D01*
X199880000Y-73890000D02*
X198400000Y-73030000D01*
X190040000Y-67820000D02*
X187350000Y-66910000D01*
X203170000Y-74240000D02*
X201690000Y-74300000D01*
X204240000Y-74220000D02*
X203170000Y-74240000D01*
X196610000Y-71790000D02*
X194870000Y-70380000D01*
X193700000Y-69570000D02*
X192420000Y-68850000D01*
X201690000Y-74300000D02*
X200760000Y-74200000D01*
X254820000Y-65900000D02*
X254740000Y-69010000D01*
X194900000Y-76100000D02*
X196570000Y-76420000D01*
X185580000Y-73770000D02*
X187250000Y-74490000D01*
X245370000Y-76980000D02*
X245590000Y-65750000D01*
X245590000Y-65750000D02*
X254820000Y-65900000D01*
X191650000Y-75620000D02*
X194900000Y-76100000D01*
X175810000Y-70290000D02*
X175880000Y-72770000D01*
X188540000Y-74920000D02*
X191650000Y-75620000D01*
X181550000Y-72770000D02*
X182360000Y-72820000D01*
X196570000Y-76420000D02*
X198020000Y-76690000D01*
X183680000Y-73140000D02*
X185580000Y-73770000D01*
X187250000Y-74490000D02*
X188540000Y-74920000D01*
X202030000Y-76720000D02*
X245370000Y-76980000D01*
X175880000Y-72770000D02*
X181550000Y-72770000D01*
X182360000Y-72820000D02*
X183680000Y-73140000D01*
X198020000Y-76690000D02*
X202030000Y-76720000D01*
X188150000Y-80160000D02*
X185110000Y-80110000D01*
X247990000Y-55120000D02*
X252390000Y-55670000D01*
X267330000Y-101200000D02*
X267330000Y-99290000D01*
X161150000Y-101540000D02*
X161670000Y-101780000D01*
X189550000Y-80310000D02*
X188150000Y-80160000D01*
X204290000Y-83080000D02*
X202660000Y-82830000D01*
X250570000Y-101010000D02*
X267330000Y-101200000D01*
X156860000Y-99400000D02*
X158450000Y-100060000D01*
X152400000Y-99330000D02*
X153720000Y-99050000D01*
X162320000Y-101850000D02*
X178710000Y-101840000D01*
X141030000Y-99740000D02*
X151230000Y-99880000D01*
X243300000Y-100210000D02*
X242180000Y-100030000D01*
X231421260Y-82120000D02*
X241150000Y-82050000D01*
X190700000Y-80510000D02*
X189550000Y-80310000D01*
X267590000Y-55970000D02*
X267600000Y-53920000D01*
X200580000Y-82510000D02*
X190700000Y-80510000D01*
X245070000Y-100420000D02*
X243300000Y-100210000D01*
X160460000Y-101200000D02*
X161150000Y-101540000D01*
X231450000Y-82850000D02*
X231421260Y-82120000D01*
X158450000Y-100060000D02*
X160460000Y-101200000D01*
X252390000Y-55670000D02*
X267590000Y-55970000D01*
X202660000Y-82830000D02*
X200580000Y-82510000D01*
X151230000Y-99880000D02*
X152400000Y-99330000D01*
X153720000Y-99050000D02*
X154930000Y-98980000D01*
X185110000Y-80110000D02*
X178570000Y-80110000D01*
X156210000Y-99090000D02*
X156860000Y-99400000D01*
X154930000Y-98980000D02*
X156210000Y-99090000D01*
X250570000Y-101010000D02*
X248270000Y-100760000D01*
X231421260Y-82120000D02*
X231375000Y-80945000D01*
X242180000Y-100030000D02*
X241590000Y-99820000D01*
X205830000Y-83170000D02*
X204290000Y-83080000D01*
X161670000Y-101780000D02*
X162320000Y-101850000D01*
X178570000Y-80110000D02*
X178350000Y-77910000D01*
X248270000Y-100760000D02*
X245070000Y-100420000D01*
X231450000Y-82850000D02*
X205830000Y-83170000D01*
X257360000Y-64660000D02*
X257280000Y-69010000D01*
X181510000Y-66410000D02*
X179870000Y-66290000D01*
X243980000Y-64410000D02*
X243980000Y-75680000D01*
X200370000Y-75340000D02*
X199280000Y-74970000D01*
X194300000Y-71420000D02*
X193170000Y-70660000D01*
X195620000Y-72350000D02*
X194300000Y-71420000D01*
X201670000Y-75440000D02*
X200370000Y-75340000D01*
X243980000Y-64410000D02*
X257360000Y-64660000D01*
X188730000Y-68480000D02*
X186640000Y-67790000D01*
X191090000Y-69550000D02*
X188730000Y-68480000D01*
X184040000Y-67130000D02*
X181510000Y-66410000D01*
X186640000Y-67790000D02*
X184040000Y-67130000D01*
X243980000Y-75680000D02*
X201670000Y-75440000D01*
X193170000Y-70660000D02*
X191090000Y-69550000D01*
X198160000Y-74330000D02*
X196840000Y-73380000D01*
X196840000Y-73380000D02*
X195620000Y-72350000D01*
X179870000Y-66290000D02*
X170590000Y-66370000D01*
X199280000Y-74970000D02*
X198160000Y-74330000D01*
X245780000Y-123940000D02*
X250340000Y-124140000D01*
X225630000Y-111090000D02*
X228570000Y-111050000D01*
X159440000Y-108640000D02*
X163030000Y-109120000D01*
X155270000Y-108370000D02*
X159440000Y-108640000D01*
X246380000Y-102470000D02*
X264670000Y-102670000D01*
X243200000Y-102180000D02*
X246380000Y-102470000D01*
X174580000Y-109760000D02*
X177490000Y-110560000D01*
X246570000Y-71900000D02*
X259440000Y-72130000D01*
X199860000Y-110800000D02*
X222870000Y-111140000D01*
X198320000Y-110930000D02*
X199860000Y-110800000D01*
X259440000Y-72130000D02*
X261050000Y-72430000D01*
X232710000Y-111090000D02*
X238220000Y-111270000D01*
X222870000Y-111140000D02*
X225630000Y-111090000D01*
X250340000Y-124140000D02*
X262020000Y-124060000D01*
X263560000Y-74010000D02*
X264500000Y-74910000D01*
X262020000Y-124060000D02*
X262235000Y-122340000D01*
X178130000Y-110750000D02*
X197460000Y-111160000D01*
X264500000Y-74910000D02*
X264900000Y-76630000D01*
X147230000Y-110600000D02*
X147360000Y-108530000D01*
X170940000Y-109330000D02*
X174580000Y-109760000D01*
X197460000Y-111160000D02*
X198320000Y-110930000D01*
X177490000Y-110560000D02*
X178130000Y-110750000D01*
X244550000Y-123330000D02*
X245780000Y-123940000D01*
X178130000Y-110750000D02*
X178130000Y-113480000D01*
X240310000Y-111540000D02*
X242760000Y-111810000D01*
X166450000Y-109390000D02*
X170940000Y-109330000D01*
X238220000Y-111270000D02*
X240310000Y-111540000D01*
X147360000Y-108530000D02*
X155270000Y-108370000D01*
X264670000Y-102670000D02*
X264790000Y-106910000D01*
X230880000Y-111090000D02*
X232710000Y-111090000D01*
X163030000Y-109120000D02*
X166450000Y-109390000D01*
X262250000Y-73000000D02*
X263560000Y-74010000D01*
X228570000Y-111050000D02*
X230880000Y-111090000D01*
X261050000Y-72430000D02*
X262250000Y-73000000D01*
X260040000Y-73440000D02*
X259820000Y-76630000D01*
X179950000Y-91570000D02*
X170130000Y-91650000D01*
X248430000Y-73590000D02*
X247230000Y-73930000D01*
X158290000Y-94920000D02*
X156610000Y-95410000D01*
X248140000Y-108740000D02*
X259650000Y-108720000D01*
X245920000Y-108140000D02*
X248140000Y-108740000D01*
X240320000Y-91340000D02*
X243120000Y-90470000D01*
X250280000Y-73290000D02*
X248430000Y-73590000D01*
X166190000Y-91840000D02*
X164690000Y-91840000D01*
X154820000Y-95470000D02*
X146140000Y-95250000D01*
X156610000Y-95410000D02*
X154820000Y-95470000D01*
X159630000Y-94450000D02*
X158290000Y-94920000D01*
X170130000Y-91650000D02*
X169230000Y-91780000D01*
X236410000Y-91870000D02*
X240320000Y-91340000D01*
X162960000Y-92550000D02*
X161780000Y-93240000D01*
X229260000Y-92220000D02*
X232670000Y-92190000D01*
X259650000Y-108720000D02*
X259710000Y-106910000D01*
X164690000Y-91840000D02*
X164140000Y-91920000D01*
X232670000Y-92190000D02*
X236410000Y-91870000D01*
X164140000Y-91920000D02*
X162960000Y-92550000D01*
X223755000Y-96185000D02*
X223690000Y-92250000D01*
X168600000Y-91980000D02*
X166190000Y-91840000D01*
X183970000Y-91840000D02*
X182250000Y-91780000D01*
X223690000Y-92250000D02*
X229260000Y-92220000D01*
X182250000Y-91780000D02*
X179950000Y-91570000D01*
X161780000Y-93240000D02*
X159630000Y-94450000D01*
X243120000Y-90470000D02*
X244720000Y-90290000D01*
X169230000Y-91780000D02*
X168600000Y-91980000D01*
X244670000Y-107310000D02*
X245920000Y-108140000D01*
X250280000Y-73290000D02*
X260040000Y-73440000D01*
X223690000Y-92250000D02*
X183970000Y-91840000D01*
X246830000Y-68680000D02*
X247890000Y-69820000D01*
X163110000Y-85690000D02*
X165800000Y-84950000D01*
X208690000Y-84080000D02*
X209590000Y-84210000D01*
X241080000Y-96600000D02*
X239880000Y-97020000D01*
X173270000Y-77910000D02*
X173340000Y-80470000D01*
X168620000Y-84440000D02*
X171630000Y-84170000D01*
X214590000Y-85760000D02*
X226640000Y-85770000D01*
X188980000Y-81340000D02*
X189800000Y-81430000D01*
X237860000Y-97780000D02*
X235740000Y-98310000D01*
X180180000Y-81270000D02*
X188980000Y-81340000D01*
X249610000Y-70630000D02*
X251260000Y-70790000D01*
X247890000Y-69820000D02*
X249610000Y-70630000D01*
X239880000Y-97020000D02*
X237860000Y-97780000D01*
X212640000Y-85490000D02*
X213540000Y-85740000D01*
X199190000Y-83360000D02*
X202930000Y-83960000D01*
X241700000Y-96720000D02*
X241080000Y-96600000D01*
X176240000Y-80890000D02*
X177640000Y-81200000D01*
X233810000Y-98750000D02*
X232130000Y-98690000D01*
X189800000Y-81430000D02*
X191280000Y-81760000D01*
X191280000Y-81760000D02*
X193520000Y-82370000D01*
X226360000Y-98690000D02*
X226295000Y-96185000D01*
X205540000Y-84210000D02*
X208690000Y-84080000D01*
X150015000Y-90380000D02*
X150050000Y-87840000D01*
X165800000Y-84950000D02*
X168620000Y-84440000D01*
X262190000Y-96970000D02*
X262250000Y-99290000D01*
X209590000Y-84210000D02*
X210640000Y-84640000D01*
X262180000Y-70860000D02*
X262360000Y-69010000D01*
X173340000Y-80470000D02*
X174700000Y-80600000D01*
X213540000Y-85740000D02*
X214590000Y-85760000D01*
X158180000Y-87650000D02*
X159860000Y-87100000D01*
X174700000Y-80600000D02*
X176240000Y-80890000D01*
X150050000Y-87840000D02*
X155330000Y-87800000D01*
X251260000Y-70790000D02*
X262180000Y-70860000D01*
X210640000Y-84640000D02*
X212640000Y-85490000D01*
X157090000Y-87800000D02*
X158180000Y-87650000D01*
X195590000Y-82770000D02*
X199190000Y-83360000D01*
X232130000Y-98690000D02*
X226360000Y-98690000D01*
X177640000Y-81200000D02*
X180180000Y-81270000D01*
X193520000Y-82370000D02*
X195590000Y-82770000D01*
X235740000Y-98310000D02*
X233810000Y-98750000D01*
X155330000Y-87800000D02*
X157090000Y-87800000D01*
X202930000Y-83960000D02*
X205540000Y-84210000D01*
X241700000Y-96720000D02*
X262190000Y-96970000D01*
X159860000Y-87100000D02*
X163110000Y-85690000D01*
X203150000Y-126420000D02*
X222060000Y-126490000D01*
X203175000Y-124750000D02*
X203150000Y-126420000D01*
X243620000Y-131210000D02*
X244080000Y-131980000D01*
X252600000Y-132450000D02*
X249640000Y-132610000D01*
X246410000Y-133520000D02*
X245300000Y-133080000D01*
X247070000Y-133600000D02*
X247960000Y-133350000D01*
X242230000Y-130330000D02*
X242910000Y-130520000D01*
X249640000Y-132610000D02*
X247960000Y-133350000D01*
X239610000Y-130800000D02*
X240660000Y-130550000D01*
X244080000Y-131980000D02*
X244780000Y-132720000D01*
X240660000Y-130550000D02*
X242230000Y-130330000D01*
X242910000Y-130520000D02*
X243620000Y-131210000D01*
X246410000Y-133520000D02*
X246710000Y-133600000D01*
X239240000Y-130800000D02*
X239270000Y-132590000D01*
X252600000Y-132450000D02*
X262250000Y-132310000D01*
X246710000Y-133600000D02*
X247070000Y-133600000D01*
X244780000Y-132720000D02*
X245300000Y-133080000D01*
X239610000Y-130800000D02*
X239240000Y-130800000D01*
X262250000Y-132310000D02*
X262260000Y-129640000D01*
X253170000Y-126790000D02*
X255250000Y-126830000D01*
X234190000Y-124970000D02*
X234260000Y-126600000D01*
X234260000Y-126600000D02*
X253170000Y-126790000D01*
X255250000Y-126830000D02*
X257180000Y-129640000D01*
X224960000Y-127700000D02*
X225700000Y-127520000D01*
X222690000Y-127810000D02*
X224060000Y-127870000D01*
X198095000Y-124750000D02*
X198150000Y-127590000D01*
X226450000Y-126580000D02*
X226620000Y-125910000D01*
X226620000Y-125910000D02*
X226570000Y-124970000D01*
X226190000Y-127180000D02*
X226450000Y-126580000D01*
X198150000Y-127590000D02*
X222690000Y-127810000D01*
X225700000Y-127520000D02*
X226190000Y-127180000D01*
X224060000Y-127870000D02*
X224960000Y-127700000D01*
X154680000Y-106810000D02*
X155480000Y-106790000D01*
X166220000Y-103070000D02*
X167570000Y-103110000D01*
X157960000Y-106050000D02*
X163190000Y-103490000D01*
X127430000Y-105390000D02*
X129230000Y-105630000D01*
X172860000Y-103110000D02*
X173050000Y-105860000D01*
X163840000Y-103300000D02*
X164830000Y-103170000D01*
X126180000Y-105310000D02*
X127430000Y-105390000D01*
X167570000Y-103110000D02*
X172860000Y-103110000D01*
X156920000Y-106430000D02*
X157960000Y-106050000D01*
X155480000Y-106790000D02*
X156070000Y-106700000D01*
X132510000Y-106380000D02*
X134550000Y-106820000D01*
X129230000Y-105630000D02*
X131020000Y-106000000D01*
X131020000Y-106000000D02*
X132510000Y-106380000D01*
X164830000Y-103170000D02*
X166220000Y-103070000D01*
X111970000Y-102260000D02*
X112030000Y-105400000D01*
X123670000Y-105270000D02*
X126180000Y-105310000D01*
X156070000Y-106700000D02*
X156920000Y-106430000D01*
X163190000Y-103490000D02*
X163840000Y-103300000D01*
X135570000Y-106880000D02*
X154680000Y-106810000D01*
X134550000Y-106820000D02*
X135570000Y-106880000D01*
X112030000Y-105400000D02*
X123670000Y-105270000D01*
X172170000Y-137970000D02*
X179830000Y-137970000D01*
X259140000Y-139190000D02*
X262780000Y-139190000D01*
X202930000Y-139630000D02*
X206720000Y-139370000D01*
X169470000Y-75200000D02*
X167390000Y-74430000D01*
X159940000Y-138160000D02*
X162660000Y-138410000D01*
X138100000Y-77040000D02*
X136130000Y-76870000D01*
X169450000Y-138040000D02*
X172170000Y-137970000D01*
X267740000Y-139330000D02*
X268660000Y-139330000D01*
X181370000Y-138100000D02*
X184710000Y-138720000D01*
X179830000Y-137970000D02*
X181370000Y-138100000D01*
X154630000Y-76360000D02*
X153310000Y-76760000D01*
X262780000Y-139190000D02*
X267740000Y-139330000D01*
X151660000Y-77120000D02*
X150760000Y-77180000D01*
X157100000Y-136990000D02*
X158390000Y-137730000D01*
X180890000Y-77910000D02*
X180900000Y-75480000D01*
X153310000Y-76760000D02*
X151660000Y-77120000D01*
X136130000Y-76870000D02*
X134580000Y-76890000D01*
X162660000Y-138410000D02*
X166050000Y-138160000D01*
X209990000Y-139500000D02*
X244600000Y-139390000D01*
X160530000Y-74190000D02*
X157040000Y-75440000D01*
X150760000Y-77180000D02*
X139990000Y-77120000D01*
X170960000Y-75440000D02*
X169470000Y-75200000D01*
X251890000Y-139220000D02*
X259140000Y-139190000D01*
X134580000Y-76890000D02*
X133080000Y-77040000D01*
X157040000Y-75440000D02*
X154630000Y-76360000D01*
X165420000Y-73910000D02*
X163010000Y-73790000D01*
X180900000Y-75480000D02*
X170960000Y-75440000D01*
X244600000Y-139390000D02*
X251890000Y-139220000D01*
X187800000Y-139460000D02*
X190720000Y-140240000D01*
X129120000Y-77040000D02*
X124020000Y-76870000D01*
X184710000Y-138720000D02*
X187800000Y-139460000D01*
X155680000Y-135570000D02*
X157100000Y-136990000D01*
X166050000Y-138160000D02*
X169450000Y-138040000D01*
X192940000Y-140640000D02*
X195820000Y-140420000D01*
X158390000Y-137730000D02*
X159940000Y-138160000D01*
X206720000Y-139370000D02*
X209990000Y-139500000D01*
X167390000Y-74430000D02*
X165420000Y-73910000D01*
X163010000Y-73790000D02*
X160530000Y-74190000D01*
X195820000Y-140420000D02*
X199400000Y-139980000D01*
X199400000Y-139980000D02*
X202930000Y-139630000D01*
X133080000Y-77040000D02*
X129120000Y-77040000D01*
X190720000Y-140240000D02*
X192940000Y-140640000D01*
X139990000Y-77120000D02*
X138100000Y-77040000D01*
X170000000Y-129140000D02*
X173130000Y-129140000D01*
X192930000Y-131230000D02*
X193015000Y-132370000D01*
X163110000Y-128970000D02*
X170000000Y-129140000D01*
X250910000Y-138190000D02*
X252100000Y-137260000D01*
X180850000Y-129380000D02*
X183780000Y-129640000D01*
X154870000Y-128730000D02*
X163110000Y-128970000D01*
X249120000Y-138340000D02*
X250910000Y-138190000D01*
X84450000Y-128580000D02*
X90180000Y-128580000D01*
X198380000Y-138570000D02*
X205690000Y-138560000D01*
X54830000Y-132110000D02*
X54800000Y-130020000D01*
X185900000Y-130050000D02*
X187840000Y-130560000D01*
X148450000Y-128620000D02*
X154870000Y-128730000D01*
X244010000Y-138440000D02*
X249120000Y-138340000D01*
X135770000Y-128440000D02*
X148450000Y-128620000D01*
X54800000Y-130020000D02*
X55370000Y-128910000D01*
X205690000Y-138560000D02*
X244010000Y-138440000D01*
X193050000Y-138780000D02*
X198380000Y-138570000D01*
X55370000Y-128910000D02*
X57780000Y-128340000D01*
X191750000Y-131010000D02*
X192930000Y-131230000D01*
X57780000Y-128340000D02*
X84450000Y-128580000D01*
X187840000Y-130560000D02*
X191750000Y-131010000D01*
X90180000Y-128580000D02*
X100500000Y-128530000D01*
X173130000Y-129140000D02*
X180850000Y-129380000D01*
X100500000Y-128530000D02*
X126360000Y-128420000D01*
X126360000Y-128420000D02*
X135770000Y-128440000D01*
X183780000Y-129640000D02*
X185900000Y-130050000D01*
X63350000Y-115980000D02*
X65330000Y-115750000D01*
X100290000Y-115210000D02*
X105690000Y-115060000D01*
X124460000Y-115550000D02*
X125990000Y-115650000D01*
X115060000Y-115450000D02*
X119600000Y-115510000D01*
X63380000Y-86720000D02*
X61090000Y-86120000D01*
X61090000Y-86120000D02*
X57820000Y-85810000D01*
X108030000Y-115190000D02*
X115060000Y-115450000D01*
X71510000Y-115640000D02*
X82100000Y-115580000D01*
X57820000Y-85810000D02*
X57210000Y-85770000D01*
X68450000Y-115530000D02*
X71510000Y-115640000D01*
X105690000Y-115060000D02*
X108030000Y-115190000D01*
X132090000Y-116010000D02*
X135330000Y-116460000D01*
X65110000Y-89820000D02*
X64580000Y-88230000D01*
X119600000Y-115510000D02*
X124460000Y-115550000D01*
X64580000Y-88230000D02*
X63380000Y-86720000D01*
X65330000Y-115750000D02*
X68450000Y-115530000D01*
X82100000Y-115580000D02*
X100290000Y-115210000D01*
X125990000Y-115650000D02*
X132090000Y-116010000D01*
X264830000Y-111490000D02*
X252650000Y-111380000D01*
X264775000Y-114720000D02*
X264830000Y-111490000D01*
X122180000Y-57040000D02*
X122380000Y-34930000D01*
X122380000Y-34930000D02*
X124960000Y-34950000D01*
X124810000Y-57030000D02*
X122180000Y-57040000D01*
X192120000Y-121400000D02*
X191090000Y-121690000D01*
X190220000Y-121690000D02*
X189380000Y-121510000D01*
X247920000Y-136900000D02*
X248740000Y-136490000D01*
X195960000Y-137490000D02*
X244240000Y-137470000D01*
X189380000Y-121510000D02*
X188290000Y-121140000D01*
X195555000Y-124750000D02*
X195580000Y-121570000D01*
X190450000Y-137530000D02*
X195960000Y-137490000D01*
X246510000Y-137280000D02*
X247400000Y-137070000D01*
X247400000Y-137070000D02*
X247920000Y-136900000D01*
X191090000Y-121690000D02*
X190220000Y-121690000D01*
X245270000Y-137420000D02*
X246510000Y-137280000D01*
X244240000Y-137470000D02*
X245270000Y-137420000D01*
X195580000Y-121570000D02*
X192120000Y-121400000D01*
X196500000Y-57705000D02*
X199040000Y-57710000D01*
X188440000Y-137570000D02*
X190450000Y-137530000D01*
X199040000Y-57710000D02*
X198950000Y-69570000D01*
X187050000Y-137760000D02*
X188440000Y-137570000D01*
X208480000Y-49650000D02*
X208610000Y-53300000D01*
X208110000Y-45880000D02*
X208480000Y-49650000D01*
X208610000Y-53300000D02*
X208490000Y-69030000D01*
X207790000Y-29320000D02*
X208110000Y-45880000D01*
X211560000Y-29345000D02*
X207790000Y-29320000D01*
X206700000Y-26860000D02*
X206810000Y-45700000D01*
X207140000Y-68590000D02*
X207040000Y-70870000D01*
X207610000Y-64550000D02*
X207610000Y-66620000D01*
X207170000Y-51430000D02*
X207450000Y-57290000D01*
X207450000Y-57290000D02*
X207610000Y-64550000D01*
X207450000Y-67550000D02*
X207140000Y-68590000D01*
X211560000Y-26805000D02*
X206700000Y-26860000D01*
X207610000Y-66620000D02*
X207450000Y-67550000D01*
X206810000Y-45700000D02*
X207170000Y-51430000D01*
X146890000Y-85750000D02*
X149440000Y-85310000D01*
X209840000Y-50200000D02*
X209770000Y-66980000D01*
X188880000Y-82560000D02*
X193040000Y-83250000D01*
X160100000Y-84190000D02*
X163180000Y-83010000D01*
X207420000Y-86030000D02*
X208680000Y-86600000D01*
X211070000Y-87250000D02*
X213550000Y-88160000D01*
X157990000Y-84880000D02*
X160100000Y-84190000D01*
X165540000Y-82390000D02*
X168150000Y-81960000D01*
X163180000Y-83010000D02*
X165540000Y-82390000D01*
X149440000Y-85310000D02*
X152240000Y-85280000D01*
X185510000Y-82360000D02*
X188880000Y-82560000D01*
X203090000Y-85070000D02*
X205040000Y-85270000D01*
X209210000Y-31890000D02*
X209280000Y-44430000D01*
X209370000Y-46360000D02*
X209650000Y-48460000D01*
X193040000Y-83250000D02*
X196550000Y-83910000D01*
X201470000Y-84840000D02*
X203090000Y-85070000D01*
X179120000Y-82200000D02*
X182440000Y-82230000D01*
X144590000Y-86530000D02*
X146890000Y-85750000D01*
X139855000Y-90380000D02*
X139960000Y-89290000D01*
X152240000Y-85280000D02*
X156900000Y-85100000D01*
X156900000Y-85100000D02*
X157990000Y-84880000D01*
X209280000Y-44430000D02*
X209370000Y-46360000D01*
X208680000Y-86600000D02*
X209900000Y-86940000D01*
X209900000Y-86940000D02*
X211070000Y-87250000D01*
X206260000Y-85430000D02*
X207420000Y-86030000D01*
X211560000Y-31885000D02*
X209210000Y-31890000D01*
X172540000Y-81800000D02*
X174860000Y-82070000D01*
X205040000Y-85270000D02*
X206260000Y-85430000D01*
X182440000Y-82230000D02*
X185510000Y-82360000D01*
X177120000Y-82200000D02*
X179120000Y-82200000D01*
X174860000Y-82070000D02*
X177120000Y-82200000D01*
X170120000Y-81740000D02*
X172540000Y-81800000D01*
X141390000Y-87990000D02*
X144590000Y-86530000D01*
X209650000Y-48460000D02*
X209840000Y-50200000D01*
X196550000Y-83910000D02*
X201470000Y-84840000D01*
X139960000Y-89290000D02*
X141390000Y-87990000D01*
X168150000Y-81960000D02*
X170120000Y-81740000D01*
X229660000Y-49230000D02*
X230080000Y-48250000D01*
X230760000Y-30700000D02*
X230760000Y-26370000D01*
X229530000Y-51670000D02*
X229660000Y-49230000D01*
X230140000Y-47450000D02*
X230700000Y-44050000D01*
X229530000Y-57760000D02*
X229530000Y-51670000D01*
X230700000Y-44050000D02*
X230700000Y-39230000D01*
X230700000Y-39230000D02*
X230760000Y-30700000D01*
X230080000Y-48250000D02*
X230140000Y-47450000D01*
X231550000Y-57825000D02*
X229530000Y-57760000D01*
X88233571Y-86120000D02*
X88355000Y-90200000D01*
X87120000Y-85980000D02*
X85340000Y-86620000D01*
X102650000Y-87110000D02*
X99160000Y-86470000D01*
X111660000Y-87630000D02*
X105910000Y-87400000D01*
X88233571Y-86120000D02*
X87120000Y-85980000D01*
X105910000Y-87400000D02*
X102650000Y-87110000D01*
X99160000Y-86470000D02*
X96600000Y-86060000D01*
X83800000Y-87160000D02*
X83350000Y-87190000D01*
X88230000Y-86000000D02*
X88233571Y-86120000D01*
X80730000Y-87210000D02*
X80735000Y-90200000D01*
X96600000Y-86060000D02*
X92410000Y-86000000D01*
X92410000Y-86000000D02*
X88230000Y-86000000D01*
X111735000Y-90200000D02*
X111660000Y-87630000D01*
X83350000Y-87190000D02*
X83275000Y-90200000D01*
X85340000Y-86620000D02*
X83800000Y-87160000D01*
X83350000Y-87190000D02*
X80730000Y-87210000D01*
D30*
X202860000Y-72670000D02*
X204810000Y-72880000D01*
D31*
X124410000Y-92630000D02*
X128310000Y-92649055D01*
X177800000Y-90650000D02*
X184510000Y-90620000D01*
X46385000Y-110870000D02*
X46420000Y-112770000D01*
D30*
X250950000Y-24340000D02*
X251060000Y-27170000D01*
X272444160Y-76630000D02*
X272440000Y-76410000D01*
D32*
X233420000Y-24240000D02*
X239230000Y-24273143D01*
X171040000Y-23900000D02*
X175250000Y-23910795D01*
D31*
X156920000Y-131640000D02*
X156920000Y-133893955D01*
X106120000Y-92565667D02*
X105420000Y-92470000D01*
X175860000Y-107840000D02*
X176200000Y-108070000D01*
D33*
X246080000Y-134610000D02*
X247070000Y-134860000D01*
D32*
X132520000Y-23650000D02*
X152850000Y-23770000D01*
D33*
X115100000Y-133769824D02*
X110590000Y-133797892D01*
D30*
X207300000Y-72920000D02*
X213810000Y-73140000D01*
D32*
X98740000Y-69760000D02*
X102020000Y-69380000D01*
D33*
X241820000Y-134250000D02*
X241960000Y-132140000D01*
X99330000Y-112980000D02*
X124850000Y-112980000D01*
D30*
X197790000Y-71250000D02*
X198680000Y-71710000D01*
D31*
X43790000Y-92120000D02*
X48550000Y-92159529D01*
X262520000Y-83780000D02*
X262470000Y-85270000D01*
D30*
X184940000Y-65220000D02*
X187000000Y-65530000D01*
D31*
X48340000Y-88900000D02*
X48550000Y-92159529D01*
D33*
X110590000Y-133797892D02*
X109990000Y-133801626D01*
D31*
X95980000Y-92530000D02*
X95975000Y-90200000D01*
D30*
X106580000Y-35720000D02*
X106660000Y-23520000D01*
X193490000Y-67980000D02*
X194520000Y-68690000D01*
D34*
X21730000Y-24400000D02*
X65580000Y-24400000D01*
D31*
X175630000Y-107160000D02*
X175860000Y-107840000D01*
D30*
X219280000Y-24070000D02*
X219270128Y-24340000D01*
D31*
X176460000Y-90500000D02*
X177800000Y-90650000D01*
D32*
X152850000Y-23770000D02*
X156320000Y-23794799D01*
D36*
X115730000Y-135760000D02*
X115720000Y-133765965D01*
D33*
X156920000Y-133893955D02*
X161880000Y-133920775D01*
X235610000Y-55540000D02*
X235740000Y-52930000D01*
D30*
X187550000Y-50450000D02*
X186355000Y-53510000D01*
D31*
X176200000Y-108070000D02*
X177040000Y-108380000D01*
D32*
X272850000Y-24510000D02*
X272880000Y-28820000D01*
X272637784Y-95320000D02*
X272636307Y-94540000D01*
D33*
X124850000Y-112980000D02*
X128480000Y-112997867D01*
X235610000Y-56450000D02*
X235610000Y-55540000D01*
D30*
X194520000Y-68690000D02*
X196500000Y-67865000D01*
D31*
X44270000Y-133433286D02*
X43880000Y-133430000D01*
D32*
X95790000Y-62870000D02*
X95680000Y-61180000D01*
D31*
X72690000Y-92360000D02*
X76560000Y-92388248D01*
X231420000Y-109010000D02*
X240210000Y-108785117D01*
D30*
X194520000Y-68690000D02*
X195480000Y-69510000D01*
D31*
X43880000Y-133430000D02*
X43860000Y-132000000D01*
D33*
X239290000Y-36370000D02*
X239230000Y-31190000D01*
X44270000Y-133433286D02*
X21030000Y-133370000D01*
D31*
X128390000Y-89890000D02*
X128310000Y-92649055D01*
D32*
X95900000Y-65280000D02*
X95790000Y-62870000D01*
D31*
X124280000Y-131900000D02*
X124330000Y-133710000D01*
D30*
X196330000Y-70250000D02*
X197790000Y-71250000D01*
D33*
X241040000Y-134230000D02*
X241820000Y-134250000D01*
D31*
X142395000Y-82760000D02*
X144935000Y-82760000D01*
D34*
X272590000Y-148370000D02*
X218040000Y-148160767D01*
D33*
X244110000Y-133560000D02*
X246080000Y-134610000D01*
D31*
X69990000Y-133650000D02*
X70070000Y-132110000D01*
D32*
X70090000Y-23730000D02*
X65580000Y-24400000D01*
D30*
X106580000Y-40130000D02*
X104370000Y-40045000D01*
D32*
X21050000Y-91890000D02*
X21020000Y-112890000D01*
D31*
X128310000Y-92649055D02*
X141110000Y-92711596D01*
D32*
X272660000Y-107050000D02*
X272637784Y-95320000D01*
D30*
X94840000Y-23730000D02*
X94762175Y-38400000D01*
D32*
X250610000Y-24338060D02*
X265160000Y-24504448D01*
D31*
X48550000Y-92159529D02*
X72690000Y-92360000D01*
D30*
X111880000Y-23560000D02*
X111980000Y-25400000D01*
D32*
X93550000Y-70310000D02*
X95900000Y-70060963D01*
D36*
X110460000Y-135700000D02*
X110590000Y-133797892D01*
D32*
X95680000Y-61180000D02*
X95350000Y-59870000D01*
X265160000Y-24504448D02*
X266520000Y-24520000D01*
D30*
X213810000Y-73140000D02*
X213840000Y-70225000D01*
D31*
X269855000Y-122340000D02*
X272531093Y-122330000D01*
D30*
X132540000Y-26010000D02*
X132580000Y-27330000D01*
D33*
X235610000Y-55540000D02*
X239170000Y-55285000D01*
X180230000Y-134020000D02*
X210920000Y-134130000D01*
D30*
X186640000Y-23940000D02*
X186710000Y-26425000D01*
X156320000Y-23794799D02*
X155910000Y-51590000D01*
D31*
X72690000Y-92360000D02*
X72730000Y-89820000D01*
D32*
X272480000Y-61090000D02*
X272880000Y-28820000D01*
X156320000Y-23794799D02*
X171040000Y-23900000D01*
D31*
X234000000Y-70580000D02*
X231550000Y-70525000D01*
D30*
X266820000Y-24523753D02*
X266520000Y-24520000D01*
X195480000Y-69510000D02*
X196330000Y-70250000D01*
X187000000Y-65530000D02*
X190330000Y-66630000D01*
D31*
X180230000Y-134020000D02*
X180280000Y-132160000D01*
X269980000Y-76630000D02*
X272444160Y-76630000D01*
D33*
X128480000Y-112997867D02*
X137040000Y-113040000D01*
D31*
X124850000Y-112980000D02*
X124670000Y-109880000D01*
X76540000Y-89200000D02*
X76560000Y-92388248D01*
X175670000Y-89800000D02*
X176460000Y-90500000D01*
D33*
X48480000Y-133468759D02*
X44270000Y-133433286D01*
D30*
X266820000Y-24523753D02*
X266770000Y-27170000D01*
D33*
X235740000Y-52930000D02*
X236130000Y-50620000D01*
D31*
X95790000Y-133890000D02*
X95785000Y-132050000D01*
D30*
X202860000Y-72670000D02*
X201420000Y-72422500D01*
D33*
X69990000Y-133650000D02*
X48480000Y-133468759D01*
X237740000Y-46120000D02*
X238580000Y-42140000D01*
X137040000Y-113040000D02*
X155010000Y-113110000D01*
D31*
X48460000Y-129840000D02*
X48480000Y-133468759D01*
X161870000Y-130730000D02*
X161880000Y-133920775D01*
X141110000Y-92711596D02*
X155110000Y-92780000D01*
D30*
X106660000Y-23520000D02*
X106930000Y-23522069D01*
D32*
X21060000Y-66180000D02*
X21730000Y-66190000D01*
D33*
X96430000Y-112980000D02*
X99330000Y-112980000D01*
D31*
X231350000Y-105890000D02*
X231420000Y-109010000D01*
X263410000Y-85910000D02*
X265560000Y-86100000D01*
X99325000Y-110760000D02*
X99330000Y-112980000D01*
D32*
X95350000Y-59870000D02*
X94070000Y-56250000D01*
D31*
X70210000Y-112970000D02*
X70300000Y-110360000D01*
D33*
X239230000Y-31190000D02*
X239230000Y-24273143D01*
D32*
X94840000Y-23730000D02*
X70090000Y-23730000D01*
X272636307Y-94540000D02*
X272620511Y-86200000D01*
D31*
X175590000Y-105860000D02*
X175630000Y-107160000D01*
D30*
X152780000Y-25850000D02*
X152730000Y-27380000D01*
D33*
X234220000Y-65790000D02*
X234870000Y-62930000D01*
D32*
X106930000Y-23522069D02*
X94840000Y-23730000D01*
D31*
X175610000Y-88620000D02*
X175670000Y-89800000D01*
D34*
X21730000Y-66190000D02*
X21730000Y-24400000D01*
D31*
X81050000Y-113020000D02*
X81180000Y-110270000D01*
D32*
X239230000Y-24273143D02*
X250610000Y-24338060D01*
D30*
X272620511Y-86200000D02*
X272620000Y-85930000D01*
X106580000Y-35720000D02*
X106580000Y-37650000D01*
D33*
X210920000Y-134130000D02*
X210795000Y-132370000D01*
X102810000Y-133846311D02*
X95790000Y-133890000D01*
D31*
X269880000Y-137260000D02*
X272579100Y-137260000D01*
X43790000Y-89720000D02*
X43790000Y-91890000D01*
D33*
X161880000Y-133920775D02*
X180230000Y-134020000D01*
X152490000Y-133870000D02*
X156920000Y-133893955D01*
X115720000Y-133765965D02*
X115430000Y-133767770D01*
X235310000Y-60710000D02*
X235610000Y-56450000D01*
D32*
X272440000Y-76410000D02*
X272478799Y-61550000D01*
D30*
X106580000Y-37650000D02*
X106580000Y-40130000D01*
D33*
X244110000Y-133560000D02*
X241960000Y-132140000D01*
D31*
X155010000Y-113110000D02*
X154850000Y-110600000D01*
D30*
X233420000Y-24240000D02*
X233210000Y-27420000D01*
D32*
X21030000Y-133370000D02*
X21020000Y-112890000D01*
D30*
X152850000Y-23770000D02*
X152780000Y-25850000D01*
D31*
X177040000Y-108380000D02*
X185069690Y-108410000D01*
D30*
X189310000Y-23941537D02*
X189200000Y-41720000D01*
D37*
X272579100Y-137260000D02*
X272590000Y-148370000D01*
D32*
X70330000Y-70150000D02*
X86710000Y-70640000D01*
X106930000Y-23522069D02*
X111880000Y-23560000D01*
D33*
X46420000Y-112770000D02*
X70210000Y-112970000D01*
D31*
X21050000Y-91890000D02*
X43790000Y-91890000D01*
D32*
X95900000Y-70060963D02*
X95900000Y-65280000D01*
D33*
X124530000Y-133711136D02*
X115720000Y-133765965D01*
X238580000Y-42140000D02*
X239290000Y-36370000D01*
D32*
X89010000Y-70640000D02*
X93550000Y-70310000D01*
D30*
X94762175Y-38400000D02*
X94980000Y-40920000D01*
D31*
X218040000Y-148160767D02*
X217641000Y-152810000D01*
X124330000Y-133710000D02*
X124530000Y-133711136D01*
X240210000Y-108785117D02*
X240410000Y-108780000D01*
D32*
X265160000Y-24504448D02*
X272850000Y-24510000D01*
D33*
X21020000Y-112890000D02*
X46420000Y-112770000D01*
X115430000Y-133767770D02*
X115100000Y-133769824D01*
X210920000Y-134130000D02*
X229960000Y-134210000D01*
D31*
X128450000Y-109600000D02*
X128480000Y-112997867D01*
D32*
X111880000Y-23560000D02*
X132520000Y-23650000D01*
D31*
X221460000Y-62605000D02*
X223650000Y-62750000D01*
X152490000Y-133870000D02*
X152435000Y-131560000D01*
D30*
X272531093Y-122330000D02*
X272530000Y-121990000D01*
X171040000Y-23900000D02*
X171000000Y-26470000D01*
D31*
X269870000Y-106910000D02*
X272660000Y-107050000D01*
X223650000Y-62750000D02*
X223480000Y-73010000D01*
D37*
X272568939Y-134100000D02*
X272579100Y-137260000D01*
D31*
X76560000Y-92388248D02*
X95980000Y-92530000D01*
D32*
X21050000Y-91890000D02*
X21060000Y-66180000D01*
D30*
X106580000Y-37650000D02*
X104370000Y-37505000D01*
D33*
X229960000Y-134210000D02*
X241040000Y-134230000D01*
D32*
X175250000Y-23910795D02*
X186640000Y-23940000D01*
D31*
X73470000Y-110970000D02*
X73460000Y-112984991D01*
D32*
X186640000Y-23940000D02*
X189310000Y-23941537D01*
X272478799Y-61550000D02*
X272480000Y-61090000D01*
X102020000Y-69380000D02*
X104020000Y-69670000D01*
D30*
X204010000Y-23950000D02*
X203910000Y-26805000D01*
D31*
X184510000Y-90620000D02*
X185239089Y-90620000D01*
X265560000Y-86100000D02*
X272620511Y-86200000D01*
D32*
X86710000Y-70640000D02*
X89010000Y-70640000D01*
D33*
X236910000Y-48620000D02*
X237740000Y-46120000D01*
D31*
X137040000Y-113040000D02*
X137070000Y-110600000D01*
D37*
X272568939Y-134100000D02*
X272531093Y-122330000D01*
D31*
X223480000Y-73010000D02*
X223680000Y-73011711D01*
D30*
X213810000Y-73140000D02*
X223680000Y-73011711D01*
D33*
X249580000Y-133980000D02*
X272568939Y-134100000D01*
X124530000Y-133711136D02*
X152490000Y-133870000D01*
D30*
X189200000Y-41720000D02*
X188920000Y-45840000D01*
D31*
X95980000Y-92530000D02*
X105420000Y-92470000D01*
D33*
X73460000Y-112984991D02*
X81050000Y-113020000D01*
X234000000Y-70580000D02*
X234220000Y-65790000D01*
D30*
X132520000Y-23650000D02*
X132540000Y-26010000D01*
D36*
X269880000Y-137260000D02*
X269880000Y-136510000D01*
D33*
X81050000Y-113020000D02*
X96430000Y-112980000D01*
D31*
X124410000Y-92630000D02*
X124435000Y-90200000D01*
X240210000Y-108785117D02*
X240800000Y-108790000D01*
D30*
X219270128Y-24340000D02*
X219180000Y-26805000D01*
D33*
X247070000Y-134860000D02*
X247920000Y-134650000D01*
D30*
X188920000Y-45840000D02*
X187550000Y-50450000D01*
D32*
X189310000Y-23941537D02*
X204010000Y-23950000D01*
X70330000Y-70150000D02*
X51250000Y-74610000D01*
D31*
X270270000Y-94490000D02*
X272636307Y-94540000D01*
D32*
X272620000Y-85930000D02*
X272444160Y-76630000D01*
D30*
X204810000Y-72880000D02*
X207300000Y-72920000D01*
X250610000Y-24338060D02*
X250950000Y-24340000D01*
D33*
X236130000Y-50620000D02*
X236910000Y-48620000D01*
D32*
X204010000Y-23950000D02*
X219280000Y-24070000D01*
X95900000Y-70060963D02*
X98740000Y-69760000D01*
D30*
X198680000Y-71710000D02*
X201420000Y-72422500D01*
D31*
X155110000Y-92780000D02*
X155095000Y-90380000D01*
X96430000Y-112980000D02*
X96420000Y-110270000D01*
X43790000Y-91890000D02*
X43790000Y-92120000D01*
D33*
X70210000Y-112970000D02*
X73460000Y-112984991D01*
X109990000Y-133801626D02*
X102810000Y-133846311D01*
X234870000Y-62930000D02*
X235310000Y-60710000D01*
D32*
X272530000Y-121990000D02*
X272660000Y-107050000D01*
D31*
X106120000Y-92565667D02*
X124410000Y-92630000D01*
D33*
X95790000Y-133890000D02*
X69990000Y-133650000D01*
D30*
X111980000Y-25400000D02*
X111990000Y-27345000D01*
X223680000Y-73011711D02*
X234000000Y-73100000D01*
D31*
X270140000Y-61540000D02*
X272478799Y-61550000D01*
D32*
X219270128Y-24340000D02*
X233420000Y-24240000D01*
D31*
X175170000Y-39710000D02*
X175250000Y-23910795D01*
D30*
X190330000Y-66630000D02*
X193490000Y-67980000D01*
D33*
X247920000Y-134650000D02*
X249580000Y-133980000D01*
X234000000Y-73100000D02*
X234000000Y-70580000D01*
D31*
X262470000Y-85270000D02*
X263410000Y-85910000D01*
X94120000Y-120170000D02*
X96210000Y-120610000D01*
X92070000Y-120110000D02*
X94120000Y-120170000D01*
X98700000Y-121490000D02*
X100170000Y-122140000D01*
X96210000Y-120610000D02*
X98700000Y-121490000D01*
X44760000Y-117920000D02*
X62870000Y-119330000D01*
X44010000Y-117530000D02*
X44760000Y-117920000D01*
X66790000Y-117680000D02*
X60130000Y-117530000D01*
X60130000Y-117530000D02*
X41480000Y-115400000D01*
X70130000Y-117430000D02*
X66790000Y-117680000D01*
X28605000Y-110870000D02*
X28600000Y-105370000D01*
X28600000Y-105370000D02*
X43860000Y-105290000D01*
X43860000Y-105290000D02*
X43845000Y-103250000D01*
M02*
