M48
; DRILL file {KiCad 8.0.6} date 2025-02-23T16:49:18+0000
; FORMAT={-:-/ absolute / metric / decimal}
; #@! TF.CreationDate,2025-02-23T16:49:18+00:00
; #@! TF.GenerationSoftware,Kicad,Pcbnew,8.0.6
; #@! TF.FileFunction,Plated,1,2,PTH
FMAT,2
METRIC
; #@! TA.AperFunction,Plated,PTH,ViaDrill
T1C0.508
; #@! TA.AperFunction,Plated,PTH,ViaDrill
T2C0.559
; #@! TA.AperFunction,Plated,PTH,ViaDrill
T3C0.800
; #@! TA.AperFunction,Plated,PTH,ComponentDrill
T4C0.800
; #@! TA.AperFunction,Plated,PTH,ViaDrill
T5C1.000
; #@! TA.AperFunction,Plated,PTH,ComponentDrill
T6C1.000
; #@! TA.AperFunction,Plated,PTH,ViaDrill
T7C1.016
; #@! TA.AperFunction,Plated,PTH,ComponentDrill
T8C1.100
; #@! TA.AperFunction,Plated,PTH,ComponentDrill
T9C1.200
; #@! TA.AperFunction,Plated,PTH,ViaDrill
T10C4.000
%
G90
G05
T1
X106.22Y-123.93
X140.4Y-61.69
X140.6Y-73.38
T2
X23.1Y-73.87
X25.69Y-125.88
X25.79Y-100.08
X25.83Y-78.94
X31.08Y-77.19
X31.11Y-135.78
X31.39Y-127.49
X36.26Y-145.9
X37.52Y-86.94
X38.89Y-96.83
X41.48Y-115.4
X41.53Y-137.23
X44.01Y-117.53
X46.77Y-135.96
X48.03Y-114.67
X49.15Y-145.99
X57.21Y-85.77
X57.26Y-137.21
X59.71Y-93.56
X61.06Y-145.98
X61.53Y-95.45
X62.87Y-119.33
X63.35Y-115.98
X63.46Y-97.52
X66.03Y-84.45
X66.19Y-137.37
X70.03Y-93.97
X70.13Y-117.43
X70.31Y-97.52
X72.52Y-104.48
X72.74Y-72.21
X74.81Y-73.54
X77.05Y-140.55
X77.68Y-87.23
X84.06Y-143.95
X85.85Y-96.86
X86.95Y-118.2
X89.24Y-142.11
X90.99Y-138.47
X91.22Y-116.47
X96.07Y-96.99
X98.8Y-72.51
X99.24Y-127.2
X100.17Y-122.14
X100.98Y-77.71
X102.81Y-133.846
X105.38Y-106.75
X105.42Y-92.47
X105.55Y-135.96
X106.63Y-57.82
X112.05Y-139.52
X112.84Y-118.13
X115.02Y-65.52
X116.34Y-73.28
X116.42Y-26.01
X119.09Y-137.17
X119.5Y-72.71
X119.59Y-96.96
X120.93Y-86.91
X121.63Y-141.13
X122.06Y-118.62
X124.02Y-76.87
X128.99Y-72.96
X134.95Y-105.36
X135.77Y-73.1
X136.16Y-78.06
X136.34Y-49.14
X137.31Y-73.02
X139.27Y-73.09
X141.03Y-99.74
X141.11Y-92.712
X141.26Y-144.16
X141.86Y-95.95
X143.2Y-73.02
X143.75Y-143.58
X146.14Y-95.25
X146.71Y-143.22
X147.98Y-73.57
X148.05Y-69.47
X148.66Y-141.55
X150.76Y-77.18
X151.23Y-99.88
X151.3Y-143.51
X153.02Y-144.55
X154.98Y-112.89
X155.11Y-92.78
X155.68Y-135.57
X155.91Y-51.59
X156.92Y-131.64
X157.02Y-72.87
X157.29Y-54.05
X158.36Y-78.25
X158.39Y-147.27
X158.43Y-135.08
X159.35Y-52.03
X159.46Y-102.42
X159.5Y-67.34
X160.68Y-115.78
X160.7Y-97.88
X161.08Y-57.22
X161.42Y-135.19
X161.54Y-147.41
X161.71Y-50.83
X161.76Y-53.93
X162.51Y-99.23
X162.616Y-110.66
X163.16Y-145.82
X164.74Y-147.4
X166.39Y-90.41
X166.49Y-116.01
X168.09Y-147.17
X169.23Y-91.78
X170.22Y-100.57
X170.59Y-66.37
X171.63Y-84.17
X177.5Y-147.24
X178.42Y-64.95
X178.71Y-101.84
X181.67Y-56.16
X181.78Y-118.51
X184.94Y-65.22
X185.07Y-108.41
X185.239Y-90.62
X186.47Y-128.29
X186.95Y-109.78
X187.05Y-137.76
X187.13Y-100.79
X187.44Y-55.05
X188.29Y-121.14
X188.96Y-97.44
X189.63Y-113.57
X190.32Y-120.0
X190.47Y-71.06
X190.67Y-60.54
X191.09Y-29.89
X191.64Y-144.96
X192.2Y-62.25
X192.27Y-40.01
X192.49Y-65.07
X193.05Y-138.78
X194.75Y-109.9
X196.48Y-147.57
X196.54Y-49.57
X197.21Y-116.13
X197.33Y-109.79
X198.95Y-69.57
X199.85Y-147.87
X200.64Y-99.71
X201.09Y-117.44
X201.26Y-69.75
X202.58Y-102.22
X202.86Y-147.76
X203.56Y-142.16
X203.7Y-117.58
X203.81Y-90.78
X204.99Y-100.9
X205.28Y-70.19
X206.5Y-88.23
X206.99Y-101.64
X207.04Y-70.87
X208.49Y-69.03
X208.7Y-118.73
X208.99Y-85.54
X209.77Y-66.98
X210.49Y-89.51
X210.92Y-71.02
X211.27Y-118.92
X211.35Y-100.84
X213.52Y-141.09
X213.55Y-88.16
X214.01Y-84.38
X215.08Y-98.3
X215.41Y-48.58
X215.72Y-118.76
X217.25Y-71.02
X218.95Y-113.62
X219.03Y-89.56
X222.06Y-126.49
X223.98Y-143.65
X224.05Y-88.21
X225.21Y-108.54
X225.93Y-66.7
X225.93Y-71.08
X226.55Y-142.47
X226.64Y-85.77
X228.59Y-71.17
X230.32Y-100.92
X230.6Y-134.22
X230.76Y-26.37
X232.71Y-111.09
X234.21Y-144.6
X236.14Y-145.61
X236.32Y-71.83
X236.42Y-102.47
X236.69Y-79.43
X238.02Y-30.66
X240.8Y-108.79
X241.15Y-82.05
X241.59Y-99.82
X241.7Y-96.72
X242.76Y-111.81
X243.13Y-134.71
X243.2Y-102.18
X244.55Y-123.33
X244.67Y-107.31
X244.72Y-90.29
X244.94Y-135.96
X245.36Y-120.06
X245.38Y-56.75
X245.85Y-92.47
X245.98Y-58.65
X246.11Y-49.16
X246.53Y-122.62
X246.57Y-71.9
X246.83Y-68.68
X247.16Y-94.81
X247.23Y-73.93
X247.99Y-55.12
X248.56Y-116.14
X248.74Y-136.49
X249.22Y-85.76
X250.53Y-88.45
X252.65Y-111.38
X252.8Y-50.49
X257.05Y-141.88
X258.91Y-125.13
X262.18Y-143.27
X267.17Y-144.78
X268.63Y-125.13
X268.66Y-139.33
X271.07Y-125.75
T3
X74.4Y-59.48
X135.33Y-116.46
X139.15Y-117.71
X139.16Y-115.89
X142.32Y-117.71
X142.33Y-115.89
X145.63Y-117.7
X145.64Y-115.88
X148.59Y-117.7
X148.6Y-115.88
X152.75Y-116.19
T4
X28.55Y-82.1
X28.55Y-89.72
X28.605Y-103.25
X28.605Y-110.87
X28.62Y-124.38
X28.62Y-132.0
X31.09Y-82.1
X31.09Y-89.72
X31.145Y-103.25
X31.145Y-110.87
X31.16Y-124.38
X31.16Y-132.0
X33.63Y-82.1
X33.63Y-89.72
X33.685Y-103.25
X33.685Y-110.87
X33.7Y-124.38
X33.7Y-132.0
X36.17Y-82.1
X36.17Y-89.72
X36.225Y-103.25
X36.225Y-110.87
X36.24Y-124.38
X36.24Y-132.0
X38.71Y-82.1
X38.71Y-89.72
X38.765Y-103.25
X38.765Y-110.87
X38.78Y-124.38
X38.78Y-132.0
X41.25Y-82.1
X41.25Y-89.72
X41.305Y-103.25
X41.305Y-110.87
X41.32Y-124.38
X41.32Y-132.0
X43.79Y-82.1
X43.79Y-89.72
X43.845Y-103.25
X43.845Y-110.87
X43.86Y-124.38
X43.86Y-132.0
X46.385Y-103.25
X46.385Y-110.87
X54.83Y-124.49
X54.83Y-132.11
X54.95Y-82.2
X54.95Y-89.82
X55.06Y-102.74
X55.06Y-110.36
X57.37Y-124.49
X57.37Y-132.11
X57.49Y-82.2
X57.49Y-89.82
X57.6Y-102.74
X57.6Y-110.36
X59.91Y-124.49
X59.91Y-132.11
X60.03Y-82.2
X60.03Y-89.82
X60.14Y-102.74
X60.14Y-110.36
X62.45Y-124.49
X62.45Y-132.11
X62.57Y-82.2
X62.57Y-89.82
X62.68Y-102.74
X62.68Y-110.36
X64.99Y-124.49
X64.99Y-132.11
X65.11Y-82.2
X65.11Y-89.82
X65.22Y-102.74
X65.22Y-110.36
X67.53Y-124.49
X67.53Y-132.11
X67.65Y-82.2
X67.65Y-89.82
X67.76Y-102.74
X67.76Y-110.36
X70.07Y-124.49
X70.07Y-132.11
X70.19Y-82.2
X70.19Y-89.82
X70.3Y-102.74
X70.3Y-110.36
X72.73Y-82.2
X72.73Y-89.82
X73.43Y-117.5
X73.47Y-110.97
X77.04Y-117.39
X77.06Y-102.46
X80.29Y-75.565
X80.34Y-65.295
X80.545Y-124.43
X80.545Y-132.05
X80.735Y-82.58
X80.735Y-90.2
X81.18Y-102.65
X81.18Y-110.27
X82.37Y-58.69
X83.085Y-124.43
X83.085Y-132.05
X83.275Y-82.58
X83.275Y-90.2
X83.72Y-102.65
X83.72Y-110.27
X84.52Y-75.82
X85.625Y-124.43
X85.625Y-132.05
X85.815Y-82.58
X85.815Y-90.2
X86.17Y-58.69
X86.26Y-102.65
X86.26Y-110.27
X88.165Y-124.43
X88.165Y-132.05
X88.355Y-82.58
X88.355Y-90.2
X88.47Y-62.31
X88.8Y-102.65
X88.8Y-110.27
X90.705Y-124.43
X90.705Y-132.05
X90.895Y-82.58
X90.895Y-90.2
X91.34Y-102.65
X91.34Y-110.27
X91.66Y-75.82
X92.07Y-120.11
X93.245Y-124.43
X93.245Y-132.05
X93.435Y-82.58
X93.435Y-90.2
X93.47Y-62.31
X93.68Y-75.74
X93.69Y-65.63
X93.88Y-102.65
X93.88Y-110.27
X94.07Y-56.25
X94.08Y-50.15
X94.98Y-40.92
X94.98Y-45.92
X95.785Y-124.43
X95.785Y-132.05
X95.975Y-82.58
X95.975Y-90.2
X96.42Y-102.65
X96.42Y-110.27
X99.325Y-110.76
X99.325Y-116.9
X104.02Y-51.89
X104.02Y-54.43
X104.02Y-56.97
X104.02Y-59.51
X104.02Y-62.05
X104.02Y-64.59
X104.02Y-67.13
X104.02Y-69.67
X104.37Y-27.345
X104.37Y-29.885
X104.37Y-32.425
X104.37Y-34.965
X104.37Y-37.505
X104.37Y-40.045
X104.37Y-42.585
X104.37Y-45.125
X104.77Y-120.11
X105.18Y-103.13
X105.21Y-117.02
X109.04Y-124.28
X109.04Y-131.9
X109.195Y-82.58
X109.195Y-90.2
X109.43Y-102.26
X109.43Y-109.88
X111.58Y-124.28
X111.58Y-131.9
X111.64Y-51.89
X111.64Y-54.43
X111.64Y-56.97
X111.64Y-59.51
X111.64Y-62.05
X111.64Y-64.59
X111.64Y-67.13
X111.64Y-69.67
X111.735Y-82.58
X111.735Y-90.2
X111.97Y-102.26
X111.97Y-109.88
X111.99Y-27.345
X111.99Y-29.885
X111.99Y-32.425
X111.99Y-34.965
X111.99Y-37.505
X111.99Y-40.045
X111.99Y-42.585
X111.99Y-45.125
X114.12Y-124.28
X114.12Y-131.9
X114.275Y-82.58
X114.275Y-90.2
X114.51Y-102.26
X114.51Y-109.88
X116.66Y-124.28
X116.66Y-131.9
X116.815Y-82.58
X116.815Y-90.2
X117.05Y-102.26
X117.05Y-109.88
X119.2Y-124.28
X119.2Y-131.9
X119.355Y-82.58
X119.355Y-90.2
X119.59Y-102.26
X119.59Y-109.88
X121.74Y-124.28
X121.74Y-131.9
X121.895Y-82.58
X121.895Y-90.2
X122.13Y-102.26
X122.13Y-109.88
X124.28Y-124.28
X124.28Y-131.9
X124.435Y-82.58
X124.435Y-90.2
X124.67Y-102.26
X124.67Y-109.88
X124.81Y-51.95
X124.81Y-54.49
X124.81Y-57.03
X124.81Y-59.57
X124.81Y-62.11
X124.81Y-64.65
X124.81Y-67.19
X124.81Y-69.73
X124.96Y-27.33
X124.96Y-29.87
X124.96Y-32.41
X124.96Y-34.95
X124.96Y-37.49
X124.96Y-40.03
X124.96Y-42.57
X124.96Y-45.11
X132.09Y-103.31
X132.09Y-116.01
X132.43Y-51.95
X132.43Y-54.49
X132.43Y-57.03
X132.43Y-59.57
X132.43Y-62.11
X132.43Y-64.65
X132.43Y-67.19
X132.43Y-69.73
X132.58Y-27.33
X132.58Y-29.87
X132.58Y-32.41
X132.58Y-34.95
X132.58Y-37.49
X132.58Y-40.03
X132.58Y-42.57
X132.58Y-45.11
X137.07Y-102.98
X137.07Y-110.6
X137.195Y-123.94
X137.195Y-131.56
X137.315Y-82.76
X137.315Y-90.38
X139.61Y-102.98
X139.61Y-110.6
X139.735Y-123.94
X139.735Y-131.56
X139.855Y-82.76
X139.855Y-90.38
X142.15Y-102.98
X142.15Y-110.6
X142.275Y-123.94
X142.275Y-131.56
X142.395Y-82.76
X142.395Y-90.38
X144.69Y-102.98
X144.69Y-110.6
X144.815Y-123.94
X144.815Y-131.56
X144.935Y-82.76
X144.935Y-90.38
X145.11Y-27.38
X145.11Y-29.92
X145.11Y-32.46
X145.11Y-35.0
X145.11Y-37.54
X145.11Y-40.08
X145.11Y-42.62
X145.11Y-45.16
X145.13Y-52.06
X145.13Y-54.6
X145.13Y-57.14
X145.13Y-59.68
X145.13Y-62.22
X145.13Y-64.76
X145.13Y-67.3
X145.13Y-69.84
X147.23Y-102.98
X147.23Y-110.6
X147.355Y-123.94
X147.355Y-131.56
X147.475Y-82.76
X147.475Y-90.38
X149.77Y-102.98
X149.77Y-110.6
X149.895Y-123.94
X149.895Y-131.56
X150.015Y-82.76
X150.015Y-90.38
X152.31Y-102.98
X152.31Y-110.6
X152.435Y-123.94
X152.435Y-131.56
X152.555Y-82.76
X152.555Y-90.38
X152.73Y-27.38
X152.73Y-29.92
X152.73Y-32.46
X152.73Y-35.0
X152.73Y-37.54
X152.73Y-40.08
X152.73Y-42.62
X152.73Y-45.16
X152.75Y-52.06
X152.75Y-54.6
X152.75Y-57.14
X152.75Y-59.68
X152.75Y-62.22
X152.75Y-64.76
X152.75Y-67.3
X152.75Y-69.84
X154.85Y-102.98
X154.85Y-110.6
X155.095Y-82.76
X155.095Y-90.38
X163.38Y-26.47
X163.38Y-29.01
X163.38Y-31.55
X163.38Y-34.09
X163.38Y-36.63
X163.38Y-39.17
X163.38Y-41.71
X163.38Y-44.25
X165.04Y-124.54
X165.04Y-132.16
X165.43Y-105.86
X165.43Y-113.48
X165.45Y-88.62
X165.45Y-96.24
X165.65Y-70.29
X165.65Y-77.91
X165.91Y-52.36
X165.91Y-59.98
X167.58Y-124.54
X167.58Y-132.16
X167.97Y-105.86
X167.97Y-113.48
X167.99Y-88.62
X167.99Y-96.24
X168.19Y-70.29
X168.19Y-77.91
X168.45Y-52.36
X168.45Y-59.98
X170.12Y-124.54
X170.12Y-132.16
X170.51Y-105.86
X170.51Y-113.48
X170.53Y-88.62
X170.53Y-96.24
X170.73Y-70.29
X170.73Y-77.91
X170.99Y-52.36
X170.99Y-59.98
X171.0Y-26.47
X171.0Y-29.01
X171.0Y-31.55
X171.0Y-34.09
X171.0Y-36.63
X171.0Y-39.17
X171.0Y-41.71
X171.0Y-44.25
X172.66Y-124.54
X172.66Y-132.16
X173.05Y-105.86
X173.05Y-113.48
X173.07Y-88.62
X173.07Y-96.24
X173.27Y-70.29
X173.27Y-77.91
X173.53Y-52.36
X173.53Y-59.98
X175.2Y-124.54
X175.2Y-132.16
X175.59Y-105.86
X175.59Y-113.48
X175.61Y-88.62
X175.61Y-96.24
X175.81Y-70.29
X175.81Y-77.91
X176.07Y-52.36
X176.07Y-59.98
X177.74Y-124.54
X177.74Y-132.16
X178.13Y-105.86
X178.13Y-113.48
X178.15Y-88.62
X178.15Y-96.24
X178.35Y-70.29
X178.35Y-77.91
X178.61Y-52.36
X178.61Y-59.98
X179.09Y-26.425
X179.09Y-28.965
X179.09Y-31.505
X179.09Y-34.045
X179.09Y-36.585
X179.09Y-39.125
X179.09Y-41.665
X179.09Y-44.205
X180.28Y-124.54
X180.28Y-132.16
X180.67Y-105.86
X180.67Y-113.48
X180.69Y-88.62
X180.69Y-96.24
X180.89Y-70.29
X180.89Y-77.91
X181.15Y-52.36
X181.15Y-59.98
X183.21Y-105.86
X183.21Y-113.48
X183.23Y-88.62
X183.23Y-96.24
X183.43Y-70.29
X183.43Y-77.91
X183.69Y-52.36
X183.69Y-59.98
X186.71Y-26.425
X186.71Y-28.965
X186.71Y-31.505
X186.71Y-34.045
X186.71Y-36.585
X186.71Y-39.125
X186.71Y-41.665
X186.71Y-44.205
X193.015Y-124.75
X193.015Y-132.37
X193.295Y-105.95
X193.295Y-113.57
X195.555Y-124.75
X195.555Y-132.37
X195.835Y-105.95
X195.835Y-113.57
X196.29Y-26.805
X196.29Y-29.345
X196.29Y-31.885
X196.29Y-34.425
X196.29Y-36.965
X196.29Y-39.505
X196.29Y-42.045
X196.29Y-44.585
X196.5Y-52.625
X196.5Y-55.165
X196.5Y-57.705
X196.5Y-60.245
X196.5Y-62.785
X196.5Y-65.325
X196.5Y-67.865
X198.095Y-124.75
X198.095Y-132.37
X198.375Y-105.95
X198.375Y-113.57
X200.635Y-124.75
X200.635Y-132.37
X200.915Y-105.95
X200.915Y-113.57
X203.175Y-124.75
X203.175Y-132.37
X203.435Y-80.945
X203.435Y-96.185
X203.455Y-105.95
X203.455Y-113.57
X203.91Y-26.805
X203.91Y-29.345
X203.91Y-31.885
X203.91Y-34.425
X203.91Y-36.965
X203.91Y-39.505
X203.91Y-42.045
X203.91Y-44.585
X204.12Y-52.625
X204.12Y-55.165
X204.12Y-57.705
X204.12Y-60.245
X204.12Y-62.785
X204.12Y-65.325
X204.12Y-67.865
X205.715Y-124.75
X205.715Y-132.37
X205.975Y-80.945
X205.975Y-96.185
X205.995Y-105.95
X205.995Y-113.57
X208.255Y-124.75
X208.255Y-132.37
X208.515Y-80.945
X208.515Y-96.185
X208.535Y-105.95
X208.535Y-113.57
X210.795Y-124.75
X210.795Y-132.37
X211.055Y-80.945
X211.055Y-96.185
X211.075Y-105.95
X211.075Y-113.57
X211.56Y-26.805
X211.56Y-29.345
X211.56Y-31.885
X211.56Y-34.425
X211.56Y-36.965
X211.56Y-39.505
X211.56Y-42.045
X211.56Y-44.585
X213.595Y-80.945
X213.595Y-96.185
X213.84Y-52.445
X213.84Y-54.985
X213.84Y-57.525
X213.84Y-60.065
X213.84Y-62.605
X213.84Y-65.145
X213.84Y-67.685
X213.84Y-70.225
X216.135Y-80.945
X216.135Y-96.185
X218.675Y-80.945
X218.675Y-96.185
X219.18Y-26.805
X219.18Y-29.345
X219.18Y-31.885
X219.18Y-34.425
X219.18Y-36.965
X219.18Y-39.505
X219.18Y-42.045
X219.18Y-44.585
X221.19Y-105.89
X221.19Y-113.51
X221.215Y-80.945
X221.215Y-96.185
X221.46Y-52.445
X221.46Y-54.985
X221.46Y-57.525
X221.46Y-60.065
X221.46Y-62.605
X221.46Y-65.145
X221.46Y-67.685
X221.46Y-70.225
X221.49Y-124.97
X221.49Y-132.59
X223.73Y-105.89
X223.73Y-113.51
X223.755Y-80.945
X223.755Y-96.185
X224.03Y-124.97
X224.03Y-132.59
X225.59Y-27.42
X225.59Y-29.96
X225.59Y-32.5
X225.59Y-35.04
X225.59Y-37.58
X225.59Y-40.12
X225.59Y-42.66
X225.59Y-45.2
X226.27Y-105.89
X226.27Y-113.51
X226.295Y-80.945
X226.295Y-96.185
X226.57Y-124.97
X226.57Y-132.59
X228.81Y-105.89
X228.81Y-113.51
X228.835Y-80.945
X228.835Y-96.185
X229.11Y-124.97
X229.11Y-132.59
X231.35Y-105.89
X231.35Y-113.51
X231.375Y-80.945
X231.375Y-96.185
X231.55Y-52.745
X231.55Y-55.285
X231.55Y-57.825
X231.55Y-60.365
X231.55Y-62.905
X231.55Y-65.445
X231.55Y-67.985
X231.55Y-70.525
X231.65Y-124.97
X231.65Y-132.59
X233.21Y-27.42
X233.21Y-29.96
X233.21Y-32.5
X233.21Y-35.04
X233.21Y-37.58
X233.21Y-40.12
X233.21Y-42.66
X233.21Y-45.2
X233.89Y-105.89
X233.89Y-113.51
X234.19Y-124.97
X234.19Y-132.59
X236.43Y-105.89
X236.43Y-113.51
X236.73Y-124.97
X236.73Y-132.59
X238.97Y-105.89
X238.97Y-113.51
X239.17Y-52.745
X239.17Y-55.285
X239.17Y-57.825
X239.17Y-60.365
X239.17Y-62.905
X239.17Y-65.445
X239.17Y-67.985
X239.17Y-70.525
X239.27Y-124.97
X239.27Y-132.59
X243.44Y-27.17
X243.44Y-29.71
X243.44Y-32.25
X243.44Y-34.79
X243.44Y-37.33
X243.44Y-39.87
X243.44Y-42.41
X243.44Y-44.95
X251.06Y-27.17
X251.06Y-29.71
X251.06Y-32.25
X251.06Y-34.79
X251.06Y-37.33
X251.06Y-39.87
X251.06Y-42.41
X251.06Y-44.95
X252.075Y-114.72
X252.075Y-122.34
X252.09Y-99.29
X252.09Y-106.91
X252.1Y-129.64
X252.1Y-137.26
X252.2Y-69.01
X252.2Y-76.63
X252.36Y-53.92
X252.36Y-61.54
X252.36Y-83.78
X252.36Y-91.4
X254.615Y-114.72
X254.615Y-122.34
X254.63Y-99.29
X254.63Y-106.91
X254.64Y-129.64
X254.64Y-137.26
X254.74Y-69.01
X254.74Y-76.63
X254.9Y-53.92
X254.9Y-61.54
X254.9Y-83.78
X254.9Y-91.4
X257.155Y-114.72
X257.155Y-122.34
X257.17Y-99.29
X257.17Y-106.91
X257.18Y-129.64
X257.18Y-137.26
X257.28Y-69.01
X257.28Y-76.63
X257.44Y-53.92
X257.44Y-61.54
X257.44Y-83.78
X257.44Y-91.4
X259.15Y-27.17
X259.15Y-29.71
X259.15Y-32.25
X259.15Y-34.79
X259.15Y-37.33
X259.15Y-39.87
X259.15Y-42.41
X259.15Y-44.95
X259.695Y-114.72
X259.695Y-122.34
X259.71Y-99.29
X259.71Y-106.91
X259.72Y-129.64
X259.72Y-137.26
X259.82Y-69.01
X259.82Y-76.63
X259.98Y-53.92
X259.98Y-61.54
X259.98Y-83.78
X259.98Y-91.4
X262.235Y-114.72
X262.235Y-122.34
X262.25Y-99.29
X262.25Y-106.91
X262.26Y-129.64
X262.26Y-137.26
X262.36Y-69.01
X262.36Y-76.63
X262.52Y-53.92
X262.52Y-61.54
X262.52Y-83.78
X262.52Y-91.4
X264.775Y-114.72
X264.775Y-122.34
X264.79Y-99.29
X264.79Y-106.91
X264.8Y-129.64
X264.8Y-137.26
X264.9Y-69.01
X264.9Y-76.63
X265.06Y-53.92
X265.06Y-61.54
X265.06Y-83.78
X265.06Y-91.4
X266.77Y-27.17
X266.77Y-29.71
X266.77Y-32.25
X266.77Y-34.79
X266.77Y-37.33
X266.77Y-39.87
X266.77Y-42.41
X266.77Y-44.95
X267.315Y-114.72
X267.315Y-122.34
X267.33Y-99.29
X267.33Y-106.91
X267.34Y-129.64
X267.34Y-137.26
X267.44Y-69.01
X267.44Y-76.63
X267.6Y-53.92
X267.6Y-61.54
X267.6Y-83.78
X267.6Y-91.4
X269.855Y-114.72
X269.855Y-122.34
X269.87Y-99.29
X269.87Y-106.91
X269.88Y-129.64
X269.88Y-137.26
X269.98Y-69.01
X269.98Y-76.63
X270.14Y-53.92
X270.14Y-61.54
X270.14Y-83.78
X270.14Y-91.4
T5
X110.46Y-135.7
X115.73Y-135.76
T6
X48.34Y-82.52
X48.34Y-88.9
X48.42Y-123.2
X48.46Y-129.84
X76.49Y-82.71
X76.54Y-89.2
X128.34Y-83.3
X128.39Y-89.89
X128.43Y-103.71
X128.45Y-109.6
X156.325Y-79.127
X161.85Y-124.35
X161.87Y-130.73
X162.785Y-80.197
X175.17Y-39.71
X175.21Y-45.33
X186.355Y-53.51
X189.55Y-126.92
X189.61Y-133.21
X192.675Y-53.44
X201.42Y-72.422
X201.46Y-78.792
X241.96Y-132.14
X246.79Y-132.12
X258.55Y-50.23
X260.22Y-47.775
X263.62Y-50.18
X264.52Y-94.53
X265.24Y-47.765
X270.27Y-94.49
T7
X70.33Y-70.15
T8
X41.138Y-54.781
X42.639Y-33.344
X42.816Y-37.028
X44.731Y-51.188
X45.381Y-55.431
X46.408Y-33.436
T9
X26.25Y-74.61
X51.25Y-74.61
T10
X24.9Y-26.36
X24.9Y-64.46
X63.0Y-26.36
X63.0Y-64.46
M30
