%TF.GenerationSoftware,KiCad,Pcbnew,8.0.6*%
%TF.CreationDate,2025-02-23T16:49:19+00:00*%
%TF.ProjectId,Northstart Floating point,4e6f7274-6873-4746-9172-7420466c6f61,rev?*%
%TF.SameCoordinates,Original*%
%TF.FileFunction,Drillmap*%
%TF.FilePolarity,Positive*%
%FSLAX45Y45*%
G04 Gerber Fmt 4.5, Leading zero omitted, Abs format (unit mm)*
G04 Created by KiCad (PCBNEW 8.0.6) date 2025-02-23 16:49:19*
%MOMM*%
%LPD*%
G01*
G04 APERTURE LIST*
%ADD10C,0.152400*%
%ADD11C,0.200000*%
G04 APERTURE END LIST*
D10*
X3430500Y-4249000D02*
G75*
G02*
X3055500Y-4249000I-187500J0D01*
G01*
X3055500Y-4249000D02*
G75*
G02*
X3430500Y-4249000I187500J0D01*
G01*
X5702500Y-4643000D02*
G75*
G02*
X5327500Y-4643000I-187500J0D01*
G01*
X5327500Y-4643000D02*
G75*
G02*
X5702500Y-4643000I187500J0D01*
G01*
X22034500Y-15748000D02*
X5842000Y-15748000D01*
X27432000Y-14986000D02*
X27439000Y-2286000D01*
X2032000Y-2921000D02*
X2032000Y-14986000D01*
X5842000Y-14986000D02*
X2032000Y-14986000D01*
X27439000Y-2286000D02*
X2030000Y-2286000D01*
X22034500Y-14986000D02*
X22034500Y-15748000D01*
X2030000Y-2286000D02*
X2032000Y-2921000D01*
X5842000Y-15748000D02*
X5842000Y-14986000D01*
X27432000Y-14986000D02*
X22034500Y-14986000D01*
D11*
X2283157Y-16067104D02*
X2283157Y-15867104D01*
X2283157Y-15867104D02*
X2330776Y-15867104D01*
X2330776Y-15867104D02*
X2359347Y-15876628D01*
X2359347Y-15876628D02*
X2378395Y-15895675D01*
X2378395Y-15895675D02*
X2387919Y-15914723D01*
X2387919Y-15914723D02*
X2397443Y-15952818D01*
X2397443Y-15952818D02*
X2397443Y-15981389D01*
X2397443Y-15981389D02*
X2387919Y-16019485D01*
X2387919Y-16019485D02*
X2378395Y-16038532D01*
X2378395Y-16038532D02*
X2359347Y-16057580D01*
X2359347Y-16057580D02*
X2330776Y-16067104D01*
X2330776Y-16067104D02*
X2283157Y-16067104D01*
X2483157Y-16067104D02*
X2483157Y-15933770D01*
X2483157Y-15971866D02*
X2492681Y-15952818D01*
X2492681Y-15952818D02*
X2502204Y-15943294D01*
X2502204Y-15943294D02*
X2521252Y-15933770D01*
X2521252Y-15933770D02*
X2540300Y-15933770D01*
X2606966Y-16067104D02*
X2606966Y-15933770D01*
X2606966Y-15867104D02*
X2597443Y-15876628D01*
X2597443Y-15876628D02*
X2606966Y-15886151D01*
X2606966Y-15886151D02*
X2616490Y-15876628D01*
X2616490Y-15876628D02*
X2606966Y-15867104D01*
X2606966Y-15867104D02*
X2606966Y-15886151D01*
X2730776Y-16067104D02*
X2711728Y-16057580D01*
X2711728Y-16057580D02*
X2702204Y-16038532D01*
X2702204Y-16038532D02*
X2702204Y-15867104D01*
X2835538Y-16067104D02*
X2816490Y-16057580D01*
X2816490Y-16057580D02*
X2806966Y-16038532D01*
X2806966Y-16038532D02*
X2806966Y-15867104D01*
X3064109Y-16067104D02*
X3064109Y-15867104D01*
X3064109Y-15867104D02*
X3130776Y-16009961D01*
X3130776Y-16009961D02*
X3197442Y-15867104D01*
X3197442Y-15867104D02*
X3197442Y-16067104D01*
X3378395Y-16067104D02*
X3378395Y-15962342D01*
X3378395Y-15962342D02*
X3368871Y-15943294D01*
X3368871Y-15943294D02*
X3349823Y-15933770D01*
X3349823Y-15933770D02*
X3311728Y-15933770D01*
X3311728Y-15933770D02*
X3292681Y-15943294D01*
X3378395Y-16057580D02*
X3359347Y-16067104D01*
X3359347Y-16067104D02*
X3311728Y-16067104D01*
X3311728Y-16067104D02*
X3292681Y-16057580D01*
X3292681Y-16057580D02*
X3283157Y-16038532D01*
X3283157Y-16038532D02*
X3283157Y-16019485D01*
X3283157Y-16019485D02*
X3292681Y-16000437D01*
X3292681Y-16000437D02*
X3311728Y-15990913D01*
X3311728Y-15990913D02*
X3359347Y-15990913D01*
X3359347Y-15990913D02*
X3378395Y-15981389D01*
X3473633Y-15933770D02*
X3473633Y-16133770D01*
X3473633Y-15943294D02*
X3492681Y-15933770D01*
X3492681Y-15933770D02*
X3530776Y-15933770D01*
X3530776Y-15933770D02*
X3549823Y-15943294D01*
X3549823Y-15943294D02*
X3559347Y-15952818D01*
X3559347Y-15952818D02*
X3568871Y-15971866D01*
X3568871Y-15971866D02*
X3568871Y-16029008D01*
X3568871Y-16029008D02*
X3559347Y-16048056D01*
X3559347Y-16048056D02*
X3549823Y-16057580D01*
X3549823Y-16057580D02*
X3530776Y-16067104D01*
X3530776Y-16067104D02*
X3492681Y-16067104D01*
X3492681Y-16067104D02*
X3473633Y-16057580D01*
X3654585Y-16048056D02*
X3664109Y-16057580D01*
X3664109Y-16057580D02*
X3654585Y-16067104D01*
X3654585Y-16067104D02*
X3645062Y-16057580D01*
X3645062Y-16057580D02*
X3654585Y-16048056D01*
X3654585Y-16048056D02*
X3654585Y-16067104D01*
X3654585Y-15943294D02*
X3664109Y-15952818D01*
X3664109Y-15952818D02*
X3654585Y-15962342D01*
X3654585Y-15962342D02*
X3645062Y-15952818D01*
X3645062Y-15952818D02*
X3654585Y-15943294D01*
X3654585Y-15943294D02*
X3654585Y-15962342D01*
M02*
