G04 #@! TF.GenerationSoftware,KiCad,Pcbnew,8.0.6*
G04 #@! TF.CreationDate,2025-02-23T16:49:15+00:00*
G04 #@! TF.ProjectId,Northstart Floating point,4e6f7274-6873-4746-9172-7420466c6f61,rev?*
G04 #@! TF.SameCoordinates,Original*
G04 #@! TF.FileFunction,Copper,L1,Top*
G04 #@! TF.FilePolarity,Positive*
%FSLAX46Y46*%
G04 Gerber Fmt 4.6, Leading zero omitted, Abs format (unit mm)*
G04 Created by KiCad (PCBNEW 8.0.6) date 2025-02-23 16:49:15*
%MOMM*%
%LPD*%
G01*
G04 APERTURE LIST*
G04 Aperture macros list*
%AMHorizOval*
0 Thick line with rounded ends*
0 $1 width*
0 $2 $3 position (X,Y) of the first rounded end (center of the circle)*
0 $4 $5 position (X,Y) of the second rounded end (center of the circle)*
0 Add line between two ends*
20,1,$1,$2,$3,$4,$5,0*
0 Add two circle primitives to create the rounded ends*
1,1,$1,$2,$3*
1,1,$1,$4,$5*%
%AMRotRect*
0 Rectangle, with rotation*
0 The origin of the aperture is its center*
0 $1 length*
0 $2 width*
0 $3 Rotation angle, in degrees counterclockwise*
0 Add horizontal line*
21,1,$1,$2,0,0,$3*%
G04 Aperture macros list end*
G04 #@! TA.AperFunction,Conductor*
%ADD10C,0.877107*%
G04 #@! TD*
%ADD11C,0.203200*%
G04 #@! TA.AperFunction,NonConductor*
%ADD12C,0.203200*%
G04 #@! TD*
G04 #@! TA.AperFunction,ComponentPad*
%ADD13C,2.000000*%
G04 #@! TD*
G04 #@! TA.AperFunction,ComponentPad*
%ADD14R,1.600000X1.600000*%
G04 #@! TD*
G04 #@! TA.AperFunction,ComponentPad*
%ADD15O,1.600000X1.600000*%
G04 #@! TD*
G04 #@! TA.AperFunction,ComponentPad*
%ADD16C,2.400000*%
G04 #@! TD*
G04 #@! TA.AperFunction,ComponentPad*
%ADD17O,2.400000X2.400000*%
G04 #@! TD*
G04 #@! TA.AperFunction,ComponentPad*
%ADD18C,1.600000*%
G04 #@! TD*
G04 #@! TA.AperFunction,ConnectorPad*
%ADD19R,2.794000X8.382000*%
G04 #@! TD*
G04 #@! TA.AperFunction,ConnectorPad*
%ADD20R,1.778000X8.382000*%
G04 #@! TD*
G04 #@! TA.AperFunction,ComponentPad*
%ADD21RotRect,1.905000X2.000000X225.000000*%
G04 #@! TD*
G04 #@! TA.AperFunction,ComponentPad*
%ADD22HorizOval,1.905000X-0.033588X0.033588X0.033588X-0.033588X0*%
G04 #@! TD*
G04 #@! TA.AperFunction,ComponentPad*
%ADD23C,1.500000*%
G04 #@! TD*
G04 #@! TA.AperFunction,ComponentPad*
%ADD24RotRect,1.905000X2.000000X45.000000*%
G04 #@! TD*
G04 #@! TA.AperFunction,ViaPad*
%ADD25C,0.889000*%
G04 #@! TD*
G04 #@! TA.AperFunction,ViaPad*
%ADD26C,1.500000*%
G04 #@! TD*
G04 #@! TA.AperFunction,ViaPad*
%ADD27C,1.600000*%
G04 #@! TD*
G04 #@! TA.AperFunction,ViaPad*
%ADD28C,2.000000*%
G04 #@! TD*
G04 #@! TA.AperFunction,ViaPad*
%ADD29C,4.700000*%
G04 #@! TD*
G04 #@! TA.AperFunction,ViaPad*
%ADD30C,2.032000*%
G04 #@! TD*
G04 #@! TA.AperFunction,Conductor*
%ADD31C,0.508000*%
G04 #@! TD*
G04 #@! TA.AperFunction,Conductor*
%ADD32C,0.370000*%
G04 #@! TD*
G04 #@! TA.AperFunction,Conductor*
%ADD33C,1.016000*%
G04 #@! TD*
G04 #@! TA.AperFunction,Conductor*
%ADD34C,0.609600*%
G04 #@! TD*
G04 #@! TA.AperFunction,Conductor*
%ADD35C,1.300000*%
G04 #@! TD*
G04 #@! TA.AperFunction,Conductor*
%ADD36C,0.203200*%
G04 #@! TD*
G04 #@! TA.AperFunction,Conductor*
%ADD37C,1.600000*%
G04 #@! TD*
G04 #@! TA.AperFunction,Conductor*
%ADD38C,1.524000*%
G04 #@! TD*
G04 #@! TA.AperFunction,Conductor*
%ADD39C,2.032000*%
G04 #@! TD*
G04 APERTURE END LIST*
D10*
X135763846Y-116460000D02*
G75*
G02*
X134886740Y-116460000I-438553J0D01*
G01*
X134886740Y-116460000D02*
G75*
G02*
X135763846Y-116460000I438553J0D01*
G01*
D11*
D12*
X28011779Y-142693056D02*
X27951303Y-142753533D01*
X27951303Y-142753533D02*
X27769874Y-142814009D01*
X27769874Y-142814009D02*
X27648922Y-142814009D01*
X27648922Y-142814009D02*
X27467493Y-142753533D01*
X27467493Y-142753533D02*
X27346541Y-142632580D01*
X27346541Y-142632580D02*
X27286064Y-142511628D01*
X27286064Y-142511628D02*
X27225588Y-142269723D01*
X27225588Y-142269723D02*
X27225588Y-142088294D01*
X27225588Y-142088294D02*
X27286064Y-141846390D01*
X27286064Y-141846390D02*
X27346541Y-141725437D01*
X27346541Y-141725437D02*
X27467493Y-141604485D01*
X27467493Y-141604485D02*
X27648922Y-141544009D01*
X27648922Y-141544009D02*
X27769874Y-141544009D01*
X27769874Y-141544009D02*
X27951303Y-141604485D01*
X27951303Y-141604485D02*
X28011779Y-141664961D01*
X28737493Y-142814009D02*
X28616541Y-142753533D01*
X28616541Y-142753533D02*
X28556064Y-142693056D01*
X28556064Y-142693056D02*
X28495588Y-142572104D01*
X28495588Y-142572104D02*
X28495588Y-142209247D01*
X28495588Y-142209247D02*
X28556064Y-142088294D01*
X28556064Y-142088294D02*
X28616541Y-142027818D01*
X28616541Y-142027818D02*
X28737493Y-141967342D01*
X28737493Y-141967342D02*
X28918922Y-141967342D01*
X28918922Y-141967342D02*
X29039874Y-142027818D01*
X29039874Y-142027818D02*
X29100350Y-142088294D01*
X29100350Y-142088294D02*
X29160826Y-142209247D01*
X29160826Y-142209247D02*
X29160826Y-142572104D01*
X29160826Y-142572104D02*
X29100350Y-142693056D01*
X29100350Y-142693056D02*
X29039874Y-142753533D01*
X29039874Y-142753533D02*
X28918922Y-142814009D01*
X28918922Y-142814009D02*
X28737493Y-142814009D01*
X29705112Y-141967342D02*
X29705112Y-143237342D01*
X29705112Y-142027818D02*
X29826065Y-141967342D01*
X29826065Y-141967342D02*
X30067970Y-141967342D01*
X30067970Y-141967342D02*
X30188922Y-142027818D01*
X30188922Y-142027818D02*
X30249398Y-142088294D01*
X30249398Y-142088294D02*
X30309874Y-142209247D01*
X30309874Y-142209247D02*
X30309874Y-142572104D01*
X30309874Y-142572104D02*
X30249398Y-142693056D01*
X30249398Y-142693056D02*
X30188922Y-142753533D01*
X30188922Y-142753533D02*
X30067970Y-142814009D01*
X30067970Y-142814009D02*
X29826065Y-142814009D01*
X29826065Y-142814009D02*
X29705112Y-142753533D01*
X30733208Y-141967342D02*
X31035589Y-142814009D01*
X31337970Y-141967342D02*
X31035589Y-142814009D01*
X31035589Y-142814009D02*
X30914637Y-143116390D01*
X30914637Y-143116390D02*
X30854160Y-143176866D01*
X30854160Y-143176866D02*
X30733208Y-143237342D01*
X31821779Y-142814009D02*
X31821779Y-141967342D01*
X31821779Y-142209247D02*
X31882256Y-142088294D01*
X31882256Y-142088294D02*
X31942732Y-142027818D01*
X31942732Y-142027818D02*
X32063684Y-141967342D01*
X32063684Y-141967342D02*
X32184637Y-141967342D01*
X32607969Y-142814009D02*
X32607969Y-141967342D01*
X32607969Y-141544009D02*
X32547493Y-141604485D01*
X32547493Y-141604485D02*
X32607969Y-141664961D01*
X32607969Y-141664961D02*
X32668446Y-141604485D01*
X32668446Y-141604485D02*
X32607969Y-141544009D01*
X32607969Y-141544009D02*
X32607969Y-141664961D01*
X33757017Y-141967342D02*
X33757017Y-142995437D01*
X33757017Y-142995437D02*
X33696541Y-143116390D01*
X33696541Y-143116390D02*
X33636065Y-143176866D01*
X33636065Y-143176866D02*
X33515112Y-143237342D01*
X33515112Y-143237342D02*
X33333684Y-143237342D01*
X33333684Y-143237342D02*
X33212731Y-143176866D01*
X33757017Y-142753533D02*
X33636065Y-142814009D01*
X33636065Y-142814009D02*
X33394160Y-142814009D01*
X33394160Y-142814009D02*
X33273208Y-142753533D01*
X33273208Y-142753533D02*
X33212731Y-142693056D01*
X33212731Y-142693056D02*
X33152255Y-142572104D01*
X33152255Y-142572104D02*
X33152255Y-142209247D01*
X33152255Y-142209247D02*
X33212731Y-142088294D01*
X33212731Y-142088294D02*
X33273208Y-142027818D01*
X33273208Y-142027818D02*
X33394160Y-141967342D01*
X33394160Y-141967342D02*
X33636065Y-141967342D01*
X33636065Y-141967342D02*
X33757017Y-142027818D01*
X34361779Y-142814009D02*
X34361779Y-141544009D01*
X34906065Y-142814009D02*
X34906065Y-142148771D01*
X34906065Y-142148771D02*
X34845589Y-142027818D01*
X34845589Y-142027818D02*
X34724637Y-141967342D01*
X34724637Y-141967342D02*
X34543208Y-141967342D01*
X34543208Y-141967342D02*
X34422256Y-142027818D01*
X34422256Y-142027818D02*
X34361779Y-142088294D01*
X35329399Y-141967342D02*
X35813208Y-141967342D01*
X35510827Y-141544009D02*
X35510827Y-142632580D01*
X35510827Y-142632580D02*
X35571304Y-142753533D01*
X35571304Y-142753533D02*
X35692256Y-142814009D01*
X35692256Y-142814009D02*
X35813208Y-142814009D01*
X37204160Y-142814009D02*
X37204160Y-141544009D01*
X37204160Y-141544009D02*
X37929875Y-142814009D01*
X37929875Y-142814009D02*
X37929875Y-141544009D01*
X38716065Y-142814009D02*
X38595113Y-142753533D01*
X38595113Y-142753533D02*
X38534636Y-142693056D01*
X38534636Y-142693056D02*
X38474160Y-142572104D01*
X38474160Y-142572104D02*
X38474160Y-142209247D01*
X38474160Y-142209247D02*
X38534636Y-142088294D01*
X38534636Y-142088294D02*
X38595113Y-142027818D01*
X38595113Y-142027818D02*
X38716065Y-141967342D01*
X38716065Y-141967342D02*
X38897494Y-141967342D01*
X38897494Y-141967342D02*
X39018446Y-142027818D01*
X39018446Y-142027818D02*
X39078922Y-142088294D01*
X39078922Y-142088294D02*
X39139398Y-142209247D01*
X39139398Y-142209247D02*
X39139398Y-142572104D01*
X39139398Y-142572104D02*
X39078922Y-142693056D01*
X39078922Y-142693056D02*
X39018446Y-142753533D01*
X39018446Y-142753533D02*
X38897494Y-142814009D01*
X38897494Y-142814009D02*
X38716065Y-142814009D01*
X39683684Y-142814009D02*
X39683684Y-141967342D01*
X39683684Y-142209247D02*
X39744161Y-142088294D01*
X39744161Y-142088294D02*
X39804637Y-142027818D01*
X39804637Y-142027818D02*
X39925589Y-141967342D01*
X39925589Y-141967342D02*
X40046542Y-141967342D01*
X40288446Y-141967342D02*
X40772255Y-141967342D01*
X40469874Y-141544009D02*
X40469874Y-142632580D01*
X40469874Y-142632580D02*
X40530351Y-142753533D01*
X40530351Y-142753533D02*
X40651303Y-142814009D01*
X40651303Y-142814009D02*
X40772255Y-142814009D01*
X41195588Y-142814009D02*
X41195588Y-141544009D01*
X41739874Y-142814009D02*
X41739874Y-142148771D01*
X41739874Y-142148771D02*
X41679398Y-142027818D01*
X41679398Y-142027818D02*
X41558446Y-141967342D01*
X41558446Y-141967342D02*
X41377017Y-141967342D01*
X41377017Y-141967342D02*
X41256065Y-142027818D01*
X41256065Y-142027818D02*
X41195588Y-142088294D01*
X43251779Y-142753533D02*
X43433208Y-142814009D01*
X43433208Y-142814009D02*
X43735589Y-142814009D01*
X43735589Y-142814009D02*
X43856541Y-142753533D01*
X43856541Y-142753533D02*
X43917017Y-142693056D01*
X43917017Y-142693056D02*
X43977494Y-142572104D01*
X43977494Y-142572104D02*
X43977494Y-142451152D01*
X43977494Y-142451152D02*
X43917017Y-142330199D01*
X43917017Y-142330199D02*
X43856541Y-142269723D01*
X43856541Y-142269723D02*
X43735589Y-142209247D01*
X43735589Y-142209247D02*
X43493684Y-142148771D01*
X43493684Y-142148771D02*
X43372732Y-142088294D01*
X43372732Y-142088294D02*
X43312255Y-142027818D01*
X43312255Y-142027818D02*
X43251779Y-141906866D01*
X43251779Y-141906866D02*
X43251779Y-141785913D01*
X43251779Y-141785913D02*
X43312255Y-141664961D01*
X43312255Y-141664961D02*
X43372732Y-141604485D01*
X43372732Y-141604485D02*
X43493684Y-141544009D01*
X43493684Y-141544009D02*
X43796065Y-141544009D01*
X43796065Y-141544009D02*
X43977494Y-141604485D01*
X44340351Y-141967342D02*
X44824160Y-141967342D01*
X44521779Y-141544009D02*
X44521779Y-142632580D01*
X44521779Y-142632580D02*
X44582256Y-142753533D01*
X44582256Y-142753533D02*
X44703208Y-142814009D01*
X44703208Y-142814009D02*
X44824160Y-142814009D01*
X45791779Y-142814009D02*
X45791779Y-142148771D01*
X45791779Y-142148771D02*
X45731303Y-142027818D01*
X45731303Y-142027818D02*
X45610351Y-141967342D01*
X45610351Y-141967342D02*
X45368446Y-141967342D01*
X45368446Y-141967342D02*
X45247493Y-142027818D01*
X45791779Y-142753533D02*
X45670827Y-142814009D01*
X45670827Y-142814009D02*
X45368446Y-142814009D01*
X45368446Y-142814009D02*
X45247493Y-142753533D01*
X45247493Y-142753533D02*
X45187017Y-142632580D01*
X45187017Y-142632580D02*
X45187017Y-142511628D01*
X45187017Y-142511628D02*
X45247493Y-142390675D01*
X45247493Y-142390675D02*
X45368446Y-142330199D01*
X45368446Y-142330199D02*
X45670827Y-142330199D01*
X45670827Y-142330199D02*
X45791779Y-142269723D01*
X46396541Y-142814009D02*
X46396541Y-141967342D01*
X46396541Y-142209247D02*
X46457018Y-142088294D01*
X46457018Y-142088294D02*
X46517494Y-142027818D01*
X46517494Y-142027818D02*
X46638446Y-141967342D01*
X46638446Y-141967342D02*
X46759399Y-141967342D01*
X48876065Y-142693056D02*
X48815589Y-142753533D01*
X48815589Y-142753533D02*
X48634160Y-142814009D01*
X48634160Y-142814009D02*
X48513208Y-142814009D01*
X48513208Y-142814009D02*
X48331779Y-142753533D01*
X48331779Y-142753533D02*
X48210827Y-142632580D01*
X48210827Y-142632580D02*
X48150350Y-142511628D01*
X48150350Y-142511628D02*
X48089874Y-142269723D01*
X48089874Y-142269723D02*
X48089874Y-142088294D01*
X48089874Y-142088294D02*
X48150350Y-141846390D01*
X48150350Y-141846390D02*
X48210827Y-141725437D01*
X48210827Y-141725437D02*
X48331779Y-141604485D01*
X48331779Y-141604485D02*
X48513208Y-141544009D01*
X48513208Y-141544009D02*
X48634160Y-141544009D01*
X48634160Y-141544009D02*
X48815589Y-141604485D01*
X48815589Y-141604485D02*
X48876065Y-141664961D01*
X49601779Y-142814009D02*
X49480827Y-142753533D01*
X49480827Y-142753533D02*
X49420350Y-142693056D01*
X49420350Y-142693056D02*
X49359874Y-142572104D01*
X49359874Y-142572104D02*
X49359874Y-142209247D01*
X49359874Y-142209247D02*
X49420350Y-142088294D01*
X49420350Y-142088294D02*
X49480827Y-142027818D01*
X49480827Y-142027818D02*
X49601779Y-141967342D01*
X49601779Y-141967342D02*
X49783208Y-141967342D01*
X49783208Y-141967342D02*
X49904160Y-142027818D01*
X49904160Y-142027818D02*
X49964636Y-142088294D01*
X49964636Y-142088294D02*
X50025112Y-142209247D01*
X50025112Y-142209247D02*
X50025112Y-142572104D01*
X50025112Y-142572104D02*
X49964636Y-142693056D01*
X49964636Y-142693056D02*
X49904160Y-142753533D01*
X49904160Y-142753533D02*
X49783208Y-142814009D01*
X49783208Y-142814009D02*
X49601779Y-142814009D01*
X50569398Y-142814009D02*
X50569398Y-141967342D01*
X50569398Y-142088294D02*
X50629875Y-142027818D01*
X50629875Y-142027818D02*
X50750827Y-141967342D01*
X50750827Y-141967342D02*
X50932256Y-141967342D01*
X50932256Y-141967342D02*
X51053208Y-142027818D01*
X51053208Y-142027818D02*
X51113684Y-142148771D01*
X51113684Y-142148771D02*
X51113684Y-142814009D01*
X51113684Y-142148771D02*
X51174160Y-142027818D01*
X51174160Y-142027818D02*
X51295113Y-141967342D01*
X51295113Y-141967342D02*
X51476541Y-141967342D01*
X51476541Y-141967342D02*
X51597494Y-142027818D01*
X51597494Y-142027818D02*
X51657970Y-142148771D01*
X51657970Y-142148771D02*
X51657970Y-142814009D01*
X52262731Y-141967342D02*
X52262731Y-143237342D01*
X52262731Y-142027818D02*
X52383684Y-141967342D01*
X52383684Y-141967342D02*
X52625589Y-141967342D01*
X52625589Y-141967342D02*
X52746541Y-142027818D01*
X52746541Y-142027818D02*
X52807017Y-142088294D01*
X52807017Y-142088294D02*
X52867493Y-142209247D01*
X52867493Y-142209247D02*
X52867493Y-142572104D01*
X52867493Y-142572104D02*
X52807017Y-142693056D01*
X52807017Y-142693056D02*
X52746541Y-142753533D01*
X52746541Y-142753533D02*
X52625589Y-142814009D01*
X52625589Y-142814009D02*
X52383684Y-142814009D01*
X52383684Y-142814009D02*
X52262731Y-142753533D01*
X53956065Y-141967342D02*
X53956065Y-142814009D01*
X53411779Y-141967342D02*
X53411779Y-142632580D01*
X53411779Y-142632580D02*
X53472256Y-142753533D01*
X53472256Y-142753533D02*
X53593208Y-142814009D01*
X53593208Y-142814009D02*
X53774637Y-142814009D01*
X53774637Y-142814009D02*
X53895589Y-142753533D01*
X53895589Y-142753533D02*
X53956065Y-142693056D01*
X54379399Y-141967342D02*
X54863208Y-141967342D01*
X54560827Y-141544009D02*
X54560827Y-142632580D01*
X54560827Y-142632580D02*
X54621304Y-142753533D01*
X54621304Y-142753533D02*
X54742256Y-142814009D01*
X54742256Y-142814009D02*
X54863208Y-142814009D01*
X55770351Y-142753533D02*
X55649399Y-142814009D01*
X55649399Y-142814009D02*
X55407494Y-142814009D01*
X55407494Y-142814009D02*
X55286541Y-142753533D01*
X55286541Y-142753533D02*
X55226065Y-142632580D01*
X55226065Y-142632580D02*
X55226065Y-142148771D01*
X55226065Y-142148771D02*
X55286541Y-142027818D01*
X55286541Y-142027818D02*
X55407494Y-141967342D01*
X55407494Y-141967342D02*
X55649399Y-141967342D01*
X55649399Y-141967342D02*
X55770351Y-142027818D01*
X55770351Y-142027818D02*
X55830827Y-142148771D01*
X55830827Y-142148771D02*
X55830827Y-142269723D01*
X55830827Y-142269723D02*
X55226065Y-142390675D01*
X56375112Y-142814009D02*
X56375112Y-141967342D01*
X56375112Y-142209247D02*
X56435589Y-142088294D01*
X56435589Y-142088294D02*
X56496065Y-142027818D01*
X56496065Y-142027818D02*
X56617017Y-141967342D01*
X56617017Y-141967342D02*
X56737970Y-141967342D01*
X57100826Y-142753533D02*
X57221779Y-142814009D01*
X57221779Y-142814009D02*
X57463683Y-142814009D01*
X57463683Y-142814009D02*
X57584636Y-142753533D01*
X57584636Y-142753533D02*
X57645112Y-142632580D01*
X57645112Y-142632580D02*
X57645112Y-142572104D01*
X57645112Y-142572104D02*
X57584636Y-142451152D01*
X57584636Y-142451152D02*
X57463683Y-142390675D01*
X57463683Y-142390675D02*
X57282255Y-142390675D01*
X57282255Y-142390675D02*
X57161302Y-142330199D01*
X57161302Y-142330199D02*
X57100826Y-142209247D01*
X57100826Y-142209247D02*
X57100826Y-142148771D01*
X57100826Y-142148771D02*
X57161302Y-142027818D01*
X57161302Y-142027818D02*
X57282255Y-141967342D01*
X57282255Y-141967342D02*
X57463683Y-141967342D01*
X57463683Y-141967342D02*
X57584636Y-142027818D01*
X59157016Y-142814009D02*
X59157016Y-141544009D01*
X59761778Y-141967342D02*
X59761778Y-142814009D01*
X59761778Y-142088294D02*
X59822255Y-142027818D01*
X59822255Y-142027818D02*
X59943207Y-141967342D01*
X59943207Y-141967342D02*
X60124636Y-141967342D01*
X60124636Y-141967342D02*
X60245588Y-142027818D01*
X60245588Y-142027818D02*
X60306064Y-142148771D01*
X60306064Y-142148771D02*
X60306064Y-142814009D01*
X61455112Y-142753533D02*
X61334160Y-142814009D01*
X61334160Y-142814009D02*
X61092255Y-142814009D01*
X61092255Y-142814009D02*
X60971303Y-142753533D01*
X60971303Y-142753533D02*
X60910826Y-142693056D01*
X60910826Y-142693056D02*
X60850350Y-142572104D01*
X60850350Y-142572104D02*
X60850350Y-142209247D01*
X60850350Y-142209247D02*
X60910826Y-142088294D01*
X60910826Y-142088294D02*
X60971303Y-142027818D01*
X60971303Y-142027818D02*
X61092255Y-141967342D01*
X61092255Y-141967342D02*
X61334160Y-141967342D01*
X61334160Y-141967342D02*
X61455112Y-142027818D01*
D13*
X246790000Y-132120000D03*
X241960000Y-132140000D03*
D14*
X28620000Y-132000000D03*
D15*
X31160000Y-132000000D03*
X33700000Y-132000000D03*
X36240000Y-132000000D03*
X38780000Y-132000000D03*
X41320000Y-132000000D03*
X43860000Y-132000000D03*
X43860000Y-124380000D03*
X41320000Y-124380000D03*
X38780000Y-124380000D03*
X36240000Y-124380000D03*
X33700000Y-124380000D03*
X31160000Y-124380000D03*
X28620000Y-124380000D03*
D14*
X109040000Y-131900000D03*
D15*
X111580000Y-131900000D03*
X114120000Y-131900000D03*
X116660000Y-131900000D03*
X119200000Y-131900000D03*
X121740000Y-131900000D03*
X124280000Y-131900000D03*
X124280000Y-124280000D03*
X121740000Y-124280000D03*
X119200000Y-124280000D03*
X116660000Y-124280000D03*
X114120000Y-124280000D03*
X111580000Y-124280000D03*
X109040000Y-124280000D03*
D13*
X128430000Y-103710000D03*
X128450000Y-109600000D03*
D14*
X28550000Y-89720000D03*
D15*
X31090000Y-89720000D03*
X33630000Y-89720000D03*
X36170000Y-89720000D03*
X38710000Y-89720000D03*
X41250000Y-89720000D03*
X43790000Y-89720000D03*
X43790000Y-82100000D03*
X41250000Y-82100000D03*
X38710000Y-82100000D03*
X36170000Y-82100000D03*
X33630000Y-82100000D03*
X31090000Y-82100000D03*
X28550000Y-82100000D03*
D14*
X165040000Y-132160000D03*
D15*
X167580000Y-132160000D03*
X170120000Y-132160000D03*
X172660000Y-132160000D03*
X175200000Y-132160000D03*
X177740000Y-132160000D03*
X180280000Y-132160000D03*
X180280000Y-124540000D03*
X177740000Y-124540000D03*
X175200000Y-124540000D03*
X172660000Y-124540000D03*
X170120000Y-124540000D03*
X167580000Y-124540000D03*
X165040000Y-124540000D03*
D13*
X201460000Y-78792500D03*
X201420000Y-72422500D03*
D14*
X251060000Y-44950000D03*
D15*
X251060000Y-42410000D03*
X251060000Y-39870000D03*
X251060000Y-37330000D03*
X251060000Y-34790000D03*
X251060000Y-32250000D03*
X251060000Y-29710000D03*
X251060000Y-27170000D03*
X243440000Y-27170000D03*
X243440000Y-29710000D03*
X243440000Y-32250000D03*
X243440000Y-34790000D03*
X243440000Y-37330000D03*
X243440000Y-39870000D03*
X243440000Y-42410000D03*
X243440000Y-44950000D03*
D13*
X192675000Y-53440000D03*
X186355000Y-53510000D03*
D14*
X132580000Y-45110000D03*
D15*
X132580000Y-42570000D03*
X132580000Y-40030000D03*
X132580000Y-37490000D03*
X132580000Y-34950000D03*
X132580000Y-32410000D03*
X132580000Y-29870000D03*
X132580000Y-27330000D03*
X124960000Y-27330000D03*
X124960000Y-29870000D03*
X124960000Y-32410000D03*
X124960000Y-34950000D03*
X124960000Y-37490000D03*
X124960000Y-40030000D03*
X124960000Y-42570000D03*
X124960000Y-45110000D03*
D14*
X111990000Y-45125000D03*
D15*
X111990000Y-42585000D03*
X111990000Y-40045000D03*
X111990000Y-37505000D03*
X111990000Y-34965000D03*
X111990000Y-32425000D03*
X111990000Y-29885000D03*
X111990000Y-27345000D03*
X104370000Y-27345000D03*
X104370000Y-29885000D03*
X104370000Y-32425000D03*
X104370000Y-34965000D03*
X104370000Y-37505000D03*
X104370000Y-40045000D03*
X104370000Y-42585000D03*
X104370000Y-45125000D03*
D16*
X26250000Y-74610000D03*
D17*
X51250000Y-74610000D03*
D14*
X252090000Y-106910000D03*
D15*
X254630000Y-106910000D03*
X257170000Y-106910000D03*
X259710000Y-106910000D03*
X262250000Y-106910000D03*
X264790000Y-106910000D03*
X267330000Y-106910000D03*
X269870000Y-106910000D03*
X269870000Y-99290000D03*
X267330000Y-99290000D03*
X264790000Y-99290000D03*
X262250000Y-99290000D03*
X259710000Y-99290000D03*
X257170000Y-99290000D03*
X254630000Y-99290000D03*
X252090000Y-99290000D03*
D14*
X233210000Y-45200000D03*
D15*
X233210000Y-42660000D03*
X233210000Y-40120000D03*
X233210000Y-37580000D03*
X233210000Y-35040000D03*
X233210000Y-32500000D03*
X233210000Y-29960000D03*
X233210000Y-27420000D03*
X225590000Y-27420000D03*
X225590000Y-29960000D03*
X225590000Y-32500000D03*
X225590000Y-35040000D03*
X225590000Y-37580000D03*
X225590000Y-40120000D03*
X225590000Y-42660000D03*
X225590000Y-45200000D03*
D18*
X77060000Y-102460000D03*
D15*
X77040000Y-117390000D03*
D18*
X132090000Y-116010000D03*
D15*
X132090000Y-103310000D03*
D14*
X28605000Y-110870000D03*
D15*
X31145000Y-110870000D03*
X33685000Y-110870000D03*
X36225000Y-110870000D03*
X38765000Y-110870000D03*
X41305000Y-110870000D03*
X43845000Y-110870000D03*
X46385000Y-110870000D03*
X46385000Y-103250000D03*
X43845000Y-103250000D03*
X41305000Y-103250000D03*
X38765000Y-103250000D03*
X36225000Y-103250000D03*
X33685000Y-103250000D03*
X31145000Y-103250000D03*
X28605000Y-103250000D03*
D18*
X105180000Y-103130000D03*
D15*
X105210000Y-117020000D03*
D14*
X137070000Y-110600000D03*
D15*
X139610000Y-110600000D03*
X142150000Y-110600000D03*
X144690000Y-110600000D03*
X147230000Y-110600000D03*
X149770000Y-110600000D03*
X152310000Y-110600000D03*
X154850000Y-110600000D03*
X154850000Y-102980000D03*
X152310000Y-102980000D03*
X149770000Y-102980000D03*
X147230000Y-102980000D03*
X144690000Y-102980000D03*
X142150000Y-102980000D03*
X139610000Y-102980000D03*
X137070000Y-102980000D03*
D14*
X193295000Y-113570000D03*
D15*
X195835000Y-113570000D03*
X198375000Y-113570000D03*
X200915000Y-113570000D03*
X203455000Y-113570000D03*
X205995000Y-113570000D03*
X208535000Y-113570000D03*
X211075000Y-113570000D03*
X211075000Y-105950000D03*
X208535000Y-105950000D03*
X205995000Y-105950000D03*
X203455000Y-105950000D03*
X200915000Y-105950000D03*
X198375000Y-105950000D03*
X195835000Y-105950000D03*
X193295000Y-105950000D03*
D18*
X104770000Y-120110000D03*
D15*
X92070000Y-120110000D03*
D13*
X76490000Y-82710000D03*
X76540000Y-89200000D03*
X175210000Y-45330000D03*
X175170000Y-39710000D03*
X128340000Y-83300000D03*
X128390000Y-89890000D03*
D14*
X165450000Y-96240000D03*
D15*
X167990000Y-96240000D03*
X170530000Y-96240000D03*
X173070000Y-96240000D03*
X175610000Y-96240000D03*
X178150000Y-96240000D03*
X180690000Y-96240000D03*
X183230000Y-96240000D03*
X183230000Y-88620000D03*
X180690000Y-88620000D03*
X178150000Y-88620000D03*
X175610000Y-88620000D03*
X173070000Y-88620000D03*
X170530000Y-88620000D03*
X167990000Y-88620000D03*
X165450000Y-88620000D03*
D13*
X258550000Y-50230000D03*
X263620000Y-50180000D03*
X162785000Y-80197500D03*
X156325000Y-79127500D03*
X48340000Y-82520000D03*
X48340000Y-88900000D03*
D14*
X252360000Y-61540000D03*
D15*
X254900000Y-61540000D03*
X257440000Y-61540000D03*
X259980000Y-61540000D03*
X262520000Y-61540000D03*
X265060000Y-61540000D03*
X267600000Y-61540000D03*
X270140000Y-61540000D03*
X270140000Y-53920000D03*
X267600000Y-53920000D03*
X265060000Y-53920000D03*
X262520000Y-53920000D03*
X259980000Y-53920000D03*
X257440000Y-53920000D03*
X254900000Y-53920000D03*
X252360000Y-53920000D03*
D14*
X165650000Y-77910000D03*
D15*
X168190000Y-77910000D03*
X170730000Y-77910000D03*
X173270000Y-77910000D03*
X175810000Y-77910000D03*
X178350000Y-77910000D03*
X180890000Y-77910000D03*
X183430000Y-77910000D03*
X183430000Y-70290000D03*
X180890000Y-70290000D03*
X178350000Y-70290000D03*
X175810000Y-70290000D03*
X173270000Y-70290000D03*
X170730000Y-70290000D03*
X168190000Y-70290000D03*
X165650000Y-70290000D03*
D13*
X264520000Y-94530000D03*
X270270000Y-94490000D03*
X161850000Y-124350000D03*
X161870000Y-130730000D03*
D14*
X252100000Y-137260000D03*
D15*
X254640000Y-137260000D03*
X257180000Y-137260000D03*
X259720000Y-137260000D03*
X262260000Y-137260000D03*
X264800000Y-137260000D03*
X267340000Y-137260000D03*
X269880000Y-137260000D03*
X269880000Y-129640000D03*
X267340000Y-129640000D03*
X264800000Y-129640000D03*
X262260000Y-129640000D03*
X259720000Y-129640000D03*
X257180000Y-129640000D03*
X254640000Y-129640000D03*
X252100000Y-129640000D03*
D14*
X221490000Y-132590000D03*
D15*
X224030000Y-132590000D03*
X226570000Y-132590000D03*
X229110000Y-132590000D03*
X231650000Y-132590000D03*
X234190000Y-132590000D03*
X236730000Y-132590000D03*
X239270000Y-132590000D03*
X239270000Y-124970000D03*
X236730000Y-124970000D03*
X234190000Y-124970000D03*
X231650000Y-124970000D03*
X229110000Y-124970000D03*
X226570000Y-124970000D03*
X224030000Y-124970000D03*
X221490000Y-124970000D03*
D14*
X137315000Y-90380000D03*
D15*
X139855000Y-90380000D03*
X142395000Y-90380000D03*
X144935000Y-90380000D03*
X147475000Y-90380000D03*
X150015000Y-90380000D03*
X152555000Y-90380000D03*
X155095000Y-90380000D03*
X155095000Y-82760000D03*
X152555000Y-82760000D03*
X150015000Y-82760000D03*
X147475000Y-82760000D03*
X144935000Y-82760000D03*
X142395000Y-82760000D03*
X139855000Y-82760000D03*
X137315000Y-82760000D03*
D14*
X109430000Y-109880000D03*
D15*
X111970000Y-109880000D03*
X114510000Y-109880000D03*
X117050000Y-109880000D03*
X119590000Y-109880000D03*
X122130000Y-109880000D03*
X124670000Y-109880000D03*
X124670000Y-102260000D03*
X122130000Y-102260000D03*
X119590000Y-102260000D03*
X117050000Y-102260000D03*
X114510000Y-102260000D03*
X111970000Y-102260000D03*
X109430000Y-102260000D03*
D14*
X266770000Y-44950000D03*
D15*
X266770000Y-42410000D03*
X266770000Y-39870000D03*
X266770000Y-37330000D03*
X266770000Y-34790000D03*
X266770000Y-32250000D03*
X266770000Y-29710000D03*
X266770000Y-27170000D03*
X259150000Y-27170000D03*
X259150000Y-29710000D03*
X259150000Y-32250000D03*
X259150000Y-34790000D03*
X259150000Y-37330000D03*
X259150000Y-39870000D03*
X259150000Y-42410000D03*
X259150000Y-44950000D03*
D13*
X189550000Y-126920000D03*
X189610000Y-133210000D03*
D14*
X165430000Y-113480000D03*
D15*
X167970000Y-113480000D03*
X170510000Y-113480000D03*
X173050000Y-113480000D03*
X175590000Y-113480000D03*
X178130000Y-113480000D03*
X180670000Y-113480000D03*
X183210000Y-113480000D03*
X183210000Y-105860000D03*
X180670000Y-105860000D03*
X178130000Y-105860000D03*
X175590000Y-105860000D03*
X173050000Y-105860000D03*
X170510000Y-105860000D03*
X167970000Y-105860000D03*
X165430000Y-105860000D03*
D14*
X196500000Y-52625000D03*
D15*
X196500000Y-55165000D03*
X196500000Y-57705000D03*
X196500000Y-60245000D03*
X196500000Y-62785000D03*
X196500000Y-65325000D03*
X196500000Y-67865000D03*
X204120000Y-67865000D03*
X204120000Y-65325000D03*
X204120000Y-62785000D03*
X204120000Y-60245000D03*
X204120000Y-57705000D03*
X204120000Y-55165000D03*
X204120000Y-52625000D03*
D18*
X99325000Y-116900000D03*
X99325000Y-110760000D03*
X93680000Y-75740000D03*
D15*
X93690000Y-65630000D03*
D14*
X124810000Y-51950000D03*
D15*
X124810000Y-54490000D03*
X124810000Y-57030000D03*
X124810000Y-59570000D03*
X124810000Y-62110000D03*
X124810000Y-64650000D03*
X124810000Y-67190000D03*
X124810000Y-69730000D03*
X132430000Y-69730000D03*
X132430000Y-67190000D03*
X132430000Y-64650000D03*
X132430000Y-62110000D03*
X132430000Y-59570000D03*
X132430000Y-57030000D03*
X132430000Y-54490000D03*
X132430000Y-51950000D03*
D18*
X94080000Y-50150000D03*
X94070000Y-56250000D03*
D14*
X203910000Y-44585000D03*
D15*
X203910000Y-42045000D03*
X203910000Y-39505000D03*
X203910000Y-36965000D03*
X203910000Y-34425000D03*
X203910000Y-31885000D03*
X203910000Y-29345000D03*
X203910000Y-26805000D03*
X196290000Y-26805000D03*
X196290000Y-29345000D03*
X196290000Y-31885000D03*
X196290000Y-34425000D03*
X196290000Y-36965000D03*
X196290000Y-39505000D03*
X196290000Y-42045000D03*
X196290000Y-44585000D03*
D14*
X193015000Y-132370000D03*
D15*
X195555000Y-132370000D03*
X198095000Y-132370000D03*
X200635000Y-132370000D03*
X203175000Y-132370000D03*
X205715000Y-132370000D03*
X208255000Y-132370000D03*
X210795000Y-132370000D03*
X210795000Y-124750000D03*
X208255000Y-124750000D03*
X205715000Y-124750000D03*
X203175000Y-124750000D03*
X200635000Y-124750000D03*
X198095000Y-124750000D03*
X195555000Y-124750000D03*
X193015000Y-124750000D03*
D14*
X80545000Y-132050000D03*
D15*
X83085000Y-132050000D03*
X85625000Y-132050000D03*
X88165000Y-132050000D03*
X90705000Y-132050000D03*
X93245000Y-132050000D03*
X95785000Y-132050000D03*
X95785000Y-124430000D03*
X93245000Y-124430000D03*
X90705000Y-124430000D03*
X88165000Y-124430000D03*
X85625000Y-124430000D03*
X83085000Y-124430000D03*
X80545000Y-124430000D03*
D13*
X48420000Y-123200000D03*
X48460000Y-129840000D03*
D14*
X252200000Y-76630000D03*
D15*
X254740000Y-76630000D03*
X257280000Y-76630000D03*
X259820000Y-76630000D03*
X262360000Y-76630000D03*
X264900000Y-76630000D03*
X267440000Y-76630000D03*
X269980000Y-76630000D03*
X269980000Y-69010000D03*
X267440000Y-69010000D03*
X264900000Y-69010000D03*
X262360000Y-69010000D03*
X259820000Y-69010000D03*
X257280000Y-69010000D03*
X254740000Y-69010000D03*
X252200000Y-69010000D03*
D18*
X94980000Y-45920000D03*
X94980000Y-40920000D03*
D19*
X61050000Y-152810000D03*
D20*
X64733000Y-152810000D03*
X67908000Y-152810000D03*
X71083000Y-152810000D03*
X74258000Y-152810000D03*
X77433000Y-152810000D03*
X80608000Y-152810000D03*
X83783000Y-152810000D03*
X86958000Y-152810000D03*
X90133000Y-152810000D03*
X93308000Y-152810000D03*
X96483000Y-152810000D03*
X99658000Y-152810000D03*
X102833000Y-152810000D03*
X106008000Y-152810000D03*
X109183000Y-152810000D03*
X112358000Y-152810000D03*
X115533000Y-152810000D03*
X118708000Y-152810000D03*
X121883000Y-152810000D03*
X125058000Y-152810000D03*
X128233000Y-152810000D03*
X131408000Y-152810000D03*
X134583000Y-152810000D03*
X137758000Y-152810000D03*
X140933000Y-152810000D03*
X144108000Y-152810000D03*
X147283000Y-152810000D03*
X150458000Y-152810000D03*
X153633000Y-152810000D03*
X156808000Y-152810000D03*
X159983000Y-152810000D03*
X163158000Y-152810000D03*
X166333000Y-152810000D03*
X169508000Y-152810000D03*
X172683000Y-152810000D03*
X175858000Y-152810000D03*
X179033000Y-152810000D03*
X182208000Y-152810000D03*
X185383000Y-152810000D03*
X188558000Y-152810000D03*
X191733000Y-152810000D03*
X194908000Y-152810000D03*
X198083000Y-152810000D03*
X201258000Y-152810000D03*
X204433000Y-152810000D03*
X207608000Y-152810000D03*
X210783000Y-152810000D03*
X213958000Y-152810000D03*
D19*
X217641000Y-152810000D03*
D14*
X81180000Y-110270000D03*
D15*
X83720000Y-110270000D03*
X86260000Y-110270000D03*
X88800000Y-110270000D03*
X91340000Y-110270000D03*
X93880000Y-110270000D03*
X96420000Y-110270000D03*
X96420000Y-102650000D03*
X93880000Y-102650000D03*
X91340000Y-102650000D03*
X88800000Y-102650000D03*
X86260000Y-102650000D03*
X83720000Y-102650000D03*
X81180000Y-102650000D03*
D14*
X186710000Y-44205000D03*
D15*
X186710000Y-41665000D03*
X186710000Y-39125000D03*
X186710000Y-36585000D03*
X186710000Y-34045000D03*
X186710000Y-31505000D03*
X186710000Y-28965000D03*
X186710000Y-26425000D03*
X179090000Y-26425000D03*
X179090000Y-28965000D03*
X179090000Y-31505000D03*
X179090000Y-34045000D03*
X179090000Y-36585000D03*
X179090000Y-39125000D03*
X179090000Y-41665000D03*
X179090000Y-44205000D03*
D14*
X252075000Y-122340000D03*
D15*
X254615000Y-122340000D03*
X257155000Y-122340000D03*
X259695000Y-122340000D03*
X262235000Y-122340000D03*
X264775000Y-122340000D03*
X267315000Y-122340000D03*
X269855000Y-122340000D03*
X269855000Y-114720000D03*
X267315000Y-114720000D03*
X264775000Y-114720000D03*
X262235000Y-114720000D03*
X259695000Y-114720000D03*
X257155000Y-114720000D03*
X254615000Y-114720000D03*
X252075000Y-114720000D03*
D13*
X260220000Y-47775000D03*
X265240000Y-47765000D03*
D14*
X109195000Y-90200000D03*
D15*
X111735000Y-90200000D03*
X114275000Y-90200000D03*
X116815000Y-90200000D03*
X119355000Y-90200000D03*
X121895000Y-90200000D03*
X124435000Y-90200000D03*
X124435000Y-82580000D03*
X121895000Y-82580000D03*
X119355000Y-82580000D03*
X116815000Y-82580000D03*
X114275000Y-82580000D03*
X111735000Y-82580000D03*
X109195000Y-82580000D03*
D14*
X145130000Y-52060000D03*
D15*
X145130000Y-54600000D03*
X145130000Y-57140000D03*
X145130000Y-59680000D03*
X145130000Y-62220000D03*
X145130000Y-64760000D03*
X145130000Y-67300000D03*
X145130000Y-69840000D03*
X152750000Y-69840000D03*
X152750000Y-67300000D03*
X152750000Y-64760000D03*
X152750000Y-62220000D03*
X152750000Y-59680000D03*
X152750000Y-57140000D03*
X152750000Y-54600000D03*
X152750000Y-52060000D03*
D14*
X54830000Y-132110000D03*
D15*
X57370000Y-132110000D03*
X59910000Y-132110000D03*
X62450000Y-132110000D03*
X64990000Y-132110000D03*
X67530000Y-132110000D03*
X70070000Y-132110000D03*
X70070000Y-124490000D03*
X67530000Y-124490000D03*
X64990000Y-124490000D03*
X62450000Y-124490000D03*
X59910000Y-124490000D03*
X57370000Y-124490000D03*
X54830000Y-124490000D03*
D14*
X171000000Y-44250000D03*
D15*
X171000000Y-41710000D03*
X171000000Y-39170000D03*
X171000000Y-36630000D03*
X171000000Y-34090000D03*
X171000000Y-31550000D03*
X171000000Y-29010000D03*
X171000000Y-26470000D03*
X163380000Y-26470000D03*
X163380000Y-29010000D03*
X163380000Y-31550000D03*
X163380000Y-34090000D03*
X163380000Y-36630000D03*
X163380000Y-39170000D03*
X163380000Y-41710000D03*
X163380000Y-44250000D03*
D14*
X219180000Y-44585000D03*
D15*
X219180000Y-42045000D03*
X219180000Y-39505000D03*
X219180000Y-36965000D03*
X219180000Y-34425000D03*
X219180000Y-31885000D03*
X219180000Y-29345000D03*
X219180000Y-26805000D03*
X211560000Y-26805000D03*
X211560000Y-29345000D03*
X211560000Y-31885000D03*
X211560000Y-34425000D03*
X211560000Y-36965000D03*
X211560000Y-39505000D03*
X211560000Y-42045000D03*
X211560000Y-44585000D03*
D21*
X46407836Y-33435733D03*
D22*
X42638957Y-33343809D03*
X42815734Y-37027835D03*
D18*
X91660000Y-75820000D03*
X84520000Y-75820000D03*
D14*
X152730000Y-45160000D03*
D15*
X152730000Y-42620000D03*
X152730000Y-40080000D03*
X152730000Y-37540000D03*
X152730000Y-35000000D03*
X152730000Y-32460000D03*
X152730000Y-29920000D03*
X152730000Y-27380000D03*
X145110000Y-27380000D03*
X145110000Y-29920000D03*
X145110000Y-32460000D03*
X145110000Y-35000000D03*
X145110000Y-37540000D03*
X145110000Y-40080000D03*
X145110000Y-42620000D03*
X145110000Y-45160000D03*
D14*
X137195000Y-131560000D03*
D15*
X139735000Y-131560000D03*
X142275000Y-131560000D03*
X144815000Y-131560000D03*
X147355000Y-131560000D03*
X149895000Y-131560000D03*
X152435000Y-131560000D03*
X152435000Y-123940000D03*
X149895000Y-123940000D03*
X147355000Y-123940000D03*
X144815000Y-123940000D03*
X142275000Y-123940000D03*
X139735000Y-123940000D03*
X137195000Y-123940000D03*
D18*
X88470000Y-62310000D03*
X93470000Y-62310000D03*
D14*
X252360000Y-91400000D03*
D15*
X254900000Y-91400000D03*
X257440000Y-91400000D03*
X259980000Y-91400000D03*
X262520000Y-91400000D03*
X265060000Y-91400000D03*
X267600000Y-91400000D03*
X270140000Y-91400000D03*
X270140000Y-83780000D03*
X267600000Y-83780000D03*
X265060000Y-83780000D03*
X262520000Y-83780000D03*
X259980000Y-83780000D03*
X257440000Y-83780000D03*
X254900000Y-83780000D03*
X252360000Y-83780000D03*
D18*
X73430000Y-117500000D03*
X73470000Y-110970000D03*
D23*
X86170000Y-58690000D03*
X82370000Y-58690000D03*
D14*
X165910000Y-59980000D03*
D15*
X168450000Y-59980000D03*
X170990000Y-59980000D03*
X173530000Y-59980000D03*
X176070000Y-59980000D03*
X178610000Y-59980000D03*
X181150000Y-59980000D03*
X183690000Y-59980000D03*
X183690000Y-52360000D03*
X181150000Y-52360000D03*
X178610000Y-52360000D03*
X176070000Y-52360000D03*
X173530000Y-52360000D03*
X170990000Y-52360000D03*
X168450000Y-52360000D03*
X165910000Y-52360000D03*
D14*
X231550000Y-52745000D03*
D15*
X231550000Y-55285000D03*
X231550000Y-57825000D03*
X231550000Y-60365000D03*
X231550000Y-62905000D03*
X231550000Y-65445000D03*
X231550000Y-67985000D03*
X231550000Y-70525000D03*
X239170000Y-70525000D03*
X239170000Y-67985000D03*
X239170000Y-65445000D03*
X239170000Y-62905000D03*
X239170000Y-60365000D03*
X239170000Y-57825000D03*
X239170000Y-55285000D03*
X239170000Y-52745000D03*
D18*
X80340000Y-65295000D03*
D15*
X80290000Y-75565000D03*
D14*
X55060000Y-110360000D03*
D15*
X57600000Y-110360000D03*
X60140000Y-110360000D03*
X62680000Y-110360000D03*
X65220000Y-110360000D03*
X67760000Y-110360000D03*
X70300000Y-110360000D03*
X70300000Y-102740000D03*
X67760000Y-102740000D03*
X65220000Y-102740000D03*
X62680000Y-102740000D03*
X60140000Y-102740000D03*
X57600000Y-102740000D03*
X55060000Y-102740000D03*
D14*
X104020000Y-51890000D03*
D15*
X104020000Y-54430000D03*
X104020000Y-56970000D03*
X104020000Y-59510000D03*
X104020000Y-62050000D03*
X104020000Y-64590000D03*
X104020000Y-67130000D03*
X104020000Y-69670000D03*
X111640000Y-69670000D03*
X111640000Y-67130000D03*
X111640000Y-64590000D03*
X111640000Y-62050000D03*
X111640000Y-59510000D03*
X111640000Y-56970000D03*
X111640000Y-54430000D03*
X111640000Y-51890000D03*
D14*
X54950000Y-89820000D03*
D15*
X57490000Y-89820000D03*
X60030000Y-89820000D03*
X62570000Y-89820000D03*
X65110000Y-89820000D03*
X67650000Y-89820000D03*
X70190000Y-89820000D03*
X72730000Y-89820000D03*
X72730000Y-82200000D03*
X70190000Y-82200000D03*
X67650000Y-82200000D03*
X65110000Y-82200000D03*
X62570000Y-82200000D03*
X60030000Y-82200000D03*
X57490000Y-82200000D03*
X54950000Y-82200000D03*
D24*
X41138415Y-54780517D03*
D22*
X45381056Y-55431055D03*
X44730517Y-51188415D03*
D14*
X80735000Y-90200000D03*
D15*
X83275000Y-90200000D03*
X85815000Y-90200000D03*
X88355000Y-90200000D03*
X90895000Y-90200000D03*
X93435000Y-90200000D03*
X95975000Y-90200000D03*
X95975000Y-82580000D03*
X93435000Y-82580000D03*
X90895000Y-82580000D03*
X88355000Y-82580000D03*
X85815000Y-82580000D03*
X83275000Y-82580000D03*
X80735000Y-82580000D03*
D14*
X203435000Y-96185000D03*
D15*
X205975000Y-96185000D03*
X208515000Y-96185000D03*
X211055000Y-96185000D03*
X213595000Y-96185000D03*
X216135000Y-96185000D03*
X218675000Y-96185000D03*
X221215000Y-96185000D03*
X223755000Y-96185000D03*
X226295000Y-96185000D03*
X228835000Y-96185000D03*
X231375000Y-96185000D03*
X231375000Y-80945000D03*
X228835000Y-80945000D03*
X226295000Y-80945000D03*
X223755000Y-80945000D03*
X221215000Y-80945000D03*
X218675000Y-80945000D03*
X216135000Y-80945000D03*
X213595000Y-80945000D03*
X211055000Y-80945000D03*
X208515000Y-80945000D03*
X205975000Y-80945000D03*
X203435000Y-80945000D03*
D14*
X221190000Y-113510000D03*
D15*
X223730000Y-113510000D03*
X226270000Y-113510000D03*
X228810000Y-113510000D03*
X231350000Y-113510000D03*
X233890000Y-113510000D03*
X236430000Y-113510000D03*
X238970000Y-113510000D03*
X238970000Y-105890000D03*
X236430000Y-105890000D03*
X233890000Y-105890000D03*
X231350000Y-105890000D03*
X228810000Y-105890000D03*
X226270000Y-105890000D03*
X223730000Y-105890000D03*
X221190000Y-105890000D03*
D14*
X213840000Y-52445000D03*
D15*
X213840000Y-54985000D03*
X213840000Y-57525000D03*
X213840000Y-60065000D03*
X213840000Y-62605000D03*
X213840000Y-65145000D03*
X213840000Y-67685000D03*
X213840000Y-70225000D03*
X221460000Y-70225000D03*
X221460000Y-67685000D03*
X221460000Y-65145000D03*
X221460000Y-62605000D03*
X221460000Y-60065000D03*
X221460000Y-57525000D03*
X221460000Y-54985000D03*
X221460000Y-52445000D03*
D25*
X77050000Y-140550000D03*
X203560000Y-142160000D03*
X186950000Y-109780000D03*
X31390000Y-127490000D03*
X186470000Y-128290000D03*
X194750000Y-109900000D03*
X99240000Y-127200000D03*
X112840000Y-118130000D03*
X91220000Y-116470000D03*
X119590000Y-96960000D03*
X96070000Y-96990000D03*
X106220000Y-123930000D03*
X86950000Y-118200000D03*
X177500000Y-147240000D03*
X161540000Y-147410000D03*
X164740000Y-147400000D03*
X122060000Y-118620000D03*
X168090000Y-147170000D03*
X210920000Y-71020000D03*
X70030000Y-93970000D03*
X249220000Y-85760000D03*
X59710000Y-93560000D03*
X166390000Y-90410000D03*
X205280000Y-70190000D03*
X192270000Y-40010000D03*
X246110000Y-49160000D03*
X196540000Y-49570000D03*
X238020000Y-30660000D03*
X190670000Y-60540000D03*
X140400000Y-61690000D03*
X224050000Y-88210000D03*
X140600000Y-73380000D03*
X157020000Y-72870000D03*
X31080000Y-77190000D03*
X157290000Y-54050000D03*
X25830000Y-78940000D03*
X25790000Y-100080000D03*
X162615611Y-110660000D03*
X25690000Y-125880000D03*
X250530000Y-88450000D03*
X162510000Y-99230000D03*
X128990000Y-72960000D03*
X201260000Y-69750000D03*
X190320000Y-120000000D03*
X48030000Y-114670000D03*
X189630000Y-113570000D03*
X137310000Y-73020000D03*
X115020000Y-65520000D03*
X74810000Y-73540000D03*
X147980000Y-73570000D03*
X148050000Y-69470000D03*
X143200000Y-73020000D03*
X139270000Y-73090000D03*
X252800000Y-50490000D03*
X210490000Y-89510000D03*
X66030000Y-84450000D03*
X63460000Y-97520000D03*
X38890000Y-96830000D03*
X85850000Y-96860000D03*
X215080000Y-98300000D03*
X143750000Y-143580000D03*
X151300000Y-143510000D03*
X236420000Y-102470000D03*
X206990000Y-101640000D03*
X197330000Y-109790000D03*
X202580000Y-102220000D03*
X166490000Y-116010000D03*
X206500000Y-88230000D03*
X217250000Y-71020000D03*
X84060000Y-143950000D03*
X153020000Y-144550000D03*
X163160000Y-145820000D03*
X213520000Y-141090000D03*
X90990000Y-138470000D03*
X148660000Y-141550000D03*
X146710000Y-143220000D03*
X158390000Y-147270000D03*
X214010000Y-84380000D03*
X141260000Y-144160000D03*
X160700000Y-97880000D03*
X161080000Y-57220000D03*
X201090000Y-117440000D03*
X161760000Y-53930000D03*
X160680000Y-115780000D03*
X211350000Y-100840000D03*
X188960000Y-97440000D03*
X191090000Y-29890000D03*
X181780000Y-118510000D03*
X181670000Y-56160000D03*
X208700000Y-118730000D03*
X187130000Y-100790000D03*
X170220000Y-100570000D03*
X204990000Y-100900000D03*
X187440000Y-55050000D03*
X37520000Y-86940000D03*
X98800000Y-72510000D03*
X72740000Y-72210000D03*
X236320000Y-71830000D03*
X236690000Y-79430000D03*
X245980000Y-58650000D03*
X192490000Y-65070000D03*
X228590000Y-71170000D03*
X230320000Y-100920000D03*
X77680000Y-87230000D03*
X203810000Y-90780000D03*
X136160000Y-78060000D03*
X245380000Y-56750000D03*
X100980000Y-77710000D03*
X192200000Y-62250000D03*
D26*
X74400000Y-59480000D03*
D25*
X120930000Y-86910000D03*
X208990000Y-85540000D03*
X72520000Y-104480000D03*
X105550000Y-135960000D03*
X46770000Y-135960000D03*
X41530000Y-137230000D03*
X112050000Y-139520000D03*
X219030000Y-89560000D03*
X159460000Y-102420000D03*
X161710000Y-50830000D03*
X248560000Y-116140000D03*
X161420000Y-135190000D03*
X243130000Y-134710000D03*
X159500000Y-67340000D03*
X158360000Y-78250000D03*
X244940000Y-135960000D03*
X159350000Y-52030000D03*
X158430000Y-135080000D03*
X116420000Y-26010000D03*
X116340000Y-73280000D03*
X119090000Y-137170000D03*
X66190000Y-137370000D03*
X31110000Y-135780000D03*
X57260000Y-137210000D03*
X70310000Y-97520000D03*
X200640000Y-99710000D03*
X119500000Y-72710000D03*
X106630000Y-57820000D03*
X225210000Y-108540000D03*
X225930000Y-66700000D03*
X225930000Y-71080000D03*
X190470000Y-71060000D03*
X136340000Y-49140000D03*
X215410000Y-48580000D03*
X135770000Y-73100000D03*
X134950000Y-105360000D03*
X89240000Y-142110000D03*
X246530000Y-122620000D03*
X247160000Y-94810000D03*
X258909624Y-125130000D03*
X268630000Y-125130000D03*
X271070000Y-125750000D03*
X245850000Y-92470000D03*
X245360000Y-120060000D03*
X61530000Y-95450000D03*
X141860000Y-95950000D03*
X36260000Y-145900000D03*
X61060000Y-145980000D03*
X23100000Y-73870000D03*
X49150000Y-145990000D03*
X105380000Y-106750000D03*
X215720000Y-118760000D03*
X199850000Y-147870000D03*
X203700000Y-117580000D03*
X223980000Y-143650000D03*
X262180000Y-143270000D03*
X211270000Y-118920000D03*
X202860000Y-147760000D03*
X218950000Y-113620000D03*
X197210000Y-116130000D03*
X267170000Y-144780000D03*
X234210000Y-144600000D03*
X196480000Y-147570000D03*
X236140000Y-145610000D03*
X121630000Y-141130000D03*
X191640000Y-144960000D03*
X226550000Y-142470000D03*
X257050000Y-141880000D03*
X178420000Y-64950000D03*
X178710000Y-101840000D03*
X151230000Y-99880000D03*
X241590000Y-99820000D03*
X141030000Y-99740000D03*
X247990000Y-55120000D03*
X241150000Y-82050000D03*
X170590000Y-66370000D03*
X232710000Y-111090000D03*
X246570000Y-71900000D03*
X243200000Y-102180000D03*
X242760000Y-111810000D03*
X244550000Y-123330000D03*
X169230000Y-91780000D03*
X247230000Y-73930000D03*
X244670000Y-107310000D03*
X244720000Y-90290000D03*
X146140000Y-95250000D03*
X241700000Y-96720000D03*
X226640000Y-85770000D03*
X246830000Y-68680000D03*
X171630000Y-84170000D03*
X222060000Y-126490000D03*
X268660000Y-139330000D03*
X155680000Y-135570000D03*
X124020000Y-76870000D03*
X150760000Y-77180000D03*
X193050000Y-138780000D03*
D27*
X135330000Y-116460000D03*
D25*
X57210000Y-85770000D03*
X63350000Y-115980000D03*
X252650000Y-111380000D03*
X198950000Y-69570000D03*
X188290000Y-121140000D03*
X187050000Y-137760000D03*
X248740000Y-136490000D03*
X208490000Y-69030000D03*
X207040000Y-70870000D03*
X213550000Y-88160000D03*
X209770000Y-66980000D03*
X230760000Y-26370000D03*
D27*
X142330000Y-115890000D03*
X142320000Y-117710000D03*
X145630000Y-117700000D03*
X145640000Y-115880000D03*
X148600000Y-115880000D03*
X148590000Y-117700000D03*
X139160000Y-115890000D03*
X139150000Y-117710000D03*
D28*
X110460000Y-135700000D03*
D29*
X63000000Y-64460000D03*
D25*
X230600000Y-134220000D03*
D29*
X63000000Y-26360000D03*
D25*
X185069690Y-108410000D03*
X240800000Y-108790000D03*
X105420000Y-92470000D03*
D30*
X70330000Y-70150000D03*
D27*
X152750000Y-116190000D03*
D25*
X185239089Y-90620000D03*
X184940000Y-65220000D03*
D28*
X115730000Y-135760000D03*
D25*
X154980000Y-112890000D03*
D29*
X24900000Y-64460000D03*
D25*
X155110000Y-92780000D03*
X155910000Y-51590000D03*
X102810000Y-133846311D03*
X156920000Y-131640000D03*
X141110000Y-92711596D03*
D29*
X24900000Y-26360000D03*
D25*
X100170000Y-122140000D03*
X62870000Y-119330000D03*
X44010000Y-117530000D03*
X70130000Y-117430000D03*
X41480000Y-115400000D03*
D31*
X200670000Y-143970000D02*
X202880000Y-142540000D01*
X78030000Y-126520000D02*
X78440000Y-122110000D01*
X198210000Y-148570000D02*
X198400000Y-146860000D01*
X79340000Y-120190000D02*
X80850000Y-116400000D01*
D32*
X83060000Y-105330000D02*
X83720000Y-102650000D01*
D31*
X78440000Y-122110000D02*
X79340000Y-120190000D01*
X198083000Y-152810000D02*
X198210000Y-148570000D01*
X199140000Y-145610000D02*
X200670000Y-143970000D01*
X78160000Y-131480000D02*
X78030000Y-126520000D01*
X82090000Y-112610000D02*
X82380000Y-111440000D01*
X198400000Y-146860000D02*
X199140000Y-145610000D01*
X202880000Y-142540000D02*
X203560000Y-142160000D01*
D32*
X82480000Y-110980000D02*
X82510000Y-106960000D01*
D31*
X82380000Y-111440000D02*
X82480000Y-110980000D01*
X80850000Y-116400000D02*
X82090000Y-112610000D01*
D32*
X82510000Y-106960000D02*
X83060000Y-105330000D01*
D31*
X77050000Y-140550000D02*
X78160000Y-131480000D01*
D32*
X229110000Y-124970000D02*
X229110000Y-132590000D01*
X186470000Y-128290000D02*
X186950000Y-109780000D01*
X203790000Y-99060000D02*
X208790000Y-98770000D01*
X98090000Y-119030000D02*
X99000000Y-120950000D01*
X95460000Y-115600000D02*
X96700000Y-117110000D01*
X94090000Y-112180000D02*
X94450000Y-113600000D01*
X94450000Y-113600000D02*
X95460000Y-115600000D01*
X211770000Y-98830000D02*
X215760000Y-104120000D01*
X215760000Y-104120000D02*
X218890000Y-107650000D01*
X226550000Y-110050000D02*
X226850000Y-108330000D01*
X224140000Y-109840000D02*
X226550000Y-110050000D01*
X197050000Y-107800000D02*
X197130000Y-106380000D01*
X222050000Y-109070000D02*
X224140000Y-109840000D01*
X96700000Y-117110000D02*
X98090000Y-119030000D01*
X194750000Y-109900000D02*
X197050000Y-107800000D01*
X99240000Y-126560000D02*
X99240000Y-127200000D01*
X226850000Y-108330000D02*
X228810000Y-105890000D01*
X220760000Y-108280000D02*
X222050000Y-109070000D01*
X208790000Y-98770000D02*
X211770000Y-98830000D01*
X197200000Y-103590000D02*
X197360000Y-102480000D01*
X197130000Y-106380000D02*
X197200000Y-103590000D01*
X197360000Y-102480000D02*
X201570000Y-100330000D01*
X93880000Y-110270000D02*
X94090000Y-112180000D01*
X99050000Y-122150000D02*
X99240000Y-126560000D01*
X218890000Y-107650000D02*
X220760000Y-108280000D01*
X229110000Y-124970000D02*
X228810000Y-113510000D01*
X99000000Y-120950000D02*
X99050000Y-122150000D01*
X31390000Y-127490000D02*
X33700000Y-124380000D01*
X201570000Y-100330000D02*
X203790000Y-99060000D01*
X228810000Y-113510000D02*
X228810000Y-105890000D01*
X111820000Y-128470000D02*
X111580000Y-131900000D01*
X112840000Y-118130000D02*
X112850000Y-126910000D01*
X112850000Y-126910000D02*
X111820000Y-128470000D01*
X91340000Y-110270000D02*
X91220000Y-116470000D01*
X86400000Y-129600000D02*
X85625000Y-132050000D01*
X86260000Y-110270000D02*
X86270000Y-111760000D01*
X86970000Y-125810000D02*
X86400000Y-129600000D01*
X86100000Y-119660000D02*
X86840000Y-123670000D01*
X86840000Y-123670000D02*
X86970000Y-125810000D01*
X85880000Y-116820000D02*
X86100000Y-119660000D01*
X85700000Y-113460000D02*
X85880000Y-116820000D01*
X86270000Y-111760000D02*
X85700000Y-113460000D01*
X117050000Y-109880000D02*
X119110000Y-107620000D01*
X119110000Y-107620000D02*
X119590000Y-102260000D01*
X96070000Y-96990000D02*
X96420000Y-102650000D01*
X119590000Y-102260000D02*
X119590000Y-96960000D01*
D31*
X134580000Y-144300000D02*
X128580000Y-144090000D01*
X140933000Y-152810000D02*
X140910000Y-148440000D01*
X89980000Y-144280000D02*
X88340000Y-143620000D01*
D32*
X84480000Y-118830000D02*
X84480000Y-121360000D01*
D31*
X86230000Y-141900000D02*
X85310000Y-140590000D01*
X128580000Y-144090000D02*
X94400000Y-144280000D01*
D32*
X83720000Y-110270000D02*
X83520000Y-113200000D01*
D31*
X84450000Y-135310000D02*
X84250000Y-128990000D01*
X140050000Y-145860000D02*
X138310000Y-144870000D01*
X94400000Y-144280000D02*
X89980000Y-144280000D01*
X138310000Y-144870000D02*
X134580000Y-144300000D01*
D32*
X83520000Y-113200000D02*
X83830000Y-115860000D01*
D31*
X140910000Y-148440000D02*
X140870000Y-147640000D01*
X85310000Y-140590000D02*
X84910000Y-139140000D01*
X88340000Y-143620000D02*
X86230000Y-141900000D01*
D32*
X84390000Y-124370000D02*
X84250000Y-128990000D01*
D31*
X140870000Y-147640000D02*
X140050000Y-145860000D01*
D32*
X84480000Y-121360000D02*
X84390000Y-124370000D01*
D31*
X84910000Y-139140000D02*
X84450000Y-135310000D01*
D32*
X83830000Y-115860000D02*
X84480000Y-118830000D01*
X92730000Y-108850000D02*
X92770000Y-103450000D01*
X92560000Y-111570000D02*
X92730000Y-108850000D01*
X94480000Y-116170000D02*
X93260000Y-114330000D01*
X95490000Y-118710000D02*
X94480000Y-116170000D01*
X91340000Y-102650000D02*
X92770000Y-103450000D01*
X92770000Y-103450000D02*
X93880000Y-102650000D01*
X95760000Y-120950000D02*
X95490000Y-118710000D01*
X95785000Y-124430000D02*
X95760000Y-120950000D01*
X93260000Y-114330000D02*
X92950000Y-113280000D01*
X92950000Y-113280000D02*
X92560000Y-111570000D01*
X87410000Y-106860000D02*
X86260000Y-102650000D01*
X108990000Y-129160000D02*
X109040000Y-131900000D01*
X87180000Y-114620000D02*
X87490000Y-110740000D01*
X86950000Y-118200000D02*
X87180000Y-114620000D01*
X87490000Y-110740000D02*
X87410000Y-106860000D01*
X106220000Y-123930000D02*
X107950000Y-126240000D01*
X107950000Y-126240000D02*
X108990000Y-129160000D01*
X177740000Y-132160000D02*
X177500000Y-147240000D01*
X168980000Y-130200000D02*
X168900000Y-131420000D01*
X163840000Y-140180000D02*
X161720000Y-143410000D01*
X168810000Y-133070000D02*
X168380000Y-134190000D01*
X166210000Y-136900000D02*
X163840000Y-140180000D01*
X161480000Y-144860000D02*
X161540000Y-147410000D01*
X168900000Y-131420000D02*
X168810000Y-133070000D01*
X170120000Y-124540000D02*
X168980000Y-130200000D01*
X161720000Y-143410000D02*
X161480000Y-144860000D01*
X168380000Y-134190000D02*
X167580000Y-135120000D01*
X167580000Y-135120000D02*
X166210000Y-136900000D01*
X164740000Y-147400000D02*
X165170000Y-145660000D01*
X167150000Y-140090000D02*
X168490000Y-137200000D01*
X165730000Y-143490000D02*
X167150000Y-140090000D01*
X165170000Y-145660000D02*
X165730000Y-143490000D01*
X168490000Y-137200000D02*
X169760000Y-134350000D01*
X169760000Y-134350000D02*
X170120000Y-132160000D01*
X153860000Y-148030000D02*
X155230000Y-146520000D01*
X160180000Y-141320000D02*
X163830000Y-137500000D01*
X163830000Y-137500000D02*
X165480000Y-135500000D01*
X167200000Y-133110000D02*
X167580000Y-132160000D01*
X155230000Y-146520000D02*
X160180000Y-141320000D01*
X153633000Y-152810000D02*
X153610000Y-148620000D01*
X166810000Y-133880000D02*
X167200000Y-133110000D01*
X153610000Y-148620000D02*
X153860000Y-148030000D01*
X165480000Y-135500000D02*
X166810000Y-133880000D01*
X122060000Y-118620000D02*
X121740000Y-124280000D01*
X168450000Y-146340000D02*
X168090000Y-147170000D01*
X172660000Y-132160000D02*
X172630000Y-134260000D01*
X171790000Y-137540000D02*
X170030000Y-142380000D01*
X170030000Y-142380000D02*
X168450000Y-146340000D01*
X172630000Y-134260000D02*
X172550000Y-135350000D01*
X172550000Y-135350000D02*
X171790000Y-137540000D01*
D31*
X171410000Y-133070000D02*
X171350000Y-130010000D01*
X169000000Y-139790000D02*
X170310000Y-136590000D01*
X170310000Y-136590000D02*
X171080000Y-134390000D01*
X166470000Y-146490000D02*
X167720000Y-143090000D01*
X171350000Y-130010000D02*
X171390000Y-127990000D01*
X171660000Y-126770000D02*
X172660000Y-124540000D01*
X167720000Y-143090000D02*
X169000000Y-139790000D01*
X166210000Y-148100000D02*
X166200000Y-147500000D01*
X166200000Y-147500000D02*
X166470000Y-146490000D01*
X171080000Y-134390000D02*
X171410000Y-133070000D01*
X171390000Y-127990000D02*
X171660000Y-126770000D01*
X166333000Y-152810000D02*
X166210000Y-148100000D01*
D32*
X164740000Y-133040000D02*
X165040000Y-132160000D01*
X154050000Y-145690000D02*
X155420000Y-144410000D01*
X150720000Y-148070000D02*
X151450000Y-147260000D01*
X164490000Y-133950000D02*
X164740000Y-133040000D01*
X159300000Y-140130000D02*
X161690000Y-137390000D01*
X161690000Y-137390000D02*
X163790000Y-134870000D01*
X155420000Y-144410000D02*
X156700000Y-142980000D01*
X150458000Y-152810000D02*
X150550000Y-148600000D01*
X151450000Y-147260000D02*
X152840000Y-146530000D01*
X163790000Y-134870000D02*
X164490000Y-133950000D01*
X156700000Y-142980000D02*
X159300000Y-140130000D01*
X150550000Y-148600000D02*
X150720000Y-148070000D01*
X152840000Y-146530000D02*
X154050000Y-145690000D01*
D31*
X175530000Y-147720000D02*
X175200000Y-132160000D01*
X175530000Y-147720000D02*
X175858000Y-152810000D01*
D32*
X263330000Y-44060000D02*
X266770000Y-44950000D01*
X203910000Y-44585000D02*
X207240000Y-44290000D01*
X226860000Y-44010000D02*
X229910000Y-44420000D01*
X238040000Y-44800000D02*
X240250000Y-44100000D01*
X258690000Y-43660000D02*
X260360000Y-43660000D01*
X159060000Y-42920000D02*
X164260000Y-43000000D01*
X223200000Y-44160000D02*
X224820000Y-43990000D01*
X207240000Y-44290000D02*
X209630000Y-43560000D01*
D31*
X156060000Y-43650000D02*
X159060000Y-42920000D01*
D32*
X201720000Y-44050000D02*
X203910000Y-44585000D01*
D31*
X119120000Y-44090000D02*
X111990000Y-45125000D01*
D32*
X177830000Y-43110000D02*
X174870000Y-43430000D01*
X164260000Y-43000000D02*
X171000000Y-44250000D01*
X189060000Y-44180000D02*
X191070000Y-43960000D01*
X184450000Y-43440000D02*
X186710000Y-44205000D01*
X219180000Y-44585000D02*
X221580000Y-44630000D01*
X186710000Y-44205000D02*
X189060000Y-44180000D01*
X199440000Y-43670000D02*
X201720000Y-44050000D01*
X243690000Y-43690000D02*
X247640000Y-43930000D01*
X221580000Y-44630000D02*
X223200000Y-44160000D01*
X177830000Y-43110000D02*
X179450000Y-42920000D01*
X191070000Y-43960000D02*
X194320000Y-43340000D01*
X194320000Y-43340000D02*
X196260000Y-43340000D01*
D31*
X132580000Y-45110000D02*
X128500000Y-44380000D01*
X125530000Y-43830000D02*
X123500000Y-43890000D01*
D32*
X179450000Y-42920000D02*
X181560000Y-42920000D01*
D31*
X128500000Y-44380000D02*
X125530000Y-43830000D01*
D32*
X251060000Y-44950000D02*
X254040000Y-44920000D01*
X213000000Y-43390000D02*
X219180000Y-44585000D01*
X229910000Y-44420000D02*
X233210000Y-45200000D01*
X211170000Y-43300000D02*
X213000000Y-43390000D01*
D31*
X134180000Y-44950000D02*
X132580000Y-45110000D01*
X144990000Y-43900000D02*
X149040000Y-43840000D01*
D32*
X255710000Y-44560000D02*
X258690000Y-43660000D01*
D31*
X149040000Y-43840000D02*
X152730000Y-45160000D01*
D32*
X241710000Y-43690000D02*
X243690000Y-43690000D01*
D31*
X139000000Y-44840000D02*
X144990000Y-43900000D01*
D32*
X247640000Y-43930000D02*
X251060000Y-44950000D01*
D31*
X134180000Y-44950000D02*
X139000000Y-44840000D01*
D32*
X209630000Y-43560000D02*
X211170000Y-43300000D01*
X240250000Y-44100000D02*
X241710000Y-43690000D01*
X224820000Y-43990000D02*
X226860000Y-44010000D01*
X254040000Y-44920000D02*
X255710000Y-44560000D01*
X172890000Y-43890000D02*
X171000000Y-44250000D01*
X260360000Y-43660000D02*
X263330000Y-44060000D01*
X181560000Y-42920000D02*
X184450000Y-43440000D01*
X235940000Y-45150000D02*
X238040000Y-44800000D01*
D31*
X123500000Y-43890000D02*
X119120000Y-44090000D01*
D32*
X174870000Y-43430000D02*
X172890000Y-43890000D01*
X233210000Y-45200000D02*
X235940000Y-45150000D01*
D31*
X152730000Y-45160000D02*
X156060000Y-43650000D01*
D32*
X196260000Y-43340000D02*
X199440000Y-43670000D01*
X142320000Y-29080000D02*
X144850000Y-28560000D01*
X152730000Y-29920000D02*
X155370000Y-29820000D01*
X241640000Y-28350000D02*
X244550000Y-28470000D01*
X259810000Y-28470000D02*
X262450000Y-28930000D01*
X221800000Y-29390000D02*
X223160000Y-29110000D01*
X210460000Y-28000000D02*
X211780000Y-28000000D01*
X193100000Y-28390000D02*
X195220000Y-28090000D01*
X258380000Y-28470000D02*
X259810000Y-28470000D01*
X239130000Y-28660000D02*
X241640000Y-28350000D01*
X224820000Y-28740000D02*
X226680000Y-28710000D01*
X182870000Y-28220000D02*
X186710000Y-28965000D01*
X248730000Y-28970000D02*
X251060000Y-29710000D01*
X205890000Y-29420000D02*
X208500000Y-28810000D01*
X117680000Y-28560000D02*
X125700000Y-28530000D01*
X256670000Y-29010000D02*
X258380000Y-28470000D01*
X137360000Y-29840000D02*
X142320000Y-29080000D01*
X155370000Y-29820000D02*
X157980000Y-29010000D01*
X125700000Y-28530000D02*
X132580000Y-29870000D01*
X235370000Y-29860000D02*
X236880000Y-29480000D01*
X191870000Y-28810000D02*
X193100000Y-28390000D01*
X197340000Y-28090000D02*
X200440000Y-28300000D01*
X216250000Y-28470000D02*
X219180000Y-29345000D01*
X111990000Y-29885000D02*
X117680000Y-28560000D01*
X190080000Y-29020000D02*
X191870000Y-28810000D01*
X203910000Y-29345000D02*
X205890000Y-29420000D01*
X244550000Y-28470000D02*
X248730000Y-28970000D01*
X165610000Y-27800000D02*
X167980000Y-28110000D01*
X208500000Y-28810000D02*
X210460000Y-28000000D01*
X255320000Y-29630000D02*
X256670000Y-29010000D01*
X146000000Y-28710000D02*
X152730000Y-29920000D01*
X179940000Y-27710000D02*
X182870000Y-28220000D01*
X171000000Y-29010000D02*
X174590000Y-28980000D01*
X233210000Y-29960000D02*
X235370000Y-29860000D01*
X167980000Y-28110000D02*
X171000000Y-29010000D01*
X157980000Y-29010000D02*
X161910000Y-27780000D01*
X186710000Y-28965000D02*
X190080000Y-29020000D01*
X178500000Y-27790000D02*
X179940000Y-27710000D01*
X262450000Y-28930000D02*
X266770000Y-29710000D01*
X253230000Y-29820000D02*
X255320000Y-29630000D01*
X200440000Y-28300000D02*
X203910000Y-29345000D01*
X161910000Y-27780000D02*
X163470000Y-27700000D01*
X211780000Y-28000000D02*
X216250000Y-28470000D01*
X236880000Y-29480000D02*
X239130000Y-28660000D01*
X195220000Y-28090000D02*
X197340000Y-28090000D01*
X251060000Y-29710000D02*
X253230000Y-29820000D01*
X174590000Y-28980000D02*
X176080000Y-28430000D01*
X144850000Y-28560000D02*
X146000000Y-28710000D01*
X219180000Y-29345000D02*
X221800000Y-29390000D01*
X132580000Y-29870000D02*
X137360000Y-29840000D01*
X163470000Y-27700000D02*
X165610000Y-27800000D01*
X176080000Y-28430000D02*
X178500000Y-27790000D01*
X223160000Y-29110000D02*
X224820000Y-28740000D01*
X226680000Y-28710000D02*
X233210000Y-29960000D01*
X217360000Y-82360000D02*
X217110000Y-88350000D01*
X216170000Y-93620000D02*
X216135000Y-96185000D01*
X217060000Y-76910000D02*
X217360000Y-79580000D01*
X210920000Y-71020000D02*
X213020000Y-73010000D01*
X215470000Y-74960000D02*
X217060000Y-76910000D01*
X217110000Y-88350000D02*
X216170000Y-93620000D01*
X217360000Y-79580000D02*
X217360000Y-82360000D01*
X213020000Y-73010000D02*
X215470000Y-74960000D01*
X255490000Y-34480000D02*
X257830000Y-33710000D01*
X251060000Y-34790000D02*
X253710000Y-34880000D01*
X190050000Y-33820000D02*
X191550000Y-33300000D01*
X203910000Y-34425000D02*
X206810000Y-34340000D01*
X257830000Y-33710000D02*
X260120000Y-33460000D01*
X143220000Y-33900000D02*
X144750000Y-33660000D01*
X176890000Y-32770000D02*
X178260000Y-32810000D01*
X211410000Y-33130000D02*
X214760000Y-33500000D01*
X191550000Y-33300000D02*
X193690000Y-32890000D01*
X188630000Y-34070000D02*
X190050000Y-33820000D01*
X174170000Y-33980000D02*
X175140000Y-33620000D01*
X167350000Y-33450000D02*
X171000000Y-34090000D01*
X209040000Y-33400000D02*
X209890000Y-33130000D01*
X241250000Y-33840000D02*
X243210000Y-33490000D01*
X228710000Y-34190000D02*
X233210000Y-35040000D01*
X260120000Y-33460000D02*
X262760000Y-33970000D01*
X122870000Y-33680000D02*
X125800000Y-33680000D01*
X111990000Y-34965000D02*
X116710000Y-34630000D01*
X159660000Y-32670000D02*
X161920000Y-32610000D01*
X171000000Y-34090000D02*
X174170000Y-33980000D01*
X235630000Y-35170000D02*
X237190000Y-35010000D01*
X163410000Y-32830000D02*
X167350000Y-33450000D01*
X137780000Y-34760000D02*
X143220000Y-33900000D01*
X186710000Y-34045000D02*
X188630000Y-34070000D01*
X238910000Y-34500000D02*
X241250000Y-33840000D01*
X132580000Y-34950000D02*
X137780000Y-34760000D01*
X214760000Y-33500000D02*
X219180000Y-34425000D01*
X237190000Y-35010000D02*
X238910000Y-34500000D01*
X145520000Y-33720000D02*
X152730000Y-35000000D01*
X193690000Y-32890000D02*
X195680000Y-33130000D01*
X125800000Y-33680000D02*
X132580000Y-34950000D01*
X221760000Y-34350000D02*
X222700000Y-34000000D01*
X157900000Y-32990000D02*
X159660000Y-32670000D01*
X262760000Y-33970000D02*
X266770000Y-34790000D01*
X209890000Y-33130000D02*
X211410000Y-33130000D01*
X156400000Y-33370000D02*
X157900000Y-32990000D01*
X144750000Y-33660000D02*
X145520000Y-33720000D01*
X111990000Y-34965000D02*
X112200000Y-34900000D01*
X156400000Y-33370000D02*
X152730000Y-35000000D01*
X243210000Y-33490000D02*
X245200000Y-33720000D01*
X233210000Y-35040000D02*
X235630000Y-35170000D01*
X253710000Y-34880000D02*
X255490000Y-34480000D01*
X219180000Y-34425000D02*
X221760000Y-34350000D01*
X245200000Y-33720000D02*
X251060000Y-34790000D01*
X224060000Y-33720000D02*
X226170000Y-33800000D01*
X180770000Y-32810000D02*
X182960000Y-33090000D01*
X176080000Y-32930000D02*
X176890000Y-32770000D01*
X175140000Y-33620000D02*
X176080000Y-32930000D01*
X178260000Y-32810000D02*
X180770000Y-32810000D01*
X184900000Y-33660000D02*
X186710000Y-34045000D01*
X226170000Y-33800000D02*
X228710000Y-34190000D01*
X116710000Y-34630000D02*
X122870000Y-33680000D01*
X207760000Y-34070000D02*
X209040000Y-33400000D01*
X182960000Y-33090000D02*
X184900000Y-33660000D01*
X206810000Y-34340000D02*
X207760000Y-34070000D01*
X222700000Y-34000000D02*
X224060000Y-33720000D01*
X197010000Y-33130000D02*
X203910000Y-34425000D01*
X161920000Y-32610000D02*
X163410000Y-32830000D01*
X195680000Y-33130000D02*
X197010000Y-33130000D01*
X242610000Y-42400000D02*
X243440000Y-42410000D01*
X238730000Y-43410000D02*
X239940000Y-42930000D01*
X219310000Y-43320000D02*
X220570000Y-43320000D01*
X220570000Y-43320000D02*
X222070000Y-43290000D01*
X204060000Y-43350000D02*
X205420000Y-43310000D01*
X152680000Y-43900000D02*
X153610000Y-43900000D01*
X179090000Y-41665000D02*
X181300000Y-41850000D01*
X207530000Y-43130000D02*
X209080000Y-42820000D01*
X232840000Y-44011800D02*
X234050000Y-44011800D01*
X241600000Y-42450000D02*
X242610000Y-42400000D01*
X209080000Y-42820000D02*
X211560000Y-42045000D01*
X243440000Y-42410000D02*
X245670000Y-42410000D01*
X189930000Y-42980000D02*
X191780000Y-42690000D01*
X225590000Y-42660000D02*
X227140000Y-42590000D01*
X211560000Y-42045000D02*
X213250000Y-42030000D01*
X248220000Y-42980000D02*
X249710000Y-43560000D01*
X245670000Y-42410000D02*
X246920000Y-42550000D01*
X138720000Y-43650000D02*
X145110000Y-42620000D01*
X185460000Y-42690000D02*
X186460000Y-43016800D01*
X111780000Y-43910000D02*
X104370000Y-42585000D01*
X222070000Y-43290000D02*
X223360000Y-43030000D01*
X167830000Y-42330000D02*
X169940000Y-42820000D01*
X250530000Y-43700000D02*
X251970000Y-43660000D01*
X196290000Y-42045000D02*
X198980000Y-42080000D01*
X112890000Y-43680000D02*
X118790000Y-42630000D01*
X237340000Y-43790000D02*
X238730000Y-43410000D01*
X228830000Y-42960000D02*
X230920000Y-43470000D01*
X173770000Y-42870000D02*
X176670000Y-42160000D01*
X249710000Y-43560000D02*
X250530000Y-43700000D01*
X124960000Y-42570000D02*
X132140000Y-43780000D01*
X205420000Y-43310000D02*
X207530000Y-43130000D01*
X257640000Y-42740000D02*
X259150000Y-42410000D01*
X181300000Y-41850000D02*
X185460000Y-42690000D01*
X186460000Y-43016800D02*
X187370000Y-43016800D01*
X203350000Y-43130000D02*
X204060000Y-43350000D01*
X223360000Y-43030000D02*
X224280000Y-42740000D01*
X246920000Y-42550000D02*
X248220000Y-42980000D01*
X254320000Y-43560000D02*
X255860000Y-43220000D01*
X176670000Y-42160000D02*
X179090000Y-41665000D01*
X158680000Y-41720000D02*
X163380000Y-41710000D01*
X145110000Y-42620000D02*
X149350000Y-42680000D01*
X218450000Y-43260000D02*
X219310000Y-43320000D01*
X163380000Y-41710000D02*
X166280000Y-41960000D01*
X155760000Y-42237468D02*
X158680000Y-41720000D01*
X251970000Y-43660000D02*
X254320000Y-43560000D01*
X230920000Y-43470000D02*
X231910000Y-43840000D01*
X224280000Y-42740000D02*
X225590000Y-42660000D01*
X187370000Y-43016800D02*
X189930000Y-42980000D01*
X198980000Y-42080000D02*
X201680000Y-42600000D01*
X231910000Y-43840000D02*
X232840000Y-44011800D01*
X171590000Y-43061800D02*
X173770000Y-42870000D01*
X239940000Y-42930000D02*
X240770000Y-42590000D01*
X191780000Y-42690000D02*
X195130000Y-42140000D01*
X153610000Y-43900000D02*
X155760000Y-42237468D01*
X118790000Y-42630000D02*
X124960000Y-42570000D01*
X213250000Y-42030000D02*
X216090000Y-42740000D01*
X112890000Y-43680000D02*
X111780000Y-43910000D01*
X149350000Y-42680000D02*
X152680000Y-43900000D01*
X240770000Y-42590000D02*
X241600000Y-42450000D01*
X201680000Y-42600000D02*
X203350000Y-43130000D01*
X216090000Y-42740000D02*
X218450000Y-43260000D01*
X132140000Y-43780000D02*
X133240000Y-43800000D01*
X234050000Y-44011800D02*
X236110000Y-43980000D01*
X255860000Y-43220000D02*
X257640000Y-42740000D01*
X169940000Y-42820000D02*
X171590000Y-43061800D01*
X195130000Y-42140000D02*
X196290000Y-42045000D01*
X227140000Y-42590000D02*
X228830000Y-42960000D01*
X133240000Y-43800000D02*
X138720000Y-43650000D01*
X166280000Y-41960000D02*
X167830000Y-42330000D01*
X236110000Y-43980000D02*
X237340000Y-43790000D01*
X191630000Y-30820000D02*
X193180000Y-30340000D01*
X211530000Y-30580000D02*
X213660000Y-30610000D01*
X244430000Y-30870000D02*
X246800000Y-31060000D01*
X123720000Y-31160000D02*
X125780000Y-31190000D01*
X262480000Y-31370000D02*
X266770000Y-32250000D01*
X226380000Y-31280000D02*
X228970000Y-31740000D01*
X190280000Y-31330000D02*
X191630000Y-30820000D01*
X176400000Y-30470000D02*
X178560000Y-30250000D01*
X215780000Y-31110000D02*
X219180000Y-31885000D01*
X174690000Y-31180000D02*
X176400000Y-30470000D01*
X233210000Y-32500000D02*
X237090000Y-32620000D01*
X146580000Y-31290000D02*
X152730000Y-32460000D01*
X237090000Y-32620000D02*
X239130000Y-32380000D01*
X171000000Y-31550000D02*
X173280000Y-31550000D01*
X157570000Y-31260000D02*
X161360000Y-30370000D01*
X259540000Y-30950000D02*
X262480000Y-31370000D01*
X208270000Y-30970000D02*
X209980000Y-30580000D01*
X111990000Y-32425000D02*
X116000000Y-32100000D01*
X209980000Y-30580000D02*
X211530000Y-30580000D01*
X251060000Y-32250000D02*
X253190000Y-32340000D01*
X178560000Y-30250000D02*
X179830000Y-30250000D01*
X144520000Y-31190000D02*
X146580000Y-31290000D01*
X228970000Y-31740000D02*
X233210000Y-32500000D01*
X161360000Y-30370000D02*
X163360000Y-30198200D01*
X132580000Y-32410000D02*
X137400000Y-32290000D01*
X198350000Y-30760000D02*
X203910000Y-31885000D01*
X219180000Y-31885000D02*
X220470000Y-31910000D01*
X242420000Y-31260000D02*
X243350000Y-30950000D01*
X220470000Y-31910000D02*
X221990000Y-31910000D01*
X253190000Y-32340000D02*
X254540000Y-32030000D01*
X186710000Y-31505000D02*
X189080000Y-31510000D01*
X194820000Y-30370000D02*
X196110000Y-30610000D01*
X213660000Y-30610000D02*
X215780000Y-31110000D01*
X163360000Y-30198200D02*
X171000000Y-31550000D01*
X246800000Y-31060000D02*
X249280000Y-31530000D01*
X206870000Y-31720000D02*
X208270000Y-30970000D01*
X193180000Y-30340000D02*
X194820000Y-30370000D01*
X249280000Y-31530000D02*
X251060000Y-32250000D01*
X203910000Y-31885000D02*
X206210000Y-31960000D01*
X257990000Y-30950000D02*
X259540000Y-30950000D01*
X173280000Y-31550000D02*
X174690000Y-31180000D01*
X221990000Y-31910000D02*
X223390000Y-31480000D01*
X179830000Y-30250000D02*
X182840000Y-30730000D01*
X224820000Y-31210000D02*
X226380000Y-31280000D01*
X182840000Y-30730000D02*
X186710000Y-31505000D01*
X254540000Y-32030000D02*
X255900000Y-31370000D01*
X243350000Y-30950000D02*
X244430000Y-30870000D01*
X196110000Y-30610000D02*
X198350000Y-30760000D01*
X125780000Y-31190000D02*
X132580000Y-32410000D01*
X189080000Y-31510000D02*
X190280000Y-31330000D01*
X116000000Y-32100000D02*
X123720000Y-31160000D01*
X206210000Y-31960000D02*
X206870000Y-31720000D01*
X255900000Y-31370000D02*
X257990000Y-30950000D01*
X152730000Y-32460000D02*
X157570000Y-31260000D01*
X142040000Y-31790000D02*
X144520000Y-31190000D01*
X137400000Y-32290000D02*
X142040000Y-31790000D01*
X239130000Y-32380000D02*
X240520000Y-31990000D01*
X223390000Y-31480000D02*
X224820000Y-31210000D01*
X240520000Y-31990000D02*
X242420000Y-31260000D01*
X257880000Y-38710000D02*
X259320000Y-38510000D01*
X197560000Y-38310000D02*
X199220000Y-38500000D01*
X255810000Y-39570000D02*
X256820000Y-39090000D01*
X243510000Y-38610000D02*
X246780000Y-38710000D01*
D31*
X156680000Y-38200000D02*
X158400000Y-37860000D01*
D32*
X152730000Y-40080000D02*
X156680000Y-38200000D01*
X132580000Y-40030000D02*
X133920000Y-39810000D01*
X235920000Y-40100000D02*
X237220000Y-39810000D01*
X254230000Y-39860000D02*
X254800000Y-39760000D01*
X188540000Y-39120000D02*
X191870000Y-39170000D01*
X254800000Y-39760000D02*
X255810000Y-39570000D01*
X162190000Y-37830000D02*
X163200000Y-37912800D01*
X208210000Y-39260000D02*
X209790000Y-38420000D01*
X195910000Y-38316800D02*
X197560000Y-38310000D01*
X160330000Y-37630000D02*
X162190000Y-37830000D01*
X144560000Y-38780000D02*
X146240000Y-38890000D01*
X230350000Y-39140000D02*
X233210000Y-40120000D01*
X199220000Y-38500000D02*
X202140000Y-38960000D01*
X165130000Y-37860000D02*
X168110000Y-38130000D01*
X138610000Y-39610000D02*
X144560000Y-38780000D01*
X174470000Y-38070000D02*
X172630000Y-38670000D01*
X168110000Y-38130000D02*
X171000000Y-39170000D01*
X228140000Y-38800000D02*
X230350000Y-39140000D01*
X225830000Y-38750000D02*
X228140000Y-38800000D01*
X182020000Y-38150000D02*
X184870000Y-38600000D01*
X133920000Y-39810000D02*
X138610000Y-39610000D01*
X237220000Y-39810000D02*
X238710000Y-39520000D01*
X238710000Y-39520000D02*
X240530000Y-38950000D01*
X132580000Y-40030000D02*
X125960000Y-38810000D01*
X246780000Y-38710000D02*
X248940000Y-39190000D01*
X207280000Y-39660000D02*
X208210000Y-39260000D01*
X163200000Y-37912800D02*
X165130000Y-37860000D01*
X206230000Y-39690000D02*
X207280000Y-39660000D01*
X172630000Y-38670000D02*
X171000000Y-39170000D01*
X194600000Y-38310000D02*
X195910000Y-38316800D01*
X256820000Y-39090000D02*
X257880000Y-38710000D01*
X261720000Y-38660000D02*
X263500000Y-38950000D01*
X209790000Y-38420000D02*
X211210000Y-38210000D01*
X248940000Y-39190000D02*
X251060000Y-39870000D01*
X203910000Y-39505000D02*
X206230000Y-39690000D01*
X259320000Y-38510000D02*
X261720000Y-38660000D01*
X213040000Y-38390000D02*
X219180000Y-39505000D01*
X176130000Y-38010000D02*
X174470000Y-38070000D01*
X224580000Y-39140000D02*
X225830000Y-38750000D01*
X193350000Y-38940000D02*
X194600000Y-38310000D01*
X221460000Y-39760000D02*
X223140000Y-39620000D01*
X117770000Y-38850000D02*
X111990000Y-40045000D01*
X251060000Y-39870000D02*
X254230000Y-39860000D01*
X179940000Y-37920000D02*
X182020000Y-38150000D01*
X186710000Y-39125000D02*
X188540000Y-39120000D01*
X184870000Y-38600000D02*
X186710000Y-39125000D01*
X263500000Y-38950000D02*
X266770000Y-39870000D01*
X242360000Y-38610000D02*
X243510000Y-38610000D01*
X240530000Y-38950000D02*
X242360000Y-38610000D01*
X146240000Y-38890000D02*
X152730000Y-40080000D01*
X177920000Y-37910000D02*
X179940000Y-37920000D01*
X223140000Y-39620000D02*
X224580000Y-39140000D01*
X233210000Y-40120000D02*
X235920000Y-40100000D01*
X125960000Y-38810000D02*
X117770000Y-38850000D01*
X176130000Y-38010000D02*
X177920000Y-37910000D01*
X219180000Y-39505000D02*
X221460000Y-39760000D01*
D31*
X158400000Y-37860000D02*
X160330000Y-37630000D01*
D32*
X211210000Y-38210000D02*
X213040000Y-38390000D01*
X191870000Y-39170000D02*
X193350000Y-38940000D01*
X202140000Y-38960000D02*
X203910000Y-39505000D01*
X240890000Y-35860000D02*
X243310000Y-35978200D01*
X181850000Y-35360000D02*
X186710000Y-36585000D01*
X156790000Y-35779474D02*
X152730000Y-37540000D01*
X211800000Y-35710000D02*
X214440000Y-35840000D01*
X237020000Y-37310000D02*
X238750000Y-36350000D01*
X186710000Y-36585000D02*
X189910000Y-36600000D01*
X259850000Y-36060000D02*
X261280000Y-36210000D01*
X229550000Y-36830000D02*
X233210000Y-37580000D01*
X206150000Y-36870000D02*
X208350000Y-36420000D01*
X191290000Y-36240000D02*
X192860000Y-35890000D01*
X189910000Y-36600000D02*
X191290000Y-36240000D01*
X177370000Y-35290000D02*
X178940000Y-35290000D01*
X132580000Y-37490000D02*
X137270000Y-37370000D01*
X222810000Y-36550000D02*
X224430000Y-36260000D01*
X251060000Y-37330000D02*
X252710000Y-37110000D01*
X258600000Y-35980000D02*
X259850000Y-36060000D01*
X224430000Y-36260000D02*
X226320000Y-36350000D01*
X174500000Y-36510000D02*
X175360000Y-36160000D01*
X219180000Y-36965000D02*
X221360000Y-36910000D01*
X235560000Y-37600000D02*
X237020000Y-37310000D01*
X163140000Y-35278200D02*
X166180000Y-35490000D01*
X166180000Y-35490000D02*
X171000000Y-36630000D01*
X161400000Y-35160000D02*
X163140000Y-35278200D01*
X173570000Y-36700000D02*
X174500000Y-36510000D01*
X192860000Y-35890000D02*
X195680000Y-35710000D01*
X144490000Y-36290000D02*
X145860000Y-36270000D01*
X200160000Y-36240000D02*
X203910000Y-36965000D01*
X238750000Y-36350000D02*
X240890000Y-35860000D01*
X252710000Y-37110000D02*
X254570000Y-36910000D01*
X233210000Y-37580000D02*
X235560000Y-37600000D01*
X137270000Y-37370000D02*
X144490000Y-36290000D01*
X261280000Y-36210000D02*
X266770000Y-37330000D01*
X246540000Y-36470000D02*
X251060000Y-37330000D01*
X210180000Y-35840000D02*
X211800000Y-35710000D01*
X123350000Y-36180000D02*
X126220000Y-36320000D01*
X115630000Y-37108517D02*
X123350000Y-36180000D01*
X176580000Y-35550000D02*
X177370000Y-35290000D01*
X171000000Y-36630000D02*
X173570000Y-36700000D01*
X243310000Y-35978200D02*
X246540000Y-36470000D01*
X208350000Y-36420000D02*
X210180000Y-35840000D01*
X158440000Y-35380000D02*
X161400000Y-35160000D01*
X203910000Y-36965000D02*
X206150000Y-36870000D01*
X175360000Y-36160000D02*
X176580000Y-35550000D01*
X111990000Y-37505000D02*
X115630000Y-37108517D01*
X156790000Y-35779474D02*
X158440000Y-35380000D01*
X221360000Y-36910000D02*
X222810000Y-36550000D01*
X145860000Y-36270000D02*
X152730000Y-37540000D01*
X126220000Y-36320000D02*
X132580000Y-37490000D01*
X195680000Y-35710000D02*
X197690000Y-35800000D01*
X178940000Y-35290000D02*
X181850000Y-35360000D01*
X197690000Y-35800000D02*
X200160000Y-36240000D01*
X256750000Y-36260000D02*
X258600000Y-35980000D01*
X214440000Y-35840000D02*
X219180000Y-36965000D01*
X254570000Y-36910000D02*
X256750000Y-36260000D01*
X226320000Y-36350000D02*
X229550000Y-36830000D01*
X178380000Y-40390000D02*
X179260000Y-40390000D01*
D31*
X132580000Y-42570000D02*
X137020000Y-42570000D01*
D32*
X262640000Y-41400000D02*
X265090000Y-41680000D01*
X181460000Y-40580000D02*
X184710000Y-41040000D01*
X173900000Y-41560000D02*
X176210000Y-41170000D01*
X219180000Y-42045000D02*
X220830000Y-42080000D01*
X243470000Y-41060000D02*
X245910000Y-41160000D01*
X265090000Y-41680000D02*
X266770000Y-42410000D01*
X251060000Y-42410000D02*
X252930000Y-42450000D01*
X168500000Y-40620000D02*
X171000000Y-41710000D01*
X222990000Y-41480000D02*
X224160000Y-41360000D01*
X232320000Y-42050000D02*
X233210000Y-42660000D01*
X245910000Y-41160000D02*
X248270000Y-41490000D01*
D31*
X149630000Y-41380000D02*
X152730000Y-42620000D01*
X145090000Y-41362800D02*
X149630000Y-41380000D01*
D32*
X207670000Y-41820000D02*
X209650000Y-40960000D01*
X254710000Y-42310000D02*
X256440000Y-41780000D01*
X220830000Y-42080000D02*
X221810000Y-41820000D01*
D31*
X137020000Y-42570000D02*
X144430000Y-41250000D01*
X118650000Y-41360000D02*
X125790000Y-41280000D01*
D32*
X184710000Y-41040000D02*
X186710000Y-41665000D01*
X233210000Y-42660000D02*
X234340000Y-42640000D01*
X221810000Y-41820000D02*
X222990000Y-41480000D01*
X252930000Y-42450000D02*
X254710000Y-42310000D01*
X171000000Y-41710000D02*
X173900000Y-41560000D01*
X224160000Y-41360000D02*
X225770000Y-41340000D01*
X195320000Y-40780000D02*
X197400000Y-40710000D01*
D31*
X111990000Y-42585000D02*
X118650000Y-41360000D01*
D32*
X197400000Y-40710000D02*
X199870000Y-41040000D01*
X259660000Y-41160000D02*
X262640000Y-41400000D01*
D31*
X155920000Y-41070000D02*
X159030000Y-40460000D01*
D32*
X186710000Y-41665000D02*
X189800000Y-41620000D01*
X235840000Y-42590000D02*
X236860000Y-42500000D01*
X258120000Y-41250000D02*
X259660000Y-41160000D01*
X234340000Y-42640000D02*
X235840000Y-42590000D01*
X189800000Y-41620000D02*
X192690000Y-41100000D01*
X211490000Y-40730000D02*
X214340000Y-40790000D01*
D31*
X144430000Y-41250000D02*
X145090000Y-41362800D01*
D32*
X176210000Y-41170000D02*
X178380000Y-40390000D01*
X225770000Y-41340000D02*
X228270000Y-41420000D01*
X199870000Y-41040000D02*
X203910000Y-42045000D01*
D31*
X152730000Y-42620000D02*
X155920000Y-41070000D01*
D32*
X203910000Y-42045000D02*
X206060000Y-42140000D01*
X230310000Y-41710000D02*
X232320000Y-42050000D01*
X238440000Y-42000000D02*
X240200000Y-41300000D01*
X216410000Y-41220000D02*
X219180000Y-42045000D01*
X248270000Y-41490000D02*
X251060000Y-42410000D01*
X236860000Y-42500000D02*
X238440000Y-42000000D01*
X192690000Y-41100000D02*
X195320000Y-40780000D01*
X209650000Y-40960000D02*
X211490000Y-40730000D01*
D31*
X125790000Y-41280000D02*
X132580000Y-42570000D01*
D32*
X228270000Y-41420000D02*
X230310000Y-41710000D01*
X240200000Y-41300000D02*
X241940000Y-41030000D01*
X214340000Y-40790000D02*
X216410000Y-41220000D01*
X206060000Y-42140000D02*
X207670000Y-41820000D01*
X241940000Y-41030000D02*
X243470000Y-41060000D01*
X163140000Y-40430000D02*
X168500000Y-40620000D01*
X256440000Y-41780000D02*
X258120000Y-41250000D01*
X159030000Y-40460000D02*
X163140000Y-40430000D01*
X179260000Y-40390000D02*
X181460000Y-40580000D01*
X55060000Y-110360000D02*
X56150000Y-105010000D01*
X234700000Y-53870000D02*
X231550000Y-52745000D01*
X214330000Y-53700000D02*
X212230000Y-53990000D01*
X229350000Y-53130000D02*
X225710000Y-53800000D01*
X70030000Y-93970000D02*
X70190000Y-89820000D01*
X196500000Y-55165000D02*
X189920000Y-56550000D01*
X249220000Y-85760000D02*
X249380000Y-54230000D01*
X57040000Y-97300000D02*
X58690000Y-94940000D01*
X189450000Y-54920000D02*
X189920000Y-56550000D01*
X225710000Y-53800000D02*
X220790000Y-53650000D01*
X56150000Y-105010000D02*
X56500000Y-99930000D01*
X56500000Y-99930000D02*
X57040000Y-97300000D01*
X167280000Y-58530000D02*
X167190000Y-50910000D01*
X212230000Y-53990000D02*
X209360000Y-54470000D01*
X167010000Y-87610000D02*
X166880000Y-73000000D01*
X207780000Y-54950000D02*
X206630000Y-55330000D01*
X249380000Y-54230000D02*
X234700000Y-53870000D01*
X209360000Y-54470000D02*
X207780000Y-54950000D01*
X259980000Y-91400000D02*
X259980000Y-83780000D01*
X166610000Y-88980000D02*
X167010000Y-87610000D01*
X189450000Y-54920000D02*
X189110000Y-51940000D01*
X189110000Y-51940000D02*
X187080000Y-50860000D01*
X220790000Y-53650000D02*
X214330000Y-53700000D01*
X167190000Y-50910000D02*
X183370000Y-50860000D01*
X59710000Y-93560000D02*
X60030000Y-89820000D01*
X166880000Y-73000000D02*
X167280000Y-58530000D01*
X231550000Y-52745000D02*
X229350000Y-53130000D01*
X166390000Y-90410000D02*
X166610000Y-88980000D01*
X206630000Y-55330000D02*
X204120000Y-55165000D01*
X187080000Y-50860000D02*
X183370000Y-50860000D01*
X204120000Y-55165000D02*
X196500000Y-55165000D01*
X173070000Y-96240000D02*
X173070000Y-88620000D01*
X58690000Y-94940000D02*
X59710000Y-93560000D01*
X195790000Y-103950000D02*
X195835000Y-105950000D01*
X204350000Y-86680000D02*
X201270000Y-91130000D01*
X204690000Y-80710000D02*
X204350000Y-86680000D01*
X196270000Y-101800000D02*
X195790000Y-103950000D01*
X199060000Y-96420000D02*
X196270000Y-101800000D01*
X201270000Y-91130000D02*
X199060000Y-96420000D01*
X205280000Y-70190000D02*
X204690000Y-80710000D01*
X192270000Y-40010000D02*
X190620000Y-40320000D01*
X187190000Y-40470000D02*
X185150000Y-40250000D01*
X189000000Y-40620000D02*
X187190000Y-40470000D01*
X185150000Y-40250000D02*
X179090000Y-39125000D01*
X190620000Y-40320000D02*
X189000000Y-40620000D01*
X246110000Y-49160000D02*
X245490000Y-49640000D01*
X245490000Y-49640000D02*
X196540000Y-49570000D01*
X240640000Y-30400000D02*
X242150000Y-29860000D01*
X238020000Y-30660000D02*
X239320000Y-30640000D01*
X242150000Y-29860000D02*
X243440000Y-29710000D01*
X239320000Y-30640000D02*
X240640000Y-30400000D01*
X190670000Y-60540000D02*
X190750000Y-66680000D01*
X190750000Y-66680000D02*
X198660000Y-66580000D01*
X198660000Y-66580000D02*
X204120000Y-67865000D01*
X217120000Y-69460000D02*
X214570000Y-69070000D01*
X141540000Y-74920000D02*
X142880000Y-77640000D01*
X224050000Y-88210000D02*
X223755000Y-80945000D01*
X145170000Y-58420000D02*
X144020000Y-58530000D01*
X143090000Y-86520000D02*
X142395000Y-90380000D01*
X143790000Y-81550000D02*
X143610000Y-82820000D01*
X210860000Y-69000000D02*
X210790000Y-65960000D01*
X223755000Y-80945000D02*
X223620000Y-78000000D01*
X144020000Y-58530000D02*
X142560000Y-59360000D01*
X219420000Y-70520000D02*
X217120000Y-69460000D01*
X150660000Y-59230000D02*
X152750000Y-59680000D01*
X146080000Y-58500000D02*
X148650000Y-58850000D01*
X142560000Y-59360000D02*
X140400000Y-61690000D01*
X214570000Y-69070000D02*
X213690000Y-68930000D01*
X143650000Y-79460000D02*
X143790000Y-81550000D01*
X140600000Y-73380000D02*
X141540000Y-74920000D01*
X223620000Y-78000000D02*
X223330000Y-76520000D01*
X213690000Y-68930000D02*
X210860000Y-69000000D01*
X221850000Y-74570000D02*
X219840000Y-72380000D01*
X145170000Y-58420000D02*
X146080000Y-58500000D01*
X223330000Y-76520000D02*
X221850000Y-74570000D01*
X148650000Y-58850000D02*
X150660000Y-59230000D01*
X207640000Y-65460000D02*
X204120000Y-65325000D01*
X219840000Y-72380000D02*
X219420000Y-70520000D01*
X210790000Y-65960000D02*
X207640000Y-65460000D01*
X142880000Y-77640000D02*
X143650000Y-79460000D01*
X143610000Y-82820000D02*
X143090000Y-86520000D01*
X50450000Y-92010000D02*
X48160000Y-91170000D01*
X46190000Y-88940000D02*
X45780000Y-86630000D01*
X45780000Y-86630000D02*
X45730000Y-83860000D01*
X45730000Y-83860000D02*
X43790000Y-82100000D01*
X48160000Y-91170000D02*
X46190000Y-88940000D01*
X57480000Y-92080000D02*
X50450000Y-92010000D01*
X57490000Y-89820000D02*
X57480000Y-92080000D01*
X34900000Y-110970000D02*
X34720000Y-107570000D01*
X29840000Y-125520000D02*
X30060000Y-120790000D01*
X30460000Y-117750000D02*
X31160000Y-117120000D01*
X33490000Y-100250000D02*
X33450000Y-98080000D01*
X31080000Y-77190000D02*
X31090000Y-82100000D01*
X30280000Y-118240000D02*
X30460000Y-117750000D01*
X28620000Y-132000000D02*
X29840000Y-125520000D01*
X32310000Y-90450000D02*
X32230000Y-86800000D01*
X30060000Y-120790000D02*
X30280000Y-118240000D01*
X32230000Y-86800000D02*
X31090000Y-82100000D01*
X156920000Y-69740000D02*
X157020000Y-72870000D01*
X31160000Y-117120000D02*
X33750000Y-114860000D01*
X32310000Y-92480000D02*
X32310000Y-90450000D01*
X33450000Y-98080000D02*
X32780000Y-95150000D01*
X32780000Y-95150000D02*
X32310000Y-92480000D01*
X156970000Y-66270000D02*
X156920000Y-69740000D01*
X34450000Y-113770000D02*
X34900000Y-112280000D01*
X157290000Y-54050000D02*
X156970000Y-66270000D01*
X33685000Y-103250000D02*
X33490000Y-100250000D01*
X33750000Y-114860000D02*
X34450000Y-113770000D01*
X34900000Y-112280000D02*
X34900000Y-110970000D01*
X34720000Y-107570000D02*
X33685000Y-103250000D01*
D33*
X258550000Y-50230000D02*
X260220000Y-47775000D01*
D32*
X252360000Y-53920000D02*
X250474264Y-53860000D01*
D34*
X152730000Y-50810000D02*
X133170000Y-50621828D01*
X239200000Y-51049221D02*
X238900000Y-51050000D01*
X253510000Y-49310000D02*
X257140000Y-49485645D01*
X238900000Y-51050000D02*
X221500000Y-51075036D01*
D32*
X163010000Y-70540000D02*
X163026115Y-70320000D01*
D31*
X200430000Y-89550000D02*
X197270000Y-96090000D01*
D34*
X259150000Y-44950000D02*
X259140126Y-47309874D01*
D31*
X192380780Y-105100780D02*
X193295000Y-105950000D01*
D34*
X250503458Y-68990000D02*
X250474264Y-53860000D01*
D33*
X163400000Y-46910641D02*
X175150000Y-46962026D01*
D32*
X232890000Y-126580000D02*
X231650000Y-132590000D01*
D31*
X192380780Y-105100780D02*
X191930000Y-105900000D01*
D32*
X203360000Y-79540000D02*
X201460000Y-78792500D01*
D34*
X204150000Y-51100000D02*
X192840000Y-51230000D01*
X162510000Y-99230000D02*
X162810000Y-80160000D01*
X163560000Y-63970000D02*
X163608850Y-52360000D01*
X124850000Y-46950659D02*
X124960000Y-45110000D01*
X162510000Y-99230000D02*
X162615611Y-110660000D01*
X189270000Y-51160000D02*
X187250000Y-50040000D01*
D32*
X31145000Y-103250000D02*
X31145000Y-110870000D01*
D34*
X162615611Y-110660000D02*
X162730000Y-123040000D01*
D32*
X133170000Y-50621828D02*
X132980000Y-50620000D01*
D31*
X197270000Y-96090000D02*
X193780000Y-102620000D01*
D34*
X204120000Y-52625000D02*
X204150000Y-51100000D01*
X104370000Y-45125000D02*
X104380000Y-46971908D01*
X257140000Y-49485645D02*
X258550000Y-50230000D01*
X163608850Y-52360000D02*
X163620000Y-49710000D01*
X221500000Y-51075036D02*
X204150000Y-51100000D01*
X112840000Y-50550000D02*
X111640000Y-51890000D01*
D31*
X191310000Y-113080000D02*
X191890000Y-117040000D01*
D34*
X251500000Y-49680000D02*
X253510000Y-49310000D01*
D33*
X175150000Y-46962026D02*
X179190000Y-46979694D01*
D32*
X132980000Y-50620000D02*
X132430000Y-51950000D01*
X252090000Y-99290000D02*
X250561883Y-99270000D01*
D34*
X225590000Y-45200000D02*
X225730000Y-47027413D01*
D32*
X259140126Y-47309874D02*
X260220000Y-47775000D01*
X232470000Y-117390000D02*
X233030000Y-120090000D01*
X233030000Y-120090000D02*
X233030000Y-122610000D01*
D35*
X25690000Y-125880000D02*
X25790000Y-100080000D01*
D32*
X192840000Y-51230000D02*
X192640000Y-51226078D01*
D33*
X163400000Y-46910641D02*
X145080000Y-46929659D01*
D32*
X38780000Y-124380000D02*
X36240000Y-132000000D01*
D31*
X191230000Y-108610000D02*
X191310000Y-113080000D01*
D34*
X179190000Y-46979694D02*
X179090000Y-44205000D01*
X239170000Y-52745000D02*
X239200000Y-51049221D01*
X156210000Y-50230000D02*
X153800000Y-50570000D01*
D31*
X128990000Y-72960000D02*
X128340000Y-83300000D01*
D32*
X163026115Y-70320000D02*
X165650000Y-70290000D01*
D34*
X163026115Y-70320000D02*
X163240000Y-67400000D01*
D31*
X191930000Y-105900000D02*
X191230000Y-108610000D01*
D34*
X152750000Y-52060000D02*
X152730000Y-50810000D01*
D32*
X252100000Y-129640000D02*
X250620000Y-129390000D01*
D34*
X250730000Y-50530000D02*
X251500000Y-49680000D01*
D33*
X205160000Y-47093265D02*
X211480000Y-47073032D01*
X258560000Y-47060000D02*
X259140126Y-47309874D01*
X179190000Y-46979694D02*
X196370000Y-47054825D01*
D34*
X182770000Y-49890000D02*
X163620000Y-49710000D01*
X162730000Y-123040000D02*
X161850000Y-124350000D01*
D33*
X240540000Y-46980000D02*
X243450000Y-46992919D01*
D34*
X153800000Y-50570000D02*
X152750000Y-52060000D01*
D35*
X25830000Y-78940000D02*
X25790000Y-100080000D01*
D32*
X38765000Y-110870000D02*
X41305000Y-103250000D01*
D33*
X96860286Y-46979714D02*
X94980000Y-45920000D01*
D34*
X243440000Y-44950000D02*
X243450000Y-46992919D01*
X257140000Y-49485645D02*
X257850000Y-49520000D01*
D36*
X165910000Y-52360000D02*
X163608850Y-52360000D01*
D32*
X231350000Y-113510000D02*
X232470000Y-117390000D01*
D34*
X162810000Y-80160000D02*
X163010000Y-70540000D01*
X250620000Y-129390000D02*
X250591617Y-114680000D01*
D32*
X192675000Y-53440000D02*
X192640000Y-51226078D01*
D31*
X193780000Y-102620000D02*
X192380780Y-105100780D01*
D34*
X211560000Y-44585000D02*
X211480000Y-47073032D01*
X250591617Y-114680000D02*
X250561883Y-99270000D01*
D33*
X196370000Y-47054825D02*
X205160000Y-47093265D01*
D34*
X221460000Y-52445000D02*
X221500000Y-51075036D01*
X152730000Y-50810000D02*
X153800000Y-50570000D01*
X250561883Y-99270000D02*
X250503458Y-68990000D01*
D32*
X252075000Y-114720000D02*
X250591617Y-114680000D01*
D34*
X163240000Y-67400000D02*
X163560000Y-63970000D01*
D32*
X252200000Y-69010000D02*
X250503458Y-68990000D01*
D34*
X250450000Y-51020000D02*
X250730000Y-50530000D01*
D33*
X145080000Y-46929659D02*
X124850000Y-46950659D01*
D31*
X192700000Y-120690000D02*
X193015000Y-124750000D01*
D32*
X233030000Y-122610000D02*
X232890000Y-126580000D01*
D31*
X191890000Y-117040000D02*
X192700000Y-120690000D01*
D33*
X104380000Y-46971908D02*
X96860286Y-46979714D01*
D34*
X192640000Y-51226078D02*
X189270000Y-51160000D01*
X246790000Y-132120000D02*
X250620000Y-129390000D01*
D31*
X28550000Y-82100000D02*
X28550000Y-89720000D01*
D34*
X163400000Y-46910641D02*
X163380000Y-44250000D01*
D33*
X243450000Y-46992919D02*
X258560000Y-47060000D01*
D34*
X187250000Y-50040000D02*
X182770000Y-49890000D01*
D33*
X225730000Y-47027413D02*
X240540000Y-46980000D01*
D34*
X250474264Y-53860000D02*
X250470000Y-51650000D01*
D31*
X203435000Y-80945000D02*
X200430000Y-89550000D01*
D34*
X250470000Y-51650000D02*
X250450000Y-51020000D01*
X145080000Y-46929659D02*
X145110000Y-45160000D01*
X163620000Y-49710000D02*
X156210000Y-50230000D01*
D33*
X124850000Y-46950659D02*
X104380000Y-46971908D01*
D32*
X175210000Y-45330000D02*
X175150000Y-46962026D01*
D33*
X211480000Y-47073032D02*
X225730000Y-47027413D01*
D34*
X250450000Y-51020000D02*
X239200000Y-51049221D01*
D32*
X203435000Y-80945000D02*
X203360000Y-79540000D01*
X31145000Y-110870000D02*
X33685000Y-110870000D01*
D34*
X133170000Y-50621828D02*
X112840000Y-50550000D01*
X196290000Y-44585000D02*
X196370000Y-47054825D01*
D32*
X189630000Y-113570000D02*
X189870000Y-109750000D01*
X43130000Y-93110000D02*
X42560000Y-91260000D01*
X199629637Y-70900000D02*
X201260000Y-69750000D01*
X194470000Y-95630000D02*
X195650000Y-90750000D01*
X42560000Y-91260000D02*
X42560000Y-87560000D01*
X44480000Y-95250000D02*
X43130000Y-93110000D01*
X195650000Y-90750000D02*
X196980000Y-84460000D01*
X42560000Y-87560000D02*
X41250000Y-82100000D01*
X189870000Y-109750000D02*
X190810000Y-106690000D01*
X190810000Y-106690000D02*
X192170000Y-102500000D01*
X48030000Y-114670000D02*
X48330000Y-108150000D01*
X190320000Y-120000000D02*
X189630000Y-113570000D01*
X48330000Y-101660000D02*
X48040000Y-100030000D01*
X46970000Y-98460000D02*
X44480000Y-95250000D01*
X196980000Y-84460000D02*
X198850000Y-74570000D01*
X48040000Y-100030000D02*
X46970000Y-98460000D01*
X192170000Y-102500000D02*
X193490000Y-99070000D01*
X193490000Y-99070000D02*
X194470000Y-95630000D01*
X48330000Y-108150000D02*
X48330000Y-101660000D01*
X198850000Y-74570000D02*
X199629637Y-70900000D01*
D31*
X137310000Y-73020000D02*
X138150000Y-75480000D01*
X139060000Y-78590000D02*
X139855000Y-82760000D01*
X138150000Y-75480000D02*
X139060000Y-78590000D01*
X140550000Y-55860000D02*
X138620000Y-57180000D01*
X71400000Y-94990000D02*
X74430000Y-92080000D01*
X74430000Y-92080000D02*
X74960000Y-89740000D01*
X138620000Y-57180000D02*
X136600000Y-58370000D01*
X133400000Y-58310000D02*
X134880000Y-58410000D01*
X143060000Y-54760000D02*
X140550000Y-55860000D01*
X115020000Y-65520000D02*
X115840000Y-64190000D01*
X68370000Y-96800000D02*
X71400000Y-94990000D01*
X124760000Y-58287200D02*
X132100000Y-58280000D01*
X74960000Y-89740000D02*
X74810000Y-73540000D01*
X132100000Y-58280000D02*
X133400000Y-58310000D01*
X115840000Y-64190000D02*
X117440000Y-61350000D01*
X117440000Y-61350000D02*
X119430000Y-59580000D01*
X67760000Y-102740000D02*
X67900000Y-97790000D01*
X145130000Y-54600000D02*
X143060000Y-54760000D01*
X136600000Y-58370000D02*
X134880000Y-58410000D01*
X119430000Y-59580000D02*
X122250000Y-58560000D01*
X122250000Y-58560000D02*
X124760000Y-58287200D01*
X67900000Y-97790000D02*
X68370000Y-96800000D01*
D32*
X149720000Y-74250000D02*
X147980000Y-73570000D01*
X154510000Y-78920000D02*
X153640000Y-77110000D01*
X148050000Y-69470000D02*
X147620000Y-61880000D01*
X152140000Y-75620000D02*
X149720000Y-74250000D01*
X153640000Y-77110000D02*
X152140000Y-75620000D01*
X147620000Y-61880000D02*
X145130000Y-59680000D01*
X154940000Y-81030000D02*
X154510000Y-78920000D01*
X155095000Y-82760000D02*
X154940000Y-81030000D01*
D31*
X142050000Y-64820000D02*
X145130000Y-64760000D01*
X119930000Y-68880000D02*
X122220000Y-68480000D01*
X140000000Y-65260000D02*
X142050000Y-64820000D01*
X132430000Y-69730000D02*
X134370000Y-69640000D01*
X136220000Y-68350000D02*
X138230000Y-66380000D01*
X113490000Y-69640000D02*
X116950000Y-69400000D01*
X122220000Y-68480000D02*
X126480000Y-68440000D01*
X126480000Y-68440000D02*
X132430000Y-69730000D01*
X116950000Y-69400000D02*
X119930000Y-68880000D01*
X111640000Y-69670000D02*
X113490000Y-69640000D01*
X138230000Y-66380000D02*
X140000000Y-65260000D01*
X134370000Y-69640000D02*
X136220000Y-68350000D01*
D32*
X147340000Y-76730000D02*
X144270000Y-74560000D01*
X152555000Y-82760000D02*
X151930000Y-81010000D01*
X144270000Y-74560000D02*
X143200000Y-73020000D01*
X151930000Y-81010000D02*
X147340000Y-76730000D01*
D31*
X141150000Y-82450000D02*
X141040000Y-84700000D01*
X140880000Y-79720000D02*
X141150000Y-82450000D01*
X141040000Y-84700000D02*
X140290000Y-86370000D01*
X139270000Y-73090000D02*
X140240000Y-76230000D01*
X137360000Y-94010000D02*
X137930000Y-96440000D01*
X140240000Y-76230000D02*
X140880000Y-79720000D01*
X139020000Y-98350000D02*
X139480000Y-99750000D01*
X139480000Y-99750000D02*
X139610000Y-102980000D01*
X140290000Y-86370000D02*
X137315000Y-90380000D01*
X137930000Y-96440000D02*
X139020000Y-98350000D01*
X137315000Y-90380000D02*
X137360000Y-94010000D01*
D32*
X82150000Y-77570000D02*
X82830000Y-79590000D01*
X82830000Y-79590000D02*
X83275000Y-82580000D01*
X85815000Y-82580000D02*
X85860000Y-79550000D01*
X85290000Y-76940000D02*
X84520000Y-75820000D01*
X82150000Y-77570000D02*
X80290000Y-75565000D01*
X85860000Y-79550000D02*
X85290000Y-76940000D01*
X83275000Y-82580000D02*
X85815000Y-82580000D01*
X93838667Y-75800000D02*
X93850000Y-75970000D01*
X93850000Y-75970000D02*
X95060000Y-78370000D01*
X96190000Y-80930000D02*
X95975000Y-82580000D01*
X95940000Y-79710000D02*
X96190000Y-80930000D01*
X95060000Y-78370000D02*
X95940000Y-79710000D01*
X91660000Y-75820000D02*
X93838667Y-75800000D01*
X86170000Y-58690000D02*
X86220000Y-58950000D01*
X88930000Y-63170000D02*
X88470000Y-62310000D01*
X88930000Y-63170000D02*
X92350000Y-64710000D01*
X86220000Y-58950000D02*
X87120000Y-61860000D01*
X90850000Y-79590000D02*
X90080000Y-77940000D01*
X92350000Y-64710000D02*
X93690000Y-65630000D01*
X89810000Y-69270000D02*
X91380000Y-67740000D01*
X87120000Y-61860000D02*
X88470000Y-62310000D01*
X93435000Y-82580000D02*
X90895000Y-82580000D01*
X91380000Y-67740000D02*
X93690000Y-65630000D01*
X90895000Y-82580000D02*
X90850000Y-79590000D01*
X90080000Y-77940000D02*
X89270000Y-75830000D01*
X89200000Y-72570000D02*
X89810000Y-69270000D01*
X89270000Y-75830000D02*
X89200000Y-72570000D01*
X253300000Y-58360000D02*
X253660000Y-55020000D01*
X252360000Y-61540000D02*
X253300000Y-58360000D01*
X253660000Y-55020000D02*
X253660000Y-53450000D01*
X253660000Y-53450000D02*
X252800000Y-50490000D01*
X210490000Y-89510000D02*
X211055000Y-80945000D01*
X66030000Y-84450000D02*
X66460000Y-91380000D01*
X66460000Y-91380000D02*
X66520000Y-105760000D01*
X66520000Y-105760000D02*
X67760000Y-110360000D01*
X85815000Y-90200000D02*
X85850000Y-96860000D01*
X62730000Y-85700000D02*
X65110000Y-82200000D01*
X63460000Y-97520000D02*
X63630000Y-94560000D01*
X61340000Y-99780000D02*
X61290000Y-101080000D01*
X61380000Y-104280000D02*
X60890000Y-107920000D01*
X63630000Y-94560000D02*
X63110000Y-91420000D01*
X60890000Y-107920000D02*
X60140000Y-110360000D01*
X62190000Y-98560000D02*
X61340000Y-99780000D01*
X63110000Y-91420000D02*
X62570000Y-89820000D01*
X61290000Y-101080000D02*
X61380000Y-104280000D01*
X38765000Y-103250000D02*
X38890000Y-96830000D01*
X62570000Y-89820000D02*
X62730000Y-85700000D01*
X63460000Y-97520000D02*
X62190000Y-98560000D01*
X215080000Y-98300000D02*
X214750000Y-93940000D01*
X214750000Y-93940000D02*
X216135000Y-80945000D01*
D31*
X142890000Y-142430000D02*
X141100000Y-141240000D01*
X126720000Y-109830000D02*
X126340000Y-108270000D01*
X132470000Y-135640000D02*
X131900000Y-133290000D01*
X127600000Y-112280000D02*
X126720000Y-109830000D01*
X143750000Y-143580000D02*
X142890000Y-142430000D01*
X138660000Y-140510000D02*
X136400000Y-140080000D01*
X124890000Y-106060000D02*
X123330000Y-104130000D01*
X128920000Y-115240000D02*
X127600000Y-112280000D01*
X130170000Y-118000000D02*
X129640000Y-116840000D01*
X131740000Y-131900000D02*
X131230000Y-125870000D01*
X123330000Y-104130000D02*
X122130000Y-102260000D01*
X130670000Y-120650000D02*
X130170000Y-118000000D01*
X129640000Y-116840000D02*
X128920000Y-115240000D01*
X133330000Y-137730000D02*
X132470000Y-135640000D01*
X126340000Y-108270000D02*
X124890000Y-106060000D01*
X134490000Y-139090000D02*
X133330000Y-137730000D01*
X136400000Y-140080000D02*
X134490000Y-139090000D01*
X131230000Y-125870000D02*
X130670000Y-120650000D01*
X131900000Y-133290000D02*
X131740000Y-131900000D01*
X141100000Y-141240000D02*
X138660000Y-140510000D01*
D32*
X151300000Y-143510000D02*
X150740000Y-142060000D01*
X147280000Y-133390000D02*
X147355000Y-131560000D01*
X149990000Y-140080000D02*
X149020000Y-138100000D01*
X149020000Y-138100000D02*
X148200000Y-136620000D01*
X147570000Y-135080000D02*
X147280000Y-133390000D01*
X148200000Y-136620000D02*
X147570000Y-135080000D01*
X150740000Y-142060000D02*
X149990000Y-140080000D01*
X204820000Y-104950000D02*
X204700000Y-108090000D01*
X206990000Y-101640000D02*
X205360000Y-103210000D01*
X236430000Y-105890000D02*
X236420000Y-102470000D01*
X205360000Y-103210000D02*
X204820000Y-104950000D01*
X204700000Y-108090000D02*
X205995000Y-113570000D01*
X197330000Y-109790000D02*
X198375000Y-113570000D01*
X204970000Y-116040000D02*
X203455000Y-113570000D01*
X202160000Y-106700000D02*
X203455000Y-113570000D01*
X204970000Y-119020000D02*
X204970000Y-116040000D01*
X202580000Y-102220000D02*
X202160000Y-106700000D01*
X205715000Y-132370000D02*
X204370000Y-125420000D01*
X204640000Y-121840000D02*
X204970000Y-119020000D01*
X204370000Y-125420000D02*
X204640000Y-121840000D01*
X200635000Y-132370000D02*
X199450000Y-126510000D01*
X199390000Y-118800000D02*
X199560000Y-114200000D01*
X199320000Y-124310000D02*
X199390000Y-118800000D01*
X199450000Y-126510000D02*
X199320000Y-124310000D01*
X199830000Y-111370000D02*
X198375000Y-105950000D01*
X199560000Y-114200000D02*
X199830000Y-111370000D01*
X207100000Y-116340000D02*
X207260000Y-114150000D01*
X208160000Y-122220000D02*
X207910000Y-120780000D01*
X207910000Y-120780000D02*
X207100000Y-119310000D01*
X207100000Y-119310000D02*
X207100000Y-116340000D01*
X207260000Y-114150000D02*
X207190000Y-112460000D01*
X208255000Y-124750000D02*
X208160000Y-122220000D01*
X207190000Y-112460000D02*
X205995000Y-105950000D01*
X166560000Y-108700000D02*
X165430000Y-105860000D01*
X195730000Y-114930000D02*
X195835000Y-113570000D01*
X195220000Y-117010000D02*
X195650000Y-115530000D01*
X194250000Y-124730000D02*
X194420000Y-121680000D01*
X166490000Y-116010000D02*
X166760000Y-114030000D01*
X194290000Y-126420000D02*
X194250000Y-124730000D01*
X166790000Y-111540000D02*
X166560000Y-108700000D01*
X194800000Y-118960000D02*
X195220000Y-117010000D01*
X195555000Y-132370000D02*
X194290000Y-126420000D01*
X166760000Y-114030000D02*
X166790000Y-111540000D01*
X194420000Y-121680000D02*
X194800000Y-118960000D01*
X195650000Y-115530000D02*
X195730000Y-114930000D01*
X206500000Y-88230000D02*
X205975000Y-80945000D01*
X218960000Y-76310000D02*
X219790000Y-77820000D01*
X219790000Y-77820000D02*
X219950000Y-80790000D01*
X217660000Y-73610000D02*
X218960000Y-76310000D01*
X219950000Y-80790000D02*
X221215000Y-96185000D01*
X217250000Y-71020000D02*
X217660000Y-73610000D01*
X82660000Y-133320000D02*
X82660000Y-135130000D01*
X83730000Y-143230000D02*
X84060000Y-143950000D01*
X82990000Y-140080000D02*
X83730000Y-143230000D01*
X83085000Y-132050000D02*
X82660000Y-133320000D01*
X82660000Y-135130000D02*
X82990000Y-140080000D01*
X151410000Y-138160000D02*
X150390000Y-136590000D01*
X148870000Y-127420000D02*
X149895000Y-123940000D01*
X153020000Y-144550000D02*
X153060000Y-143220000D01*
X152600000Y-140520000D02*
X152150000Y-139600000D01*
X153060000Y-143220000D02*
X152990000Y-142060000D01*
X152990000Y-142060000D02*
X152600000Y-140520000D01*
X149510000Y-135180000D02*
X148990000Y-134090000D01*
X150390000Y-136590000D02*
X149510000Y-135180000D01*
X148530000Y-132720000D02*
X148590000Y-132080000D01*
X148610000Y-129380000D02*
X148870000Y-127420000D01*
X163158000Y-152810000D02*
X163160000Y-145820000D01*
X148990000Y-134090000D02*
X148530000Y-132720000D01*
X148590000Y-132080000D02*
X148610000Y-129380000D01*
X152150000Y-139600000D02*
X151410000Y-138160000D01*
X79300000Y-140900000D02*
X77950000Y-143230000D01*
X75620000Y-145200000D02*
X73370000Y-145890000D01*
D31*
X67908000Y-152810000D02*
X68150000Y-148350000D01*
D32*
X80545000Y-132050000D02*
X80410000Y-134060000D01*
X80210000Y-138150000D02*
X79300000Y-140900000D01*
X77950000Y-143230000D02*
X75620000Y-145200000D01*
X70180000Y-146420000D02*
X68830000Y-147120000D01*
X68830000Y-147120000D02*
X68150000Y-148350000D01*
X80410000Y-134060000D02*
X80210000Y-138150000D01*
X73370000Y-145890000D02*
X70180000Y-146420000D01*
X207940000Y-147510000D02*
X207608000Y-152810000D01*
D31*
X207608000Y-152810000D02*
X207670000Y-148680000D01*
D32*
X210090000Y-144960000D02*
X209060000Y-146280000D01*
X209060000Y-146280000D02*
X207940000Y-147510000D01*
X90705000Y-132050000D02*
X90990000Y-138470000D01*
X213520000Y-141090000D02*
X212490000Y-142220000D01*
X212490000Y-142220000D02*
X210090000Y-144960000D01*
X141150000Y-133410000D02*
X141070000Y-132350000D01*
X141010000Y-128490000D02*
X140660000Y-126580000D01*
X141070000Y-132350000D02*
X141010000Y-128490000D01*
X148030000Y-140800000D02*
X146730000Y-139280000D01*
X148660000Y-141550000D02*
X148030000Y-140800000D01*
X143100000Y-135660000D02*
X141560000Y-134280000D01*
X146730000Y-139280000D02*
X145180000Y-137490000D01*
X145180000Y-137490000D02*
X143100000Y-135660000D01*
X140660000Y-126580000D02*
X139735000Y-123940000D01*
X141560000Y-134280000D02*
X141150000Y-133410000D01*
X137195000Y-131560000D02*
X137430000Y-134330000D01*
X144440000Y-140650000D02*
X145770000Y-142210000D01*
X138520000Y-135890000D02*
X140000000Y-137140000D01*
X158390000Y-147270000D02*
X159970000Y-147990000D01*
X137430000Y-134330000D02*
X138520000Y-135890000D01*
X140000000Y-137140000D02*
X141480000Y-138070000D01*
X145770000Y-142210000D02*
X146710000Y-143220000D01*
D31*
X159983000Y-152810000D02*
X159970000Y-147990000D01*
D32*
X143040000Y-139240000D02*
X144440000Y-140650000D01*
X141480000Y-138070000D02*
X143040000Y-139240000D01*
X214010000Y-84380000D02*
X213595000Y-80945000D01*
X126080000Y-117870000D02*
X125450000Y-116610000D01*
X121090000Y-112210000D02*
X120190000Y-111390000D01*
X129810000Y-138190000D02*
X128880000Y-136560000D01*
X139930000Y-143270000D02*
X137180000Y-142570000D01*
X130650000Y-139400000D02*
X129810000Y-138190000D01*
X127570000Y-121360000D02*
X126970000Y-119640000D01*
X137180000Y-142570000D02*
X133630000Y-141820000D01*
X122280000Y-113110000D02*
X121090000Y-112210000D01*
X123760000Y-114460000D02*
X122280000Y-113110000D01*
X131440000Y-140470000D02*
X130650000Y-139400000D01*
X133630000Y-141820000D02*
X132750000Y-141260000D01*
X128880000Y-136560000D02*
X128370000Y-134920000D01*
X120190000Y-111390000D02*
X119590000Y-109880000D01*
X127990000Y-123180000D02*
X127570000Y-121360000D01*
X125450000Y-116610000D02*
X123760000Y-114460000D01*
X128130000Y-125280000D02*
X127990000Y-123180000D01*
X141260000Y-144160000D02*
X139930000Y-143270000D01*
X128180000Y-131660000D02*
X128130000Y-125280000D01*
X128370000Y-134920000D02*
X128180000Y-131660000D01*
X126970000Y-119640000D02*
X126080000Y-117870000D01*
X132750000Y-141260000D02*
X131440000Y-140470000D01*
X201090000Y-117440000D02*
X200915000Y-113570000D01*
X161140000Y-56470000D02*
X161270000Y-55300000D01*
X161080000Y-57220000D02*
X161140000Y-56470000D01*
X160700000Y-97880000D02*
X160680000Y-115780000D01*
X160700000Y-97880000D02*
X161080000Y-57220000D01*
X161270000Y-55300000D02*
X161760000Y-53930000D01*
X188460000Y-54580000D02*
X188130000Y-52270000D01*
X187940000Y-62620000D02*
X187650000Y-60370000D01*
X187510000Y-59000000D02*
X187610000Y-58500000D01*
X187060000Y-51690000D02*
X185050000Y-51690000D01*
X188140000Y-56930000D02*
X188360000Y-55730000D01*
X188070000Y-64300000D02*
X187940000Y-62620000D01*
X188360000Y-55730000D02*
X188460000Y-54580000D01*
X188130000Y-52270000D02*
X187060000Y-51690000D01*
X187610000Y-58500000D02*
X188140000Y-56930000D01*
X185050000Y-51690000D02*
X183690000Y-52360000D01*
X211350000Y-100840000D02*
X211075000Y-105950000D01*
X188120000Y-66720000D02*
X188070000Y-64300000D01*
X187650000Y-60370000D02*
X187510000Y-59000000D01*
X187920000Y-80500000D02*
X188040000Y-72860000D01*
X188040000Y-72860000D02*
X188120000Y-66720000D01*
X188960000Y-97440000D02*
X187920000Y-80500000D01*
X208535000Y-113570000D02*
X208700000Y-118730000D01*
X181150000Y-59980000D02*
X181000000Y-62790000D01*
X191090000Y-29890000D02*
X188580000Y-30230000D01*
X185920000Y-30200000D02*
X180660000Y-29230000D01*
X182040000Y-79110000D02*
X180960000Y-82080000D01*
X181880000Y-115200000D02*
X181880000Y-113320000D01*
X184710000Y-69800000D02*
X184710000Y-73070000D01*
X183370000Y-75550000D02*
X182260000Y-77260000D01*
X180960000Y-82080000D02*
X179920000Y-83630000D01*
X184330000Y-68020000D02*
X184710000Y-69800000D01*
X180920000Y-99190000D02*
X180150000Y-98510000D01*
X181150000Y-59980000D02*
X181670000Y-56160000D01*
X188580000Y-30230000D02*
X185920000Y-30200000D01*
X181920000Y-104520000D02*
X181870000Y-102440000D01*
X182260000Y-65500000D02*
X184330000Y-68020000D01*
X179530000Y-86650000D02*
X179260000Y-91760000D01*
X181870000Y-102440000D02*
X181690000Y-100720000D01*
X181420000Y-99860000D02*
X180920000Y-99190000D01*
X180660000Y-29230000D02*
X179090000Y-28965000D01*
X180150000Y-98510000D02*
X179120000Y-97520000D01*
X181780000Y-118510000D02*
X181880000Y-115200000D01*
X181880000Y-113320000D02*
X181920000Y-104520000D01*
X181000000Y-62790000D02*
X182260000Y-65500000D01*
X182260000Y-77260000D02*
X182040000Y-79110000D01*
X179260000Y-91760000D02*
X178150000Y-96240000D01*
X179120000Y-97520000D02*
X178150000Y-96240000D01*
X179920000Y-83630000D02*
X179530000Y-86650000D01*
X181690000Y-100720000D02*
X181420000Y-99860000D01*
X184710000Y-73070000D02*
X183370000Y-75550000D01*
X186410000Y-59940000D02*
X186520000Y-57610000D01*
X203470000Y-104340000D02*
X203455000Y-105950000D01*
X204220000Y-101910000D02*
X203740000Y-102760000D01*
X186990000Y-55940000D02*
X187440000Y-55050000D01*
X186700000Y-74710000D02*
X186950000Y-68110000D01*
X203470000Y-103570000D02*
X203470000Y-104340000D01*
X186950000Y-64610000D02*
X186740000Y-62260000D01*
X186950000Y-68110000D02*
X186950000Y-64610000D01*
X186740000Y-62260000D02*
X186410000Y-59940000D01*
X204990000Y-100900000D02*
X204220000Y-101910000D01*
X170530000Y-96240000D02*
X170220000Y-100570000D01*
X186700000Y-86460000D02*
X186700000Y-81260000D01*
X186920000Y-91320000D02*
X186700000Y-86460000D01*
X186520000Y-57610000D02*
X186990000Y-55940000D01*
X203740000Y-102760000D02*
X203470000Y-103570000D01*
X187130000Y-100790000D02*
X186920000Y-91320000D01*
X186700000Y-81260000D02*
X186700000Y-74710000D01*
X37420000Y-87940000D02*
X37520000Y-86940000D01*
X36225000Y-103250000D02*
X35960000Y-99430000D01*
X72660000Y-79740000D02*
X72700000Y-73220000D01*
D31*
X108090000Y-52770000D02*
X111230000Y-53172800D01*
D32*
X72700000Y-73220000D02*
X72740000Y-72210000D01*
X54950000Y-89820000D02*
X61840000Y-84590000D01*
X98800000Y-72510000D02*
X98600000Y-59400000D01*
X63750000Y-79640000D02*
X72660000Y-79740000D01*
X36280000Y-96560000D02*
X37040000Y-93750000D01*
X63550000Y-83020000D02*
X63780000Y-82370000D01*
X72660000Y-79740000D02*
X72730000Y-82200000D01*
X99270000Y-56460000D02*
X100800000Y-53920000D01*
X35960000Y-99430000D02*
X36280000Y-96560000D01*
X37490000Y-90500000D02*
X37420000Y-87940000D01*
D31*
X104020000Y-51890000D02*
X108090000Y-52770000D01*
X121530000Y-51990000D02*
X124810000Y-51950000D01*
D32*
X61840000Y-84590000D02*
X63550000Y-83020000D01*
X98600000Y-59400000D02*
X99270000Y-56460000D01*
X100800000Y-53920000D02*
X104020000Y-51890000D01*
D31*
X111230000Y-53172800D02*
X115710000Y-53020000D01*
D32*
X63780000Y-82370000D02*
X63750000Y-79640000D01*
D31*
X117870000Y-52510000D02*
X121530000Y-51990000D01*
X115710000Y-53020000D02*
X117870000Y-52510000D01*
D32*
X37040000Y-93750000D02*
X37490000Y-90500000D01*
X226170000Y-61080000D02*
X224610000Y-61220000D01*
X227020000Y-60760000D02*
X226170000Y-61080000D01*
X228710000Y-59560000D02*
X227020000Y-60760000D01*
X239170000Y-57825000D02*
X232430000Y-59030000D01*
X230480000Y-59060000D02*
X228710000Y-59560000D01*
X221010000Y-61330000D02*
X216440000Y-62030000D01*
X224610000Y-61220000D02*
X221010000Y-61330000D01*
X216440000Y-62030000D02*
X213840000Y-62605000D01*
X232430000Y-59030000D02*
X230480000Y-59060000D01*
X236690000Y-79430000D02*
X236320000Y-71830000D01*
X237310000Y-67300000D02*
X239170000Y-65445000D01*
X231330000Y-69250000D02*
X235930000Y-68930000D01*
X221460000Y-70225000D02*
X226520000Y-69460000D01*
X226520000Y-69460000D02*
X231330000Y-69250000D01*
X235930000Y-68930000D02*
X237310000Y-67300000D01*
X242090000Y-70200000D02*
X241000000Y-70480000D01*
X241000000Y-70480000D02*
X239170000Y-70525000D01*
X243820000Y-67870000D02*
X242090000Y-70200000D01*
X245750000Y-62000000D02*
X245190000Y-64460000D01*
X245980000Y-58650000D02*
X245750000Y-62000000D01*
X245190000Y-64460000D02*
X243820000Y-67870000D01*
X231550000Y-62905000D02*
X229850000Y-63310000D01*
X220020000Y-68960000D02*
X216620000Y-68040000D01*
X221780000Y-68930000D02*
X220020000Y-68960000D01*
X227830000Y-67090000D02*
X226910000Y-68040000D01*
X216620000Y-68040000D02*
X213840000Y-67685000D01*
X226910000Y-68040000D02*
X224510000Y-68820000D01*
X229850000Y-63310000D02*
X229530000Y-63550000D01*
X229070000Y-64790000D02*
X227830000Y-67090000D01*
X229530000Y-63550000D02*
X229070000Y-64790000D01*
X224510000Y-68820000D02*
X221780000Y-68930000D01*
X227550000Y-62100000D02*
X225000000Y-63940000D01*
X225000000Y-63940000D02*
X220300000Y-63910000D01*
X220300000Y-63910000D02*
X212940000Y-63910000D01*
X204640000Y-64050000D02*
X198870000Y-64080000D01*
X194100000Y-64190000D02*
X192490000Y-65070000D01*
X198870000Y-64080000D02*
X196080000Y-64120000D01*
X212940000Y-63910000D02*
X204640000Y-64050000D01*
X229460000Y-60800000D02*
X227550000Y-62100000D01*
X231550000Y-60365000D02*
X229460000Y-60800000D01*
X196080000Y-64120000D02*
X194100000Y-64190000D01*
X220730000Y-56290000D02*
X218100000Y-56610000D01*
X223680000Y-56410000D02*
X220730000Y-56290000D01*
X228780000Y-55620000D02*
X226350000Y-56210000D01*
X231550000Y-55285000D02*
X228780000Y-55620000D01*
X226350000Y-56210000D02*
X223680000Y-56410000D01*
X218100000Y-56610000D02*
X213840000Y-57525000D01*
X229910000Y-91450000D02*
X230100000Y-79350000D01*
X230320000Y-100920000D02*
X229910000Y-91450000D01*
X228530000Y-71390000D02*
X228590000Y-71170000D01*
X230100000Y-79350000D02*
X230250000Y-76870000D01*
X230250000Y-76870000D02*
X229480000Y-74250000D01*
X229480000Y-74250000D02*
X228530000Y-71390000D01*
X90820000Y-87160000D02*
X90895000Y-90200000D01*
X77680000Y-87230000D02*
X90820000Y-87160000D01*
X203810000Y-90780000D02*
X203435000Y-96185000D01*
X196700000Y-61560000D02*
X195200000Y-61590000D01*
X138340000Y-100520000D02*
X138410000Y-104230000D01*
X255880000Y-95490000D02*
X253880000Y-93030000D01*
X254690000Y-79080000D02*
X257280000Y-76630000D01*
X168190000Y-77910000D02*
X171300000Y-72270000D01*
X135970000Y-91170000D02*
X136230000Y-94840000D01*
D31*
X117830000Y-55500000D02*
X120700000Y-54900000D01*
D32*
X223520000Y-58960000D02*
X220130000Y-58760000D01*
X171840000Y-66390000D02*
X171210000Y-64370000D01*
X214520000Y-61310000D02*
X204280000Y-61596800D01*
X245380000Y-56750000D02*
X238100000Y-56450000D01*
X238100000Y-56450000D02*
X231410000Y-56610000D01*
X231410000Y-56610000D02*
X228660000Y-56930000D01*
X258390000Y-114110000D02*
X257520000Y-110320000D01*
X195200000Y-61590000D02*
X192200000Y-62250000D01*
X258590000Y-72360000D02*
X258468200Y-69080000D01*
X253630000Y-91170000D02*
X253710000Y-82930000D01*
X253840000Y-81260000D02*
X254690000Y-79080000D01*
X257520000Y-110320000D02*
X257170000Y-106910000D01*
X217470000Y-59360000D02*
X216030000Y-61070000D01*
D31*
X114160000Y-55840000D02*
X117830000Y-55500000D01*
D32*
X225990000Y-58290000D02*
X223520000Y-58960000D01*
X171210000Y-64370000D02*
X170930000Y-62920000D01*
X136160000Y-78060000D02*
X135970000Y-91170000D01*
X257860000Y-64290000D02*
X257440000Y-61540000D01*
X258500000Y-66300000D02*
X257860000Y-64290000D01*
X258390000Y-115370000D02*
X258390000Y-114110000D01*
D31*
X108050000Y-55580000D02*
X111170000Y-55670000D01*
D32*
X253880000Y-93030000D02*
X253630000Y-91170000D01*
X171990000Y-69100000D02*
X171840000Y-66390000D01*
X257170000Y-106910000D02*
X255810000Y-99530000D01*
X204280000Y-61596800D02*
X196700000Y-61560000D01*
D31*
X104020000Y-54430000D02*
X101910000Y-55570000D01*
D32*
X257280000Y-76630000D02*
X258590000Y-72360000D01*
D31*
X93430000Y-92330000D02*
X93435000Y-90200000D01*
D32*
X254615000Y-122340000D02*
X258390000Y-115370000D01*
D31*
X100980000Y-77710000D02*
X100810000Y-92300000D01*
X100810000Y-92300000D02*
X93430000Y-92330000D01*
D32*
X220130000Y-58760000D02*
X217470000Y-59360000D01*
X171300000Y-72270000D02*
X171990000Y-70580000D01*
X137260000Y-98300000D02*
X138340000Y-100520000D01*
X253710000Y-82930000D02*
X253840000Y-81260000D01*
D31*
X100730000Y-58370000D02*
X100980000Y-77710000D01*
D32*
X255810000Y-99530000D02*
X256160000Y-96760000D01*
X170930000Y-62920000D02*
X170990000Y-59980000D01*
D31*
X111170000Y-55670000D02*
X114160000Y-55840000D01*
D32*
X228660000Y-56930000D02*
X225990000Y-58290000D01*
D31*
X104020000Y-54430000D02*
X108050000Y-55580000D01*
D32*
X136230000Y-94840000D02*
X137260000Y-98300000D01*
X138700000Y-107270000D02*
X139610000Y-110600000D01*
D31*
X120700000Y-54900000D02*
X123900000Y-54390000D01*
X123900000Y-54390000D02*
X124810000Y-54490000D01*
D32*
X256160000Y-96760000D02*
X255880000Y-95490000D01*
X138410000Y-104230000D02*
X138700000Y-107270000D01*
X171990000Y-70580000D02*
X171990000Y-69100000D01*
X258468200Y-69080000D02*
X258500000Y-66300000D01*
X216030000Y-61070000D02*
X214520000Y-61310000D01*
D31*
X101910000Y-55570000D02*
X100730000Y-58370000D01*
X82370000Y-58690000D02*
X74400000Y-59480000D01*
D32*
X88355000Y-82580000D02*
X88350000Y-78820000D01*
X87860000Y-75180000D02*
X86210000Y-71880000D01*
X88350000Y-78820000D02*
X87860000Y-75180000D01*
X82370000Y-58690000D02*
X80340000Y-65295000D01*
X86210000Y-71880000D02*
X83940000Y-68310000D01*
X83940000Y-68310000D02*
X80340000Y-65295000D01*
X120620000Y-90450000D02*
X120930000Y-86910000D01*
X124670000Y-102260000D02*
X124580000Y-99750000D01*
X121130000Y-93050000D02*
X120620000Y-91320000D01*
X124270000Y-98630000D02*
X123270000Y-96960000D01*
X122200000Y-95230000D02*
X121130000Y-93050000D01*
X124580000Y-99750000D02*
X124270000Y-98630000D01*
X123270000Y-96960000D02*
X122200000Y-95230000D01*
X120620000Y-91320000D02*
X120620000Y-90450000D01*
X208990000Y-85540000D02*
X208515000Y-80945000D01*
X68800000Y-113940000D02*
X68859367Y-113270000D01*
X67530000Y-118700000D02*
X67920000Y-116340000D01*
X70650000Y-106660000D02*
X69180000Y-108570000D01*
X67530000Y-124490000D02*
X67560000Y-120670000D01*
X69060000Y-111530000D02*
X68859367Y-113270000D01*
X69180000Y-108570000D02*
X69060000Y-111530000D01*
X67560000Y-120670000D02*
X67530000Y-118700000D01*
X67920000Y-116340000D02*
X68800000Y-113940000D01*
X67530000Y-132110000D02*
X67530000Y-124490000D01*
X72520000Y-104480000D02*
X70650000Y-106660000D01*
X109040000Y-116780000D02*
X108180000Y-118950000D01*
X108180000Y-118950000D02*
X107110000Y-120430000D01*
X104890000Y-127320000D02*
X105320000Y-133710000D01*
X104850000Y-123750000D02*
X104730000Y-124820000D01*
X109450000Y-113410000D02*
X109330000Y-116080000D01*
X107110000Y-120430000D02*
X106130000Y-121620000D01*
X109330000Y-116080000D02*
X109040000Y-116780000D01*
X46700000Y-130390000D02*
X46200000Y-127670000D01*
X104730000Y-124820000D02*
X104890000Y-127320000D01*
X109430000Y-109880000D02*
X109450000Y-113410000D01*
X46200000Y-127670000D02*
X45530000Y-125230000D01*
X106130000Y-121620000D02*
X104980000Y-123340000D01*
X45530000Y-125230000D02*
X43860000Y-124380000D01*
X46770000Y-135960000D02*
X46700000Y-130390000D01*
X105320000Y-133710000D02*
X105550000Y-135960000D01*
X104980000Y-123340000D02*
X104850000Y-123750000D01*
X115390000Y-121360000D02*
X115220000Y-118420000D01*
X112750000Y-128620000D02*
X114510000Y-126690000D01*
X115390000Y-124800000D02*
X115390000Y-121360000D01*
X41320000Y-132000000D02*
X41530000Y-137230000D01*
X112931800Y-131690000D02*
X112750000Y-128620000D01*
X113970000Y-114940000D02*
X112580000Y-112550000D01*
X115220000Y-118420000D02*
X113970000Y-114940000D01*
X112580000Y-112550000D02*
X111970000Y-109880000D01*
X114510000Y-126690000D02*
X115390000Y-124800000D01*
X112050000Y-139520000D02*
X112931800Y-131690000D01*
X219030000Y-89560000D02*
X218675000Y-80945000D01*
X159460000Y-102420000D02*
X159860000Y-126850000D01*
X159500000Y-56760000D02*
X159780000Y-54910000D01*
X161420000Y-135190000D02*
X160530000Y-133800000D01*
X159390000Y-58240000D02*
X159500000Y-56760000D01*
X248030000Y-124430000D02*
X248530000Y-120700000D01*
X248030000Y-124430000D02*
X246660000Y-127930000D01*
X246660000Y-127930000D02*
X244424735Y-131564735D01*
X159460000Y-102420000D02*
X159500000Y-67340000D01*
X160530000Y-133800000D02*
X160000000Y-131470000D01*
X159780000Y-54910000D02*
X160380000Y-53280000D01*
X159440000Y-61800000D02*
X159390000Y-58240000D01*
X248530000Y-120700000D02*
X248560000Y-116140000D01*
X160380000Y-53280000D02*
X161710000Y-50830000D01*
X244424735Y-131564735D02*
X243130000Y-134710000D01*
X159500000Y-67340000D02*
X159440000Y-61800000D01*
X160000000Y-131470000D02*
X159860000Y-126850000D01*
X158300000Y-56920000D02*
X158200000Y-59200000D01*
X253200000Y-131780000D02*
X252930000Y-132920000D01*
X158360000Y-78250000D02*
X158560000Y-130530000D01*
X253140000Y-125110000D02*
X253310000Y-126800000D01*
X158820000Y-54210000D02*
X158300000Y-56920000D01*
X247090000Y-135500000D02*
X244940000Y-135960000D01*
X158560000Y-130530000D02*
X158430000Y-135080000D01*
X159350000Y-52030000D02*
X158820000Y-54210000D01*
X253340000Y-130810000D02*
X253200000Y-131780000D01*
X251950000Y-133530000D02*
X247090000Y-135500000D01*
X252290000Y-123320000D02*
X253140000Y-125110000D01*
X252075000Y-122340000D02*
X252290000Y-123320000D01*
X253310000Y-126800000D02*
X253340000Y-130810000D01*
X252930000Y-132920000D02*
X251950000Y-133530000D01*
X158200000Y-59200000D02*
X158360000Y-78250000D01*
X118080000Y-91810000D02*
X118130000Y-89640000D01*
X125340000Y-25940000D02*
X130210000Y-28160000D01*
X147120000Y-26500000D02*
X145590000Y-26040000D01*
X116420000Y-26010000D02*
X118890000Y-26040000D01*
X116610000Y-73960000D02*
X116340000Y-73280000D01*
X117450000Y-76470000D02*
X116610000Y-73960000D01*
X117490000Y-93360000D02*
X118080000Y-91810000D01*
X114510000Y-102260000D02*
X114450000Y-100320000D01*
X118030000Y-78350000D02*
X117450000Y-76470000D01*
X118030000Y-81540000D02*
X118030000Y-78350000D01*
X136350000Y-28300000D02*
X142020000Y-26200000D01*
X153120000Y-28630000D02*
X150740000Y-28590000D01*
X115100000Y-97870000D02*
X116130000Y-95680000D01*
X114450000Y-100320000D02*
X114570000Y-99450000D01*
X142020000Y-26200000D02*
X145590000Y-26040000D01*
X118890000Y-26040000D02*
X125340000Y-25940000D01*
X150740000Y-28590000D02*
X147120000Y-26500000D01*
X130210000Y-28160000D02*
X132710000Y-28620000D01*
X157410000Y-27260000D02*
X153120000Y-28630000D01*
X114570000Y-99450000D02*
X115100000Y-97870000D01*
X132710000Y-28620000D02*
X133900000Y-28500000D01*
X133900000Y-28500000D02*
X136350000Y-28300000D01*
X116130000Y-95680000D02*
X117490000Y-93360000D01*
X157410000Y-27260000D02*
X159940000Y-26900000D01*
X118130000Y-89640000D02*
X118030000Y-81540000D01*
X159940000Y-26900000D02*
X163380000Y-26470000D01*
X65790000Y-128110000D02*
X64990000Y-124490000D01*
X119200000Y-131900000D02*
X119090000Y-137170000D01*
X66190000Y-130950000D02*
X65790000Y-128110000D01*
X66190000Y-137370000D02*
X66190000Y-130950000D01*
X62530000Y-130890000D02*
X62450000Y-132110000D01*
X57370000Y-132110000D02*
X57260000Y-137210000D01*
X57370000Y-132110000D02*
X57340000Y-130840000D01*
X31160000Y-132000000D02*
X31110000Y-135780000D01*
X57340000Y-130840000D02*
X59930000Y-130864952D01*
X59930000Y-130864952D02*
X62530000Y-130890000D01*
X59910000Y-132110000D02*
X59930000Y-130864952D01*
X203410000Y-98000000D02*
X205530000Y-97730000D01*
X219060000Y-99110000D02*
X218675000Y-96185000D01*
X210230000Y-97660000D02*
X212680000Y-97660000D01*
X205530000Y-97730000D02*
X210230000Y-97660000D01*
X70300000Y-102740000D02*
X70310000Y-97520000D01*
X212680000Y-97660000D02*
X214360000Y-99270000D01*
X201630000Y-98910000D02*
X203410000Y-98000000D01*
X200640000Y-99710000D02*
X201630000Y-98910000D01*
X214360000Y-99270000D02*
X217180000Y-99310000D01*
X217180000Y-99310000D02*
X219060000Y-99110000D01*
X142275000Y-131560000D02*
X144815000Y-123940000D01*
X149895000Y-131560000D02*
X152435000Y-123940000D01*
X105210000Y-117020000D02*
X104770000Y-120110000D01*
D31*
X118120000Y-67470000D02*
X115910000Y-68350000D01*
X115910000Y-68350000D02*
X113010000Y-68480000D01*
X113010000Y-68480000D02*
X107860000Y-68190000D01*
X119355000Y-82580000D02*
X119500000Y-72710000D01*
X124810000Y-67190000D02*
X121050000Y-67190000D01*
X121050000Y-67190000D02*
X118120000Y-67470000D01*
X107860000Y-68190000D02*
X104020000Y-67130000D01*
X127450000Y-55930000D02*
X129630000Y-55570000D01*
X118390000Y-57740000D02*
X120070000Y-56930000D01*
X111200000Y-58300000D02*
X111500000Y-58252800D01*
X123050000Y-55880000D02*
X124310000Y-55720000D01*
X114660000Y-58160000D02*
X117270000Y-58090000D01*
X111500000Y-58252800D02*
X112940000Y-58160000D01*
X121870000Y-56210000D02*
X123050000Y-55880000D01*
X106630000Y-57820000D02*
X111200000Y-58300000D01*
X112940000Y-58160000D02*
X114660000Y-58160000D01*
X129630000Y-55570000D02*
X132430000Y-54490000D01*
X120070000Y-56930000D02*
X121870000Y-56210000D01*
X124310000Y-55720000D02*
X127450000Y-55930000D01*
X117270000Y-58090000D02*
X118390000Y-57740000D01*
D32*
X219730000Y-66410000D02*
X216860000Y-65700000D01*
X225060000Y-81960000D02*
X224950000Y-79220000D01*
X225930000Y-66700000D02*
X221810000Y-66410000D01*
X224950000Y-79220000D02*
X225110000Y-78420000D01*
X225110000Y-78420000D02*
X225930000Y-71080000D01*
X221810000Y-66410000D02*
X219730000Y-66410000D01*
X225210000Y-108540000D02*
X224950000Y-104710000D01*
X216860000Y-65700000D02*
X213840000Y-65145000D01*
X225090000Y-96440000D02*
X225060000Y-81960000D01*
X224950000Y-104710000D02*
X225090000Y-96440000D01*
X189150000Y-65410000D02*
X188620000Y-61980000D01*
X188810000Y-59270000D02*
X198580000Y-58930000D01*
X198580000Y-58930000D02*
X204670000Y-59030000D01*
X208250000Y-59610000D02*
X210230000Y-60430000D01*
X190470000Y-71060000D02*
X189940000Y-70180000D01*
X210230000Y-60430000D02*
X212020000Y-60430000D01*
X212020000Y-60430000D02*
X213840000Y-60065000D01*
X189280000Y-68050000D02*
X189150000Y-65410000D01*
X204670000Y-59030000D02*
X208250000Y-59610000D01*
X188620000Y-61980000D02*
X188810000Y-59270000D01*
X189940000Y-70180000D02*
X189280000Y-68050000D01*
X134650000Y-77390000D02*
X134750000Y-76730000D01*
X134750000Y-76730000D02*
X135060000Y-75060000D01*
X135060000Y-75060000D02*
X135770000Y-73100000D01*
X134950000Y-105360000D02*
X134650000Y-77390000D01*
X215410000Y-48580000D02*
X137210000Y-48560000D01*
X137210000Y-48560000D02*
X136340000Y-49140000D01*
X88020000Y-133680000D02*
X88020000Y-137230000D01*
X88380000Y-139200000D02*
X89240000Y-142110000D01*
X88165000Y-132050000D02*
X88020000Y-133680000D01*
X88020000Y-137230000D02*
X88380000Y-139200000D01*
X264900000Y-69010000D02*
X265110000Y-67510000D01*
X258650000Y-81680000D02*
X259110000Y-80600000D01*
X258320000Y-92710000D02*
X260820000Y-94360000D01*
X258450000Y-85400000D02*
X258700000Y-83820000D01*
X257440000Y-91400000D02*
X258320000Y-92710000D01*
X262180000Y-95240000D02*
X263320000Y-96050000D01*
X257440000Y-91400000D02*
X258450000Y-85400000D01*
X264020000Y-96600000D02*
X264530000Y-97410000D01*
X263820000Y-62710000D02*
X263750000Y-61210000D01*
X263750000Y-61210000D02*
X265060000Y-53920000D01*
X264590000Y-64830000D02*
X263820000Y-62710000D01*
X260820000Y-94360000D02*
X262180000Y-95240000D01*
X259110000Y-80600000D02*
X262120000Y-78820000D01*
X263650000Y-76780000D02*
X264900000Y-69010000D01*
X263320000Y-96050000D02*
X264020000Y-96600000D01*
X247190000Y-95310000D02*
X247160000Y-94810000D01*
X247300000Y-121360000D02*
X247190000Y-95310000D01*
X258700000Y-83820000D02*
X258650000Y-81680000D01*
X264530000Y-97410000D02*
X264790000Y-99290000D01*
X265110000Y-67510000D02*
X264590000Y-64830000D01*
X263550000Y-77590000D02*
X263650000Y-76780000D01*
X246530000Y-122620000D02*
X247300000Y-121360000D01*
X262120000Y-78820000D02*
X263550000Y-77590000D01*
X267500000Y-96160000D02*
X266590000Y-93740000D01*
X265060000Y-91400000D02*
X266070000Y-86310000D01*
X268630000Y-120710000D02*
X268640000Y-112860000D01*
X268720000Y-68940000D02*
X268840000Y-66010000D01*
X266070000Y-86310000D02*
X266390000Y-84210000D01*
X267330000Y-106910000D02*
X268520000Y-100790000D01*
X259620000Y-127310000D02*
X259180000Y-126200000D01*
X268840000Y-66010000D02*
X267600000Y-61540000D01*
X268560000Y-99180000D02*
X267500000Y-96160000D01*
X268800000Y-69890000D02*
X268720000Y-68940000D01*
X268580000Y-111430000D02*
X267850000Y-108630000D01*
X268520000Y-100790000D02*
X268560000Y-99180000D01*
X268630000Y-125130000D02*
X268630000Y-120710000D01*
X266550000Y-80870000D02*
X266880000Y-78930000D01*
X259720000Y-129640000D02*
X259620000Y-127310000D01*
X266590000Y-93740000D02*
X265060000Y-91400000D01*
X266390000Y-84210000D02*
X266550000Y-80870000D01*
X268640000Y-112860000D02*
X268580000Y-111430000D01*
X267850000Y-108630000D02*
X267330000Y-106910000D01*
X266880000Y-78930000D02*
X267440000Y-76630000D01*
X259180000Y-126200000D02*
X258909624Y-125130000D01*
X267440000Y-76630000D02*
X268800000Y-69890000D01*
X271400000Y-57180000D02*
X270140000Y-53920000D01*
X271070000Y-125750000D02*
X271090000Y-120740000D01*
X269980000Y-69010000D02*
X270510000Y-65950000D01*
X271400000Y-62930000D02*
X271770000Y-60620000D01*
X268710000Y-76300000D02*
X269520000Y-72690000D01*
X267900000Y-94180000D02*
X267600000Y-91400000D01*
X271770000Y-60620000D02*
X271400000Y-57180000D01*
X269520000Y-72690000D02*
X269980000Y-69010000D01*
X267600000Y-91400000D02*
X268390000Y-87550000D01*
X268710000Y-96490000D02*
X267900000Y-94180000D01*
X268390000Y-87550000D02*
X268870000Y-85070000D01*
X271170000Y-101210000D02*
X269870000Y-99290000D01*
X269870000Y-99290000D02*
X268710000Y-96490000D01*
X268870000Y-85070000D02*
X268710000Y-76300000D01*
X271090000Y-120740000D02*
X271170000Y-101210000D01*
X270510000Y-65950000D02*
X271400000Y-62930000D01*
X256110000Y-82030000D02*
X256280000Y-80230000D01*
X263610000Y-70130000D02*
X263650000Y-68370000D01*
X260050000Y-95170000D02*
X260630000Y-95980000D01*
X257250000Y-93480000D02*
X260050000Y-95170000D01*
X245670000Y-117400000D02*
X245920000Y-112720000D01*
X256280000Y-80230000D02*
X256500000Y-79760000D01*
X262360000Y-76630000D02*
X263610000Y-70130000D01*
X256500000Y-79760000D02*
X258300000Y-78780000D01*
X254900000Y-91400000D02*
X256110000Y-84740000D01*
X260970000Y-97450000D02*
X261000000Y-99140000D01*
X255490000Y-92370000D02*
X257250000Y-93480000D01*
X260630000Y-95980000D02*
X260970000Y-97450000D01*
X254900000Y-91400000D02*
X255490000Y-92370000D01*
X245920000Y-112720000D02*
X245850000Y-92470000D01*
X263400000Y-65690000D02*
X262860000Y-64180000D01*
X258300000Y-78780000D02*
X260700000Y-77830000D01*
X256110000Y-84740000D02*
X256110000Y-82030000D01*
X263650000Y-68370000D02*
X263400000Y-65690000D01*
X261220000Y-101860000D02*
X262250000Y-106910000D01*
X260700000Y-77830000D02*
X262360000Y-76630000D01*
X261000000Y-99140000D02*
X261220000Y-101860000D01*
X245360000Y-120060000D02*
X245670000Y-117400000D01*
X262860000Y-64180000D02*
X262520000Y-61540000D01*
X142830000Y-93670000D02*
X143620000Y-90750000D01*
X59750000Y-99270000D02*
X59750000Y-99900000D01*
X144780000Y-86810000D02*
X147410000Y-85480000D01*
X143840000Y-89180000D02*
X144780000Y-86810000D01*
X143620000Y-90750000D02*
X143840000Y-89180000D01*
X147410000Y-85480000D02*
X149550000Y-84330000D01*
X141860000Y-95950000D02*
X142830000Y-93670000D01*
X149550000Y-84330000D02*
X150015000Y-82760000D01*
X60830000Y-96470000D02*
X59750000Y-99270000D01*
X61530000Y-95450000D02*
X60830000Y-96470000D01*
X59750000Y-99900000D02*
X60140000Y-102740000D01*
D33*
X23320000Y-145360000D02*
X23280000Y-147040000D01*
X23280000Y-147040000D02*
X36260000Y-147053733D01*
X49060000Y-144845571D02*
X49150000Y-145990000D01*
X49210000Y-147067434D02*
X61086873Y-147080000D01*
X36260000Y-145900000D02*
X36260000Y-147053733D01*
X49150000Y-145990000D02*
X49210000Y-147067434D01*
X61060000Y-144900000D02*
X49060000Y-144845571D01*
D31*
X23320000Y-145360000D02*
X23317574Y-144820000D01*
D33*
X36290000Y-144787649D02*
X36260000Y-145900000D01*
X49060000Y-144845571D02*
X36290000Y-144787649D01*
D35*
X23317574Y-144820000D02*
X23000000Y-74140000D01*
D33*
X36290000Y-144787649D02*
X23580000Y-144730000D01*
X61060000Y-144900000D02*
X61060000Y-145980000D01*
X61060000Y-145980000D02*
X61086873Y-147080000D01*
D31*
X23000000Y-74140000D02*
X23100000Y-73870000D01*
D33*
X61086873Y-147080000D02*
X61050000Y-152810000D01*
X36260000Y-147053733D02*
X49210000Y-147067434D01*
X26250000Y-74610000D02*
X23000000Y-74140000D01*
D32*
X117200000Y-106760000D02*
X117050000Y-102260000D01*
X105380000Y-106750000D02*
X117200000Y-106760000D01*
X212760000Y-120140000D02*
X212030000Y-121230000D01*
X212030000Y-121230000D02*
X211400000Y-122910000D01*
D31*
X189350000Y-145400000D02*
X189270000Y-144060000D01*
X191650000Y-148520000D02*
X190740000Y-147680000D01*
X190740000Y-147680000D02*
X189740000Y-146520000D01*
X201170000Y-140740000D02*
X203560000Y-139970000D01*
X209410000Y-134160000D02*
X209610000Y-130930000D01*
X189740000Y-146520000D02*
X189350000Y-145400000D01*
X198980000Y-141130000D02*
X201170000Y-140740000D01*
X209880000Y-128810000D02*
X210380000Y-127000000D01*
X195050000Y-141590000D02*
X198980000Y-141130000D01*
X189270000Y-144060000D02*
X189770000Y-143400000D01*
X209610000Y-130930000D02*
X209880000Y-128810000D01*
X205910000Y-139170000D02*
X207260000Y-137930000D01*
X207260000Y-137930000D02*
X208640000Y-136200000D01*
D32*
X214530000Y-119020000D02*
X212760000Y-120140000D01*
D31*
X208640000Y-136200000D02*
X209410000Y-134160000D01*
D32*
X215720000Y-118760000D02*
X214530000Y-119020000D01*
X211400000Y-122910000D02*
X210795000Y-124750000D01*
D31*
X189770000Y-143400000D02*
X192160000Y-142210000D01*
X191733000Y-152810000D02*
X191650000Y-148520000D01*
X192160000Y-142210000D02*
X195050000Y-141590000D01*
X203560000Y-139970000D02*
X205910000Y-139170000D01*
X210380000Y-127000000D02*
X210795000Y-124750000D01*
D32*
X210420000Y-139760000D02*
X207200000Y-141420000D01*
X202000000Y-146010000D02*
X199850000Y-147870000D01*
X219030000Y-132700000D02*
X218840000Y-133520000D01*
X202240000Y-120550000D02*
X201860000Y-123380000D01*
X202910000Y-118540000D02*
X202240000Y-120550000D01*
X218840000Y-133520000D02*
X218250000Y-134410000D01*
X221000000Y-118280000D02*
X220200000Y-119060000D01*
X223760000Y-114800000D02*
X223620000Y-115750000D01*
X219040000Y-122870000D02*
X219030000Y-132700000D01*
X222350000Y-117180000D02*
X221000000Y-118280000D01*
X220200000Y-119060000D02*
X219580000Y-120250000D01*
X201860000Y-123380000D02*
X201950000Y-125300000D01*
X207200000Y-141420000D02*
X205070000Y-143350000D01*
X214860000Y-137130000D02*
X210420000Y-139760000D01*
X223620000Y-115750000D02*
X223350000Y-116390000D01*
X217170000Y-135570000D02*
X214860000Y-137130000D01*
X203700000Y-117580000D02*
X202910000Y-118540000D01*
X201950000Y-125300000D02*
X203175000Y-132370000D01*
X219140000Y-121330000D02*
X219040000Y-122870000D01*
X223350000Y-116390000D02*
X222350000Y-117180000D01*
X219580000Y-120250000D02*
X219140000Y-121330000D01*
X203175000Y-132370000D02*
X203460000Y-132580000D01*
X223730000Y-113510000D02*
X223760000Y-114800000D01*
X205070000Y-143350000D02*
X202000000Y-146010000D01*
X218250000Y-134410000D02*
X217170000Y-135570000D01*
X262180000Y-143270000D02*
X262260000Y-137260000D01*
X224030000Y-132590000D02*
X223980000Y-143650000D01*
D31*
X196120000Y-140140000D02*
X198290000Y-139790000D01*
X188558000Y-152810000D02*
X188530000Y-148480000D01*
X189260000Y-142540000D02*
X190530000Y-141590000D01*
D32*
X211270000Y-118920000D02*
X210380000Y-120050000D01*
D31*
X188530000Y-148480000D02*
X188300000Y-147650000D01*
X193940000Y-140390000D02*
X196120000Y-140140000D01*
X188280000Y-143720000D02*
X189260000Y-142540000D01*
X200340000Y-139440000D02*
X202430000Y-138970000D01*
X205650000Y-137520000D02*
X206590000Y-136380000D01*
D32*
X209290000Y-126070000D02*
X208255000Y-132370000D01*
D31*
X188300000Y-147650000D02*
X188150000Y-146250000D01*
X190530000Y-141590000D02*
X191570000Y-141090000D01*
X207730000Y-134930000D02*
X208040000Y-133890000D01*
X202430000Y-138970000D02*
X204230000Y-138370000D01*
X208040000Y-133890000D02*
X208255000Y-132370000D01*
X198290000Y-139790000D02*
X200340000Y-139440000D01*
D32*
X210380000Y-120050000D02*
X209970000Y-121820000D01*
D31*
X188080000Y-144740000D02*
X188280000Y-143720000D01*
X204230000Y-138370000D02*
X205650000Y-137520000D01*
X188150000Y-146250000D02*
X188080000Y-144740000D01*
D32*
X209970000Y-121820000D02*
X209290000Y-126070000D01*
D31*
X206590000Y-136380000D02*
X207730000Y-134930000D01*
X191570000Y-141090000D02*
X193940000Y-140390000D01*
X225970000Y-116070000D02*
X226180000Y-114800000D01*
X220080000Y-133860000D02*
X220232800Y-132290000D01*
D32*
X196860000Y-125900000D02*
X196850000Y-124150000D01*
X197090000Y-122290000D02*
X197210000Y-116130000D01*
D31*
X222650000Y-118710000D02*
X223730000Y-118150000D01*
X223730000Y-118150000D02*
X224750000Y-117720000D01*
X202860000Y-147760000D02*
X204440000Y-146260000D01*
D32*
X198095000Y-132370000D02*
X196860000Y-125900000D01*
D31*
X220232800Y-132290000D02*
X220220000Y-122740000D01*
X214980000Y-138630000D02*
X216580000Y-137680000D01*
X225590000Y-116990000D02*
X225970000Y-116070000D01*
X216580000Y-137680000D02*
X218290000Y-136150000D01*
D32*
X226310000Y-111520000D02*
X226270000Y-113510000D01*
D31*
X220220000Y-122740000D02*
X220340000Y-121450000D01*
D32*
X219160000Y-111520000D02*
X226310000Y-111520000D01*
D31*
X218290000Y-136150000D02*
X219550000Y-134760000D01*
X220870000Y-120440000D02*
X221650000Y-119580000D01*
D32*
X218950000Y-113620000D02*
X219160000Y-111520000D01*
D31*
X204440000Y-146260000D02*
X208200000Y-142660000D01*
X208200000Y-142660000D02*
X210540000Y-141180000D01*
X212730000Y-139970000D02*
X214980000Y-138630000D01*
D32*
X196850000Y-124150000D02*
X197090000Y-122290000D01*
D31*
X226180000Y-114800000D02*
X226270000Y-113510000D01*
X219550000Y-134760000D02*
X220080000Y-133860000D01*
X210540000Y-141180000D02*
X212730000Y-139970000D01*
X221650000Y-119580000D02*
X222650000Y-118710000D01*
X224750000Y-117720000D02*
X225590000Y-116990000D01*
X220340000Y-121450000D02*
X220870000Y-120440000D01*
D32*
X234190000Y-132590000D02*
X234210000Y-144600000D01*
X267170000Y-144780000D02*
X267340000Y-137260000D01*
X271110000Y-133230000D02*
X271070000Y-145990000D01*
X236140000Y-145610000D02*
X271070000Y-145990000D01*
D31*
X194908000Y-152810000D02*
X194960000Y-148450000D01*
D32*
X270890000Y-132600000D02*
X271110000Y-133230000D01*
X121740000Y-131900000D02*
X121630000Y-141130000D01*
X270890000Y-132600000D02*
X269880000Y-129640000D01*
X236140000Y-145610000D02*
X236730000Y-132590000D01*
X191640000Y-144960000D02*
X196480000Y-147570000D01*
D31*
X194960000Y-148450000D02*
X196480000Y-147570000D01*
D32*
X226570000Y-132590000D02*
X226550000Y-142470000D01*
X257050000Y-141880000D02*
X257180000Y-137260000D01*
X170990000Y-52360000D02*
X172220000Y-58920000D01*
X172380000Y-64460000D02*
X173000000Y-66250000D01*
X172220000Y-58920000D02*
X172220000Y-60380000D01*
X172220000Y-60380000D02*
X172090000Y-63150000D01*
X173000000Y-66250000D02*
X173270000Y-70290000D01*
X172090000Y-63150000D02*
X172380000Y-64460000D01*
X178350000Y-70290000D02*
X178420000Y-64950000D01*
X175900000Y-66310000D02*
X175810000Y-70290000D01*
X174790000Y-59010000D02*
X174790000Y-62930000D01*
X173530000Y-52360000D02*
X174790000Y-59010000D01*
X174990000Y-63970000D02*
X175670000Y-65270000D01*
X175670000Y-65270000D02*
X175900000Y-66310000D01*
X174790000Y-62930000D02*
X174990000Y-63970000D01*
X141200000Y-99300000D02*
X141030000Y-99740000D01*
X176940000Y-82630000D02*
X176770000Y-84440000D01*
X247990000Y-56290000D02*
X247990000Y-55120000D01*
X243160000Y-74430000D02*
X244560000Y-69970000D01*
X142030000Y-97840000D02*
X141200000Y-99300000D01*
X150150000Y-109410000D02*
X149770000Y-110600000D01*
X267440000Y-69010000D02*
X267420000Y-66510000D01*
X176920000Y-96860000D02*
X176990000Y-93250000D01*
X247580000Y-61440000D02*
X247900000Y-60160000D01*
X182160000Y-68710000D02*
X181550000Y-66180000D01*
X242410000Y-77160000D02*
X243160000Y-74430000D01*
X151230000Y-99880000D02*
X151090000Y-102720000D01*
X266060000Y-113720000D02*
X266060000Y-102760000D01*
X144660000Y-93110000D02*
X144040000Y-94590000D01*
X179170000Y-103600000D02*
X179390000Y-105430000D01*
X179860000Y-59450000D02*
X179820000Y-56760000D01*
X241150000Y-82050000D02*
X241470000Y-80650000D01*
X266010000Y-115590000D02*
X266060000Y-113720000D01*
X266320000Y-62060000D02*
X266540000Y-56950000D01*
X151090000Y-102720000D02*
X150720000Y-106360000D01*
X144040000Y-94590000D02*
X143070000Y-96320000D01*
X181550000Y-66180000D02*
X180440000Y-64120000D01*
X143070000Y-96320000D02*
X142030000Y-97840000D01*
X240330000Y-94270000D02*
X240660000Y-88420000D01*
X267250000Y-128160000D02*
X265190000Y-124560000D01*
X240660000Y-97550000D02*
X240330000Y-94270000D01*
X144900000Y-91970000D02*
X144660000Y-93110000D01*
X241590000Y-99820000D02*
X240660000Y-97550000D01*
X244560000Y-69970000D02*
X246490000Y-64390000D01*
X182100000Y-70850000D02*
X182160000Y-68710000D01*
X267340000Y-129640000D02*
X267250000Y-128160000D01*
X241470000Y-80650000D02*
X242410000Y-77160000D01*
X181520000Y-72630000D02*
X182100000Y-70850000D01*
X178350000Y-77910000D02*
X177690000Y-80510000D01*
X179500000Y-109340000D02*
X180670000Y-113480000D01*
X177650000Y-99020000D02*
X176990000Y-97690000D01*
X267420000Y-66510000D02*
X266530000Y-63070000D01*
X247900000Y-60160000D02*
X247990000Y-56290000D01*
X178250000Y-100220000D02*
X177650000Y-99020000D01*
X180440000Y-64120000D02*
X179830000Y-61440000D01*
X144935000Y-90380000D02*
X144900000Y-91970000D01*
X176990000Y-97690000D02*
X176920000Y-96860000D01*
X266530000Y-63070000D02*
X266320000Y-62060000D01*
X266060000Y-102760000D02*
X267330000Y-99290000D01*
X176940000Y-90010000D02*
X176990000Y-93250000D01*
X179820000Y-56760000D02*
X181150000Y-52360000D01*
X265190000Y-124560000D02*
X264775000Y-122340000D01*
X150720000Y-106360000D02*
X150150000Y-109410000D01*
X179390000Y-105430000D02*
X179500000Y-109340000D01*
X179830000Y-61440000D02*
X179860000Y-59450000D01*
X178710000Y-101840000D02*
X178250000Y-100220000D01*
X266540000Y-56950000D02*
X267600000Y-53920000D01*
X178350000Y-77910000D02*
X181520000Y-72630000D01*
X246490000Y-64390000D02*
X247580000Y-61440000D01*
X240660000Y-88420000D02*
X241150000Y-82050000D01*
X176770000Y-84440000D02*
X176940000Y-90010000D01*
X178710000Y-101840000D02*
X179170000Y-103600000D01*
X177690000Y-80510000D02*
X176940000Y-82630000D01*
X264775000Y-122340000D02*
X266010000Y-115590000D01*
X169680000Y-59310000D02*
X169680000Y-61590000D01*
X170590000Y-66370000D02*
X170730000Y-70290000D01*
X170040000Y-63610000D02*
X170590000Y-66370000D01*
X169680000Y-61590000D02*
X170040000Y-63610000D01*
X168450000Y-52360000D02*
X169680000Y-59310000D01*
X152555000Y-90380000D02*
X152620000Y-91980000D01*
X151870000Y-94190000D02*
X150710000Y-96090000D01*
X179400000Y-64570000D02*
X180030000Y-65940000D01*
X179440000Y-72140000D02*
X177330000Y-75330000D01*
X174340000Y-90230000D02*
X174350000Y-97460000D01*
X228835000Y-96185000D02*
X228660000Y-102030000D01*
X147780000Y-107780000D02*
X147230000Y-110600000D01*
X176640000Y-102480000D02*
X176810000Y-103820000D01*
X246570000Y-71900000D02*
X245720000Y-75810000D01*
X174340000Y-87530000D02*
X174340000Y-90230000D01*
X174120000Y-84790000D02*
X174340000Y-87530000D01*
X264900000Y-76630000D02*
X266160000Y-69910000D01*
X243230000Y-92360000D02*
X243550000Y-96710000D01*
X242760000Y-111810000D02*
X244550000Y-123330000D01*
X178610000Y-59980000D02*
X178510000Y-62900000D01*
X179700000Y-70020000D02*
X179440000Y-72140000D01*
X177330000Y-75330000D02*
X175810000Y-77910000D01*
X244510000Y-81630000D02*
X243450000Y-88530000D01*
X174350000Y-97460000D02*
X175080000Y-99520000D01*
X176190000Y-101310000D02*
X176640000Y-102480000D01*
X152490000Y-92680000D02*
X151870000Y-94190000D01*
X243550000Y-96710000D02*
X243480000Y-99680000D01*
X263520000Y-127710000D02*
X262235000Y-122340000D01*
X178510000Y-62900000D02*
X179400000Y-64570000D01*
X263500000Y-129420000D02*
X263520000Y-127710000D01*
X180030000Y-68280000D02*
X179700000Y-70020000D01*
X175810000Y-77910000D02*
X175490000Y-80290000D01*
X152620000Y-91980000D02*
X152490000Y-92680000D01*
X243230000Y-101320000D02*
X242760000Y-111810000D01*
X148640000Y-101920000D02*
X148410000Y-104150000D01*
X264800000Y-137260000D02*
X263420000Y-131010000D01*
X175080000Y-99520000D02*
X176190000Y-101310000D01*
X148410000Y-104150000D02*
X147780000Y-107780000D01*
X177480000Y-110850000D02*
X178130000Y-113480000D01*
X266160000Y-69910000D02*
X266160000Y-67190000D01*
X149560000Y-98370000D02*
X148910000Y-100300000D01*
X265720000Y-64780000D02*
X265060000Y-61540000D01*
X263420000Y-131010000D02*
X263500000Y-129420000D01*
X243450000Y-88530000D02*
X243230000Y-92360000D01*
X175490000Y-80290000D02*
X174690000Y-82670000D01*
X176970000Y-109340000D02*
X177480000Y-110850000D01*
X176810000Y-103820000D02*
X176970000Y-109340000D01*
X245720000Y-75810000D02*
X244510000Y-81630000D01*
X266160000Y-67190000D02*
X265720000Y-64780000D01*
X243480000Y-99680000D02*
X243230000Y-101320000D01*
X228660000Y-102030000D02*
X232640000Y-102160000D01*
X150710000Y-96090000D02*
X149560000Y-98370000D01*
X180030000Y-65940000D02*
X180030000Y-68280000D01*
X148910000Y-100300000D02*
X148640000Y-101920000D01*
X232640000Y-102160000D02*
X232710000Y-111090000D01*
X174690000Y-82670000D02*
X174120000Y-84790000D01*
X244630000Y-89360000D02*
X244630000Y-93250000D01*
X174550000Y-70880000D02*
X174640000Y-68530000D01*
X246280000Y-79670000D02*
X245220000Y-85380000D01*
X255390000Y-134220000D02*
X254640000Y-137260000D01*
X169700000Y-82820000D02*
X170380000Y-80830000D01*
X144020000Y-99780000D02*
X143560000Y-101740000D01*
X257155000Y-122340000D02*
X260910000Y-115410000D01*
X143290000Y-105590000D02*
X142150000Y-110600000D01*
X244880000Y-88370000D02*
X244630000Y-89360000D01*
X169300000Y-105510000D02*
X169260000Y-95330000D01*
X144840000Y-97750000D02*
X144020000Y-99780000D01*
X261080000Y-67510000D02*
X260380000Y-64900000D01*
X255930000Y-131000000D02*
X255390000Y-134220000D01*
X260380000Y-64900000D02*
X259980000Y-61540000D01*
X261150000Y-69590000D02*
X261080000Y-67510000D01*
X169200000Y-87550000D02*
X169200000Y-84560000D01*
X173590000Y-64150000D02*
X173560000Y-62250000D01*
X146140000Y-95250000D02*
X147050000Y-93620000D01*
X170730000Y-77910000D02*
X173950000Y-73300000D01*
X260910000Y-115410000D02*
X260910000Y-114110000D01*
X255870000Y-129800000D02*
X255930000Y-131000000D01*
X169260000Y-95330000D02*
X169230000Y-91780000D01*
X259820000Y-76630000D02*
X260780000Y-72900000D01*
X247230000Y-73930000D02*
X246280000Y-79670000D01*
X260780000Y-72900000D02*
X261150000Y-69590000D01*
X147330000Y-92770000D02*
X147475000Y-90380000D01*
X146140000Y-95250000D02*
X144840000Y-97750000D01*
X257155000Y-122340000D02*
X256530000Y-124620000D01*
X245220000Y-85380000D02*
X244880000Y-88370000D01*
X143560000Y-101740000D02*
X143290000Y-105590000D01*
X174100000Y-66390000D02*
X173590000Y-64150000D01*
X147050000Y-93620000D02*
X147330000Y-92770000D01*
X170380000Y-80830000D02*
X170730000Y-77910000D01*
X173950000Y-73300000D02*
X174550000Y-70880000D01*
X173560000Y-62250000D02*
X173530000Y-59980000D01*
X256530000Y-124620000D02*
X256060000Y-127530000D01*
X259770000Y-109790000D02*
X259710000Y-106910000D01*
X174640000Y-68530000D02*
X174100000Y-66390000D01*
X167970000Y-113480000D02*
X169140000Y-108180000D01*
X260910000Y-114110000D02*
X259770000Y-109790000D01*
X244630000Y-93250000D02*
X244670000Y-107310000D01*
X169140000Y-108180000D02*
X169300000Y-105510000D01*
X169200000Y-84560000D02*
X169700000Y-82820000D01*
X256060000Y-127530000D02*
X255870000Y-129800000D01*
X169230000Y-91780000D02*
X169200000Y-87550000D01*
X261250000Y-63180000D02*
X261180000Y-61930000D01*
X245740000Y-70520000D02*
X246830000Y-68680000D01*
X226640000Y-85770000D02*
X226295000Y-96185000D01*
X263450000Y-115570000D02*
X263520000Y-105210000D01*
X177430000Y-59570000D02*
X177370000Y-62500000D01*
X243860000Y-76690000D02*
X244530000Y-74020000D01*
X171640000Y-106930000D02*
X171920000Y-105340000D01*
X262180000Y-66580000D02*
X261820000Y-64940000D01*
X147230000Y-98110000D02*
X148730000Y-95310000D01*
X145880000Y-103660000D02*
X146120000Y-101100000D01*
X241660000Y-94480000D02*
X242000000Y-89380000D01*
X176070000Y-52360000D02*
X177430000Y-59570000D01*
X171860000Y-87780000D02*
X171630000Y-84170000D01*
X146120000Y-101100000D02*
X147230000Y-98110000D01*
X149640000Y-93340000D02*
X149980000Y-92040000D01*
X262360000Y-69010000D02*
X262180000Y-66580000D01*
X170510000Y-113480000D02*
X171640000Y-106930000D01*
X263520000Y-105210000D02*
X262250000Y-99290000D01*
X177370000Y-62500000D02*
X177140000Y-70840000D01*
X171750000Y-93120000D02*
X171860000Y-87780000D01*
X261280000Y-59390000D02*
X262520000Y-53920000D01*
X144690000Y-110600000D02*
X145790000Y-105870000D01*
X176690000Y-72730000D02*
X173270000Y-77910000D01*
X260980000Y-127980000D02*
X259695000Y-122340000D01*
X145790000Y-105870000D02*
X145880000Y-103660000D01*
X261020000Y-131030000D02*
X260980000Y-127980000D01*
X241700000Y-96720000D02*
X241660000Y-94480000D01*
X242000000Y-89380000D02*
X242480000Y-83490000D01*
X261820000Y-64940000D02*
X261250000Y-63180000D01*
X259720000Y-137260000D02*
X261020000Y-131030000D01*
X171630000Y-84170000D02*
X173270000Y-77910000D01*
X149980000Y-92040000D02*
X150015000Y-90380000D01*
X261180000Y-61930000D02*
X261280000Y-59390000D01*
X243110000Y-80050000D02*
X243860000Y-76690000D01*
X177140000Y-70840000D02*
X176690000Y-72730000D01*
X259695000Y-122340000D02*
X263450000Y-115570000D01*
X148730000Y-95310000D02*
X149640000Y-93340000D01*
X242480000Y-83490000D02*
X243110000Y-80050000D01*
X244530000Y-74020000D02*
X245740000Y-70520000D01*
X171920000Y-105340000D02*
X171750000Y-93120000D01*
X222060000Y-126490000D02*
X221490000Y-132590000D01*
X173050000Y-113480000D02*
X173050000Y-105860000D01*
X114040000Y-92670000D02*
X114160000Y-91970000D01*
X114160000Y-91970000D02*
X114275000Y-90200000D01*
X111710000Y-98260000D02*
X112170000Y-96690000D01*
X111650000Y-99950000D02*
X111710000Y-98260000D01*
X113110000Y-94650000D02*
X114040000Y-92670000D01*
X111970000Y-102260000D02*
X111650000Y-99950000D01*
X112170000Y-96690000D02*
X113110000Y-94650000D01*
X268350000Y-127550000D02*
X267780000Y-126760000D01*
X155240000Y-117720000D02*
X155490000Y-121110000D01*
X268660000Y-139330000D02*
X268570000Y-129090000D01*
X267080000Y-125390000D02*
X267315000Y-122340000D01*
X153661800Y-102890000D02*
X153660000Y-95370000D01*
X153920000Y-87280000D02*
X153830000Y-82140000D01*
X153830000Y-82140000D02*
X153230000Y-79970000D01*
X267780000Y-126760000D02*
X267080000Y-125390000D01*
X153660000Y-95370000D02*
X153920000Y-87280000D01*
X153530000Y-106000000D02*
X153661800Y-102890000D01*
X155490000Y-121110000D02*
X155680000Y-135570000D01*
X152310000Y-110600000D02*
X153680000Y-113380000D01*
X154890000Y-115840000D02*
X155240000Y-117720000D01*
X153680000Y-113380000D02*
X154890000Y-115840000D01*
X152020000Y-78110000D02*
X150760000Y-77180000D01*
X152310000Y-110600000D02*
X153530000Y-106000000D01*
X124020000Y-76870000D02*
X124435000Y-82580000D01*
X153230000Y-79970000D02*
X152020000Y-78110000D01*
X268570000Y-129090000D02*
X268350000Y-127550000D01*
X193015000Y-132370000D02*
X193050000Y-138780000D01*
X62680000Y-110360000D02*
X63350000Y-115980000D01*
X63920000Y-103410000D02*
X62680000Y-110360000D01*
X65230000Y-96290000D02*
X65100000Y-96970000D01*
X65110000Y-89820000D02*
X65230000Y-96290000D01*
X57210000Y-85770000D02*
X57490000Y-82200000D01*
X63980000Y-99600000D02*
X63920000Y-103410000D01*
X65100000Y-96970000D02*
X64710000Y-97840000D01*
X64110000Y-98830000D02*
X63980000Y-99600000D01*
X64710000Y-97840000D02*
X64110000Y-98830000D01*
X252650000Y-111380000D02*
X252090000Y-106910000D01*
X256390000Y-110320000D02*
X255970000Y-107790000D01*
X255970000Y-107790000D02*
X255870000Y-106050000D01*
X255870000Y-106050000D02*
X254630000Y-99290000D01*
X257155000Y-114720000D02*
X256390000Y-110320000D01*
X258530000Y-110110000D02*
X258380000Y-107970000D01*
X258380000Y-106350000D02*
X257170000Y-99290000D01*
X259695000Y-114720000D02*
X259360000Y-112950000D01*
X258380000Y-107970000D02*
X258380000Y-106350000D01*
X259360000Y-112950000D02*
X258530000Y-110110000D01*
X260970000Y-107930000D02*
X260970000Y-106210000D01*
X262235000Y-114720000D02*
X262180000Y-112340000D01*
X260970000Y-106210000D02*
X259710000Y-99290000D01*
X262180000Y-112340000D02*
X260970000Y-107930000D01*
X187750000Y-131540000D02*
X187210000Y-136800000D01*
X187910000Y-127810000D02*
X187750000Y-131540000D01*
X252130000Y-134900000D02*
X254040000Y-133710000D01*
X191960000Y-98590000D02*
X193750000Y-93290000D01*
X189310000Y-106590000D02*
X191960000Y-98590000D01*
X187210000Y-136800000D02*
X187050000Y-137760000D01*
X254690000Y-131340000D02*
X254640000Y-129640000D01*
X188290000Y-121140000D02*
X188230000Y-124430000D01*
X197450000Y-73120000D02*
X198140000Y-70830000D01*
X254340000Y-133200000D02*
X254690000Y-131340000D01*
X194950000Y-88800000D02*
X196370000Y-80290000D01*
X188160000Y-111550000D02*
X189310000Y-106590000D01*
X196370000Y-80290000D02*
X197450000Y-73120000D01*
X193750000Y-93290000D02*
X194950000Y-88800000D01*
X198140000Y-70830000D02*
X198950000Y-69570000D01*
X188230000Y-124430000D02*
X187910000Y-127810000D01*
X254040000Y-133710000D02*
X254340000Y-133200000D01*
X188290000Y-121140000D02*
X188160000Y-111550000D01*
X248740000Y-136490000D02*
X252130000Y-134900000D01*
X211940000Y-89910000D02*
X211055000Y-96185000D01*
X208520000Y-71220000D02*
X209990000Y-74100000D01*
X209990000Y-74100000D02*
X211610000Y-76140000D01*
X211610000Y-76140000D02*
X212380000Y-78420000D01*
X212380000Y-78420000D02*
X212410000Y-80670000D01*
X208490000Y-69030000D02*
X208520000Y-71220000D01*
X212410000Y-80670000D02*
X211940000Y-89910000D01*
X207040000Y-70870000D02*
X206990000Y-73870000D01*
X207310000Y-81650000D02*
X208515000Y-96185000D01*
X206990000Y-73870000D02*
X207310000Y-81650000D01*
X214840000Y-85970000D02*
X213550000Y-88160000D01*
X214240000Y-76140000D02*
X214870000Y-77690000D01*
X209690000Y-70790000D02*
X210040000Y-72060000D01*
X209770000Y-66980000D02*
X209690000Y-70790000D01*
X214870000Y-80850000D02*
X214910000Y-83760000D01*
X213550000Y-88160000D02*
X213595000Y-96185000D01*
X211750000Y-73810000D02*
X214240000Y-76140000D01*
X210040000Y-72060000D02*
X211750000Y-73810000D01*
X214870000Y-77690000D02*
X214870000Y-80850000D01*
X214910000Y-83760000D02*
X214840000Y-85970000D01*
X218900000Y-28090000D02*
X220820000Y-28020000D01*
X204930000Y-28200000D02*
X208090000Y-27980000D01*
X213120000Y-25760000D02*
X215560000Y-26960000D01*
X203350000Y-27940000D02*
X204930000Y-28200000D01*
X222930000Y-26830000D02*
X225870000Y-25790000D01*
X209510000Y-27080000D02*
X211042316Y-25642315D01*
X225870000Y-25790000D02*
X228470000Y-25920000D01*
X228470000Y-25920000D02*
X230760000Y-26370000D01*
X211042316Y-25642315D02*
X211770000Y-25500000D01*
X220820000Y-28020000D02*
X222930000Y-26830000D01*
X196290000Y-26805000D02*
X200870000Y-27340000D01*
X211770000Y-25500000D02*
X213120000Y-25760000D01*
X218040000Y-27870000D02*
X218900000Y-28090000D01*
X200870000Y-27340000D02*
X203350000Y-27940000D01*
X215560000Y-26960000D02*
X218040000Y-27870000D01*
X208090000Y-27980000D02*
X209510000Y-27080000D01*
X116720000Y-85260000D02*
X116815000Y-82580000D01*
X111735000Y-90200000D02*
X112150000Y-88310000D01*
X112150000Y-88310000D02*
X114580000Y-86430000D01*
X114580000Y-86430000D02*
X116720000Y-85260000D01*
X142275000Y-123940000D02*
X142350000Y-117410000D01*
D37*
X142320000Y-117710000D02*
X142330000Y-115890000D01*
D32*
X146140000Y-123760000D02*
X146070000Y-120080000D01*
D37*
X145630000Y-117700000D02*
X145640000Y-115880000D01*
D32*
X144815000Y-131560000D02*
X146140000Y-124970000D01*
X146070000Y-120080000D02*
X145430000Y-117480000D01*
X146140000Y-124970000D02*
X146140000Y-123760000D01*
D37*
X148590000Y-117700000D02*
X148600000Y-115880000D01*
D32*
X148180000Y-121060000D02*
X148720000Y-117430000D01*
X147355000Y-123940000D02*
X148180000Y-121060000D01*
X139735000Y-131560000D02*
X138540000Y-127070000D01*
X138540000Y-127070000D02*
X138500000Y-124100000D01*
X138590000Y-121460000D02*
X139150000Y-117710000D01*
X138500000Y-124100000D02*
X138590000Y-121460000D01*
D37*
X139150000Y-117710000D02*
X139160000Y-115890000D01*
D32*
X187850000Y-37950000D02*
X185320000Y-37840000D01*
X154980000Y-112890000D02*
X156720000Y-112950000D01*
X200820000Y-40120000D02*
X202680000Y-40700000D01*
X93470000Y-62310000D02*
X94750000Y-63250000D01*
X232270000Y-38770000D02*
X233470000Y-38800000D01*
D31*
X184930000Y-123080000D02*
X183030000Y-127140000D01*
D32*
X216690000Y-37690000D02*
X218890000Y-38220000D01*
D31*
X133790000Y-38690000D02*
X138500000Y-38560000D01*
D38*
X217660000Y-148430000D02*
X230790000Y-148406393D01*
D32*
X209760000Y-40010000D02*
X211560000Y-39505000D01*
X261000000Y-37370000D02*
X263570000Y-37820000D01*
X247330000Y-37640000D02*
X248830000Y-38030000D01*
X154080000Y-125230000D02*
X154280000Y-123550000D01*
X213870000Y-37070000D02*
X216690000Y-37690000D01*
D31*
X112400000Y-41260000D02*
X112080000Y-41327800D01*
D32*
X252090000Y-38600000D02*
X254130000Y-38420000D01*
X230460000Y-108360000D02*
X231350000Y-105890000D01*
D31*
X152740000Y-38797200D02*
X153580000Y-38790000D01*
D33*
X124780000Y-71360000D02*
X105130000Y-71231698D01*
D32*
X115480000Y-134260000D02*
X115440000Y-132050000D01*
X231360000Y-40890000D02*
X232760000Y-41400000D01*
X110547536Y-134010000D02*
X110340000Y-132220000D01*
X231050000Y-123090000D02*
X230410000Y-119190000D01*
X211560000Y-36965000D02*
X213870000Y-37070000D01*
X265720000Y-38600000D02*
X273510952Y-38600000D01*
X229140000Y-40480000D02*
X231360000Y-40890000D01*
X241090000Y-40000000D02*
X242270000Y-39960000D01*
X153270000Y-128240000D02*
X154080000Y-125230000D01*
D31*
X112290000Y-38780000D02*
X118500000Y-37660000D01*
D32*
X230070000Y-111180000D02*
X230460000Y-108360000D01*
X245520000Y-39890000D02*
X248680000Y-40410000D01*
X110370000Y-130900000D02*
X111580000Y-124280000D01*
D31*
X185320000Y-55540000D02*
X185392965Y-60000000D01*
D32*
X243440000Y-37330000D02*
X245290000Y-37600000D01*
X97900000Y-85580000D02*
X96880000Y-87580000D01*
X205000000Y-38220000D02*
X206960000Y-38220000D01*
D31*
X155910000Y-51590000D02*
X155370000Y-71550000D01*
D32*
X208130000Y-40700000D02*
X209760000Y-40010000D01*
D33*
X103220000Y-102330000D02*
X102900000Y-103880000D01*
D34*
X233100000Y-95780000D02*
X234200000Y-97400000D01*
D32*
X182010000Y-37420000D02*
X179090000Y-36585000D01*
D34*
X241000000Y-130870000D02*
X241960000Y-132140000D01*
D35*
X273491799Y-47700000D02*
X273505648Y-41120000D01*
D31*
X160640000Y-36410000D02*
X163380000Y-36630000D01*
X183030000Y-127140000D02*
X180280000Y-132160000D01*
D32*
X156750000Y-79670000D02*
X156370000Y-79000000D01*
X232760000Y-41400000D02*
X233950000Y-41370000D01*
X250190000Y-40960000D02*
X251180000Y-41180000D01*
D33*
X102900000Y-103880000D02*
X102960000Y-107380000D01*
D32*
X218770000Y-40790000D02*
X219680000Y-40790000D01*
X94750000Y-63250000D02*
X96050000Y-65170000D01*
D38*
X230790000Y-148406393D02*
X273280000Y-148330000D01*
D34*
X211075000Y-113570000D02*
X217090000Y-113580000D01*
D32*
X142300000Y-84550000D02*
X141830000Y-86710000D01*
X221400000Y-38250000D02*
X223680000Y-37770000D01*
D34*
X263620000Y-50180000D02*
X273486516Y-50210000D01*
D31*
X145110000Y-37540000D02*
X152180000Y-38790000D01*
D33*
X94980000Y-40920000D02*
X94960874Y-24430000D01*
D31*
X144950000Y-71500000D02*
X145130000Y-69840000D01*
D32*
X154260000Y-120700000D02*
X153970000Y-118990000D01*
D35*
X273505648Y-41120000D02*
X273510952Y-38600000D01*
D32*
X153970000Y-118990000D02*
X152750000Y-116190000D01*
D34*
X210750000Y-130190000D02*
X210795000Y-132370000D01*
D31*
X145110000Y-40080000D02*
X149160000Y-40410000D01*
X159080000Y-39180000D02*
X160970000Y-38740000D01*
D33*
X155370000Y-71550000D02*
X155130000Y-73930000D01*
D31*
X138500000Y-38560000D02*
X145110000Y-37540000D01*
D33*
X60030000Y-82200000D02*
X62570000Y-82200000D01*
D32*
X233100000Y-95780000D02*
X231375000Y-96185000D01*
D34*
X231970000Y-73330000D02*
X233150000Y-77900000D01*
D32*
X156720000Y-112950000D02*
X156920000Y-131640000D01*
D34*
X217090000Y-130190000D02*
X210750000Y-130190000D01*
D32*
X230320000Y-133270000D02*
X230600000Y-134220000D01*
X156720000Y-112950000D02*
X156738200Y-92760000D01*
X223080000Y-40620000D02*
X224160000Y-40350000D01*
X224160000Y-40350000D02*
X225590000Y-40120000D01*
D31*
X185239089Y-90620000D02*
X185069690Y-108410000D01*
D33*
X105130000Y-71231698D02*
X105470000Y-90060000D01*
D31*
X175630000Y-37170000D02*
X179090000Y-36585000D01*
D32*
X230320000Y-133270000D02*
X230480000Y-131130000D01*
X264860000Y-40800000D02*
X266720000Y-41150000D01*
X209900000Y-37100000D02*
X211560000Y-36965000D01*
X248830000Y-38030000D02*
X250480000Y-38570000D01*
X230480000Y-128370000D02*
X230790000Y-126590000D01*
X203430000Y-38160000D02*
X205000000Y-38220000D01*
X115940000Y-126780000D02*
X116660000Y-124280000D01*
D31*
X157120000Y-39590000D02*
X159080000Y-39180000D01*
D32*
X236910000Y-41260000D02*
X238570000Y-40850000D01*
X141110000Y-90510000D02*
X141110000Y-92711596D01*
X248680000Y-40410000D02*
X250190000Y-40960000D01*
D31*
X185392965Y-60000000D02*
X185480000Y-65320000D01*
D32*
X110340000Y-132220000D02*
X110370000Y-130900000D01*
D31*
X152520000Y-41350000D02*
X153270000Y-41380000D01*
X185480000Y-65320000D02*
X184940000Y-65220000D01*
X160970000Y-38740000D02*
X163380000Y-39170000D01*
D32*
X229440000Y-37860000D02*
X231500000Y-38200000D01*
X211560000Y-39505000D02*
X213760000Y-39610000D01*
D34*
X240790000Y-103700000D02*
X240800000Y-108750000D01*
X233150000Y-77900000D02*
X233100000Y-95780000D01*
D31*
X170920000Y-37912800D02*
X172690000Y-37710000D01*
D35*
X273486516Y-50210000D02*
X273491799Y-47700000D01*
D31*
X170680000Y-40452800D02*
X171550000Y-40440000D01*
D32*
X243440000Y-39870000D02*
X245520000Y-39890000D01*
D31*
X172690000Y-37710000D02*
X175630000Y-37170000D01*
D32*
X142395000Y-82760000D02*
X142300000Y-84550000D01*
D33*
X155567277Y-75090000D02*
X156325000Y-79127500D01*
D31*
X124960000Y-40030000D02*
X132160000Y-41310000D01*
D32*
X266720000Y-41150000D02*
X273505648Y-41120000D01*
D39*
X93780000Y-24430000D02*
X220580000Y-23952200D01*
D32*
X96050000Y-65170000D02*
X96570000Y-69170000D01*
D36*
X145130000Y-67300000D02*
X145130000Y-69840000D01*
D32*
X154850000Y-110600000D02*
X154980000Y-112890000D01*
X263570000Y-37820000D02*
X265720000Y-38600000D01*
D31*
X117910000Y-40210000D02*
X124960000Y-40030000D01*
X153580000Y-38790000D02*
X157840000Y-36790000D01*
D32*
X259150000Y-37330000D02*
X261000000Y-37370000D01*
D31*
X170030000Y-37770000D02*
X170920000Y-37912800D01*
D34*
X217090000Y-113580000D02*
X217090000Y-130190000D01*
D32*
X233470000Y-38800000D02*
X235530000Y-38680000D01*
X96960000Y-73600000D02*
X97900000Y-79200000D01*
X254130000Y-38420000D02*
X257060000Y-37710000D01*
D31*
X186220000Y-53600000D02*
X185320000Y-55540000D01*
X124780000Y-71360000D02*
X124810000Y-69730000D01*
D32*
X257060000Y-37710000D02*
X259150000Y-37330000D01*
X219680000Y-40790000D02*
X223080000Y-40620000D01*
X110547536Y-134010000D02*
X110460000Y-135700000D01*
X259150000Y-39870000D02*
X262080000Y-39940000D01*
X225590000Y-37580000D02*
X227420000Y-37600000D01*
D33*
X104380000Y-99720000D02*
X103220000Y-102330000D01*
X144950000Y-71500000D02*
X124780000Y-71360000D01*
D31*
X105130000Y-71231698D02*
X104870000Y-71230000D01*
D32*
X227420000Y-37600000D02*
X229440000Y-37860000D01*
X183430000Y-77910000D02*
X185360211Y-77900000D01*
X203910000Y-40856800D02*
X205540000Y-40900000D01*
X141830000Y-86710000D02*
X141170000Y-88950000D01*
D31*
X163380000Y-39170000D02*
X166810000Y-39470000D01*
X157840000Y-36790000D02*
X160640000Y-36410000D01*
D34*
X240790000Y-103700000D02*
X237690000Y-100240000D01*
D32*
X185320000Y-37840000D02*
X182010000Y-37420000D01*
D31*
X169130000Y-39890000D02*
X170680000Y-40452800D01*
X185360211Y-77900000D02*
X185239089Y-90620000D01*
X111200000Y-38800000D02*
X104370000Y-37505000D01*
D32*
X217630000Y-40490000D02*
X218770000Y-40790000D01*
D33*
X102960000Y-107380000D02*
X102810000Y-133846311D01*
D35*
X273280000Y-148330000D02*
X273486516Y-50210000D01*
D32*
X196290000Y-36965000D02*
X198260000Y-37160000D01*
X155110000Y-92780000D02*
X156738200Y-92760000D01*
X262080000Y-39940000D02*
X264860000Y-40800000D01*
D39*
X267350000Y-23952200D02*
X273230000Y-23952200D01*
D32*
X152435000Y-131560000D02*
X153270000Y-128240000D01*
X98220000Y-82720000D02*
X97900000Y-85580000D01*
D31*
X166780000Y-37080000D02*
X170030000Y-37770000D01*
X112400000Y-41260000D02*
X117910000Y-40210000D01*
X112080000Y-41327800D02*
X109990000Y-41280000D01*
D39*
X94960874Y-24430000D02*
X93780000Y-24430000D01*
D32*
X215950000Y-39980000D02*
X217630000Y-40490000D01*
X250480000Y-38570000D02*
X252090000Y-38600000D01*
D39*
X220580000Y-23952200D02*
X267350000Y-23952200D01*
D32*
X255090000Y-41030000D02*
X256780000Y-40590000D01*
D35*
X273480000Y-29650000D02*
X273490000Y-24960000D01*
D32*
X241640000Y-37560000D02*
X243440000Y-37330000D01*
X206960000Y-38220000D02*
X209900000Y-37100000D01*
X235530000Y-38680000D02*
X237310000Y-38560000D01*
X96570000Y-69170000D02*
X96960000Y-73600000D01*
D31*
X132160000Y-41310000D02*
X133100000Y-41310000D01*
X173360000Y-40150000D02*
X175170000Y-39710000D01*
D32*
X256780000Y-40590000D02*
X259150000Y-39870000D01*
X115480000Y-134260000D02*
X115730000Y-135760000D01*
X96880000Y-87580000D02*
X95975000Y-90200000D01*
X202680000Y-40700000D02*
X203910000Y-40856800D01*
X110580000Y-135590000D02*
X110590000Y-136150000D01*
X245290000Y-37600000D02*
X247330000Y-37640000D01*
X231500000Y-38200000D02*
X232270000Y-38770000D01*
X225590000Y-40120000D02*
X227400000Y-40040000D01*
D31*
X166810000Y-39470000D02*
X169130000Y-39890000D01*
X149160000Y-40410000D02*
X152520000Y-41350000D01*
D33*
X60030000Y-82200000D02*
X60040000Y-70390000D01*
D32*
X115480000Y-135560000D02*
X115490000Y-136210000D01*
D31*
X185480000Y-65320000D02*
X185360211Y-77900000D01*
D32*
X239700000Y-37990000D02*
X241640000Y-37560000D01*
D31*
X124960000Y-37490000D02*
X132570000Y-38772800D01*
D33*
X217641000Y-152810000D02*
X217660000Y-148430000D01*
D31*
X133100000Y-41310000D02*
X137920000Y-41270000D01*
D34*
X240800000Y-108850000D02*
X241000000Y-130870000D01*
D32*
X227400000Y-40040000D02*
X229140000Y-40480000D01*
X252470000Y-41180000D02*
X255090000Y-41030000D01*
X233950000Y-41370000D02*
X236910000Y-41260000D01*
X207130000Y-40900000D02*
X208130000Y-40700000D01*
D31*
X118500000Y-37660000D02*
X124960000Y-37490000D01*
D34*
X234200000Y-97400000D02*
X237690000Y-100240000D01*
D31*
X163380000Y-36630000D02*
X166780000Y-37080000D01*
D34*
X231550000Y-70525000D02*
X231970000Y-73330000D01*
D32*
X97900000Y-79200000D02*
X98220000Y-82720000D01*
D34*
X265240000Y-47765000D02*
X273491799Y-47700000D01*
D32*
X251180000Y-41180000D02*
X252470000Y-41180000D01*
D31*
X112290000Y-38780000D02*
X111200000Y-38800000D01*
D32*
X223680000Y-37770000D02*
X225590000Y-37580000D01*
X201340000Y-37820000D02*
X203430000Y-38160000D01*
D39*
X93780000Y-24430000D02*
X67250000Y-24430000D01*
D35*
X273480000Y-31020000D02*
X273480000Y-29650000D01*
D32*
X205540000Y-40900000D02*
X207130000Y-40900000D01*
X156738200Y-92760000D02*
X156730000Y-80480000D01*
X198260000Y-37160000D02*
X201340000Y-37820000D01*
X230480000Y-131130000D02*
X230480000Y-128370000D01*
D33*
X155370000Y-71550000D02*
X144950000Y-71500000D01*
D32*
X238570000Y-40850000D02*
X241090000Y-40000000D01*
D33*
X230790000Y-148406393D02*
X230630000Y-135870000D01*
X105470000Y-90060000D02*
X105420000Y-92470000D01*
X105440000Y-95600000D02*
X105160000Y-97360000D01*
D32*
X230160000Y-115380000D02*
X230070000Y-111180000D01*
X231650000Y-124970000D02*
X231050000Y-123090000D01*
D33*
X105160000Y-97360000D02*
X104380000Y-99720000D01*
D32*
X218890000Y-38220000D02*
X221400000Y-38250000D01*
X230790000Y-126590000D02*
X231650000Y-124970000D01*
X242270000Y-39960000D02*
X243440000Y-39870000D01*
D31*
X185392965Y-60000000D02*
X183690000Y-59980000D01*
D32*
X230410000Y-119190000D02*
X230160000Y-115380000D01*
D31*
X171550000Y-40440000D02*
X173360000Y-40150000D01*
D32*
X192660000Y-37710000D02*
X187850000Y-37950000D01*
X213760000Y-39610000D02*
X215950000Y-39980000D01*
D31*
X132570000Y-38772800D02*
X133790000Y-38690000D01*
D32*
X156730000Y-80480000D02*
X156325000Y-79127500D01*
D31*
X185069690Y-108410000D02*
X184930000Y-123080000D01*
X153270000Y-41380000D02*
X157120000Y-39590000D01*
D35*
X273510952Y-38600000D02*
X273480000Y-31020000D01*
D33*
X230630000Y-135870000D02*
X230600000Y-134220000D01*
D32*
X237310000Y-38560000D02*
X239700000Y-37990000D01*
X196290000Y-39505000D02*
X198190000Y-39620000D01*
D31*
X152180000Y-38790000D02*
X152740000Y-38797200D01*
D33*
X155130000Y-73930000D02*
X155567277Y-75090000D01*
D31*
X137920000Y-41270000D02*
X145110000Y-40080000D01*
X104870000Y-71230000D02*
X104020000Y-69670000D01*
D33*
X51250000Y-74610000D02*
X51170000Y-70570000D01*
D32*
X196290000Y-36965000D02*
X192660000Y-37710000D01*
X115440000Y-132050000D02*
X115940000Y-126780000D01*
D31*
X109990000Y-41280000D02*
X104370000Y-40045000D01*
D32*
X154280000Y-123550000D02*
X154260000Y-120700000D01*
D33*
X105420000Y-92470000D02*
X105440000Y-95600000D01*
D32*
X198190000Y-39620000D02*
X200820000Y-40120000D01*
X141170000Y-88950000D02*
X141110000Y-90510000D01*
X90705000Y-124430000D02*
X92070000Y-120110000D01*
X93245000Y-124430000D02*
X92070000Y-120110000D01*
X100170000Y-122140000D02*
X100170000Y-118190000D01*
X100170000Y-118190000D02*
X99325000Y-116900000D01*
X62870000Y-119330000D02*
X63580000Y-121340000D01*
X63750000Y-126130000D02*
X64990000Y-132110000D01*
X63580000Y-121340000D02*
X63750000Y-126130000D01*
X43845000Y-110870000D02*
X44010000Y-117530000D01*
X70070000Y-124490000D02*
X70130000Y-117430000D01*
X41305000Y-110870000D02*
X41480000Y-115400000D01*
X35800000Y-137740000D02*
X37870000Y-138910000D01*
X33700000Y-132000000D02*
X33820000Y-135220000D01*
X76340000Y-99090000D02*
X77300000Y-98690000D01*
X89550000Y-120140000D02*
X89450000Y-125920000D01*
X88250000Y-100310000D02*
X88800000Y-102650000D01*
X89500000Y-116150000D02*
X89550000Y-120140000D01*
X74360000Y-134650000D02*
X75400000Y-132730000D01*
X69410000Y-139130000D02*
X70170000Y-138900000D01*
X90100000Y-127910000D02*
X93245000Y-132050000D01*
X87930000Y-99570000D02*
X88250000Y-100310000D01*
X33700000Y-132000000D02*
X36240000Y-124380000D01*
X36225000Y-110870000D02*
X36240000Y-124380000D01*
X37870000Y-138910000D02*
X69410000Y-139130000D01*
X77300000Y-98690000D02*
X86600000Y-98690000D01*
X88800000Y-110270000D02*
X89000000Y-113210000D01*
X33820000Y-135220000D02*
X35800000Y-137740000D01*
X75400000Y-132730000D02*
X75230000Y-100450000D01*
X89000000Y-113210000D02*
X89500000Y-116150000D01*
X75230000Y-100450000D02*
X76340000Y-99090000D01*
X71850000Y-137440000D02*
X74360000Y-134650000D01*
X89450000Y-125920000D02*
X90100000Y-127910000D01*
X70170000Y-138900000D02*
X71850000Y-137440000D01*
X88800000Y-110270000D02*
X88800000Y-102650000D01*
X86600000Y-98690000D02*
X87930000Y-99570000D01*
G04 #@! TA.AperFunction,Conductor*
G36*
X69697619Y-23379659D02*
G01*
X69764604Y-23399531D01*
X69810211Y-23452462D01*
X69821267Y-23502375D01*
X70308708Y-70575242D01*
X70289719Y-70642482D01*
X70237392Y-70688781D01*
X70185237Y-70700525D01*
X20584993Y-70909473D01*
X20517872Y-70890071D01*
X20471895Y-70837460D01*
X20460472Y-70785006D01*
X20460793Y-70700000D01*
X20521056Y-54746929D01*
X39244060Y-54746929D01*
X39264869Y-54891663D01*
X39264871Y-54891670D01*
X39325608Y-55024666D01*
X39325613Y-55024673D01*
X39363831Y-55072099D01*
X40846832Y-56555100D01*
X40862640Y-56567839D01*
X40894260Y-56593320D01*
X40894262Y-56593321D01*
X40894265Y-56593323D01*
X41027261Y-56654060D01*
X41027268Y-56654062D01*
X41172003Y-56674872D01*
X41316737Y-56654062D01*
X41449746Y-56593320D01*
X41497174Y-56555099D01*
X42912997Y-55139276D01*
X42951218Y-55091848D01*
X43011960Y-54958839D01*
X43032770Y-54814105D01*
X43011960Y-54669370D01*
X43011958Y-54669363D01*
X42951221Y-54536367D01*
X42951219Y-54536364D01*
X42951218Y-54536362D01*
X42912997Y-54488933D01*
X41429999Y-53005935D01*
X41429994Y-53005931D01*
X41382571Y-52967715D01*
X41382564Y-52967710D01*
X41249568Y-52906973D01*
X41249561Y-52906971D01*
X41104827Y-52886162D01*
X40960094Y-52906971D01*
X40960092Y-52906972D01*
X40827083Y-52967714D01*
X40779659Y-53005931D01*
X39363829Y-54421761D01*
X39325612Y-54469185D01*
X39264870Y-54602194D01*
X39264869Y-54602196D01*
X39244060Y-54746929D01*
X20521056Y-54746929D01*
X20535060Y-51039844D01*
X43235928Y-51039844D01*
X43235928Y-51269810D01*
X43271903Y-51496946D01*
X43342967Y-51715657D01*
X43447369Y-51920559D01*
X43582541Y-52106605D01*
X43812327Y-52336391D01*
X43998373Y-52471562D01*
X44203275Y-52575965D01*
X44421986Y-52647029D01*
X44649122Y-52683004D01*
X44649123Y-52683004D01*
X44879087Y-52683004D01*
X44879088Y-52683004D01*
X45106224Y-52647029D01*
X45324935Y-52575965D01*
X45529836Y-52471562D01*
X45715883Y-52336391D01*
X45878493Y-52173781D01*
X46013664Y-51987734D01*
X46118067Y-51782833D01*
X46189131Y-51564122D01*
X46225106Y-51336986D01*
X46225106Y-51107020D01*
X46189131Y-50879884D01*
X46118067Y-50661173D01*
X46013664Y-50456271D01*
X45878493Y-50270225D01*
X45648707Y-50040439D01*
X45462661Y-49905267D01*
X45257759Y-49800865D01*
X45039048Y-49729801D01*
X45039046Y-49729800D01*
X45039045Y-49729800D01*
X44864564Y-49702165D01*
X44811912Y-49693826D01*
X44581946Y-49693826D01*
X44529293Y-49702165D01*
X44354813Y-49729800D01*
X44136096Y-49800866D01*
X43931196Y-49905267D01*
X43745149Y-50040440D01*
X43582542Y-50203047D01*
X43447369Y-50389094D01*
X43342968Y-50593994D01*
X43271902Y-50812711D01*
X43235928Y-51039844D01*
X20535060Y-51039844D01*
X20552474Y-46429998D01*
X53193315Y-46429998D01*
X53193315Y-46430001D01*
X53213231Y-46708465D01*
X53213232Y-46708472D01*
X53272571Y-46981253D01*
X53370139Y-47242841D01*
X53503928Y-47487858D01*
X53503933Y-47487866D01*
X53671229Y-47711348D01*
X53671245Y-47711366D01*
X53868633Y-47908754D01*
X53868651Y-47908770D01*
X54092133Y-48076066D01*
X54092141Y-48076071D01*
X54337158Y-48209860D01*
X54337157Y-48209860D01*
X54337161Y-48209861D01*
X54337164Y-48209863D01*
X54598738Y-48307426D01*
X54598744Y-48307427D01*
X54598746Y-48307428D01*
X54735136Y-48337097D01*
X54871535Y-48366769D01*
X55130083Y-48385260D01*
X55149999Y-48386685D01*
X55150000Y-48386685D01*
X55150001Y-48386685D01*
X55168587Y-48385355D01*
X55428465Y-48366769D01*
X55701262Y-48307426D01*
X55962836Y-48209863D01*
X56207864Y-48076068D01*
X56431356Y-47908764D01*
X56628764Y-47711356D01*
X56796068Y-47487864D01*
X56929863Y-47242836D01*
X57027426Y-46981262D01*
X57086769Y-46708465D01*
X57106685Y-46430000D01*
X57086769Y-46151535D01*
X57027426Y-45878738D01*
X56929863Y-45617164D01*
X56796068Y-45372136D01*
X56672333Y-45206845D01*
X56628770Y-45148651D01*
X56628754Y-45148633D01*
X56431366Y-44951245D01*
X56431348Y-44951229D01*
X56207866Y-44783933D01*
X56207858Y-44783928D01*
X55962841Y-44650139D01*
X55962842Y-44650139D01*
X55858206Y-44611111D01*
X55701262Y-44552574D01*
X55701259Y-44552573D01*
X55701253Y-44552571D01*
X55428472Y-44493232D01*
X55428465Y-44493231D01*
X55150001Y-44473315D01*
X55149999Y-44473315D01*
X54871534Y-44493231D01*
X54871527Y-44493232D01*
X54598746Y-44552571D01*
X54337158Y-44650139D01*
X54092141Y-44783928D01*
X54092133Y-44783933D01*
X53868651Y-44951229D01*
X53868633Y-44951245D01*
X53671245Y-45148633D01*
X53671229Y-45148651D01*
X53503933Y-45372133D01*
X53503928Y-45372141D01*
X53370139Y-45617158D01*
X53272571Y-45878746D01*
X53213232Y-46151527D01*
X53213231Y-46151534D01*
X53193315Y-46429998D01*
X20552474Y-46429998D01*
X20567357Y-42489998D01*
X30473315Y-42489998D01*
X30473315Y-42490001D01*
X30493231Y-42768465D01*
X30493232Y-42768472D01*
X30552571Y-43041253D01*
X30650139Y-43302841D01*
X30783928Y-43547858D01*
X30783933Y-43547866D01*
X30951229Y-43771348D01*
X30951245Y-43771366D01*
X31148633Y-43968754D01*
X31148651Y-43968770D01*
X31372133Y-44136066D01*
X31372141Y-44136071D01*
X31617158Y-44269860D01*
X31617157Y-44269860D01*
X31617161Y-44269861D01*
X31617164Y-44269863D01*
X31878738Y-44367426D01*
X31878744Y-44367427D01*
X31878746Y-44367428D01*
X32015136Y-44397097D01*
X32151535Y-44426769D01*
X32410083Y-44445260D01*
X32429999Y-44446685D01*
X32430000Y-44446685D01*
X32430001Y-44446685D01*
X32448587Y-44445355D01*
X32708465Y-44426769D01*
X32981262Y-44367426D01*
X33242836Y-44269863D01*
X33487864Y-44136068D01*
X33711356Y-43968764D01*
X33908764Y-43771356D01*
X34076068Y-43547864D01*
X34209863Y-43302836D01*
X34307426Y-43041262D01*
X34366769Y-42768465D01*
X34386685Y-42490000D01*
X34366769Y-42211535D01*
X34307426Y-41938738D01*
X34209863Y-41677164D01*
X34076068Y-41432136D01*
X33952333Y-41266845D01*
X33908770Y-41208651D01*
X33908754Y-41208633D01*
X33711366Y-41011245D01*
X33711348Y-41011229D01*
X33487866Y-40843933D01*
X33487858Y-40843928D01*
X33242841Y-40710139D01*
X33242842Y-40710139D01*
X33138206Y-40671111D01*
X32981262Y-40612574D01*
X32981259Y-40612573D01*
X32981253Y-40612571D01*
X32708472Y-40553232D01*
X32708465Y-40553231D01*
X32430001Y-40533315D01*
X32429999Y-40533315D01*
X32151534Y-40553231D01*
X32151527Y-40553232D01*
X31878746Y-40612571D01*
X31617158Y-40710139D01*
X31372141Y-40843928D01*
X31372133Y-40843933D01*
X31148651Y-41011229D01*
X31148633Y-41011245D01*
X30951245Y-41208633D01*
X30951229Y-41208651D01*
X30783933Y-41432133D01*
X30783928Y-41432141D01*
X30650139Y-41677158D01*
X30552571Y-41938746D01*
X30493232Y-42211527D01*
X30493231Y-42211534D01*
X30473315Y-42489998D01*
X20567357Y-42489998D01*
X20588552Y-36879264D01*
X41321145Y-36879264D01*
X41321145Y-37109230D01*
X41357120Y-37336366D01*
X41428184Y-37555077D01*
X41532586Y-37759979D01*
X41667758Y-37946025D01*
X41897544Y-38175811D01*
X42083590Y-38310982D01*
X42288492Y-38415385D01*
X42507203Y-38486449D01*
X42734339Y-38522424D01*
X42734340Y-38522424D01*
X42964304Y-38522424D01*
X42964305Y-38522424D01*
X43191441Y-38486449D01*
X43410152Y-38415385D01*
X43615053Y-38310982D01*
X43801100Y-38175811D01*
X43963710Y-38013201D01*
X44098881Y-37827154D01*
X44203284Y-37622253D01*
X44274348Y-37403542D01*
X44310323Y-37176406D01*
X44310323Y-36946440D01*
X44274348Y-36719304D01*
X44203284Y-36500593D01*
X44098881Y-36295691D01*
X43963710Y-36109645D01*
X43733924Y-35879859D01*
X43547878Y-35744687D01*
X43342976Y-35640285D01*
X43124265Y-35569221D01*
X43124263Y-35569220D01*
X43124262Y-35569220D01*
X42949781Y-35541585D01*
X42897129Y-35533246D01*
X42667163Y-35533246D01*
X42614510Y-35541585D01*
X42440030Y-35569220D01*
X42221313Y-35640286D01*
X42016413Y-35744687D01*
X41830366Y-35879860D01*
X41667759Y-36042467D01*
X41532586Y-36228514D01*
X41428185Y-36433414D01*
X41357119Y-36652131D01*
X41321145Y-36879264D01*
X20588552Y-36879264D01*
X20601687Y-33402145D01*
X44513481Y-33402145D01*
X44534290Y-33546879D01*
X44534292Y-33546886D01*
X44595029Y-33679882D01*
X44595034Y-33679889D01*
X44633252Y-33727315D01*
X46116253Y-35210316D01*
X46132061Y-35223055D01*
X46163681Y-35248536D01*
X46163683Y-35248537D01*
X46163686Y-35248539D01*
X46296682Y-35309276D01*
X46296689Y-35309278D01*
X46441424Y-35330088D01*
X46586158Y-35309278D01*
X46719167Y-35248536D01*
X46766595Y-35210315D01*
X48182418Y-33794492D01*
X48220639Y-33747064D01*
X48281381Y-33614055D01*
X48302191Y-33469321D01*
X48281381Y-33324586D01*
X48281379Y-33324579D01*
X48220642Y-33191583D01*
X48220640Y-33191580D01*
X48220639Y-33191578D01*
X48182418Y-33144149D01*
X46699420Y-31661151D01*
X46699415Y-31661147D01*
X46651992Y-31622931D01*
X46651985Y-31622926D01*
X46518989Y-31562189D01*
X46518982Y-31562187D01*
X46374248Y-31541378D01*
X46229515Y-31562187D01*
X46229513Y-31562188D01*
X46096504Y-31622930D01*
X46049080Y-31661147D01*
X44633250Y-33076977D01*
X44595033Y-33124401D01*
X44534291Y-33257410D01*
X44534290Y-33257412D01*
X44513481Y-33402145D01*
X20601687Y-33402145D01*
X20639533Y-23383530D01*
X20659471Y-23316567D01*
X20712447Y-23271012D01*
X20763532Y-23260000D01*
X26740000Y-23260000D01*
X69697619Y-23379659D01*
G37*
G04 #@! TD.AperFunction*
M02*
