G04 #@! TF.GenerationSoftware,KiCad,Pcbnew,8.0.6*
G04 #@! TF.CreationDate,2025-02-23T16:49:15+00:00*
G04 #@! TF.ProjectId,Northstart Floating point,4e6f7274-6873-4746-9172-7420466c6f61,rev?*
G04 #@! TF.SameCoordinates,Original*
G04 #@! TF.FileFunction,Legend,Top*
G04 #@! TF.FilePolarity,Positive*
%FSLAX46Y46*%
G04 Gerber Fmt 4.6, Leading zero omitted, Abs format (unit mm)*
G04 Created by KiCad (PCBNEW 8.0.6) date 2025-02-23 16:49:15*
%MOMM*%
%LPD*%
G01*
G04 APERTURE LIST*
G04 Aperture macros list*
%AMHorizOval*
0 Thick line with rounded ends*
0 $1 width*
0 $2 $3 position (X,Y) of the first rounded end (center of the circle)*
0 $4 $5 position (X,Y) of the second rounded end (center of the circle)*
0 Add line between two ends*
20,1,$1,$2,$3,$4,$5,0*
0 Add two circle primitives to create the rounded ends*
1,1,$1,$2,$3*
1,1,$1,$4,$5*%
%AMRotRect*
0 Rectangle, with rotation*
0 The origin of the aperture is its center*
0 $1 length*
0 $2 width*
0 $3 Rotation angle, in degrees counterclockwise*
0 Add horizontal line*
21,1,$1,$2,0,0,$3*%
G04 Aperture macros list end*
%ADD10C,0.203200*%
%ADD11C,0.150000*%
%ADD12C,0.120000*%
%ADD13C,0.100000*%
%ADD14C,0.304800*%
%ADD15C,0.848748*%
%ADD16C,0.816102*%
%ADD17C,2.000000*%
%ADD18R,1.600000X1.600000*%
%ADD19O,1.600000X1.600000*%
%ADD20C,2.400000*%
%ADD21O,2.400000X2.400000*%
%ADD22C,1.600000*%
%ADD23R,2.794000X8.382000*%
%ADD24R,1.778000X8.382000*%
%ADD25RotRect,1.905000X2.000000X225.000000*%
%ADD26HorizOval,1.905000X-0.033588X0.033588X0.033588X-0.033588X0*%
%ADD27C,1.500000*%
%ADD28RotRect,1.905000X2.000000X45.000000*%
G04 APERTURE END LIST*
D10*
X148993623Y-120507268D02*
X148993623Y-121421554D01*
X148993623Y-120964411D02*
X147393623Y-120964411D01*
X147393623Y-120964411D02*
X147622194Y-121116792D01*
X147622194Y-121116792D02*
X147774575Y-121269173D01*
X147774575Y-121269173D02*
X147850766Y-121421554D01*
X147546004Y-119897744D02*
X147469813Y-119821553D01*
X147469813Y-119821553D02*
X147393623Y-119669172D01*
X147393623Y-119669172D02*
X147393623Y-119288220D01*
X147393623Y-119288220D02*
X147469813Y-119135839D01*
X147469813Y-119135839D02*
X147546004Y-119059648D01*
X147546004Y-119059648D02*
X147698385Y-118983458D01*
X147698385Y-118983458D02*
X147850766Y-118983458D01*
X147850766Y-118983458D02*
X148079337Y-119059648D01*
X148079337Y-119059648D02*
X148993623Y-119973934D01*
X148993623Y-119973934D02*
X148993623Y-118983458D01*
X139253623Y-120527268D02*
X139253623Y-121441554D01*
X139253623Y-120984411D02*
X137653623Y-120984411D01*
X137653623Y-120984411D02*
X137882194Y-121136792D01*
X137882194Y-121136792D02*
X138034575Y-121289173D01*
X138034575Y-121289173D02*
X138110766Y-121441554D01*
X137653623Y-119079648D02*
X137653623Y-119841553D01*
X137653623Y-119841553D02*
X138415528Y-119917744D01*
X138415528Y-119917744D02*
X138339337Y-119841553D01*
X138339337Y-119841553D02*
X138263147Y-119689172D01*
X138263147Y-119689172D02*
X138263147Y-119308220D01*
X138263147Y-119308220D02*
X138339337Y-119155839D01*
X138339337Y-119155839D02*
X138415528Y-119079648D01*
X138415528Y-119079648D02*
X138567909Y-119003458D01*
X138567909Y-119003458D02*
X138948861Y-119003458D01*
X138948861Y-119003458D02*
X139101242Y-119079648D01*
X139101242Y-119079648D02*
X139177433Y-119155839D01*
X139177433Y-119155839D02*
X139253623Y-119308220D01*
X139253623Y-119308220D02*
X139253623Y-119689172D01*
X139253623Y-119689172D02*
X139177433Y-119841553D01*
X139177433Y-119841553D02*
X139101242Y-119917744D01*
X145863623Y-120557268D02*
X145863623Y-121471554D01*
X145863623Y-121014411D02*
X144263623Y-121014411D01*
X144263623Y-121014411D02*
X144492194Y-121166792D01*
X144492194Y-121166792D02*
X144644575Y-121319173D01*
X144644575Y-121319173D02*
X144720766Y-121471554D01*
X144263623Y-120023934D02*
X144263623Y-119033458D01*
X144263623Y-119033458D02*
X144873147Y-119566791D01*
X144873147Y-119566791D02*
X144873147Y-119338220D01*
X144873147Y-119338220D02*
X144949337Y-119185839D01*
X144949337Y-119185839D02*
X145025528Y-119109648D01*
X145025528Y-119109648D02*
X145177909Y-119033458D01*
X145177909Y-119033458D02*
X145558861Y-119033458D01*
X145558861Y-119033458D02*
X145711242Y-119109648D01*
X145711242Y-119109648D02*
X145787433Y-119185839D01*
X145787433Y-119185839D02*
X145863623Y-119338220D01*
X145863623Y-119338220D02*
X145863623Y-119795363D01*
X145863623Y-119795363D02*
X145787433Y-119947744D01*
X145787433Y-119947744D02*
X145711242Y-120023934D01*
X142603623Y-120487268D02*
X142603623Y-121401554D01*
X142603623Y-120944411D02*
X141003623Y-120944411D01*
X141003623Y-120944411D02*
X141232194Y-121096792D01*
X141232194Y-121096792D02*
X141384575Y-121249173D01*
X141384575Y-121249173D02*
X141460766Y-121401554D01*
X141536956Y-119115839D02*
X142603623Y-119115839D01*
X140927433Y-119496791D02*
X142070290Y-119877744D01*
X142070290Y-119877744D02*
X142070290Y-118887267D01*
X135343623Y-119235363D02*
X133743623Y-119235363D01*
X134505528Y-119235363D02*
X134505528Y-118321077D01*
X135343623Y-118321077D02*
X133743623Y-118321077D01*
X151219813Y-118437268D02*
X151143623Y-118589649D01*
X151143623Y-118589649D02*
X151143623Y-118818220D01*
X151143623Y-118818220D02*
X151219813Y-119046792D01*
X151219813Y-119046792D02*
X151372194Y-119199173D01*
X151372194Y-119199173D02*
X151524575Y-119275363D01*
X151524575Y-119275363D02*
X151829337Y-119351554D01*
X151829337Y-119351554D02*
X152057909Y-119351554D01*
X152057909Y-119351554D02*
X152362671Y-119275363D01*
X152362671Y-119275363D02*
X152515052Y-119199173D01*
X152515052Y-119199173D02*
X152667433Y-119046792D01*
X152667433Y-119046792D02*
X152743623Y-118818220D01*
X152743623Y-118818220D02*
X152743623Y-118665839D01*
X152743623Y-118665839D02*
X152667433Y-118437268D01*
X152667433Y-118437268D02*
X152591242Y-118361077D01*
X152591242Y-118361077D02*
X152057909Y-118361077D01*
X152057909Y-118361077D02*
X152057909Y-118665839D01*
X74119398Y-27934142D02*
X73696064Y-27934142D01*
X73696064Y-28599380D02*
X73696064Y-27329380D01*
X73696064Y-27329380D02*
X74300826Y-27329380D01*
X74784635Y-28599380D02*
X74784635Y-27329380D01*
X74784635Y-27329380D02*
X75268445Y-27329380D01*
X75268445Y-27329380D02*
X75389397Y-27389856D01*
X75389397Y-27389856D02*
X75449874Y-27450332D01*
X75449874Y-27450332D02*
X75510350Y-27571284D01*
X75510350Y-27571284D02*
X75510350Y-27752713D01*
X75510350Y-27752713D02*
X75449874Y-27873665D01*
X75449874Y-27873665D02*
X75389397Y-27934142D01*
X75389397Y-27934142D02*
X75268445Y-27994618D01*
X75268445Y-27994618D02*
X74784635Y-27994618D01*
X76477969Y-27934142D02*
X76659397Y-27994618D01*
X76659397Y-27994618D02*
X76719874Y-28055094D01*
X76719874Y-28055094D02*
X76780350Y-28176046D01*
X76780350Y-28176046D02*
X76780350Y-28357475D01*
X76780350Y-28357475D02*
X76719874Y-28478427D01*
X76719874Y-28478427D02*
X76659397Y-28538904D01*
X76659397Y-28538904D02*
X76538445Y-28599380D01*
X76538445Y-28599380D02*
X76054635Y-28599380D01*
X76054635Y-28599380D02*
X76054635Y-27329380D01*
X76054635Y-27329380D02*
X76477969Y-27329380D01*
X76477969Y-27329380D02*
X76598921Y-27389856D01*
X76598921Y-27389856D02*
X76659397Y-27450332D01*
X76659397Y-27450332D02*
X76719874Y-27571284D01*
X76719874Y-27571284D02*
X76719874Y-27692237D01*
X76719874Y-27692237D02*
X76659397Y-27813189D01*
X76659397Y-27813189D02*
X76598921Y-27873665D01*
X76598921Y-27873665D02*
X76477969Y-27934142D01*
X76477969Y-27934142D02*
X76054635Y-27934142D01*
X77324635Y-28115570D02*
X78292255Y-28115570D01*
X78836540Y-28236523D02*
X79441302Y-28236523D01*
X78715588Y-28599380D02*
X79138921Y-27329380D01*
X79138921Y-27329380D02*
X79562255Y-28599380D01*
X73937969Y-29374009D02*
X74058922Y-29374009D01*
X74058922Y-29374009D02*
X74179874Y-29434485D01*
X74179874Y-29434485D02*
X74240350Y-29494961D01*
X74240350Y-29494961D02*
X74300826Y-29615913D01*
X74300826Y-29615913D02*
X74361303Y-29857818D01*
X74361303Y-29857818D02*
X74361303Y-30160199D01*
X74361303Y-30160199D02*
X74300826Y-30402104D01*
X74300826Y-30402104D02*
X74240350Y-30523056D01*
X74240350Y-30523056D02*
X74179874Y-30583533D01*
X74179874Y-30583533D02*
X74058922Y-30644009D01*
X74058922Y-30644009D02*
X73937969Y-30644009D01*
X73937969Y-30644009D02*
X73817017Y-30583533D01*
X73817017Y-30583533D02*
X73756541Y-30523056D01*
X73756541Y-30523056D02*
X73696064Y-30402104D01*
X73696064Y-30402104D02*
X73635588Y-30160199D01*
X73635588Y-30160199D02*
X73635588Y-29857818D01*
X73635588Y-29857818D02*
X73696064Y-29615913D01*
X73696064Y-29615913D02*
X73756541Y-29494961D01*
X73756541Y-29494961D02*
X73817017Y-29434485D01*
X73817017Y-29434485D02*
X73937969Y-29374009D01*
X75510350Y-29374009D02*
X74905588Y-29374009D01*
X74905588Y-29374009D02*
X74845112Y-29978771D01*
X74845112Y-29978771D02*
X74905588Y-29918294D01*
X74905588Y-29918294D02*
X75026541Y-29857818D01*
X75026541Y-29857818D02*
X75328922Y-29857818D01*
X75328922Y-29857818D02*
X75449874Y-29918294D01*
X75449874Y-29918294D02*
X75510350Y-29978771D01*
X75510350Y-29978771D02*
X75570827Y-30099723D01*
X75570827Y-30099723D02*
X75570827Y-30402104D01*
X75570827Y-30402104D02*
X75510350Y-30523056D01*
X75510350Y-30523056D02*
X75449874Y-30583533D01*
X75449874Y-30583533D02*
X75328922Y-30644009D01*
X75328922Y-30644009D02*
X75026541Y-30644009D01*
X75026541Y-30644009D02*
X74905588Y-30583533D01*
X74905588Y-30583533D02*
X74845112Y-30523056D01*
X76357017Y-29374009D02*
X76477970Y-29374009D01*
X76477970Y-29374009D02*
X76598922Y-29434485D01*
X76598922Y-29434485D02*
X76659398Y-29494961D01*
X76659398Y-29494961D02*
X76719874Y-29615913D01*
X76719874Y-29615913D02*
X76780351Y-29857818D01*
X76780351Y-29857818D02*
X76780351Y-30160199D01*
X76780351Y-30160199D02*
X76719874Y-30402104D01*
X76719874Y-30402104D02*
X76659398Y-30523056D01*
X76659398Y-30523056D02*
X76598922Y-30583533D01*
X76598922Y-30583533D02*
X76477970Y-30644009D01*
X76477970Y-30644009D02*
X76357017Y-30644009D01*
X76357017Y-30644009D02*
X76236065Y-30583533D01*
X76236065Y-30583533D02*
X76175589Y-30523056D01*
X76175589Y-30523056D02*
X76115112Y-30402104D01*
X76115112Y-30402104D02*
X76054636Y-30160199D01*
X76054636Y-30160199D02*
X76054636Y-29857818D01*
X76054636Y-29857818D02*
X76115112Y-29615913D01*
X76115112Y-29615913D02*
X76175589Y-29494961D01*
X76175589Y-29494961D02*
X76236065Y-29434485D01*
X76236065Y-29434485D02*
X76357017Y-29374009D01*
X77566541Y-29374009D02*
X77687494Y-29374009D01*
X77687494Y-29374009D02*
X77808446Y-29434485D01*
X77808446Y-29434485D02*
X77868922Y-29494961D01*
X77868922Y-29494961D02*
X77929398Y-29615913D01*
X77929398Y-29615913D02*
X77989875Y-29857818D01*
X77989875Y-29857818D02*
X77989875Y-30160199D01*
X77989875Y-30160199D02*
X77929398Y-30402104D01*
X77929398Y-30402104D02*
X77868922Y-30523056D01*
X77868922Y-30523056D02*
X77808446Y-30583533D01*
X77808446Y-30583533D02*
X77687494Y-30644009D01*
X77687494Y-30644009D02*
X77566541Y-30644009D01*
X77566541Y-30644009D02*
X77445589Y-30583533D01*
X77445589Y-30583533D02*
X77385113Y-30523056D01*
X77385113Y-30523056D02*
X77324636Y-30402104D01*
X77324636Y-30402104D02*
X77264160Y-30160199D01*
X77264160Y-30160199D02*
X77264160Y-29857818D01*
X77264160Y-29857818D02*
X77324636Y-29615913D01*
X77324636Y-29615913D02*
X77385113Y-29494961D01*
X77385113Y-29494961D02*
X77445589Y-29434485D01*
X77445589Y-29434485D02*
X77566541Y-29374009D01*
X79199399Y-30644009D02*
X78473684Y-30644009D01*
X78836541Y-30644009D02*
X78836541Y-29374009D01*
X78836541Y-29374009D02*
X78715589Y-29555437D01*
X78715589Y-29555437D02*
X78594637Y-29676390D01*
X78594637Y-29676390D02*
X78473684Y-29736866D01*
X80469399Y-30523056D02*
X80408923Y-30583533D01*
X80408923Y-30583533D02*
X80227494Y-30644009D01*
X80227494Y-30644009D02*
X80106542Y-30644009D01*
X80106542Y-30644009D02*
X79925113Y-30583533D01*
X79925113Y-30583533D02*
X79804161Y-30462580D01*
X79804161Y-30462580D02*
X79743684Y-30341628D01*
X79743684Y-30341628D02*
X79683208Y-30099723D01*
X79683208Y-30099723D02*
X79683208Y-29918294D01*
X79683208Y-29918294D02*
X79743684Y-29676390D01*
X79743684Y-29676390D02*
X79804161Y-29555437D01*
X79804161Y-29555437D02*
X79925113Y-29434485D01*
X79925113Y-29434485D02*
X80106542Y-29374009D01*
X80106542Y-29374009D02*
X80227494Y-29374009D01*
X80227494Y-29374009D02*
X80408923Y-29434485D01*
X80408923Y-29434485D02*
X80469399Y-29494961D01*
D11*
X32839047Y-135172200D02*
X33124761Y-135267438D01*
X33124761Y-135267438D02*
X33600952Y-135267438D01*
X33600952Y-135267438D02*
X33791428Y-135172200D01*
X33791428Y-135172200D02*
X33886666Y-135076961D01*
X33886666Y-135076961D02*
X33981904Y-134886485D01*
X33981904Y-134886485D02*
X33981904Y-134696009D01*
X33981904Y-134696009D02*
X33886666Y-134505533D01*
X33886666Y-134505533D02*
X33791428Y-134410295D01*
X33791428Y-134410295D02*
X33600952Y-134315057D01*
X33600952Y-134315057D02*
X33219999Y-134219819D01*
X33219999Y-134219819D02*
X33029523Y-134124580D01*
X33029523Y-134124580D02*
X32934285Y-134029342D01*
X32934285Y-134029342D02*
X32839047Y-133838866D01*
X32839047Y-133838866D02*
X32839047Y-133648390D01*
X32839047Y-133648390D02*
X32934285Y-133457914D01*
X32934285Y-133457914D02*
X33029523Y-133362676D01*
X33029523Y-133362676D02*
X33219999Y-133267438D01*
X33219999Y-133267438D02*
X33696190Y-133267438D01*
X33696190Y-133267438D02*
X33981904Y-133362676D01*
X35219999Y-134315057D02*
X35219999Y-135267438D01*
X34553333Y-133267438D02*
X35219999Y-134315057D01*
X35219999Y-134315057D02*
X35886666Y-133267438D01*
X37600952Y-135267438D02*
X36458095Y-135267438D01*
X37029523Y-135267438D02*
X37029523Y-133267438D01*
X37029523Y-133267438D02*
X36839047Y-133553152D01*
X36839047Y-133553152D02*
X36648571Y-133743628D01*
X36648571Y-133743628D02*
X36458095Y-133838866D01*
X113637142Y-132847438D02*
X114018095Y-132847438D01*
X114018095Y-132847438D02*
X114208571Y-132942676D01*
X114208571Y-132942676D02*
X114399047Y-133133152D01*
X114399047Y-133133152D02*
X114494285Y-133514104D01*
X114494285Y-133514104D02*
X114494285Y-134180771D01*
X114494285Y-134180771D02*
X114399047Y-134561723D01*
X114399047Y-134561723D02*
X114208571Y-134752200D01*
X114208571Y-134752200D02*
X114018095Y-134847438D01*
X114018095Y-134847438D02*
X113637142Y-134847438D01*
X113637142Y-134847438D02*
X113446666Y-134752200D01*
X113446666Y-134752200D02*
X113256190Y-134561723D01*
X113256190Y-134561723D02*
X113160952Y-134180771D01*
X113160952Y-134180771D02*
X113160952Y-133514104D01*
X113160952Y-133514104D02*
X113256190Y-133133152D01*
X113256190Y-133133152D02*
X113446666Y-132942676D01*
X113446666Y-132942676D02*
X113637142Y-132847438D01*
X116494285Y-134656961D02*
X116399047Y-134752200D01*
X116399047Y-134752200D02*
X116113333Y-134847438D01*
X116113333Y-134847438D02*
X115922857Y-134847438D01*
X115922857Y-134847438D02*
X115637142Y-134752200D01*
X115637142Y-134752200D02*
X115446666Y-134561723D01*
X115446666Y-134561723D02*
X115351428Y-134371247D01*
X115351428Y-134371247D02*
X115256190Y-133990295D01*
X115256190Y-133990295D02*
X115256190Y-133704580D01*
X115256190Y-133704580D02*
X115351428Y-133323628D01*
X115351428Y-133323628D02*
X115446666Y-133133152D01*
X115446666Y-133133152D02*
X115637142Y-132942676D01*
X115637142Y-132942676D02*
X115922857Y-132847438D01*
X115922857Y-132847438D02*
X116113333Y-132847438D01*
X116113333Y-132847438D02*
X116399047Y-132942676D01*
X116399047Y-132942676D02*
X116494285Y-133037914D01*
X118399047Y-134847438D02*
X117256190Y-134847438D01*
X117827618Y-134847438D02*
X117827618Y-132847438D01*
X117827618Y-132847438D02*
X117637142Y-133133152D01*
X117637142Y-133133152D02*
X117446666Y-133323628D01*
X117446666Y-133323628D02*
X117256190Y-133418866D01*
X132559580Y-107232857D02*
X132607200Y-107280476D01*
X132607200Y-107280476D02*
X132654819Y-107423333D01*
X132654819Y-107423333D02*
X132654819Y-107518571D01*
X132654819Y-107518571D02*
X132607200Y-107661428D01*
X132607200Y-107661428D02*
X132511961Y-107756666D01*
X132511961Y-107756666D02*
X132416723Y-107804285D01*
X132416723Y-107804285D02*
X132226247Y-107851904D01*
X132226247Y-107851904D02*
X132083390Y-107851904D01*
X132083390Y-107851904D02*
X131892914Y-107804285D01*
X131892914Y-107804285D02*
X131797676Y-107756666D01*
X131797676Y-107756666D02*
X131702438Y-107661428D01*
X131702438Y-107661428D02*
X131654819Y-107518571D01*
X131654819Y-107518571D02*
X131654819Y-107423333D01*
X131654819Y-107423333D02*
X131702438Y-107280476D01*
X131702438Y-107280476D02*
X131750057Y-107232857D01*
X131750057Y-106851904D02*
X131702438Y-106804285D01*
X131702438Y-106804285D02*
X131654819Y-106709047D01*
X131654819Y-106709047D02*
X131654819Y-106470952D01*
X131654819Y-106470952D02*
X131702438Y-106375714D01*
X131702438Y-106375714D02*
X131750057Y-106328095D01*
X131750057Y-106328095D02*
X131845295Y-106280476D01*
X131845295Y-106280476D02*
X131940533Y-106280476D01*
X131940533Y-106280476D02*
X132083390Y-106328095D01*
X132083390Y-106328095D02*
X132654819Y-106899523D01*
X132654819Y-106899523D02*
X132654819Y-106280476D01*
X132654819Y-105328095D02*
X132654819Y-105899523D01*
X132654819Y-105613809D02*
X131654819Y-105613809D01*
X131654819Y-105613809D02*
X131797676Y-105709047D01*
X131797676Y-105709047D02*
X131892914Y-105804285D01*
X131892914Y-105804285D02*
X131940533Y-105899523D01*
X31987619Y-92546009D02*
X32940000Y-92546009D01*
X31797143Y-93117438D02*
X32463809Y-91117438D01*
X32463809Y-91117438D02*
X33130476Y-93117438D01*
X34178095Y-91117438D02*
X34559048Y-91117438D01*
X34559048Y-91117438D02*
X34749524Y-91212676D01*
X34749524Y-91212676D02*
X34940000Y-91403152D01*
X34940000Y-91403152D02*
X35035238Y-91784104D01*
X35035238Y-91784104D02*
X35035238Y-92450771D01*
X35035238Y-92450771D02*
X34940000Y-92831723D01*
X34940000Y-92831723D02*
X34749524Y-93022200D01*
X34749524Y-93022200D02*
X34559048Y-93117438D01*
X34559048Y-93117438D02*
X34178095Y-93117438D01*
X34178095Y-93117438D02*
X33987619Y-93022200D01*
X33987619Y-93022200D02*
X33797143Y-92831723D01*
X33797143Y-92831723D02*
X33701905Y-92450771D01*
X33701905Y-92450771D02*
X33701905Y-91784104D01*
X33701905Y-91784104D02*
X33797143Y-91403152D01*
X33797143Y-91403152D02*
X33987619Y-91212676D01*
X33987619Y-91212676D02*
X34178095Y-91117438D01*
X35892381Y-93117438D02*
X35892381Y-91117438D01*
X37892381Y-93117438D02*
X36749524Y-93117438D01*
X37320952Y-93117438D02*
X37320952Y-91117438D01*
X37320952Y-91117438D02*
X37130476Y-91403152D01*
X37130476Y-91403152D02*
X36940000Y-91593628D01*
X36940000Y-91593628D02*
X36749524Y-91688866D01*
X170609523Y-134394580D02*
X170419047Y-134299342D01*
X170419047Y-134299342D02*
X170323809Y-134204104D01*
X170323809Y-134204104D02*
X170228571Y-134013628D01*
X170228571Y-134013628D02*
X170228571Y-133918390D01*
X170228571Y-133918390D02*
X170323809Y-133727914D01*
X170323809Y-133727914D02*
X170419047Y-133632676D01*
X170419047Y-133632676D02*
X170609523Y-133537438D01*
X170609523Y-133537438D02*
X170990476Y-133537438D01*
X170990476Y-133537438D02*
X171180952Y-133632676D01*
X171180952Y-133632676D02*
X171276190Y-133727914D01*
X171276190Y-133727914D02*
X171371428Y-133918390D01*
X171371428Y-133918390D02*
X171371428Y-134013628D01*
X171371428Y-134013628D02*
X171276190Y-134204104D01*
X171276190Y-134204104D02*
X171180952Y-134299342D01*
X171180952Y-134299342D02*
X170990476Y-134394580D01*
X170990476Y-134394580D02*
X170609523Y-134394580D01*
X170609523Y-134394580D02*
X170419047Y-134489819D01*
X170419047Y-134489819D02*
X170323809Y-134585057D01*
X170323809Y-134585057D02*
X170228571Y-134775533D01*
X170228571Y-134775533D02*
X170228571Y-135156485D01*
X170228571Y-135156485D02*
X170323809Y-135346961D01*
X170323809Y-135346961D02*
X170419047Y-135442200D01*
X170419047Y-135442200D02*
X170609523Y-135537438D01*
X170609523Y-135537438D02*
X170990476Y-135537438D01*
X170990476Y-135537438D02*
X171180952Y-135442200D01*
X171180952Y-135442200D02*
X171276190Y-135346961D01*
X171276190Y-135346961D02*
X171371428Y-135156485D01*
X171371428Y-135156485D02*
X171371428Y-134775533D01*
X171371428Y-134775533D02*
X171276190Y-134585057D01*
X171276190Y-134585057D02*
X171180952Y-134489819D01*
X171180952Y-134489819D02*
X170990476Y-134394580D01*
X172228571Y-135537438D02*
X172228571Y-133537438D01*
X172228571Y-133537438D02*
X173371428Y-135537438D01*
X173371428Y-135537438D02*
X173371428Y-133537438D01*
X175371428Y-135537438D02*
X174228571Y-135537438D01*
X174799999Y-135537438D02*
X174799999Y-133537438D01*
X174799999Y-133537438D02*
X174609523Y-133823152D01*
X174609523Y-133823152D02*
X174419047Y-134013628D01*
X174419047Y-134013628D02*
X174228571Y-134108866D01*
X253109819Y-41261904D02*
X253205057Y-40976190D01*
X253205057Y-40976190D02*
X253300295Y-40880952D01*
X253300295Y-40880952D02*
X253490771Y-40785714D01*
X253490771Y-40785714D02*
X253776485Y-40785714D01*
X253776485Y-40785714D02*
X253966961Y-40880952D01*
X253966961Y-40880952D02*
X254062200Y-40976190D01*
X254062200Y-40976190D02*
X254157438Y-41166666D01*
X254157438Y-41166666D02*
X254157438Y-41928571D01*
X254157438Y-41928571D02*
X252157438Y-41928571D01*
X252157438Y-41928571D02*
X252157438Y-41261904D01*
X252157438Y-41261904D02*
X252252676Y-41071428D01*
X252252676Y-41071428D02*
X252347914Y-40976190D01*
X252347914Y-40976190D02*
X252538390Y-40880952D01*
X252538390Y-40880952D02*
X252728866Y-40880952D01*
X252728866Y-40880952D02*
X252919342Y-40976190D01*
X252919342Y-40976190D02*
X253014580Y-41071428D01*
X253014580Y-41071428D02*
X253109819Y-41261904D01*
X253109819Y-41261904D02*
X253109819Y-41928571D01*
X254062200Y-40023809D02*
X254157438Y-39738095D01*
X254157438Y-39738095D02*
X254157438Y-39261904D01*
X254157438Y-39261904D02*
X254062200Y-39071428D01*
X254062200Y-39071428D02*
X253966961Y-38976190D01*
X253966961Y-38976190D02*
X253776485Y-38880952D01*
X253776485Y-38880952D02*
X253586009Y-38880952D01*
X253586009Y-38880952D02*
X253395533Y-38976190D01*
X253395533Y-38976190D02*
X253300295Y-39071428D01*
X253300295Y-39071428D02*
X253205057Y-39261904D01*
X253205057Y-39261904D02*
X253109819Y-39642857D01*
X253109819Y-39642857D02*
X253014580Y-39833333D01*
X253014580Y-39833333D02*
X252919342Y-39928571D01*
X252919342Y-39928571D02*
X252728866Y-40023809D01*
X252728866Y-40023809D02*
X252538390Y-40023809D01*
X252538390Y-40023809D02*
X252347914Y-39928571D01*
X252347914Y-39928571D02*
X252252676Y-39833333D01*
X252252676Y-39833333D02*
X252157438Y-39642857D01*
X252157438Y-39642857D02*
X252157438Y-39166666D01*
X252157438Y-39166666D02*
X252252676Y-38880952D01*
X254157438Y-36880952D02*
X253205057Y-37547619D01*
X254157438Y-38023809D02*
X252157438Y-38023809D01*
X252157438Y-38023809D02*
X252157438Y-37261904D01*
X252157438Y-37261904D02*
X252252676Y-37071428D01*
X252252676Y-37071428D02*
X252347914Y-36976190D01*
X252347914Y-36976190D02*
X252538390Y-36880952D01*
X252538390Y-36880952D02*
X252824104Y-36880952D01*
X252824104Y-36880952D02*
X253014580Y-36976190D01*
X253014580Y-36976190D02*
X253109819Y-37071428D01*
X253109819Y-37071428D02*
X253205057Y-37261904D01*
X253205057Y-37261904D02*
X253205057Y-38023809D01*
X254157438Y-36023809D02*
X252157438Y-36023809D01*
X252157438Y-36023809D02*
X252157438Y-35261904D01*
X252157438Y-35261904D02*
X252252676Y-35071428D01*
X252252676Y-35071428D02*
X252347914Y-34976190D01*
X252347914Y-34976190D02*
X252538390Y-34880952D01*
X252538390Y-34880952D02*
X252824104Y-34880952D01*
X252824104Y-34880952D02*
X253014580Y-34976190D01*
X253014580Y-34976190D02*
X253109819Y-35071428D01*
X253109819Y-35071428D02*
X253205057Y-35261904D01*
X253205057Y-35261904D02*
X253205057Y-36023809D01*
X254157438Y-32976190D02*
X254157438Y-34119047D01*
X254157438Y-33547619D02*
X252157438Y-33547619D01*
X252157438Y-33547619D02*
X252443152Y-33738095D01*
X252443152Y-33738095D02*
X252633628Y-33928571D01*
X252633628Y-33928571D02*
X252728866Y-34119047D01*
X134569819Y-41126190D02*
X134665057Y-40840476D01*
X134665057Y-40840476D02*
X134760295Y-40745238D01*
X134760295Y-40745238D02*
X134950771Y-40650000D01*
X134950771Y-40650000D02*
X135236485Y-40650000D01*
X135236485Y-40650000D02*
X135426961Y-40745238D01*
X135426961Y-40745238D02*
X135522200Y-40840476D01*
X135522200Y-40840476D02*
X135617438Y-41030952D01*
X135617438Y-41030952D02*
X135617438Y-41792857D01*
X135617438Y-41792857D02*
X133617438Y-41792857D01*
X133617438Y-41792857D02*
X133617438Y-41126190D01*
X133617438Y-41126190D02*
X133712676Y-40935714D01*
X133712676Y-40935714D02*
X133807914Y-40840476D01*
X133807914Y-40840476D02*
X133998390Y-40745238D01*
X133998390Y-40745238D02*
X134188866Y-40745238D01*
X134188866Y-40745238D02*
X134379342Y-40840476D01*
X134379342Y-40840476D02*
X134474580Y-40935714D01*
X134474580Y-40935714D02*
X134569819Y-41126190D01*
X134569819Y-41126190D02*
X134569819Y-41792857D01*
X135046009Y-39888095D02*
X135046009Y-38935714D01*
X135617438Y-40078571D02*
X133617438Y-39411905D01*
X133617438Y-39411905D02*
X135617438Y-38745238D01*
X135617438Y-37126190D02*
X135617438Y-38078571D01*
X135617438Y-38078571D02*
X133617438Y-38078571D01*
X135617438Y-36459523D02*
X133617438Y-36459523D01*
X133617438Y-36459523D02*
X133617438Y-35697618D01*
X133617438Y-35697618D02*
X133712676Y-35507142D01*
X133712676Y-35507142D02*
X133807914Y-35411904D01*
X133807914Y-35411904D02*
X133998390Y-35316666D01*
X133998390Y-35316666D02*
X134284104Y-35316666D01*
X134284104Y-35316666D02*
X134474580Y-35411904D01*
X134474580Y-35411904D02*
X134569819Y-35507142D01*
X134569819Y-35507142D02*
X134665057Y-35697618D01*
X134665057Y-35697618D02*
X134665057Y-36459523D01*
X135617438Y-33411904D02*
X135617438Y-34554761D01*
X135617438Y-33983333D02*
X133617438Y-33983333D01*
X133617438Y-33983333D02*
X133903152Y-34173809D01*
X133903152Y-34173809D02*
X134093628Y-34364285D01*
X134093628Y-34364285D02*
X134188866Y-34554761D01*
X114019819Y-41139523D02*
X114115057Y-40853809D01*
X114115057Y-40853809D02*
X114210295Y-40758571D01*
X114210295Y-40758571D02*
X114400771Y-40663333D01*
X114400771Y-40663333D02*
X114686485Y-40663333D01*
X114686485Y-40663333D02*
X114876961Y-40758571D01*
X114876961Y-40758571D02*
X114972200Y-40853809D01*
X114972200Y-40853809D02*
X115067438Y-41044285D01*
X115067438Y-41044285D02*
X115067438Y-41806190D01*
X115067438Y-41806190D02*
X113067438Y-41806190D01*
X113067438Y-41806190D02*
X113067438Y-41139523D01*
X113067438Y-41139523D02*
X113162676Y-40949047D01*
X113162676Y-40949047D02*
X113257914Y-40853809D01*
X113257914Y-40853809D02*
X113448390Y-40758571D01*
X113448390Y-40758571D02*
X113638866Y-40758571D01*
X113638866Y-40758571D02*
X113829342Y-40853809D01*
X113829342Y-40853809D02*
X113924580Y-40949047D01*
X113924580Y-40949047D02*
X114019819Y-41139523D01*
X114019819Y-41139523D02*
X114019819Y-41806190D01*
X114496009Y-39901428D02*
X114496009Y-38949047D01*
X115067438Y-40091904D02*
X113067438Y-39425238D01*
X113067438Y-39425238D02*
X115067438Y-38758571D01*
X115067438Y-38091904D02*
X113067438Y-38091904D01*
X113067438Y-38091904D02*
X114496009Y-37425237D01*
X114496009Y-37425237D02*
X113067438Y-36758571D01*
X113067438Y-36758571D02*
X115067438Y-36758571D01*
X115067438Y-35806190D02*
X113067438Y-35806190D01*
X113067438Y-35806190D02*
X113067438Y-35044285D01*
X113067438Y-35044285D02*
X113162676Y-34853809D01*
X113162676Y-34853809D02*
X113257914Y-34758571D01*
X113257914Y-34758571D02*
X113448390Y-34663333D01*
X113448390Y-34663333D02*
X113734104Y-34663333D01*
X113734104Y-34663333D02*
X113924580Y-34758571D01*
X113924580Y-34758571D02*
X114019819Y-34853809D01*
X114019819Y-34853809D02*
X114115057Y-35044285D01*
X114115057Y-35044285D02*
X114115057Y-35806190D01*
X115067438Y-32758571D02*
X115067438Y-33901428D01*
X115067438Y-33330000D02*
X113067438Y-33330000D01*
X113067438Y-33330000D02*
X113353152Y-33520476D01*
X113353152Y-33520476D02*
X113543628Y-33710952D01*
X113543628Y-33710952D02*
X113638866Y-33901428D01*
X50533333Y-72989580D02*
X50485714Y-73037200D01*
X50485714Y-73037200D02*
X50342857Y-73084819D01*
X50342857Y-73084819D02*
X50247619Y-73084819D01*
X50247619Y-73084819D02*
X50104762Y-73037200D01*
X50104762Y-73037200D02*
X50009524Y-72941961D01*
X50009524Y-72941961D02*
X49961905Y-72846723D01*
X49961905Y-72846723D02*
X49914286Y-72656247D01*
X49914286Y-72656247D02*
X49914286Y-72513390D01*
X49914286Y-72513390D02*
X49961905Y-72322914D01*
X49961905Y-72322914D02*
X50009524Y-72227676D01*
X50009524Y-72227676D02*
X50104762Y-72132438D01*
X50104762Y-72132438D02*
X50247619Y-72084819D01*
X50247619Y-72084819D02*
X50342857Y-72084819D01*
X50342857Y-72084819D02*
X50485714Y-72132438D01*
X50485714Y-72132438D02*
X50533333Y-72180057D01*
X51485714Y-73084819D02*
X50914286Y-73084819D01*
X51200000Y-73084819D02*
X51200000Y-72084819D01*
X51200000Y-72084819D02*
X51104762Y-72227676D01*
X51104762Y-72227676D02*
X51009524Y-72322914D01*
X51009524Y-72322914D02*
X50914286Y-72370533D01*
X255564761Y-110167438D02*
X254898094Y-109215057D01*
X254421904Y-110167438D02*
X254421904Y-108167438D01*
X254421904Y-108167438D02*
X255183809Y-108167438D01*
X255183809Y-108167438D02*
X255374285Y-108262676D01*
X255374285Y-108262676D02*
X255469523Y-108357914D01*
X255469523Y-108357914D02*
X255564761Y-108548390D01*
X255564761Y-108548390D02*
X255564761Y-108834104D01*
X255564761Y-108834104D02*
X255469523Y-109024580D01*
X255469523Y-109024580D02*
X255374285Y-109119819D01*
X255374285Y-109119819D02*
X255183809Y-109215057D01*
X255183809Y-109215057D02*
X254421904Y-109215057D01*
X255945714Y-110357914D02*
X257469523Y-110357914D01*
X259088571Y-110167438D02*
X258421904Y-109215057D01*
X257945714Y-110167438D02*
X257945714Y-108167438D01*
X257945714Y-108167438D02*
X258707619Y-108167438D01*
X258707619Y-108167438D02*
X258898095Y-108262676D01*
X258898095Y-108262676D02*
X258993333Y-108357914D01*
X258993333Y-108357914D02*
X259088571Y-108548390D01*
X259088571Y-108548390D02*
X259088571Y-108834104D01*
X259088571Y-108834104D02*
X258993333Y-109024580D01*
X258993333Y-109024580D02*
X258898095Y-109119819D01*
X258898095Y-109119819D02*
X258707619Y-109215057D01*
X258707619Y-109215057D02*
X257945714Y-109215057D01*
X259850476Y-109596009D02*
X260802857Y-109596009D01*
X259660000Y-110167438D02*
X260326666Y-108167438D01*
X260326666Y-108167438D02*
X260993333Y-110167438D01*
X261660000Y-110167438D02*
X261660000Y-108167438D01*
X261660000Y-108167438D02*
X262326667Y-109596009D01*
X262326667Y-109596009D02*
X262993333Y-108167438D01*
X262993333Y-108167438D02*
X262993333Y-110167438D01*
X264993333Y-110167438D02*
X263850476Y-110167438D01*
X264421904Y-110167438D02*
X264421904Y-108167438D01*
X264421904Y-108167438D02*
X264231428Y-108453152D01*
X264231428Y-108453152D02*
X264040952Y-108643628D01*
X264040952Y-108643628D02*
X263850476Y-108738866D01*
X236402200Y-41793333D02*
X236497438Y-41507619D01*
X236497438Y-41507619D02*
X236497438Y-41031428D01*
X236497438Y-41031428D02*
X236402200Y-40840952D01*
X236402200Y-40840952D02*
X236306961Y-40745714D01*
X236306961Y-40745714D02*
X236116485Y-40650476D01*
X236116485Y-40650476D02*
X235926009Y-40650476D01*
X235926009Y-40650476D02*
X235735533Y-40745714D01*
X235735533Y-40745714D02*
X235640295Y-40840952D01*
X235640295Y-40840952D02*
X235545057Y-41031428D01*
X235545057Y-41031428D02*
X235449819Y-41412381D01*
X235449819Y-41412381D02*
X235354580Y-41602857D01*
X235354580Y-41602857D02*
X235259342Y-41698095D01*
X235259342Y-41698095D02*
X235068866Y-41793333D01*
X235068866Y-41793333D02*
X234878390Y-41793333D01*
X234878390Y-41793333D02*
X234687914Y-41698095D01*
X234687914Y-41698095D02*
X234592676Y-41602857D01*
X234592676Y-41602857D02*
X234497438Y-41412381D01*
X234497438Y-41412381D02*
X234497438Y-40936190D01*
X234497438Y-40936190D02*
X234592676Y-40650476D01*
X234497438Y-40079047D02*
X234497438Y-38936190D01*
X236497438Y-39507619D02*
X234497438Y-39507619D01*
X234497438Y-37888571D02*
X234497438Y-37507618D01*
X234497438Y-37507618D02*
X234592676Y-37317142D01*
X234592676Y-37317142D02*
X234783152Y-37126666D01*
X234783152Y-37126666D02*
X235164104Y-37031428D01*
X235164104Y-37031428D02*
X235830771Y-37031428D01*
X235830771Y-37031428D02*
X236211723Y-37126666D01*
X236211723Y-37126666D02*
X236402200Y-37317142D01*
X236402200Y-37317142D02*
X236497438Y-37507618D01*
X236497438Y-37507618D02*
X236497438Y-37888571D01*
X236497438Y-37888571D02*
X236402200Y-38079047D01*
X236402200Y-38079047D02*
X236211723Y-38269523D01*
X236211723Y-38269523D02*
X235830771Y-38364761D01*
X235830771Y-38364761D02*
X235164104Y-38364761D01*
X235164104Y-38364761D02*
X234783152Y-38269523D01*
X234783152Y-38269523D02*
X234592676Y-38079047D01*
X234592676Y-38079047D02*
X234497438Y-37888571D01*
X236497438Y-36174285D02*
X234497438Y-36174285D01*
X234497438Y-36174285D02*
X234497438Y-35412380D01*
X234497438Y-35412380D02*
X234592676Y-35221904D01*
X234592676Y-35221904D02*
X234687914Y-35126666D01*
X234687914Y-35126666D02*
X234878390Y-35031428D01*
X234878390Y-35031428D02*
X235164104Y-35031428D01*
X235164104Y-35031428D02*
X235354580Y-35126666D01*
X235354580Y-35126666D02*
X235449819Y-35221904D01*
X235449819Y-35221904D02*
X235545057Y-35412380D01*
X235545057Y-35412380D02*
X235545057Y-36174285D01*
X236497438Y-33126666D02*
X236497438Y-34269523D01*
X236497438Y-33698095D02*
X234497438Y-33698095D01*
X234497438Y-33698095D02*
X234783152Y-33888571D01*
X234783152Y-33888571D02*
X234973628Y-34079047D01*
X234973628Y-34079047D02*
X235068866Y-34269523D01*
X79643333Y-114994819D02*
X79310000Y-114518628D01*
X79071905Y-114994819D02*
X79071905Y-113994819D01*
X79071905Y-113994819D02*
X79452857Y-113994819D01*
X79452857Y-113994819D02*
X79548095Y-114042438D01*
X79548095Y-114042438D02*
X79595714Y-114090057D01*
X79595714Y-114090057D02*
X79643333Y-114185295D01*
X79643333Y-114185295D02*
X79643333Y-114328152D01*
X79643333Y-114328152D02*
X79595714Y-114423390D01*
X79595714Y-114423390D02*
X79548095Y-114471009D01*
X79548095Y-114471009D02*
X79452857Y-114518628D01*
X79452857Y-114518628D02*
X79071905Y-114518628D01*
X79976667Y-113994819D02*
X80595714Y-113994819D01*
X80595714Y-113994819D02*
X80262381Y-114375771D01*
X80262381Y-114375771D02*
X80405238Y-114375771D01*
X80405238Y-114375771D02*
X80500476Y-114423390D01*
X80500476Y-114423390D02*
X80548095Y-114471009D01*
X80548095Y-114471009D02*
X80595714Y-114566247D01*
X80595714Y-114566247D02*
X80595714Y-114804342D01*
X80595714Y-114804342D02*
X80548095Y-114899580D01*
X80548095Y-114899580D02*
X80500476Y-114947200D01*
X80500476Y-114947200D02*
X80405238Y-114994819D01*
X80405238Y-114994819D02*
X80119524Y-114994819D01*
X80119524Y-114994819D02*
X80024286Y-114947200D01*
X80024286Y-114947200D02*
X79976667Y-114899580D01*
X128423333Y-114604819D02*
X128090000Y-114128628D01*
X127851905Y-114604819D02*
X127851905Y-113604819D01*
X127851905Y-113604819D02*
X128232857Y-113604819D01*
X128232857Y-113604819D02*
X128328095Y-113652438D01*
X128328095Y-113652438D02*
X128375714Y-113700057D01*
X128375714Y-113700057D02*
X128423333Y-113795295D01*
X128423333Y-113795295D02*
X128423333Y-113938152D01*
X128423333Y-113938152D02*
X128375714Y-114033390D01*
X128375714Y-114033390D02*
X128328095Y-114081009D01*
X128328095Y-114081009D02*
X128232857Y-114128628D01*
X128232857Y-114128628D02*
X127851905Y-114128628D01*
X129280476Y-113604819D02*
X129090000Y-113604819D01*
X129090000Y-113604819D02*
X128994762Y-113652438D01*
X128994762Y-113652438D02*
X128947143Y-113700057D01*
X128947143Y-113700057D02*
X128851905Y-113842914D01*
X128851905Y-113842914D02*
X128804286Y-114033390D01*
X128804286Y-114033390D02*
X128804286Y-114414342D01*
X128804286Y-114414342D02*
X128851905Y-114509580D01*
X128851905Y-114509580D02*
X128899524Y-114557200D01*
X128899524Y-114557200D02*
X128994762Y-114604819D01*
X128994762Y-114604819D02*
X129185238Y-114604819D01*
X129185238Y-114604819D02*
X129280476Y-114557200D01*
X129280476Y-114557200D02*
X129328095Y-114509580D01*
X129328095Y-114509580D02*
X129375714Y-114414342D01*
X129375714Y-114414342D02*
X129375714Y-114176247D01*
X129375714Y-114176247D02*
X129328095Y-114081009D01*
X129328095Y-114081009D02*
X129280476Y-114033390D01*
X129280476Y-114033390D02*
X129185238Y-113985771D01*
X129185238Y-113985771D02*
X128994762Y-113985771D01*
X128994762Y-113985771D02*
X128899524Y-114033390D01*
X128899524Y-114033390D02*
X128851905Y-114081009D01*
X128851905Y-114081009D02*
X128804286Y-114176247D01*
X34273809Y-113947438D02*
X34273809Y-111947438D01*
X34273809Y-111947438D02*
X34749999Y-111947438D01*
X34749999Y-111947438D02*
X35035714Y-112042676D01*
X35035714Y-112042676D02*
X35226190Y-112233152D01*
X35226190Y-112233152D02*
X35321428Y-112423628D01*
X35321428Y-112423628D02*
X35416666Y-112804580D01*
X35416666Y-112804580D02*
X35416666Y-113090295D01*
X35416666Y-113090295D02*
X35321428Y-113471247D01*
X35321428Y-113471247D02*
X35226190Y-113661723D01*
X35226190Y-113661723D02*
X35035714Y-113852200D01*
X35035714Y-113852200D02*
X34749999Y-113947438D01*
X34749999Y-113947438D02*
X34273809Y-113947438D01*
X37226190Y-111947438D02*
X36273809Y-111947438D01*
X36273809Y-111947438D02*
X36178571Y-112899819D01*
X36178571Y-112899819D02*
X36273809Y-112804580D01*
X36273809Y-112804580D02*
X36464285Y-112709342D01*
X36464285Y-112709342D02*
X36940476Y-112709342D01*
X36940476Y-112709342D02*
X37130952Y-112804580D01*
X37130952Y-112804580D02*
X37226190Y-112899819D01*
X37226190Y-112899819D02*
X37321428Y-113090295D01*
X37321428Y-113090295D02*
X37321428Y-113566485D01*
X37321428Y-113566485D02*
X37226190Y-113756961D01*
X37226190Y-113756961D02*
X37130952Y-113852200D01*
X37130952Y-113852200D02*
X36940476Y-113947438D01*
X36940476Y-113947438D02*
X36464285Y-113947438D01*
X36464285Y-113947438D02*
X36273809Y-113852200D01*
X36273809Y-113852200D02*
X36178571Y-113756961D01*
X107603333Y-116054819D02*
X107270000Y-115578628D01*
X107031905Y-116054819D02*
X107031905Y-115054819D01*
X107031905Y-115054819D02*
X107412857Y-115054819D01*
X107412857Y-115054819D02*
X107508095Y-115102438D01*
X107508095Y-115102438D02*
X107555714Y-115150057D01*
X107555714Y-115150057D02*
X107603333Y-115245295D01*
X107603333Y-115245295D02*
X107603333Y-115388152D01*
X107603333Y-115388152D02*
X107555714Y-115483390D01*
X107555714Y-115483390D02*
X107508095Y-115531009D01*
X107508095Y-115531009D02*
X107412857Y-115578628D01*
X107412857Y-115578628D02*
X107031905Y-115578628D01*
X108460476Y-115388152D02*
X108460476Y-116054819D01*
X108222381Y-115007200D02*
X107984286Y-115721485D01*
X107984286Y-115721485D02*
X108603333Y-115721485D01*
X142057142Y-113516961D02*
X141961904Y-113612200D01*
X141961904Y-113612200D02*
X141676190Y-113707438D01*
X141676190Y-113707438D02*
X141485714Y-113707438D01*
X141485714Y-113707438D02*
X141199999Y-113612200D01*
X141199999Y-113612200D02*
X141009523Y-113421723D01*
X141009523Y-113421723D02*
X140914285Y-113231247D01*
X140914285Y-113231247D02*
X140819047Y-112850295D01*
X140819047Y-112850295D02*
X140819047Y-112564580D01*
X140819047Y-112564580D02*
X140914285Y-112183628D01*
X140914285Y-112183628D02*
X141009523Y-111993152D01*
X141009523Y-111993152D02*
X141199999Y-111802676D01*
X141199999Y-111802676D02*
X141485714Y-111707438D01*
X141485714Y-111707438D02*
X141676190Y-111707438D01*
X141676190Y-111707438D02*
X141961904Y-111802676D01*
X141961904Y-111802676D02*
X142057142Y-111897914D01*
X142914285Y-113707438D02*
X142914285Y-111707438D01*
X142914285Y-111707438D02*
X144057142Y-113707438D01*
X144057142Y-113707438D02*
X144057142Y-111707438D01*
X144723809Y-111707438D02*
X145866666Y-111707438D01*
X145295237Y-113707438D02*
X145295237Y-111707438D01*
X147580952Y-113707438D02*
X146438095Y-113707438D01*
X147009523Y-113707438D02*
X147009523Y-111707438D01*
X147009523Y-111707438D02*
X146819047Y-111993152D01*
X146819047Y-111993152D02*
X146628571Y-112183628D01*
X146628571Y-112183628D02*
X146438095Y-112278866D01*
X197738571Y-116747438D02*
X197738571Y-114747438D01*
X197738571Y-114747438D02*
X198405238Y-116176009D01*
X198405238Y-116176009D02*
X199071904Y-114747438D01*
X199071904Y-114747438D02*
X199071904Y-116747438D01*
X200024285Y-116747438D02*
X200024285Y-114747438D01*
X200024285Y-114747438D02*
X200786190Y-114747438D01*
X200786190Y-114747438D02*
X200976666Y-114842676D01*
X200976666Y-114842676D02*
X201071904Y-114937914D01*
X201071904Y-114937914D02*
X201167142Y-115128390D01*
X201167142Y-115128390D02*
X201167142Y-115414104D01*
X201167142Y-115414104D02*
X201071904Y-115604580D01*
X201071904Y-115604580D02*
X200976666Y-115699819D01*
X200976666Y-115699819D02*
X200786190Y-115795057D01*
X200786190Y-115795057D02*
X200024285Y-115795057D01*
X201833809Y-114747438D02*
X203167142Y-116747438D01*
X203167142Y-114747438D02*
X201833809Y-116747438D01*
X205071904Y-116747438D02*
X204405237Y-115795057D01*
X203929047Y-116747438D02*
X203929047Y-114747438D01*
X203929047Y-114747438D02*
X204690952Y-114747438D01*
X204690952Y-114747438D02*
X204881428Y-114842676D01*
X204881428Y-114842676D02*
X204976666Y-114937914D01*
X204976666Y-114937914D02*
X205071904Y-115128390D01*
X205071904Y-115128390D02*
X205071904Y-115414104D01*
X205071904Y-115414104D02*
X204976666Y-115604580D01*
X204976666Y-115604580D02*
X204881428Y-115699819D01*
X204881428Y-115699819D02*
X204690952Y-115795057D01*
X204690952Y-115795057D02*
X203929047Y-115795057D01*
X206976666Y-116747438D02*
X205833809Y-116747438D01*
X206405237Y-116747438D02*
X206405237Y-114747438D01*
X206405237Y-114747438D02*
X206214761Y-115033152D01*
X206214761Y-115033152D02*
X206024285Y-115223628D01*
X206024285Y-115223628D02*
X205833809Y-115318866D01*
X104523333Y-122614819D02*
X104190000Y-122138628D01*
X103951905Y-122614819D02*
X103951905Y-121614819D01*
X103951905Y-121614819D02*
X104332857Y-121614819D01*
X104332857Y-121614819D02*
X104428095Y-121662438D01*
X104428095Y-121662438D02*
X104475714Y-121710057D01*
X104475714Y-121710057D02*
X104523333Y-121805295D01*
X104523333Y-121805295D02*
X104523333Y-121948152D01*
X104523333Y-121948152D02*
X104475714Y-122043390D01*
X104475714Y-122043390D02*
X104428095Y-122091009D01*
X104428095Y-122091009D02*
X104332857Y-122138628D01*
X104332857Y-122138628D02*
X103951905Y-122138628D01*
X105428095Y-121614819D02*
X104951905Y-121614819D01*
X104951905Y-121614819D02*
X104904286Y-122091009D01*
X104904286Y-122091009D02*
X104951905Y-122043390D01*
X104951905Y-122043390D02*
X105047143Y-121995771D01*
X105047143Y-121995771D02*
X105285238Y-121995771D01*
X105285238Y-121995771D02*
X105380476Y-122043390D01*
X105380476Y-122043390D02*
X105428095Y-122091009D01*
X105428095Y-122091009D02*
X105475714Y-122186247D01*
X105475714Y-122186247D02*
X105475714Y-122424342D01*
X105475714Y-122424342D02*
X105428095Y-122519580D01*
X105428095Y-122519580D02*
X105380476Y-122567200D01*
X105380476Y-122567200D02*
X105285238Y-122614819D01*
X105285238Y-122614819D02*
X105047143Y-122614819D01*
X105047143Y-122614819D02*
X104951905Y-122567200D01*
X104951905Y-122567200D02*
X104904286Y-122519580D01*
X171481904Y-98846009D02*
X172434285Y-98846009D01*
X171291428Y-99417438D02*
X171958094Y-97417438D01*
X171958094Y-97417438D02*
X172624761Y-99417438D01*
X174243809Y-99417438D02*
X173291428Y-99417438D01*
X173291428Y-99417438D02*
X173291428Y-97417438D01*
X175958095Y-99417438D02*
X174815238Y-99417438D01*
X175386666Y-99417438D02*
X175386666Y-97417438D01*
X175386666Y-97417438D02*
X175196190Y-97703152D01*
X175196190Y-97703152D02*
X175005714Y-97893628D01*
X175005714Y-97893628D02*
X174815238Y-97988866D01*
X255684761Y-64226961D02*
X255589523Y-64322200D01*
X255589523Y-64322200D02*
X255303809Y-64417438D01*
X255303809Y-64417438D02*
X255113333Y-64417438D01*
X255113333Y-64417438D02*
X254827618Y-64322200D01*
X254827618Y-64322200D02*
X254637142Y-64131723D01*
X254637142Y-64131723D02*
X254541904Y-63941247D01*
X254541904Y-63941247D02*
X254446666Y-63560295D01*
X254446666Y-63560295D02*
X254446666Y-63274580D01*
X254446666Y-63274580D02*
X254541904Y-62893628D01*
X254541904Y-62893628D02*
X254637142Y-62703152D01*
X254637142Y-62703152D02*
X254827618Y-62512676D01*
X254827618Y-62512676D02*
X255113333Y-62417438D01*
X255113333Y-62417438D02*
X255303809Y-62417438D01*
X255303809Y-62417438D02*
X255589523Y-62512676D01*
X255589523Y-62512676D02*
X255684761Y-62607914D01*
X256065714Y-64607914D02*
X257589523Y-64607914D01*
X259208571Y-64417438D02*
X258541904Y-63465057D01*
X258065714Y-64417438D02*
X258065714Y-62417438D01*
X258065714Y-62417438D02*
X258827619Y-62417438D01*
X258827619Y-62417438D02*
X259018095Y-62512676D01*
X259018095Y-62512676D02*
X259113333Y-62607914D01*
X259113333Y-62607914D02*
X259208571Y-62798390D01*
X259208571Y-62798390D02*
X259208571Y-63084104D01*
X259208571Y-63084104D02*
X259113333Y-63274580D01*
X259113333Y-63274580D02*
X259018095Y-63369819D01*
X259018095Y-63369819D02*
X258827619Y-63465057D01*
X258827619Y-63465057D02*
X258065714Y-63465057D01*
X259970476Y-63846009D02*
X260922857Y-63846009D01*
X259780000Y-64417438D02*
X260446666Y-62417438D01*
X260446666Y-62417438D02*
X261113333Y-64417438D01*
X261780000Y-64417438D02*
X261780000Y-62417438D01*
X261780000Y-62417438D02*
X262446667Y-63846009D01*
X262446667Y-63846009D02*
X263113333Y-62417438D01*
X263113333Y-62417438D02*
X263113333Y-64417438D01*
X265113333Y-64417438D02*
X263970476Y-64417438D01*
X264541904Y-64417438D02*
X264541904Y-62417438D01*
X264541904Y-62417438D02*
X264351428Y-62703152D01*
X264351428Y-62703152D02*
X264160952Y-62893628D01*
X264160952Y-62893628D02*
X263970476Y-62988866D01*
X172456666Y-81377438D02*
X171504285Y-81377438D01*
X171504285Y-81377438D02*
X171504285Y-79377438D01*
X173123333Y-81377438D02*
X173123333Y-79377438D01*
X173123333Y-79377438D02*
X173885238Y-79377438D01*
X173885238Y-79377438D02*
X174075714Y-79472676D01*
X174075714Y-79472676D02*
X174170952Y-79567914D01*
X174170952Y-79567914D02*
X174266190Y-79758390D01*
X174266190Y-79758390D02*
X174266190Y-80044104D01*
X174266190Y-80044104D02*
X174170952Y-80234580D01*
X174170952Y-80234580D02*
X174075714Y-80329819D01*
X174075714Y-80329819D02*
X173885238Y-80425057D01*
X173885238Y-80425057D02*
X173123333Y-80425057D01*
X176170952Y-81377438D02*
X175028095Y-81377438D01*
X175599523Y-81377438D02*
X175599523Y-79377438D01*
X175599523Y-79377438D02*
X175409047Y-79663152D01*
X175409047Y-79663152D02*
X175218571Y-79853628D01*
X175218571Y-79853628D02*
X175028095Y-79948866D01*
X165979580Y-128192857D02*
X166027200Y-128240476D01*
X166027200Y-128240476D02*
X166074819Y-128383333D01*
X166074819Y-128383333D02*
X166074819Y-128478571D01*
X166074819Y-128478571D02*
X166027200Y-128621428D01*
X166027200Y-128621428D02*
X165931961Y-128716666D01*
X165931961Y-128716666D02*
X165836723Y-128764285D01*
X165836723Y-128764285D02*
X165646247Y-128811904D01*
X165646247Y-128811904D02*
X165503390Y-128811904D01*
X165503390Y-128811904D02*
X165312914Y-128764285D01*
X165312914Y-128764285D02*
X165217676Y-128716666D01*
X165217676Y-128716666D02*
X165122438Y-128621428D01*
X165122438Y-128621428D02*
X165074819Y-128478571D01*
X165074819Y-128478571D02*
X165074819Y-128383333D01*
X165074819Y-128383333D02*
X165122438Y-128240476D01*
X165122438Y-128240476D02*
X165170057Y-128192857D01*
X166074819Y-127240476D02*
X166074819Y-127811904D01*
X166074819Y-127526190D02*
X165074819Y-127526190D01*
X165074819Y-127526190D02*
X165217676Y-127621428D01*
X165217676Y-127621428D02*
X165312914Y-127716666D01*
X165312914Y-127716666D02*
X165360533Y-127811904D01*
X165074819Y-126907142D02*
X165074819Y-126288095D01*
X165074819Y-126288095D02*
X165455771Y-126621428D01*
X165455771Y-126621428D02*
X165455771Y-126478571D01*
X165455771Y-126478571D02*
X165503390Y-126383333D01*
X165503390Y-126383333D02*
X165551009Y-126335714D01*
X165551009Y-126335714D02*
X165646247Y-126288095D01*
X165646247Y-126288095D02*
X165884342Y-126288095D01*
X165884342Y-126288095D02*
X165979580Y-126335714D01*
X165979580Y-126335714D02*
X166027200Y-126383333D01*
X166027200Y-126383333D02*
X166074819Y-126478571D01*
X166074819Y-126478571D02*
X166074819Y-126764285D01*
X166074819Y-126764285D02*
X166027200Y-126859523D01*
X166027200Y-126859523D02*
X165979580Y-126907142D01*
X258526666Y-140657438D02*
X257574285Y-140657438D01*
X257574285Y-140657438D02*
X257574285Y-138657438D01*
X259193333Y-140657438D02*
X259193333Y-138657438D01*
X259193333Y-138657438D02*
X259669523Y-138657438D01*
X259669523Y-138657438D02*
X259955238Y-138752676D01*
X259955238Y-138752676D02*
X260145714Y-138943152D01*
X260145714Y-138943152D02*
X260240952Y-139133628D01*
X260240952Y-139133628D02*
X260336190Y-139514580D01*
X260336190Y-139514580D02*
X260336190Y-139800295D01*
X260336190Y-139800295D02*
X260240952Y-140181247D01*
X260240952Y-140181247D02*
X260145714Y-140371723D01*
X260145714Y-140371723D02*
X259955238Y-140562200D01*
X259955238Y-140562200D02*
X259669523Y-140657438D01*
X259669523Y-140657438D02*
X259193333Y-140657438D01*
X262240952Y-140657438D02*
X261098095Y-140657438D01*
X261669523Y-140657438D02*
X261669523Y-138657438D01*
X261669523Y-138657438D02*
X261479047Y-138943152D01*
X261479047Y-138943152D02*
X261288571Y-139133628D01*
X261288571Y-139133628D02*
X261098095Y-139228866D01*
X226828095Y-135547438D02*
X226828095Y-133547438D01*
X226828095Y-133547438D02*
X227304285Y-133547438D01*
X227304285Y-133547438D02*
X227590000Y-133642676D01*
X227590000Y-133642676D02*
X227780476Y-133833152D01*
X227780476Y-133833152D02*
X227875714Y-134023628D01*
X227875714Y-134023628D02*
X227970952Y-134404580D01*
X227970952Y-134404580D02*
X227970952Y-134690295D01*
X227970952Y-134690295D02*
X227875714Y-135071247D01*
X227875714Y-135071247D02*
X227780476Y-135261723D01*
X227780476Y-135261723D02*
X227590000Y-135452200D01*
X227590000Y-135452200D02*
X227304285Y-135547438D01*
X227304285Y-135547438D02*
X226828095Y-135547438D01*
X228828095Y-135547438D02*
X228828095Y-133547438D01*
X230732857Y-135547438D02*
X229780476Y-135547438D01*
X229780476Y-135547438D02*
X229780476Y-133547438D01*
X232447143Y-135547438D02*
X231304286Y-135547438D01*
X231875714Y-135547438D02*
X231875714Y-133547438D01*
X231875714Y-133547438D02*
X231685238Y-133833152D01*
X231685238Y-133833152D02*
X231494762Y-134023628D01*
X231494762Y-134023628D02*
X231304286Y-134118866D01*
X143349047Y-93516961D02*
X143253809Y-93612200D01*
X143253809Y-93612200D02*
X142968095Y-93707438D01*
X142968095Y-93707438D02*
X142777619Y-93707438D01*
X142777619Y-93707438D02*
X142491904Y-93612200D01*
X142491904Y-93612200D02*
X142301428Y-93421723D01*
X142301428Y-93421723D02*
X142206190Y-93231247D01*
X142206190Y-93231247D02*
X142110952Y-92850295D01*
X142110952Y-92850295D02*
X142110952Y-92564580D01*
X142110952Y-92564580D02*
X142206190Y-92183628D01*
X142206190Y-92183628D02*
X142301428Y-91993152D01*
X142301428Y-91993152D02*
X142491904Y-91802676D01*
X142491904Y-91802676D02*
X142777619Y-91707438D01*
X142777619Y-91707438D02*
X142968095Y-91707438D01*
X142968095Y-91707438D02*
X143253809Y-91802676D01*
X143253809Y-91802676D02*
X143349047Y-91897914D01*
X145349047Y-93516961D02*
X145253809Y-93612200D01*
X145253809Y-93612200D02*
X144968095Y-93707438D01*
X144968095Y-93707438D02*
X144777619Y-93707438D01*
X144777619Y-93707438D02*
X144491904Y-93612200D01*
X144491904Y-93612200D02*
X144301428Y-93421723D01*
X144301428Y-93421723D02*
X144206190Y-93231247D01*
X144206190Y-93231247D02*
X144110952Y-92850295D01*
X144110952Y-92850295D02*
X144110952Y-92564580D01*
X144110952Y-92564580D02*
X144206190Y-92183628D01*
X144206190Y-92183628D02*
X144301428Y-91993152D01*
X144301428Y-91993152D02*
X144491904Y-91802676D01*
X144491904Y-91802676D02*
X144777619Y-91707438D01*
X144777619Y-91707438D02*
X144968095Y-91707438D01*
X144968095Y-91707438D02*
X145253809Y-91802676D01*
X145253809Y-91802676D02*
X145349047Y-91897914D01*
X146587142Y-91707438D02*
X146968095Y-91707438D01*
X146968095Y-91707438D02*
X147158571Y-91802676D01*
X147158571Y-91802676D02*
X147349047Y-91993152D01*
X147349047Y-91993152D02*
X147444285Y-92374104D01*
X147444285Y-92374104D02*
X147444285Y-93040771D01*
X147444285Y-93040771D02*
X147349047Y-93421723D01*
X147349047Y-93421723D02*
X147158571Y-93612200D01*
X147158571Y-93612200D02*
X146968095Y-93707438D01*
X146968095Y-93707438D02*
X146587142Y-93707438D01*
X146587142Y-93707438D02*
X146396666Y-93612200D01*
X146396666Y-93612200D02*
X146206190Y-93421723D01*
X146206190Y-93421723D02*
X146110952Y-93040771D01*
X146110952Y-93040771D02*
X146110952Y-92374104D01*
X146110952Y-92374104D02*
X146206190Y-91993152D01*
X146206190Y-91993152D02*
X146396666Y-91802676D01*
X146396666Y-91802676D02*
X146587142Y-91707438D01*
X148301428Y-93707438D02*
X148301428Y-91707438D01*
X148301428Y-91707438D02*
X149063333Y-91707438D01*
X149063333Y-91707438D02*
X149253809Y-91802676D01*
X149253809Y-91802676D02*
X149349047Y-91897914D01*
X149349047Y-91897914D02*
X149444285Y-92088390D01*
X149444285Y-92088390D02*
X149444285Y-92374104D01*
X149444285Y-92374104D02*
X149349047Y-92564580D01*
X149349047Y-92564580D02*
X149253809Y-92659819D01*
X149253809Y-92659819D02*
X149063333Y-92755057D01*
X149063333Y-92755057D02*
X148301428Y-92755057D01*
X151349047Y-93707438D02*
X150206190Y-93707438D01*
X150777618Y-93707438D02*
X150777618Y-91707438D01*
X150777618Y-91707438D02*
X150587142Y-91993152D01*
X150587142Y-91993152D02*
X150396666Y-92183628D01*
X150396666Y-92183628D02*
X150206190Y-92278866D01*
X113133333Y-113667438D02*
X113133333Y-111667438D01*
X113133333Y-111667438D02*
X113800000Y-113096009D01*
X113800000Y-113096009D02*
X114466666Y-111667438D01*
X114466666Y-111667438D02*
X114466666Y-113667438D01*
X115419047Y-113667438D02*
X115419047Y-111667438D01*
X115419047Y-111667438D02*
X116561904Y-113667438D01*
X116561904Y-113667438D02*
X116561904Y-111667438D01*
X118561904Y-113667438D02*
X117419047Y-113667438D01*
X117990475Y-113667438D02*
X117990475Y-111667438D01*
X117990475Y-111667438D02*
X117799999Y-111953152D01*
X117799999Y-111953152D02*
X117609523Y-112143628D01*
X117609523Y-112143628D02*
X117419047Y-112238866D01*
X269736961Y-40990476D02*
X269832200Y-41085714D01*
X269832200Y-41085714D02*
X269927438Y-41371428D01*
X269927438Y-41371428D02*
X269927438Y-41561904D01*
X269927438Y-41561904D02*
X269832200Y-41847619D01*
X269832200Y-41847619D02*
X269641723Y-42038095D01*
X269641723Y-42038095D02*
X269451247Y-42133333D01*
X269451247Y-42133333D02*
X269070295Y-42228571D01*
X269070295Y-42228571D02*
X268784580Y-42228571D01*
X268784580Y-42228571D02*
X268403628Y-42133333D01*
X268403628Y-42133333D02*
X268213152Y-42038095D01*
X268213152Y-42038095D02*
X268022676Y-41847619D01*
X268022676Y-41847619D02*
X267927438Y-41561904D01*
X267927438Y-41561904D02*
X267927438Y-41371428D01*
X267927438Y-41371428D02*
X268022676Y-41085714D01*
X268022676Y-41085714D02*
X268117914Y-40990476D01*
X269356009Y-40228571D02*
X269356009Y-39276190D01*
X269927438Y-40419047D02*
X267927438Y-39752381D01*
X267927438Y-39752381D02*
X269927438Y-39085714D01*
X269927438Y-38419047D02*
X267927438Y-38419047D01*
X267927438Y-38419047D02*
X267927438Y-37942857D01*
X267927438Y-37942857D02*
X268022676Y-37657142D01*
X268022676Y-37657142D02*
X268213152Y-37466666D01*
X268213152Y-37466666D02*
X268403628Y-37371428D01*
X268403628Y-37371428D02*
X268784580Y-37276190D01*
X268784580Y-37276190D02*
X269070295Y-37276190D01*
X269070295Y-37276190D02*
X269451247Y-37371428D01*
X269451247Y-37371428D02*
X269641723Y-37466666D01*
X269641723Y-37466666D02*
X269832200Y-37657142D01*
X269832200Y-37657142D02*
X269927438Y-37942857D01*
X269927438Y-37942857D02*
X269927438Y-38419047D01*
X269927438Y-36419047D02*
X267927438Y-36419047D01*
X267927438Y-36419047D02*
X267927438Y-35657142D01*
X267927438Y-35657142D02*
X268022676Y-35466666D01*
X268022676Y-35466666D02*
X268117914Y-35371428D01*
X268117914Y-35371428D02*
X268308390Y-35276190D01*
X268308390Y-35276190D02*
X268594104Y-35276190D01*
X268594104Y-35276190D02*
X268784580Y-35371428D01*
X268784580Y-35371428D02*
X268879819Y-35466666D01*
X268879819Y-35466666D02*
X268975057Y-35657142D01*
X268975057Y-35657142D02*
X268975057Y-36419047D01*
X269927438Y-33371428D02*
X269927438Y-34514285D01*
X269927438Y-33942857D02*
X267927438Y-33942857D01*
X267927438Y-33942857D02*
X268213152Y-34133333D01*
X268213152Y-34133333D02*
X268403628Y-34323809D01*
X268403628Y-34323809D02*
X268498866Y-34514285D01*
X171296666Y-114677438D02*
X172439523Y-114677438D01*
X171868094Y-116677438D02*
X171868094Y-114677438D01*
X174058571Y-116677438D02*
X173106190Y-116677438D01*
X173106190Y-116677438D02*
X173106190Y-114677438D01*
X175772857Y-116677438D02*
X174630000Y-116677438D01*
X175201428Y-116677438D02*
X175201428Y-114677438D01*
X175201428Y-114677438D02*
X175010952Y-114963152D01*
X175010952Y-114963152D02*
X174820476Y-115153628D01*
X174820476Y-115153628D02*
X174630000Y-115248866D01*
X193506009Y-63826190D02*
X193506009Y-62873809D01*
X194077438Y-64016666D02*
X192077438Y-63350000D01*
X192077438Y-63350000D02*
X194077438Y-62683333D01*
X194077438Y-62016666D02*
X192077438Y-62016666D01*
X192077438Y-62016666D02*
X194077438Y-60873809D01*
X194077438Y-60873809D02*
X192077438Y-60873809D01*
X194077438Y-58873809D02*
X194077438Y-60016666D01*
X194077438Y-59445238D02*
X192077438Y-59445238D01*
X192077438Y-59445238D02*
X192363152Y-59635714D01*
X192363152Y-59635714D02*
X192553628Y-59826190D01*
X192553628Y-59826190D02*
X192648866Y-60016666D01*
X96763333Y-114979580D02*
X96715714Y-115027200D01*
X96715714Y-115027200D02*
X96572857Y-115074819D01*
X96572857Y-115074819D02*
X96477619Y-115074819D01*
X96477619Y-115074819D02*
X96334762Y-115027200D01*
X96334762Y-115027200D02*
X96239524Y-114931961D01*
X96239524Y-114931961D02*
X96191905Y-114836723D01*
X96191905Y-114836723D02*
X96144286Y-114646247D01*
X96144286Y-114646247D02*
X96144286Y-114503390D01*
X96144286Y-114503390D02*
X96191905Y-114312914D01*
X96191905Y-114312914D02*
X96239524Y-114217676D01*
X96239524Y-114217676D02*
X96334762Y-114122438D01*
X96334762Y-114122438D02*
X96477619Y-114074819D01*
X96477619Y-114074819D02*
X96572857Y-114074819D01*
X96572857Y-114074819D02*
X96715714Y-114122438D01*
X96715714Y-114122438D02*
X96763333Y-114170057D01*
X97620476Y-114074819D02*
X97430000Y-114074819D01*
X97430000Y-114074819D02*
X97334762Y-114122438D01*
X97334762Y-114122438D02*
X97287143Y-114170057D01*
X97287143Y-114170057D02*
X97191905Y-114312914D01*
X97191905Y-114312914D02*
X97144286Y-114503390D01*
X97144286Y-114503390D02*
X97144286Y-114884342D01*
X97144286Y-114884342D02*
X97191905Y-114979580D01*
X97191905Y-114979580D02*
X97239524Y-115027200D01*
X97239524Y-115027200D02*
X97334762Y-115074819D01*
X97334762Y-115074819D02*
X97525238Y-115074819D01*
X97525238Y-115074819D02*
X97620476Y-115027200D01*
X97620476Y-115027200D02*
X97668095Y-114979580D01*
X97668095Y-114979580D02*
X97715714Y-114884342D01*
X97715714Y-114884342D02*
X97715714Y-114646247D01*
X97715714Y-114646247D02*
X97668095Y-114551009D01*
X97668095Y-114551009D02*
X97620476Y-114503390D01*
X97620476Y-114503390D02*
X97525238Y-114455771D01*
X97525238Y-114455771D02*
X97334762Y-114455771D01*
X97334762Y-114455771D02*
X97239524Y-114503390D01*
X97239524Y-114503390D02*
X97191905Y-114551009D01*
X97191905Y-114551009D02*
X97144286Y-114646247D01*
X91764819Y-70866666D02*
X91288628Y-71199999D01*
X91764819Y-71438094D02*
X90764819Y-71438094D01*
X90764819Y-71438094D02*
X90764819Y-71057142D01*
X90764819Y-71057142D02*
X90812438Y-70961904D01*
X90812438Y-70961904D02*
X90860057Y-70914285D01*
X90860057Y-70914285D02*
X90955295Y-70866666D01*
X90955295Y-70866666D02*
X91098152Y-70866666D01*
X91098152Y-70866666D02*
X91193390Y-70914285D01*
X91193390Y-70914285D02*
X91241009Y-70961904D01*
X91241009Y-70961904D02*
X91288628Y-71057142D01*
X91288628Y-71057142D02*
X91288628Y-71438094D01*
X90860057Y-70485713D02*
X90812438Y-70438094D01*
X90812438Y-70438094D02*
X90764819Y-70342856D01*
X90764819Y-70342856D02*
X90764819Y-70104761D01*
X90764819Y-70104761D02*
X90812438Y-70009523D01*
X90812438Y-70009523D02*
X90860057Y-69961904D01*
X90860057Y-69961904D02*
X90955295Y-69914285D01*
X90955295Y-69914285D02*
X91050533Y-69914285D01*
X91050533Y-69914285D02*
X91193390Y-69961904D01*
X91193390Y-69961904D02*
X91764819Y-70533332D01*
X91764819Y-70533332D02*
X91764819Y-69914285D01*
X122937438Y-63825714D02*
X120937438Y-63825714D01*
X120937438Y-63825714D02*
X120937438Y-63063809D01*
X120937438Y-63063809D02*
X121032676Y-62873333D01*
X121032676Y-62873333D02*
X121127914Y-62778095D01*
X121127914Y-62778095D02*
X121318390Y-62682857D01*
X121318390Y-62682857D02*
X121604104Y-62682857D01*
X121604104Y-62682857D02*
X121794580Y-62778095D01*
X121794580Y-62778095D02*
X121889819Y-62873333D01*
X121889819Y-62873333D02*
X121985057Y-63063809D01*
X121985057Y-63063809D02*
X121985057Y-63825714D01*
X122746961Y-60682857D02*
X122842200Y-60778095D01*
X122842200Y-60778095D02*
X122937438Y-61063809D01*
X122937438Y-61063809D02*
X122937438Y-61254285D01*
X122937438Y-61254285D02*
X122842200Y-61540000D01*
X122842200Y-61540000D02*
X122651723Y-61730476D01*
X122651723Y-61730476D02*
X122461247Y-61825714D01*
X122461247Y-61825714D02*
X122080295Y-61920952D01*
X122080295Y-61920952D02*
X121794580Y-61920952D01*
X121794580Y-61920952D02*
X121413628Y-61825714D01*
X121413628Y-61825714D02*
X121223152Y-61730476D01*
X121223152Y-61730476D02*
X121032676Y-61540000D01*
X121032676Y-61540000D02*
X120937438Y-61254285D01*
X120937438Y-61254285D02*
X120937438Y-61063809D01*
X120937438Y-61063809D02*
X121032676Y-60778095D01*
X121032676Y-60778095D02*
X121127914Y-60682857D01*
X122937438Y-58873333D02*
X122937438Y-59825714D01*
X122937438Y-59825714D02*
X120937438Y-59825714D01*
X122937438Y-57159047D02*
X122937438Y-58301904D01*
X122937438Y-57730476D02*
X120937438Y-57730476D01*
X120937438Y-57730476D02*
X121223152Y-57920952D01*
X121223152Y-57920952D02*
X121413628Y-58111428D01*
X121413628Y-58111428D02*
X121508866Y-58301904D01*
X97289580Y-53386666D02*
X97337200Y-53434285D01*
X97337200Y-53434285D02*
X97384819Y-53577142D01*
X97384819Y-53577142D02*
X97384819Y-53672380D01*
X97384819Y-53672380D02*
X97337200Y-53815237D01*
X97337200Y-53815237D02*
X97241961Y-53910475D01*
X97241961Y-53910475D02*
X97146723Y-53958094D01*
X97146723Y-53958094D02*
X96956247Y-54005713D01*
X96956247Y-54005713D02*
X96813390Y-54005713D01*
X96813390Y-54005713D02*
X96622914Y-53958094D01*
X96622914Y-53958094D02*
X96527676Y-53910475D01*
X96527676Y-53910475D02*
X96432438Y-53815237D01*
X96432438Y-53815237D02*
X96384819Y-53672380D01*
X96384819Y-53672380D02*
X96384819Y-53577142D01*
X96384819Y-53577142D02*
X96432438Y-53434285D01*
X96432438Y-53434285D02*
X96480057Y-53386666D01*
X96384819Y-53053332D02*
X96384819Y-52434285D01*
X96384819Y-52434285D02*
X96765771Y-52767618D01*
X96765771Y-52767618D02*
X96765771Y-52624761D01*
X96765771Y-52624761D02*
X96813390Y-52529523D01*
X96813390Y-52529523D02*
X96861009Y-52481904D01*
X96861009Y-52481904D02*
X96956247Y-52434285D01*
X96956247Y-52434285D02*
X97194342Y-52434285D01*
X97194342Y-52434285D02*
X97289580Y-52481904D01*
X97289580Y-52481904D02*
X97337200Y-52529523D01*
X97337200Y-52529523D02*
X97384819Y-52624761D01*
X97384819Y-52624761D02*
X97384819Y-52910475D01*
X97384819Y-52910475D02*
X97337200Y-53005713D01*
X97337200Y-53005713D02*
X97289580Y-53053332D01*
X206536009Y-41520952D02*
X206536009Y-40568571D01*
X207107438Y-41711428D02*
X205107438Y-41044762D01*
X205107438Y-41044762D02*
X207107438Y-40378095D01*
X207012200Y-39806666D02*
X207107438Y-39520952D01*
X207107438Y-39520952D02*
X207107438Y-39044761D01*
X207107438Y-39044761D02*
X207012200Y-38854285D01*
X207012200Y-38854285D02*
X206916961Y-38759047D01*
X206916961Y-38759047D02*
X206726485Y-38663809D01*
X206726485Y-38663809D02*
X206536009Y-38663809D01*
X206536009Y-38663809D02*
X206345533Y-38759047D01*
X206345533Y-38759047D02*
X206250295Y-38854285D01*
X206250295Y-38854285D02*
X206155057Y-39044761D01*
X206155057Y-39044761D02*
X206059819Y-39425714D01*
X206059819Y-39425714D02*
X205964580Y-39616190D01*
X205964580Y-39616190D02*
X205869342Y-39711428D01*
X205869342Y-39711428D02*
X205678866Y-39806666D01*
X205678866Y-39806666D02*
X205488390Y-39806666D01*
X205488390Y-39806666D02*
X205297914Y-39711428D01*
X205297914Y-39711428D02*
X205202676Y-39616190D01*
X205202676Y-39616190D02*
X205107438Y-39425714D01*
X205107438Y-39425714D02*
X205107438Y-38949523D01*
X205107438Y-38949523D02*
X205202676Y-38663809D01*
X207107438Y-36663809D02*
X206155057Y-37330476D01*
X207107438Y-37806666D02*
X205107438Y-37806666D01*
X205107438Y-37806666D02*
X205107438Y-37044761D01*
X205107438Y-37044761D02*
X205202676Y-36854285D01*
X205202676Y-36854285D02*
X205297914Y-36759047D01*
X205297914Y-36759047D02*
X205488390Y-36663809D01*
X205488390Y-36663809D02*
X205774104Y-36663809D01*
X205774104Y-36663809D02*
X205964580Y-36759047D01*
X205964580Y-36759047D02*
X206059819Y-36854285D01*
X206059819Y-36854285D02*
X206155057Y-37044761D01*
X206155057Y-37044761D02*
X206155057Y-37806666D01*
X207107438Y-35806666D02*
X205107438Y-35806666D01*
X205107438Y-35806666D02*
X205107438Y-35044761D01*
X205107438Y-35044761D02*
X205202676Y-34854285D01*
X205202676Y-34854285D02*
X205297914Y-34759047D01*
X205297914Y-34759047D02*
X205488390Y-34663809D01*
X205488390Y-34663809D02*
X205774104Y-34663809D01*
X205774104Y-34663809D02*
X205964580Y-34759047D01*
X205964580Y-34759047D02*
X206059819Y-34854285D01*
X206059819Y-34854285D02*
X206155057Y-35044761D01*
X206155057Y-35044761D02*
X206155057Y-35806666D01*
X207107438Y-32759047D02*
X207107438Y-33901904D01*
X207107438Y-33330476D02*
X205107438Y-33330476D01*
X205107438Y-33330476D02*
X205393152Y-33520952D01*
X205393152Y-33520952D02*
X205583628Y-33711428D01*
X205583628Y-33711428D02*
X205678866Y-33901904D01*
X200786666Y-135727438D02*
X200119999Y-134775057D01*
X199643809Y-135727438D02*
X199643809Y-133727438D01*
X199643809Y-133727438D02*
X200405714Y-133727438D01*
X200405714Y-133727438D02*
X200596190Y-133822676D01*
X200596190Y-133822676D02*
X200691428Y-133917914D01*
X200691428Y-133917914D02*
X200786666Y-134108390D01*
X200786666Y-134108390D02*
X200786666Y-134394104D01*
X200786666Y-134394104D02*
X200691428Y-134584580D01*
X200691428Y-134584580D02*
X200596190Y-134679819D01*
X200596190Y-134679819D02*
X200405714Y-134775057D01*
X200405714Y-134775057D02*
X199643809Y-134775057D01*
X201643809Y-135727438D02*
X201643809Y-133727438D01*
X201643809Y-133727438D02*
X202119999Y-133727438D01*
X202119999Y-133727438D02*
X202405714Y-133822676D01*
X202405714Y-133822676D02*
X202596190Y-134013152D01*
X202596190Y-134013152D02*
X202691428Y-134203628D01*
X202691428Y-134203628D02*
X202786666Y-134584580D01*
X202786666Y-134584580D02*
X202786666Y-134870295D01*
X202786666Y-134870295D02*
X202691428Y-135251247D01*
X202691428Y-135251247D02*
X202596190Y-135441723D01*
X202596190Y-135441723D02*
X202405714Y-135632200D01*
X202405714Y-135632200D02*
X202119999Y-135727438D01*
X202119999Y-135727438D02*
X201643809Y-135727438D01*
X204691428Y-135727438D02*
X203548571Y-135727438D01*
X204119999Y-135727438D02*
X204119999Y-133727438D01*
X204119999Y-133727438D02*
X203929523Y-134013152D01*
X203929523Y-134013152D02*
X203739047Y-134203628D01*
X203739047Y-134203628D02*
X203548571Y-134298866D01*
X84934285Y-135192200D02*
X85219999Y-135287438D01*
X85219999Y-135287438D02*
X85696190Y-135287438D01*
X85696190Y-135287438D02*
X85886666Y-135192200D01*
X85886666Y-135192200D02*
X85981904Y-135096961D01*
X85981904Y-135096961D02*
X86077142Y-134906485D01*
X86077142Y-134906485D02*
X86077142Y-134716009D01*
X86077142Y-134716009D02*
X85981904Y-134525533D01*
X85981904Y-134525533D02*
X85886666Y-134430295D01*
X85886666Y-134430295D02*
X85696190Y-134335057D01*
X85696190Y-134335057D02*
X85315237Y-134239819D01*
X85315237Y-134239819D02*
X85124761Y-134144580D01*
X85124761Y-134144580D02*
X85029523Y-134049342D01*
X85029523Y-134049342D02*
X84934285Y-133858866D01*
X84934285Y-133858866D02*
X84934285Y-133668390D01*
X84934285Y-133668390D02*
X85029523Y-133477914D01*
X85029523Y-133477914D02*
X85124761Y-133382676D01*
X85124761Y-133382676D02*
X85315237Y-133287438D01*
X85315237Y-133287438D02*
X85791428Y-133287438D01*
X85791428Y-133287438D02*
X86077142Y-133382676D01*
X86648571Y-133287438D02*
X87791428Y-133287438D01*
X87219999Y-135287438D02*
X87219999Y-133287438D01*
X89505714Y-135287438D02*
X88362857Y-135287438D01*
X88934285Y-135287438D02*
X88934285Y-133287438D01*
X88934285Y-133287438D02*
X88743809Y-133573152D01*
X88743809Y-133573152D02*
X88553333Y-133763628D01*
X88553333Y-133763628D02*
X88362857Y-133858866D01*
X254531904Y-79997438D02*
X254531904Y-77997438D01*
X254531904Y-77997438D02*
X255008094Y-77997438D01*
X255008094Y-77997438D02*
X255293809Y-78092676D01*
X255293809Y-78092676D02*
X255484285Y-78283152D01*
X255484285Y-78283152D02*
X255579523Y-78473628D01*
X255579523Y-78473628D02*
X255674761Y-78854580D01*
X255674761Y-78854580D02*
X255674761Y-79140295D01*
X255674761Y-79140295D02*
X255579523Y-79521247D01*
X255579523Y-79521247D02*
X255484285Y-79711723D01*
X255484285Y-79711723D02*
X255293809Y-79902200D01*
X255293809Y-79902200D02*
X255008094Y-79997438D01*
X255008094Y-79997438D02*
X254531904Y-79997438D01*
X256055714Y-80187914D02*
X257579523Y-80187914D01*
X259198571Y-79997438D02*
X258531904Y-79045057D01*
X258055714Y-79997438D02*
X258055714Y-77997438D01*
X258055714Y-77997438D02*
X258817619Y-77997438D01*
X258817619Y-77997438D02*
X259008095Y-78092676D01*
X259008095Y-78092676D02*
X259103333Y-78187914D01*
X259103333Y-78187914D02*
X259198571Y-78378390D01*
X259198571Y-78378390D02*
X259198571Y-78664104D01*
X259198571Y-78664104D02*
X259103333Y-78854580D01*
X259103333Y-78854580D02*
X259008095Y-78949819D01*
X259008095Y-78949819D02*
X258817619Y-79045057D01*
X258817619Y-79045057D02*
X258055714Y-79045057D01*
X259960476Y-79426009D02*
X260912857Y-79426009D01*
X259770000Y-79997438D02*
X260436666Y-77997438D01*
X260436666Y-77997438D02*
X261103333Y-79997438D01*
X261770000Y-79997438D02*
X261770000Y-77997438D01*
X261770000Y-77997438D02*
X262436667Y-79426009D01*
X262436667Y-79426009D02*
X263103333Y-77997438D01*
X263103333Y-77997438D02*
X263103333Y-79997438D01*
X265103333Y-79997438D02*
X263960476Y-79997438D01*
X264531904Y-79997438D02*
X264531904Y-77997438D01*
X264531904Y-77997438D02*
X264341428Y-78283152D01*
X264341428Y-78283152D02*
X264150952Y-78473628D01*
X264150952Y-78473628D02*
X263960476Y-78568866D01*
X92489580Y-43586666D02*
X92537200Y-43634285D01*
X92537200Y-43634285D02*
X92584819Y-43777142D01*
X92584819Y-43777142D02*
X92584819Y-43872380D01*
X92584819Y-43872380D02*
X92537200Y-44015237D01*
X92537200Y-44015237D02*
X92441961Y-44110475D01*
X92441961Y-44110475D02*
X92346723Y-44158094D01*
X92346723Y-44158094D02*
X92156247Y-44205713D01*
X92156247Y-44205713D02*
X92013390Y-44205713D01*
X92013390Y-44205713D02*
X91822914Y-44158094D01*
X91822914Y-44158094D02*
X91727676Y-44110475D01*
X91727676Y-44110475D02*
X91632438Y-44015237D01*
X91632438Y-44015237D02*
X91584819Y-43872380D01*
X91584819Y-43872380D02*
X91584819Y-43777142D01*
X91584819Y-43777142D02*
X91632438Y-43634285D01*
X91632438Y-43634285D02*
X91680057Y-43586666D01*
X91680057Y-43205713D02*
X91632438Y-43158094D01*
X91632438Y-43158094D02*
X91584819Y-43062856D01*
X91584819Y-43062856D02*
X91584819Y-42824761D01*
X91584819Y-42824761D02*
X91632438Y-42729523D01*
X91632438Y-42729523D02*
X91680057Y-42681904D01*
X91680057Y-42681904D02*
X91775295Y-42634285D01*
X91775295Y-42634285D02*
X91870533Y-42634285D01*
X91870533Y-42634285D02*
X92013390Y-42681904D01*
X92013390Y-42681904D02*
X92584819Y-43253332D01*
X92584819Y-43253332D02*
X92584819Y-42634285D01*
X84883809Y-111907438D02*
X86121904Y-111907438D01*
X86121904Y-111907438D02*
X85455237Y-112669342D01*
X85455237Y-112669342D02*
X85740952Y-112669342D01*
X85740952Y-112669342D02*
X85931428Y-112764580D01*
X85931428Y-112764580D02*
X86026666Y-112859819D01*
X86026666Y-112859819D02*
X86121904Y-113050295D01*
X86121904Y-113050295D02*
X86121904Y-113526485D01*
X86121904Y-113526485D02*
X86026666Y-113716961D01*
X86026666Y-113716961D02*
X85931428Y-113812200D01*
X85931428Y-113812200D02*
X85740952Y-113907438D01*
X85740952Y-113907438D02*
X85169523Y-113907438D01*
X85169523Y-113907438D02*
X84979047Y-113812200D01*
X84979047Y-113812200D02*
X84883809Y-113716961D01*
X86883809Y-113336009D02*
X87836190Y-113336009D01*
X86693333Y-113907438D02*
X87359999Y-111907438D01*
X87359999Y-111907438D02*
X88026666Y-113907438D01*
X89740952Y-113907438D02*
X88598095Y-113907438D01*
X89169523Y-113907438D02*
X89169523Y-111907438D01*
X89169523Y-111907438D02*
X88979047Y-112193152D01*
X88979047Y-112193152D02*
X88788571Y-112383628D01*
X88788571Y-112383628D02*
X88598095Y-112478866D01*
X189646961Y-40418571D02*
X189742200Y-40513809D01*
X189742200Y-40513809D02*
X189837438Y-40799523D01*
X189837438Y-40799523D02*
X189837438Y-40989999D01*
X189837438Y-40989999D02*
X189742200Y-41275714D01*
X189742200Y-41275714D02*
X189551723Y-41466190D01*
X189551723Y-41466190D02*
X189361247Y-41561428D01*
X189361247Y-41561428D02*
X188980295Y-41656666D01*
X188980295Y-41656666D02*
X188694580Y-41656666D01*
X188694580Y-41656666D02*
X188313628Y-41561428D01*
X188313628Y-41561428D02*
X188123152Y-41466190D01*
X188123152Y-41466190D02*
X187932676Y-41275714D01*
X187932676Y-41275714D02*
X187837438Y-40989999D01*
X187837438Y-40989999D02*
X187837438Y-40799523D01*
X187837438Y-40799523D02*
X187932676Y-40513809D01*
X187932676Y-40513809D02*
X188027914Y-40418571D01*
X187837438Y-39180476D02*
X187837438Y-38799523D01*
X187837438Y-38799523D02*
X187932676Y-38609047D01*
X187932676Y-38609047D02*
X188123152Y-38418571D01*
X188123152Y-38418571D02*
X188504104Y-38323333D01*
X188504104Y-38323333D02*
X189170771Y-38323333D01*
X189170771Y-38323333D02*
X189551723Y-38418571D01*
X189551723Y-38418571D02*
X189742200Y-38609047D01*
X189742200Y-38609047D02*
X189837438Y-38799523D01*
X189837438Y-38799523D02*
X189837438Y-39180476D01*
X189837438Y-39180476D02*
X189742200Y-39370952D01*
X189742200Y-39370952D02*
X189551723Y-39561428D01*
X189551723Y-39561428D02*
X189170771Y-39656666D01*
X189170771Y-39656666D02*
X188504104Y-39656666D01*
X188504104Y-39656666D02*
X188123152Y-39561428D01*
X188123152Y-39561428D02*
X187932676Y-39370952D01*
X187932676Y-39370952D02*
X187837438Y-39180476D01*
X189837438Y-37466190D02*
X187837438Y-37466190D01*
X187837438Y-37466190D02*
X189837438Y-36323333D01*
X189837438Y-36323333D02*
X187837438Y-36323333D01*
X189837438Y-35370952D02*
X187837438Y-35370952D01*
X187837438Y-35370952D02*
X187837438Y-34609047D01*
X187837438Y-34609047D02*
X187932676Y-34418571D01*
X187932676Y-34418571D02*
X188027914Y-34323333D01*
X188027914Y-34323333D02*
X188218390Y-34228095D01*
X188218390Y-34228095D02*
X188504104Y-34228095D01*
X188504104Y-34228095D02*
X188694580Y-34323333D01*
X188694580Y-34323333D02*
X188789819Y-34418571D01*
X188789819Y-34418571D02*
X188885057Y-34609047D01*
X188885057Y-34609047D02*
X188885057Y-35370952D01*
X189837438Y-32323333D02*
X189837438Y-33466190D01*
X189837438Y-32894762D02*
X187837438Y-32894762D01*
X187837438Y-32894762D02*
X188123152Y-33085238D01*
X188123152Y-33085238D02*
X188313628Y-33275714D01*
X188313628Y-33275714D02*
X188408866Y-33466190D01*
X258516666Y-125377438D02*
X257849999Y-124425057D01*
X257373809Y-125377438D02*
X257373809Y-123377438D01*
X257373809Y-123377438D02*
X258135714Y-123377438D01*
X258135714Y-123377438D02*
X258326190Y-123472676D01*
X258326190Y-123472676D02*
X258421428Y-123567914D01*
X258421428Y-123567914D02*
X258516666Y-123758390D01*
X258516666Y-123758390D02*
X258516666Y-124044104D01*
X258516666Y-124044104D02*
X258421428Y-124234580D01*
X258421428Y-124234580D02*
X258326190Y-124329819D01*
X258326190Y-124329819D02*
X258135714Y-124425057D01*
X258135714Y-124425057D02*
X257373809Y-124425057D01*
X259373809Y-125377438D02*
X259373809Y-123377438D01*
X259373809Y-123377438D02*
X260135714Y-123377438D01*
X260135714Y-123377438D02*
X260326190Y-123472676D01*
X260326190Y-123472676D02*
X260421428Y-123567914D01*
X260421428Y-123567914D02*
X260516666Y-123758390D01*
X260516666Y-123758390D02*
X260516666Y-124044104D01*
X260516666Y-124044104D02*
X260421428Y-124234580D01*
X260421428Y-124234580D02*
X260326190Y-124329819D01*
X260326190Y-124329819D02*
X260135714Y-124425057D01*
X260135714Y-124425057D02*
X259373809Y-124425057D01*
X262421428Y-125377438D02*
X261278571Y-125377438D01*
X261849999Y-125377438D02*
X261849999Y-123377438D01*
X261849999Y-123377438D02*
X261659523Y-123663152D01*
X261659523Y-123663152D02*
X261469047Y-123853628D01*
X261469047Y-123853628D02*
X261278571Y-123948866D01*
X114696190Y-92109819D02*
X114029523Y-92109819D01*
X114029523Y-93157438D02*
X114029523Y-91157438D01*
X114029523Y-91157438D02*
X114981904Y-91157438D01*
X115648571Y-92586009D02*
X116600952Y-92586009D01*
X115458095Y-93157438D02*
X116124761Y-91157438D01*
X116124761Y-91157438D02*
X116791428Y-93157438D01*
X118505714Y-93157438D02*
X117362857Y-93157438D01*
X117934285Y-93157438D02*
X117934285Y-91157438D01*
X117934285Y-91157438D02*
X117743809Y-91443152D01*
X117743809Y-91443152D02*
X117553333Y-91633628D01*
X117553333Y-91633628D02*
X117362857Y-91728866D01*
X142219819Y-63784761D02*
X142315057Y-63499047D01*
X142315057Y-63499047D02*
X142410295Y-63403809D01*
X142410295Y-63403809D02*
X142600771Y-63308571D01*
X142600771Y-63308571D02*
X142886485Y-63308571D01*
X142886485Y-63308571D02*
X143076961Y-63403809D01*
X143076961Y-63403809D02*
X143172200Y-63499047D01*
X143172200Y-63499047D02*
X143267438Y-63689523D01*
X143267438Y-63689523D02*
X143267438Y-64451428D01*
X143267438Y-64451428D02*
X141267438Y-64451428D01*
X141267438Y-64451428D02*
X141267438Y-63784761D01*
X141267438Y-63784761D02*
X141362676Y-63594285D01*
X141362676Y-63594285D02*
X141457914Y-63499047D01*
X141457914Y-63499047D02*
X141648390Y-63403809D01*
X141648390Y-63403809D02*
X141838866Y-63403809D01*
X141838866Y-63403809D02*
X142029342Y-63499047D01*
X142029342Y-63499047D02*
X142124580Y-63594285D01*
X142124580Y-63594285D02*
X142219819Y-63784761D01*
X142219819Y-63784761D02*
X142219819Y-64451428D01*
X143267438Y-62451428D02*
X141267438Y-62451428D01*
X141267438Y-62451428D02*
X142696009Y-61784761D01*
X142696009Y-61784761D02*
X141267438Y-61118095D01*
X141267438Y-61118095D02*
X143267438Y-61118095D01*
X141267438Y-60356190D02*
X143267438Y-59022857D01*
X141267438Y-59022857D02*
X143267438Y-60356190D01*
X143267438Y-57213333D02*
X143267438Y-58356190D01*
X143267438Y-57784762D02*
X141267438Y-57784762D01*
X141267438Y-57784762D02*
X141553152Y-57975238D01*
X141553152Y-57975238D02*
X141743628Y-58165714D01*
X141743628Y-58165714D02*
X141838866Y-58356190D01*
X58456190Y-135057438D02*
X58456190Y-133057438D01*
X58456190Y-133057438D02*
X59599047Y-135057438D01*
X59599047Y-135057438D02*
X59599047Y-133057438D01*
X61694285Y-135057438D02*
X61027618Y-134105057D01*
X60551428Y-135057438D02*
X60551428Y-133057438D01*
X60551428Y-133057438D02*
X61313333Y-133057438D01*
X61313333Y-133057438D02*
X61503809Y-133152676D01*
X61503809Y-133152676D02*
X61599047Y-133247914D01*
X61599047Y-133247914D02*
X61694285Y-133438390D01*
X61694285Y-133438390D02*
X61694285Y-133724104D01*
X61694285Y-133724104D02*
X61599047Y-133914580D01*
X61599047Y-133914580D02*
X61503809Y-134009819D01*
X61503809Y-134009819D02*
X61313333Y-134105057D01*
X61313333Y-134105057D02*
X60551428Y-134105057D01*
X63599047Y-135057438D02*
X62456190Y-135057438D01*
X63027618Y-135057438D02*
X63027618Y-133057438D01*
X63027618Y-133057438D02*
X62837142Y-133343152D01*
X62837142Y-133343152D02*
X62646666Y-133533628D01*
X62646666Y-133533628D02*
X62456190Y-133628866D01*
X173781176Y-40882857D02*
X171881176Y-40882857D01*
X171881176Y-40882857D02*
X173238319Y-40249523D01*
X173238319Y-40249523D02*
X171881176Y-39616190D01*
X171881176Y-39616190D02*
X173781176Y-39616190D01*
X173690700Y-38801904D02*
X173781176Y-38530475D01*
X173781176Y-38530475D02*
X173781176Y-38078094D01*
X173781176Y-38078094D02*
X173690700Y-37897142D01*
X173690700Y-37897142D02*
X173600223Y-37806666D01*
X173600223Y-37806666D02*
X173419271Y-37716189D01*
X173419271Y-37716189D02*
X173238319Y-37716189D01*
X173238319Y-37716189D02*
X173057366Y-37806666D01*
X173057366Y-37806666D02*
X172966890Y-37897142D01*
X172966890Y-37897142D02*
X172876414Y-38078094D01*
X172876414Y-38078094D02*
X172785938Y-38439999D01*
X172785938Y-38439999D02*
X172695461Y-38620951D01*
X172695461Y-38620951D02*
X172604985Y-38711428D01*
X172604985Y-38711428D02*
X172424033Y-38801904D01*
X172424033Y-38801904D02*
X172243080Y-38801904D01*
X172243080Y-38801904D02*
X172062128Y-38711428D01*
X172062128Y-38711428D02*
X171971652Y-38620951D01*
X171971652Y-38620951D02*
X171881176Y-38439999D01*
X171881176Y-38439999D02*
X171881176Y-37987618D01*
X171881176Y-37987618D02*
X171971652Y-37716189D01*
X173600223Y-35816189D02*
X173690700Y-35906665D01*
X173690700Y-35906665D02*
X173781176Y-36178094D01*
X173781176Y-36178094D02*
X173781176Y-36359046D01*
X173781176Y-36359046D02*
X173690700Y-36630475D01*
X173690700Y-36630475D02*
X173509747Y-36811427D01*
X173509747Y-36811427D02*
X173328795Y-36901904D01*
X173328795Y-36901904D02*
X172966890Y-36992380D01*
X172966890Y-36992380D02*
X172695461Y-36992380D01*
X172695461Y-36992380D02*
X172333557Y-36901904D01*
X172333557Y-36901904D02*
X172152604Y-36811427D01*
X172152604Y-36811427D02*
X171971652Y-36630475D01*
X171971652Y-36630475D02*
X171881176Y-36359046D01*
X171881176Y-36359046D02*
X171881176Y-36178094D01*
X171881176Y-36178094D02*
X171971652Y-35906665D01*
X171971652Y-35906665D02*
X172062128Y-35816189D01*
X173781176Y-35001904D02*
X171881176Y-35001904D01*
X171881176Y-35001904D02*
X171881176Y-34278094D01*
X171881176Y-34278094D02*
X171971652Y-34097142D01*
X171971652Y-34097142D02*
X172062128Y-34006665D01*
X172062128Y-34006665D02*
X172243080Y-33916189D01*
X172243080Y-33916189D02*
X172514509Y-33916189D01*
X172514509Y-33916189D02*
X172695461Y-34006665D01*
X172695461Y-34006665D02*
X172785938Y-34097142D01*
X172785938Y-34097142D02*
X172876414Y-34278094D01*
X172876414Y-34278094D02*
X172876414Y-35001904D01*
X173781176Y-32106665D02*
X173781176Y-33192380D01*
X173781176Y-32649523D02*
X171881176Y-32649523D01*
X171881176Y-32649523D02*
X172152604Y-32830475D01*
X172152604Y-32830475D02*
X172333557Y-33011427D01*
X172333557Y-33011427D02*
X172424033Y-33192380D01*
X221826009Y-41760952D02*
X221826009Y-40808571D01*
X222397438Y-41951428D02*
X220397438Y-41284762D01*
X220397438Y-41284762D02*
X222397438Y-40618095D01*
X222206961Y-38808571D02*
X222302200Y-38903809D01*
X222302200Y-38903809D02*
X222397438Y-39189523D01*
X222397438Y-39189523D02*
X222397438Y-39379999D01*
X222397438Y-39379999D02*
X222302200Y-39665714D01*
X222302200Y-39665714D02*
X222111723Y-39856190D01*
X222111723Y-39856190D02*
X221921247Y-39951428D01*
X221921247Y-39951428D02*
X221540295Y-40046666D01*
X221540295Y-40046666D02*
X221254580Y-40046666D01*
X221254580Y-40046666D02*
X220873628Y-39951428D01*
X220873628Y-39951428D02*
X220683152Y-39856190D01*
X220683152Y-39856190D02*
X220492676Y-39665714D01*
X220492676Y-39665714D02*
X220397438Y-39379999D01*
X220397438Y-39379999D02*
X220397438Y-39189523D01*
X220397438Y-39189523D02*
X220492676Y-38903809D01*
X220492676Y-38903809D02*
X220587914Y-38808571D01*
X222302200Y-38046666D02*
X222397438Y-37760952D01*
X222397438Y-37760952D02*
X222397438Y-37284761D01*
X222397438Y-37284761D02*
X222302200Y-37094285D01*
X222302200Y-37094285D02*
X222206961Y-36999047D01*
X222206961Y-36999047D02*
X222016485Y-36903809D01*
X222016485Y-36903809D02*
X221826009Y-36903809D01*
X221826009Y-36903809D02*
X221635533Y-36999047D01*
X221635533Y-36999047D02*
X221540295Y-37094285D01*
X221540295Y-37094285D02*
X221445057Y-37284761D01*
X221445057Y-37284761D02*
X221349819Y-37665714D01*
X221349819Y-37665714D02*
X221254580Y-37856190D01*
X221254580Y-37856190D02*
X221159342Y-37951428D01*
X221159342Y-37951428D02*
X220968866Y-38046666D01*
X220968866Y-38046666D02*
X220778390Y-38046666D01*
X220778390Y-38046666D02*
X220587914Y-37951428D01*
X220587914Y-37951428D02*
X220492676Y-37856190D01*
X220492676Y-37856190D02*
X220397438Y-37665714D01*
X220397438Y-37665714D02*
X220397438Y-37189523D01*
X220397438Y-37189523D02*
X220492676Y-36903809D01*
X222397438Y-36046666D02*
X220397438Y-36046666D01*
X220397438Y-36046666D02*
X220397438Y-35284761D01*
X220397438Y-35284761D02*
X220492676Y-35094285D01*
X220492676Y-35094285D02*
X220587914Y-34999047D01*
X220587914Y-34999047D02*
X220778390Y-34903809D01*
X220778390Y-34903809D02*
X221064104Y-34903809D01*
X221064104Y-34903809D02*
X221254580Y-34999047D01*
X221254580Y-34999047D02*
X221349819Y-35094285D01*
X221349819Y-35094285D02*
X221445057Y-35284761D01*
X221445057Y-35284761D02*
X221445057Y-36046666D01*
X222397438Y-32999047D02*
X222397438Y-34141904D01*
X222397438Y-33570476D02*
X220397438Y-33570476D01*
X220397438Y-33570476D02*
X220683152Y-33760952D01*
X220683152Y-33760952D02*
X220873628Y-33951428D01*
X220873628Y-33951428D02*
X220968866Y-34141904D01*
X87913333Y-78689580D02*
X87865714Y-78737200D01*
X87865714Y-78737200D02*
X87722857Y-78784819D01*
X87722857Y-78784819D02*
X87627619Y-78784819D01*
X87627619Y-78784819D02*
X87484762Y-78737200D01*
X87484762Y-78737200D02*
X87389524Y-78641961D01*
X87389524Y-78641961D02*
X87341905Y-78546723D01*
X87341905Y-78546723D02*
X87294286Y-78356247D01*
X87294286Y-78356247D02*
X87294286Y-78213390D01*
X87294286Y-78213390D02*
X87341905Y-78022914D01*
X87341905Y-78022914D02*
X87389524Y-77927676D01*
X87389524Y-77927676D02*
X87484762Y-77832438D01*
X87484762Y-77832438D02*
X87627619Y-77784819D01*
X87627619Y-77784819D02*
X87722857Y-77784819D01*
X87722857Y-77784819D02*
X87865714Y-77832438D01*
X87865714Y-77832438D02*
X87913333Y-77880057D01*
X88770476Y-78118152D02*
X88770476Y-78784819D01*
X88532381Y-77737200D02*
X88294286Y-78451485D01*
X88294286Y-78451485D02*
X88913333Y-78451485D01*
X154759819Y-40901904D02*
X154855057Y-40616190D01*
X154855057Y-40616190D02*
X154950295Y-40520952D01*
X154950295Y-40520952D02*
X155140771Y-40425714D01*
X155140771Y-40425714D02*
X155426485Y-40425714D01*
X155426485Y-40425714D02*
X155616961Y-40520952D01*
X155616961Y-40520952D02*
X155712200Y-40616190D01*
X155712200Y-40616190D02*
X155807438Y-40806666D01*
X155807438Y-40806666D02*
X155807438Y-41568571D01*
X155807438Y-41568571D02*
X153807438Y-41568571D01*
X153807438Y-41568571D02*
X153807438Y-40901904D01*
X153807438Y-40901904D02*
X153902676Y-40711428D01*
X153902676Y-40711428D02*
X153997914Y-40616190D01*
X153997914Y-40616190D02*
X154188390Y-40520952D01*
X154188390Y-40520952D02*
X154378866Y-40520952D01*
X154378866Y-40520952D02*
X154569342Y-40616190D01*
X154569342Y-40616190D02*
X154664580Y-40711428D01*
X154664580Y-40711428D02*
X154759819Y-40901904D01*
X154759819Y-40901904D02*
X154759819Y-41568571D01*
X155616961Y-38425714D02*
X155712200Y-38520952D01*
X155712200Y-38520952D02*
X155807438Y-38806666D01*
X155807438Y-38806666D02*
X155807438Y-38997142D01*
X155807438Y-38997142D02*
X155712200Y-39282857D01*
X155712200Y-39282857D02*
X155521723Y-39473333D01*
X155521723Y-39473333D02*
X155331247Y-39568571D01*
X155331247Y-39568571D02*
X154950295Y-39663809D01*
X154950295Y-39663809D02*
X154664580Y-39663809D01*
X154664580Y-39663809D02*
X154283628Y-39568571D01*
X154283628Y-39568571D02*
X154093152Y-39473333D01*
X154093152Y-39473333D02*
X153902676Y-39282857D01*
X153902676Y-39282857D02*
X153807438Y-38997142D01*
X153807438Y-38997142D02*
X153807438Y-38806666D01*
X153807438Y-38806666D02*
X153902676Y-38520952D01*
X153902676Y-38520952D02*
X153997914Y-38425714D01*
X155712200Y-37663809D02*
X155807438Y-37378095D01*
X155807438Y-37378095D02*
X155807438Y-36901904D01*
X155807438Y-36901904D02*
X155712200Y-36711428D01*
X155712200Y-36711428D02*
X155616961Y-36616190D01*
X155616961Y-36616190D02*
X155426485Y-36520952D01*
X155426485Y-36520952D02*
X155236009Y-36520952D01*
X155236009Y-36520952D02*
X155045533Y-36616190D01*
X155045533Y-36616190D02*
X154950295Y-36711428D01*
X154950295Y-36711428D02*
X154855057Y-36901904D01*
X154855057Y-36901904D02*
X154759819Y-37282857D01*
X154759819Y-37282857D02*
X154664580Y-37473333D01*
X154664580Y-37473333D02*
X154569342Y-37568571D01*
X154569342Y-37568571D02*
X154378866Y-37663809D01*
X154378866Y-37663809D02*
X154188390Y-37663809D01*
X154188390Y-37663809D02*
X153997914Y-37568571D01*
X153997914Y-37568571D02*
X153902676Y-37473333D01*
X153902676Y-37473333D02*
X153807438Y-37282857D01*
X153807438Y-37282857D02*
X153807438Y-36806666D01*
X153807438Y-36806666D02*
X153902676Y-36520952D01*
X155807438Y-35663809D02*
X153807438Y-35663809D01*
X153807438Y-35663809D02*
X153807438Y-34901904D01*
X153807438Y-34901904D02*
X153902676Y-34711428D01*
X153902676Y-34711428D02*
X153997914Y-34616190D01*
X153997914Y-34616190D02*
X154188390Y-34520952D01*
X154188390Y-34520952D02*
X154474104Y-34520952D01*
X154474104Y-34520952D02*
X154664580Y-34616190D01*
X154664580Y-34616190D02*
X154759819Y-34711428D01*
X154759819Y-34711428D02*
X154855057Y-34901904D01*
X154855057Y-34901904D02*
X154855057Y-35663809D01*
X155807438Y-32616190D02*
X155807438Y-33759047D01*
X155807438Y-33187619D02*
X153807438Y-33187619D01*
X153807438Y-33187619D02*
X154093152Y-33378095D01*
X154093152Y-33378095D02*
X154283628Y-33568571D01*
X154283628Y-33568571D02*
X154378866Y-33759047D01*
X141580952Y-132717438D02*
X142914285Y-134717438D01*
X142914285Y-132717438D02*
X141580952Y-134717438D01*
X144819047Y-134717438D02*
X144152380Y-133765057D01*
X143676190Y-134717438D02*
X143676190Y-132717438D01*
X143676190Y-132717438D02*
X144438095Y-132717438D01*
X144438095Y-132717438D02*
X144628571Y-132812676D01*
X144628571Y-132812676D02*
X144723809Y-132907914D01*
X144723809Y-132907914D02*
X144819047Y-133098390D01*
X144819047Y-133098390D02*
X144819047Y-133384104D01*
X144819047Y-133384104D02*
X144723809Y-133574580D01*
X144723809Y-133574580D02*
X144628571Y-133669819D01*
X144628571Y-133669819D02*
X144438095Y-133765057D01*
X144438095Y-133765057D02*
X143676190Y-133765057D01*
X146723809Y-134717438D02*
X145580952Y-134717438D01*
X146152380Y-134717438D02*
X146152380Y-132717438D01*
X146152380Y-132717438D02*
X145961904Y-133003152D01*
X145961904Y-133003152D02*
X145771428Y-133193628D01*
X145771428Y-133193628D02*
X145580952Y-133288866D01*
X90803333Y-60169580D02*
X90755714Y-60217200D01*
X90755714Y-60217200D02*
X90612857Y-60264819D01*
X90612857Y-60264819D02*
X90517619Y-60264819D01*
X90517619Y-60264819D02*
X90374762Y-60217200D01*
X90374762Y-60217200D02*
X90279524Y-60121961D01*
X90279524Y-60121961D02*
X90231905Y-60026723D01*
X90231905Y-60026723D02*
X90184286Y-59836247D01*
X90184286Y-59836247D02*
X90184286Y-59693390D01*
X90184286Y-59693390D02*
X90231905Y-59502914D01*
X90231905Y-59502914D02*
X90279524Y-59407676D01*
X90279524Y-59407676D02*
X90374762Y-59312438D01*
X90374762Y-59312438D02*
X90517619Y-59264819D01*
X90517619Y-59264819D02*
X90612857Y-59264819D01*
X90612857Y-59264819D02*
X90755714Y-59312438D01*
X90755714Y-59312438D02*
X90803333Y-59360057D01*
X91708095Y-59264819D02*
X91231905Y-59264819D01*
X91231905Y-59264819D02*
X91184286Y-59741009D01*
X91184286Y-59741009D02*
X91231905Y-59693390D01*
X91231905Y-59693390D02*
X91327143Y-59645771D01*
X91327143Y-59645771D02*
X91565238Y-59645771D01*
X91565238Y-59645771D02*
X91660476Y-59693390D01*
X91660476Y-59693390D02*
X91708095Y-59741009D01*
X91708095Y-59741009D02*
X91755714Y-59836247D01*
X91755714Y-59836247D02*
X91755714Y-60074342D01*
X91755714Y-60074342D02*
X91708095Y-60169580D01*
X91708095Y-60169580D02*
X91660476Y-60217200D01*
X91660476Y-60217200D02*
X91565238Y-60264819D01*
X91565238Y-60264819D02*
X91327143Y-60264819D01*
X91327143Y-60264819D02*
X91231905Y-60217200D01*
X91231905Y-60217200D02*
X91184286Y-60169580D01*
X257220952Y-93369819D02*
X257506666Y-93465057D01*
X257506666Y-93465057D02*
X257601904Y-93560295D01*
X257601904Y-93560295D02*
X257697142Y-93750771D01*
X257697142Y-93750771D02*
X257697142Y-94036485D01*
X257697142Y-94036485D02*
X257601904Y-94226961D01*
X257601904Y-94226961D02*
X257506666Y-94322200D01*
X257506666Y-94322200D02*
X257316190Y-94417438D01*
X257316190Y-94417438D02*
X256554285Y-94417438D01*
X256554285Y-94417438D02*
X256554285Y-92417438D01*
X256554285Y-92417438D02*
X257220952Y-92417438D01*
X257220952Y-92417438D02*
X257411428Y-92512676D01*
X257411428Y-92512676D02*
X257506666Y-92607914D01*
X257506666Y-92607914D02*
X257601904Y-92798390D01*
X257601904Y-92798390D02*
X257601904Y-92988866D01*
X257601904Y-92988866D02*
X257506666Y-93179342D01*
X257506666Y-93179342D02*
X257411428Y-93274580D01*
X257411428Y-93274580D02*
X257220952Y-93369819D01*
X257220952Y-93369819D02*
X256554285Y-93369819D01*
X259506666Y-94417438D02*
X258554285Y-94417438D01*
X258554285Y-94417438D02*
X258554285Y-92417438D01*
X261220952Y-94417438D02*
X260078095Y-94417438D01*
X260649523Y-94417438D02*
X260649523Y-92417438D01*
X260649523Y-92417438D02*
X260459047Y-92703152D01*
X260459047Y-92703152D02*
X260268571Y-92893628D01*
X260268571Y-92893628D02*
X260078095Y-92988866D01*
X89623628Y-57103690D02*
X90099819Y-57103690D01*
X89099819Y-57437023D02*
X89623628Y-57103690D01*
X89623628Y-57103690D02*
X89099819Y-56770357D01*
X90099819Y-55913214D02*
X90099819Y-56484642D01*
X90099819Y-56198928D02*
X89099819Y-56198928D01*
X89099819Y-56198928D02*
X89242676Y-56294166D01*
X89242676Y-56294166D02*
X89337914Y-56389404D01*
X89337914Y-56389404D02*
X89385533Y-56484642D01*
X170624761Y-63797438D02*
X169672380Y-63797438D01*
X169672380Y-63797438D02*
X169672380Y-61797438D01*
X170815238Y-63987914D02*
X172339047Y-63987914D01*
X173958095Y-63797438D02*
X173291428Y-62845057D01*
X172815238Y-63797438D02*
X172815238Y-61797438D01*
X172815238Y-61797438D02*
X173577143Y-61797438D01*
X173577143Y-61797438D02*
X173767619Y-61892676D01*
X173767619Y-61892676D02*
X173862857Y-61987914D01*
X173862857Y-61987914D02*
X173958095Y-62178390D01*
X173958095Y-62178390D02*
X173958095Y-62464104D01*
X173958095Y-62464104D02*
X173862857Y-62654580D01*
X173862857Y-62654580D02*
X173767619Y-62749819D01*
X173767619Y-62749819D02*
X173577143Y-62845057D01*
X173577143Y-62845057D02*
X172815238Y-62845057D01*
X174720000Y-63226009D02*
X175672381Y-63226009D01*
X174529524Y-63797438D02*
X175196190Y-61797438D01*
X175196190Y-61797438D02*
X175862857Y-63797438D01*
X176529524Y-63797438D02*
X176529524Y-61797438D01*
X176529524Y-61797438D02*
X177196191Y-63226009D01*
X177196191Y-63226009D02*
X177862857Y-61797438D01*
X177862857Y-61797438D02*
X177862857Y-63797438D01*
X179862857Y-63797438D02*
X178720000Y-63797438D01*
X179291428Y-63797438D02*
X179291428Y-61797438D01*
X179291428Y-61797438D02*
X179100952Y-62083152D01*
X179100952Y-62083152D02*
X178910476Y-62273628D01*
X178910476Y-62273628D02*
X178720000Y-62368866D01*
X228649819Y-63918571D02*
X228649819Y-63251904D01*
X229697438Y-62966190D02*
X229697438Y-63918571D01*
X229697438Y-63918571D02*
X227697438Y-63918571D01*
X227697438Y-63918571D02*
X227697438Y-62966190D01*
X229697438Y-62109047D02*
X227697438Y-62109047D01*
X227697438Y-62109047D02*
X229697438Y-60966190D01*
X229697438Y-60966190D02*
X227697438Y-60966190D01*
X229697438Y-58966190D02*
X229697438Y-60109047D01*
X229697438Y-59537619D02*
X227697438Y-59537619D01*
X227697438Y-59537619D02*
X227983152Y-59728095D01*
X227983152Y-59728095D02*
X228173628Y-59918571D01*
X228173628Y-59918571D02*
X228268866Y-60109047D01*
X83154819Y-70591666D02*
X82678628Y-70924999D01*
X83154819Y-71163094D02*
X82154819Y-71163094D01*
X82154819Y-71163094D02*
X82154819Y-70782142D01*
X82154819Y-70782142D02*
X82202438Y-70686904D01*
X82202438Y-70686904D02*
X82250057Y-70639285D01*
X82250057Y-70639285D02*
X82345295Y-70591666D01*
X82345295Y-70591666D02*
X82488152Y-70591666D01*
X82488152Y-70591666D02*
X82583390Y-70639285D01*
X82583390Y-70639285D02*
X82631009Y-70686904D01*
X82631009Y-70686904D02*
X82678628Y-70782142D01*
X82678628Y-70782142D02*
X82678628Y-71163094D01*
X83154819Y-69639285D02*
X83154819Y-70210713D01*
X83154819Y-69924999D02*
X82154819Y-69924999D01*
X82154819Y-69924999D02*
X82297676Y-70020237D01*
X82297676Y-70020237D02*
X82392914Y-70115475D01*
X82392914Y-70115475D02*
X82440533Y-70210713D01*
X59759047Y-113636961D02*
X59663809Y-113732200D01*
X59663809Y-113732200D02*
X59378095Y-113827438D01*
X59378095Y-113827438D02*
X59187619Y-113827438D01*
X59187619Y-113827438D02*
X58901904Y-113732200D01*
X58901904Y-113732200D02*
X58711428Y-113541723D01*
X58711428Y-113541723D02*
X58616190Y-113351247D01*
X58616190Y-113351247D02*
X58520952Y-112970295D01*
X58520952Y-112970295D02*
X58520952Y-112684580D01*
X58520952Y-112684580D02*
X58616190Y-112303628D01*
X58616190Y-112303628D02*
X58711428Y-112113152D01*
X58711428Y-112113152D02*
X58901904Y-111922676D01*
X58901904Y-111922676D02*
X59187619Y-111827438D01*
X59187619Y-111827438D02*
X59378095Y-111827438D01*
X59378095Y-111827438D02*
X59663809Y-111922676D01*
X59663809Y-111922676D02*
X59759047Y-112017914D01*
X60616190Y-113827438D02*
X60616190Y-111827438D01*
X60616190Y-112779819D02*
X61759047Y-112779819D01*
X61759047Y-113827438D02*
X61759047Y-111827438D01*
X63759047Y-113827438D02*
X62616190Y-113827438D01*
X63187618Y-113827438D02*
X63187618Y-111827438D01*
X63187618Y-111827438D02*
X62997142Y-112113152D01*
X62997142Y-112113152D02*
X62806666Y-112303628D01*
X62806666Y-112303628D02*
X62616190Y-112398866D01*
X102367438Y-64779047D02*
X100367438Y-64779047D01*
X100367438Y-64779047D02*
X100367438Y-64017142D01*
X100367438Y-64017142D02*
X100462676Y-63826666D01*
X100462676Y-63826666D02*
X100557914Y-63731428D01*
X100557914Y-63731428D02*
X100748390Y-63636190D01*
X100748390Y-63636190D02*
X101034104Y-63636190D01*
X101034104Y-63636190D02*
X101224580Y-63731428D01*
X101224580Y-63731428D02*
X101319819Y-63826666D01*
X101319819Y-63826666D02*
X101415057Y-64017142D01*
X101415057Y-64017142D02*
X101415057Y-64779047D01*
X102176961Y-61636190D02*
X102272200Y-61731428D01*
X102272200Y-61731428D02*
X102367438Y-62017142D01*
X102367438Y-62017142D02*
X102367438Y-62207618D01*
X102367438Y-62207618D02*
X102272200Y-62493333D01*
X102272200Y-62493333D02*
X102081723Y-62683809D01*
X102081723Y-62683809D02*
X101891247Y-62779047D01*
X101891247Y-62779047D02*
X101510295Y-62874285D01*
X101510295Y-62874285D02*
X101224580Y-62874285D01*
X101224580Y-62874285D02*
X100843628Y-62779047D01*
X100843628Y-62779047D02*
X100653152Y-62683809D01*
X100653152Y-62683809D02*
X100462676Y-62493333D01*
X100462676Y-62493333D02*
X100367438Y-62207618D01*
X100367438Y-62207618D02*
X100367438Y-62017142D01*
X100367438Y-62017142D02*
X100462676Y-61731428D01*
X100462676Y-61731428D02*
X100557914Y-61636190D01*
X102367438Y-60779047D02*
X100367438Y-60779047D01*
X100367438Y-60779047D02*
X101796009Y-60112380D01*
X101796009Y-60112380D02*
X100367438Y-59445714D01*
X100367438Y-59445714D02*
X102367438Y-59445714D01*
X102367438Y-57445714D02*
X102367438Y-58588571D01*
X102367438Y-58017143D02*
X100367438Y-58017143D01*
X100367438Y-58017143D02*
X100653152Y-58207619D01*
X100653152Y-58207619D02*
X100843628Y-58398095D01*
X100843628Y-58398095D02*
X100938866Y-58588571D01*
X61081428Y-91312676D02*
X60890952Y-91217438D01*
X60890952Y-91217438D02*
X60605238Y-91217438D01*
X60605238Y-91217438D02*
X60319523Y-91312676D01*
X60319523Y-91312676D02*
X60129047Y-91503152D01*
X60129047Y-91503152D02*
X60033809Y-91693628D01*
X60033809Y-91693628D02*
X59938571Y-92074580D01*
X59938571Y-92074580D02*
X59938571Y-92360295D01*
X59938571Y-92360295D02*
X60033809Y-92741247D01*
X60033809Y-92741247D02*
X60129047Y-92931723D01*
X60129047Y-92931723D02*
X60319523Y-93122200D01*
X60319523Y-93122200D02*
X60605238Y-93217438D01*
X60605238Y-93217438D02*
X60795714Y-93217438D01*
X60795714Y-93217438D02*
X61081428Y-93122200D01*
X61081428Y-93122200D02*
X61176666Y-93026961D01*
X61176666Y-93026961D02*
X61176666Y-92360295D01*
X61176666Y-92360295D02*
X60795714Y-92360295D01*
X63176666Y-93217438D02*
X62509999Y-92265057D01*
X62033809Y-93217438D02*
X62033809Y-91217438D01*
X62033809Y-91217438D02*
X62795714Y-91217438D01*
X62795714Y-91217438D02*
X62986190Y-91312676D01*
X62986190Y-91312676D02*
X63081428Y-91407914D01*
X63081428Y-91407914D02*
X63176666Y-91598390D01*
X63176666Y-91598390D02*
X63176666Y-91884104D01*
X63176666Y-91884104D02*
X63081428Y-92074580D01*
X63081428Y-92074580D02*
X62986190Y-92169819D01*
X62986190Y-92169819D02*
X62795714Y-92265057D01*
X62795714Y-92265057D02*
X62033809Y-92265057D01*
X65081428Y-93217438D02*
X63938571Y-93217438D01*
X64509999Y-93217438D02*
X64509999Y-91217438D01*
X64509999Y-91217438D02*
X64319523Y-91503152D01*
X64319523Y-91503152D02*
X64129047Y-91693628D01*
X64129047Y-91693628D02*
X63938571Y-91788866D01*
X85595714Y-92189819D02*
X84929047Y-92189819D01*
X84929047Y-93237438D02*
X84929047Y-91237438D01*
X84929047Y-91237438D02*
X85881428Y-91237438D01*
X86643333Y-93237438D02*
X86643333Y-91237438D01*
X86643333Y-91237438D02*
X87786190Y-93237438D01*
X87786190Y-93237438D02*
X87786190Y-91237438D01*
X89786190Y-93237438D02*
X88643333Y-93237438D01*
X89214761Y-93237438D02*
X89214761Y-91237438D01*
X89214761Y-91237438D02*
X89024285Y-91523152D01*
X89024285Y-91523152D02*
X88833809Y-91713628D01*
X88833809Y-91713628D02*
X88643333Y-91808866D01*
X213894285Y-98536009D02*
X214846666Y-98536009D01*
X213703809Y-99107438D02*
X214370475Y-97107438D01*
X214370475Y-97107438D02*
X215037142Y-99107438D01*
X216656190Y-99107438D02*
X215703809Y-99107438D01*
X215703809Y-99107438D02*
X215703809Y-97107438D01*
X217322857Y-97107438D02*
X217322857Y-98726485D01*
X217322857Y-98726485D02*
X217418095Y-98916961D01*
X217418095Y-98916961D02*
X217513333Y-99012200D01*
X217513333Y-99012200D02*
X217703809Y-99107438D01*
X217703809Y-99107438D02*
X218084762Y-99107438D01*
X218084762Y-99107438D02*
X218275238Y-99012200D01*
X218275238Y-99012200D02*
X218370476Y-98916961D01*
X218370476Y-98916961D02*
X218465714Y-98726485D01*
X218465714Y-98726485D02*
X218465714Y-97107438D01*
X220465714Y-99107438D02*
X219322857Y-99107438D01*
X219894285Y-99107438D02*
X219894285Y-97107438D01*
X219894285Y-97107438D02*
X219703809Y-97393152D01*
X219703809Y-97393152D02*
X219513333Y-97583628D01*
X219513333Y-97583628D02*
X219322857Y-97678866D01*
X226837619Y-116857438D02*
X226837619Y-114857438D01*
X226837619Y-114857438D02*
X227313809Y-114857438D01*
X227313809Y-114857438D02*
X227599524Y-114952676D01*
X227599524Y-114952676D02*
X227790000Y-115143152D01*
X227790000Y-115143152D02*
X227885238Y-115333628D01*
X227885238Y-115333628D02*
X227980476Y-115714580D01*
X227980476Y-115714580D02*
X227980476Y-116000295D01*
X227980476Y-116000295D02*
X227885238Y-116381247D01*
X227885238Y-116381247D02*
X227790000Y-116571723D01*
X227790000Y-116571723D02*
X227599524Y-116762200D01*
X227599524Y-116762200D02*
X227313809Y-116857438D01*
X227313809Y-116857438D02*
X226837619Y-116857438D01*
X228837619Y-116857438D02*
X228837619Y-114857438D01*
X230932857Y-116857438D02*
X230266190Y-115905057D01*
X229790000Y-116857438D02*
X229790000Y-114857438D01*
X229790000Y-114857438D02*
X230551905Y-114857438D01*
X230551905Y-114857438D02*
X230742381Y-114952676D01*
X230742381Y-114952676D02*
X230837619Y-115047914D01*
X230837619Y-115047914D02*
X230932857Y-115238390D01*
X230932857Y-115238390D02*
X230932857Y-115524104D01*
X230932857Y-115524104D02*
X230837619Y-115714580D01*
X230837619Y-115714580D02*
X230742381Y-115809819D01*
X230742381Y-115809819D02*
X230551905Y-115905057D01*
X230551905Y-115905057D02*
X229790000Y-115905057D01*
X232837619Y-116857438D02*
X231694762Y-116857438D01*
X232266190Y-116857438D02*
X232266190Y-114857438D01*
X232266190Y-114857438D02*
X232075714Y-115143152D01*
X232075714Y-115143152D02*
X231885238Y-115333628D01*
X231885238Y-115333628D02*
X231694762Y-115428866D01*
X211722200Y-64353809D02*
X211817438Y-64068095D01*
X211817438Y-64068095D02*
X211817438Y-63591904D01*
X211817438Y-63591904D02*
X211722200Y-63401428D01*
X211722200Y-63401428D02*
X211626961Y-63306190D01*
X211626961Y-63306190D02*
X211436485Y-63210952D01*
X211436485Y-63210952D02*
X211246009Y-63210952D01*
X211246009Y-63210952D02*
X211055533Y-63306190D01*
X211055533Y-63306190D02*
X210960295Y-63401428D01*
X210960295Y-63401428D02*
X210865057Y-63591904D01*
X210865057Y-63591904D02*
X210769819Y-63972857D01*
X210769819Y-63972857D02*
X210674580Y-64163333D01*
X210674580Y-64163333D02*
X210579342Y-64258571D01*
X210579342Y-64258571D02*
X210388866Y-64353809D01*
X210388866Y-64353809D02*
X210198390Y-64353809D01*
X210198390Y-64353809D02*
X210007914Y-64258571D01*
X210007914Y-64258571D02*
X209912676Y-64163333D01*
X209912676Y-64163333D02*
X209817438Y-63972857D01*
X209817438Y-63972857D02*
X209817438Y-63496666D01*
X209817438Y-63496666D02*
X209912676Y-63210952D01*
X211817438Y-62353809D02*
X209817438Y-62353809D01*
X209817438Y-62353809D02*
X209817438Y-61877619D01*
X209817438Y-61877619D02*
X209912676Y-61591904D01*
X209912676Y-61591904D02*
X210103152Y-61401428D01*
X210103152Y-61401428D02*
X210293628Y-61306190D01*
X210293628Y-61306190D02*
X210674580Y-61210952D01*
X210674580Y-61210952D02*
X210960295Y-61210952D01*
X210960295Y-61210952D02*
X211341247Y-61306190D01*
X211341247Y-61306190D02*
X211531723Y-61401428D01*
X211531723Y-61401428D02*
X211722200Y-61591904D01*
X211722200Y-61591904D02*
X211817438Y-61877619D01*
X211817438Y-61877619D02*
X211817438Y-62353809D01*
X211817438Y-59306190D02*
X211817438Y-60449047D01*
X211817438Y-59877619D02*
X209817438Y-59877619D01*
X209817438Y-59877619D02*
X210103152Y-60068095D01*
X210103152Y-60068095D02*
X210293628Y-60258571D01*
X210293628Y-60258571D02*
X210388866Y-60449047D01*
D12*
X240845000Y-130900000D02*
X240845000Y-133200000D01*
X240845000Y-130900000D02*
X241365000Y-130900000D01*
X240845000Y-133200000D02*
X241395000Y-133200000D01*
X248085000Y-130840000D02*
X247255000Y-130840000D01*
X248095000Y-133320000D02*
X247255000Y-133320000D01*
X248095000Y-133320000D02*
X248085000Y-130840000D01*
X27290000Y-125540000D02*
X27290000Y-127190000D01*
X27290000Y-129190000D02*
X27290000Y-130840000D01*
X27290000Y-130840000D02*
X45190000Y-130840000D01*
X45190000Y-125540000D02*
X27290000Y-125540000D01*
X45190000Y-130840000D02*
X45190000Y-125540000D01*
X27290000Y-127190000D02*
G75*
G02*
X27290000Y-129190000I0J-1000000D01*
G01*
X107710000Y-125440000D02*
X107710000Y-127090000D01*
X107710000Y-129090000D02*
X107710000Y-130740000D01*
X107710000Y-130740000D02*
X125610000Y-130740000D01*
X125610000Y-125440000D02*
X107710000Y-125440000D01*
X125610000Y-130740000D02*
X125610000Y-125440000D01*
X107710000Y-127090000D02*
G75*
G02*
X107710000Y-129090000I0J-1000000D01*
G01*
X127050000Y-101970000D02*
X127050000Y-111210000D01*
X127504000Y-101970000D02*
X127050000Y-101970000D01*
X127504000Y-111210000D02*
X127050000Y-111210000D01*
X129920000Y-101970000D02*
X129396000Y-101970000D01*
X129920000Y-101970000D02*
X129920000Y-111210000D01*
X129920000Y-111210000D02*
X129396000Y-111210000D01*
X27220000Y-83260000D02*
X27220000Y-84910000D01*
X27220000Y-86910000D02*
X27220000Y-88560000D01*
X27220000Y-88560000D02*
X45120000Y-88560000D01*
X45120000Y-83260000D02*
X27220000Y-83260000D01*
X45120000Y-88560000D02*
X45120000Y-83260000D01*
X27220000Y-84910000D02*
G75*
G02*
X27220000Y-86910000I0J-1000000D01*
G01*
X163710000Y-125700000D02*
X163710000Y-127350000D01*
X163710000Y-129350000D02*
X163710000Y-131000000D01*
X163710000Y-131000000D02*
X181610000Y-131000000D01*
X181610000Y-125700000D02*
X163710000Y-125700000D01*
X181610000Y-131000000D02*
X181610000Y-125700000D01*
X163710000Y-127350000D02*
G75*
G02*
X163710000Y-129350000I0J-1000000D01*
G01*
X199966000Y-79612500D02*
X199968000Y-71582500D01*
X199966000Y-79612500D02*
X200490000Y-79612500D01*
X199968000Y-71582500D02*
X200492000Y-71582500D01*
X202383000Y-71582500D02*
X202837000Y-71582500D01*
X202393000Y-79602500D02*
X202847000Y-79602500D01*
X202847000Y-79602500D02*
X202837000Y-71582500D01*
X244600000Y-25840000D02*
X244600000Y-46280000D01*
X244600000Y-46280000D02*
X246250000Y-46280000D01*
X248250000Y-46280000D02*
X249900000Y-46280000D01*
X249900000Y-25840000D02*
X244600000Y-25840000D01*
X249900000Y-46280000D02*
X249900000Y-25840000D01*
X246250000Y-46280000D02*
G75*
G02*
X248250000Y-46280000I1000000J0D01*
G01*
X185615000Y-52524000D02*
X185615000Y-52070000D01*
X185615000Y-54940000D02*
X185615000Y-54416000D01*
X193875000Y-52092000D02*
X185615000Y-52070000D01*
X193875000Y-52546000D02*
X193875000Y-52092000D01*
X193875000Y-54962000D02*
X185615000Y-54940000D01*
X193875000Y-54962000D02*
X193875000Y-54438000D01*
X126120000Y-26000000D02*
X126120000Y-46440000D01*
X126120000Y-46440000D02*
X127770000Y-46440000D01*
X129770000Y-46440000D02*
X131420000Y-46440000D01*
X131420000Y-26000000D02*
X126120000Y-26000000D01*
X131420000Y-46440000D02*
X131420000Y-26000000D01*
X127770000Y-46440000D02*
G75*
G02*
X129770000Y-46440000I1000000J0D01*
G01*
X105530000Y-26015000D02*
X105530000Y-46455000D01*
X105530000Y-46455000D02*
X107180000Y-46455000D01*
X109180000Y-46455000D02*
X110830000Y-46455000D01*
X110830000Y-26015000D02*
X105530000Y-26015000D01*
X110830000Y-46455000D02*
X110830000Y-26015000D01*
X107180000Y-46455000D02*
G75*
G02*
X109180000Y-46455000I1000000J0D01*
G01*
X27530000Y-72010000D02*
X29330000Y-72010000D01*
X27690000Y-74610000D02*
X29630000Y-74610000D01*
X28430000Y-71110000D02*
X28430000Y-72910000D01*
X29630000Y-71240000D02*
X29630000Y-77980000D01*
X29630000Y-71240000D02*
X31430000Y-71240000D01*
X29630000Y-77980000D02*
X31430000Y-77980000D01*
X31430000Y-71240000D02*
X32330000Y-72140000D01*
X31430000Y-77980000D02*
X32330000Y-77080000D01*
X32330000Y-72140000D02*
X33230000Y-71240000D01*
X32330000Y-77080000D02*
X33230000Y-77980000D01*
X33230000Y-71240000D02*
X47870000Y-71240000D01*
X33230000Y-77980000D02*
X47870000Y-77980000D01*
X47870000Y-71240000D02*
X47870000Y-77980000D01*
X49810000Y-74610000D02*
X47870000Y-74610000D01*
X250760000Y-100450000D02*
X250760000Y-102100000D01*
X250760000Y-104100000D02*
X250760000Y-105750000D01*
X250760000Y-105750000D02*
X271200000Y-105750000D01*
X271200000Y-100450000D02*
X250760000Y-100450000D01*
X271200000Y-105750000D02*
X271200000Y-100450000D01*
X250760000Y-102100000D02*
G75*
G02*
X250760000Y-104100000I0J-1000000D01*
G01*
X226750000Y-26090000D02*
X226750000Y-46530000D01*
X226750000Y-46530000D02*
X228400000Y-46530000D01*
X230400000Y-46530000D02*
X232050000Y-46530000D01*
X232050000Y-26090000D02*
X226750000Y-26090000D01*
X232050000Y-46530000D02*
X232050000Y-26090000D01*
X228400000Y-46530000D02*
G75*
G02*
X230400000Y-46530000I1000000J0D01*
G01*
X75680000Y-106500000D02*
X75680000Y-113040000D01*
X75680000Y-113040000D02*
X76010000Y-113040000D01*
X76010000Y-106500000D02*
X75680000Y-106500000D01*
X78090000Y-106500000D02*
X78420000Y-106500000D01*
X78420000Y-106500000D02*
X78420000Y-113040000D01*
X78420000Y-113040000D02*
X78090000Y-113040000D01*
X130370000Y-105040000D02*
X130370000Y-114280000D01*
X130370000Y-114280000D02*
X133810000Y-114280000D01*
X132090000Y-104350000D02*
X132090000Y-105040000D01*
X132090000Y-114970000D02*
X132090000Y-114280000D01*
X133810000Y-105040000D02*
X130370000Y-105040000D01*
X133810000Y-114280000D02*
X133810000Y-105040000D01*
X27275000Y-104410000D02*
X27275000Y-106060000D01*
X27275000Y-108060000D02*
X27275000Y-109710000D01*
X27275000Y-109710000D02*
X47715000Y-109710000D01*
X47715000Y-104410000D02*
X27275000Y-104410000D01*
X47715000Y-109710000D02*
X47715000Y-104410000D01*
X27275000Y-106060000D02*
G75*
G02*
X27275000Y-108060000I0J-1000000D01*
G01*
X103530000Y-105480000D02*
X103530000Y-114720000D01*
X103530000Y-114720000D02*
X106970000Y-114720000D01*
X105250000Y-104790000D02*
X105250000Y-105480000D01*
X105250000Y-115410000D02*
X105250000Y-114720000D01*
X106970000Y-105480000D02*
X103530000Y-105480000D01*
X106970000Y-114720000D02*
X106970000Y-105480000D01*
X135740000Y-104140000D02*
X135740000Y-105790000D01*
X135740000Y-107790000D02*
X135740000Y-109440000D01*
X135740000Y-109440000D02*
X156180000Y-109440000D01*
X156180000Y-104140000D02*
X135740000Y-104140000D01*
X156180000Y-109440000D02*
X156180000Y-104140000D01*
X135740000Y-105790000D02*
G75*
G02*
X135740000Y-107790000I0J-1000000D01*
G01*
X191965000Y-107110000D02*
X191965000Y-108760000D01*
X191965000Y-110760000D02*
X191965000Y-112410000D01*
X191965000Y-112410000D02*
X212405000Y-112410000D01*
X212405000Y-107110000D02*
X191965000Y-107110000D01*
X212405000Y-112410000D02*
X212405000Y-107110000D01*
X191965000Y-108760000D02*
G75*
G02*
X191965000Y-110760000I0J-1000000D01*
G01*
X93110000Y-120110000D02*
X93800000Y-120110000D01*
X93800000Y-118390000D02*
X93800000Y-121830000D01*
X93800000Y-121830000D02*
X103040000Y-121830000D01*
X103040000Y-118390000D02*
X93800000Y-118390000D01*
X103040000Y-121830000D02*
X103040000Y-118390000D01*
X103730000Y-120110000D02*
X103040000Y-120110000D01*
X75100000Y-81350000D02*
X75100000Y-90590000D01*
X75554000Y-81350000D02*
X75100000Y-81350000D01*
X75554000Y-90590000D02*
X75100000Y-90590000D01*
X77970000Y-81350000D02*
X77446000Y-81350000D01*
X77970000Y-81350000D02*
X77970000Y-90590000D01*
X77970000Y-90590000D02*
X77446000Y-90590000D01*
X173946000Y-47210000D02*
X174470000Y-47210000D01*
X173960000Y-47210000D02*
X173960000Y-37970000D01*
X173968000Y-37980000D02*
X174492000Y-37980000D01*
X175863000Y-47210000D02*
X176317000Y-47210000D01*
X175873000Y-37980000D02*
X176327000Y-37980000D01*
X176330000Y-47210000D02*
X176330000Y-37970000D01*
X126970000Y-81960000D02*
X126970000Y-91200000D01*
X127424000Y-81960000D02*
X126970000Y-81960000D01*
X127424000Y-91200000D02*
X126970000Y-91200000D01*
X129840000Y-81960000D02*
X129316000Y-81960000D01*
X129840000Y-81960000D02*
X129840000Y-91200000D01*
X129840000Y-91200000D02*
X129316000Y-91200000D01*
X164120000Y-89780000D02*
X164120000Y-91430000D01*
X164120000Y-93430000D02*
X164120000Y-95080000D01*
X164120000Y-95080000D02*
X184560000Y-95080000D01*
X184560000Y-89780000D02*
X164120000Y-89780000D01*
X184560000Y-95080000D02*
X184560000Y-89780000D01*
X164120000Y-91430000D02*
G75*
G02*
X164120000Y-93430000I0J-1000000D01*
G01*
X256350000Y-51370000D02*
X265590000Y-51370000D01*
X256360000Y-49090000D02*
X265600000Y-49090000D01*
X155435000Y-78534500D02*
X155435000Y-78080500D01*
X155465000Y-80969500D02*
X155465000Y-80445500D01*
X163955000Y-78534500D02*
X163955000Y-78080500D01*
X163965000Y-77997500D02*
X155445000Y-77997500D01*
X163965000Y-80949500D02*
X163965000Y-80425500D01*
X163975000Y-81347500D02*
X155475000Y-81367500D01*
X46940000Y-81110000D02*
X46940000Y-90350000D01*
X47394000Y-81110000D02*
X46940000Y-81110000D01*
X47394000Y-90350000D02*
X46940000Y-90350000D01*
X49810000Y-81110000D02*
X49286000Y-81110000D01*
X49810000Y-81110000D02*
X49810000Y-90350000D01*
X49810000Y-90350000D02*
X49286000Y-90350000D01*
X251030000Y-55080000D02*
X251030000Y-56730000D01*
X251030000Y-58730000D02*
X251030000Y-60380000D01*
X251030000Y-60380000D02*
X271470000Y-60380000D01*
X271470000Y-55080000D02*
X251030000Y-55080000D01*
X271470000Y-60380000D02*
X271470000Y-55080000D01*
X251030000Y-56730000D02*
G75*
G02*
X251030000Y-58730000I0J-1000000D01*
G01*
X164320000Y-71450000D02*
X164320000Y-73100000D01*
X164320000Y-75100000D02*
X164320000Y-76750000D01*
X164320000Y-76750000D02*
X184760000Y-76750000D01*
X184760000Y-71450000D02*
X164320000Y-71450000D01*
X184760000Y-76750000D02*
X184760000Y-71450000D01*
X164320000Y-73100000D02*
G75*
G02*
X164320000Y-75100000I0J-1000000D01*
G01*
X262710000Y-93040000D02*
X262710000Y-93564000D01*
X262710000Y-93040000D02*
X271950000Y-93040000D01*
X262710000Y-95456000D02*
X262710000Y-95910000D01*
X262710000Y-95910000D02*
X271950000Y-95910000D01*
X271950000Y-93040000D02*
X271950000Y-93564000D01*
X271950000Y-95456000D02*
X271950000Y-95910000D01*
X160470000Y-122930000D02*
X160470000Y-132170000D01*
X160924000Y-122930000D02*
X160470000Y-122930000D01*
X160924000Y-132170000D02*
X160470000Y-132170000D01*
X163340000Y-122930000D02*
X162816000Y-122930000D01*
X163340000Y-122930000D02*
X163340000Y-132170000D01*
X163340000Y-132170000D02*
X162816000Y-132170000D01*
X250770000Y-130800000D02*
X250770000Y-132450000D01*
X250770000Y-134450000D02*
X250770000Y-136100000D01*
X250770000Y-136100000D02*
X271210000Y-136100000D01*
X271210000Y-130800000D02*
X250770000Y-130800000D01*
X271210000Y-136100000D02*
X271210000Y-130800000D01*
X250770000Y-132450000D02*
G75*
G02*
X250770000Y-134450000I0J-1000000D01*
G01*
X220160000Y-126130000D02*
X220160000Y-127780000D01*
X220160000Y-129780000D02*
X220160000Y-131430000D01*
X220160000Y-131430000D02*
X240600000Y-131430000D01*
X240600000Y-126130000D02*
X220160000Y-126130000D01*
X240600000Y-131430000D02*
X240600000Y-126130000D01*
X220160000Y-127780000D02*
G75*
G02*
X220160000Y-129780000I0J-1000000D01*
G01*
X135985000Y-83920000D02*
X135985000Y-85570000D01*
X135985000Y-87570000D02*
X135985000Y-89220000D01*
X135985000Y-89220000D02*
X156425000Y-89220000D01*
X156425000Y-83920000D02*
X135985000Y-83920000D01*
X156425000Y-89220000D02*
X156425000Y-83920000D01*
X135985000Y-85570000D02*
G75*
G02*
X135985000Y-87570000I0J-1000000D01*
G01*
X108100000Y-103420000D02*
X108100000Y-105070000D01*
X108100000Y-107070000D02*
X108100000Y-108720000D01*
X108100000Y-108720000D02*
X126000000Y-108720000D01*
X126000000Y-103420000D02*
X108100000Y-103420000D01*
X126000000Y-108720000D02*
X126000000Y-103420000D01*
X108100000Y-105070000D02*
G75*
G02*
X108100000Y-107070000I0J-1000000D01*
G01*
X260310000Y-25840000D02*
X260310000Y-46280000D01*
X260310000Y-46280000D02*
X261960000Y-46280000D01*
X263960000Y-46280000D02*
X265610000Y-46280000D01*
X265610000Y-25840000D02*
X260310000Y-25840000D01*
X265610000Y-46280000D02*
X265610000Y-25840000D01*
X261960000Y-46280000D02*
G75*
G02*
X263960000Y-46280000I1000000J0D01*
G01*
X188180000Y-125410000D02*
X188180000Y-134650000D01*
X188634000Y-125410000D02*
X188180000Y-125410000D01*
X188634000Y-134650000D02*
X188180000Y-134650000D01*
X191050000Y-125410000D02*
X190526000Y-125410000D01*
X191050000Y-125410000D02*
X191050000Y-134650000D01*
X191050000Y-134650000D02*
X190526000Y-134650000D01*
X164100000Y-107020000D02*
X164100000Y-108670000D01*
X164100000Y-110670000D02*
X164100000Y-112320000D01*
X164100000Y-112320000D02*
X184540000Y-112320000D01*
X184540000Y-107020000D02*
X164100000Y-107020000D01*
X184540000Y-112320000D02*
X184540000Y-107020000D01*
X164100000Y-108670000D02*
G75*
G02*
X164100000Y-110670000I0J-1000000D01*
G01*
X197660000Y-51295000D02*
X197660000Y-69195000D01*
X197660000Y-69195000D02*
X202960000Y-69195000D01*
X199310000Y-51295000D02*
X197660000Y-51295000D01*
X202960000Y-51295000D02*
X201310000Y-51295000D01*
X202960000Y-69195000D02*
X202960000Y-51295000D01*
X201310000Y-51295000D02*
G75*
G02*
X199310000Y-51295000I-1000000J0D01*
G01*
X98235000Y-109840000D02*
X98901000Y-109840000D01*
X98268000Y-117770000D02*
X98235000Y-109840000D01*
X98268000Y-117770000D02*
X98934000Y-117770000D01*
X99742000Y-109840000D02*
X100408000Y-109840000D01*
X99772000Y-117790000D02*
X100438000Y-117790000D01*
X100405000Y-117890000D02*
X100408000Y-109840000D01*
X92310000Y-67430000D02*
X92640000Y-67430000D01*
X92310000Y-73970000D02*
X92310000Y-67430000D01*
X92640000Y-73970000D02*
X92310000Y-73970000D01*
X94720000Y-73970000D02*
X95050000Y-73970000D01*
X95050000Y-67430000D02*
X94720000Y-67430000D01*
X95050000Y-73970000D02*
X95050000Y-67430000D01*
X125970000Y-50620000D02*
X125970000Y-71060000D01*
X125970000Y-71060000D02*
X131270000Y-71060000D01*
X127620000Y-50620000D02*
X125970000Y-50620000D01*
X131270000Y-50620000D02*
X129620000Y-50620000D01*
X131270000Y-71060000D02*
X131270000Y-50620000D01*
X129620000Y-50620000D02*
G75*
G02*
X127620000Y-50620000I-1000000J0D01*
G01*
X92359000Y-50550000D02*
X92359000Y-55890000D01*
X93025000Y-50550000D02*
X92359000Y-50550000D01*
X93025000Y-55890000D02*
X92359000Y-55890000D01*
X95801000Y-50550000D02*
X95135000Y-50550000D01*
X95801000Y-50550000D02*
X95801000Y-55890000D01*
X95801000Y-55890000D02*
X95135000Y-55890000D01*
X197450000Y-25475000D02*
X197450000Y-45915000D01*
X197450000Y-45915000D02*
X199100000Y-45915000D01*
X201100000Y-45915000D02*
X202750000Y-45915000D01*
X202750000Y-25475000D02*
X197450000Y-25475000D01*
X202750000Y-45915000D02*
X202750000Y-25475000D01*
X199100000Y-45915000D02*
G75*
G02*
X201100000Y-45915000I1000000J0D01*
G01*
X191685000Y-125910000D02*
X191685000Y-127560000D01*
X191685000Y-129560000D02*
X191685000Y-131210000D01*
X191685000Y-131210000D02*
X212125000Y-131210000D01*
X212125000Y-125910000D02*
X191685000Y-125910000D01*
X212125000Y-131210000D02*
X212125000Y-125910000D01*
X191685000Y-127560000D02*
G75*
G02*
X191685000Y-129560000I0J-1000000D01*
G01*
X79215000Y-125590000D02*
X79215000Y-127240000D01*
X79215000Y-129240000D02*
X79215000Y-130890000D01*
X79215000Y-130890000D02*
X97115000Y-130890000D01*
X97115000Y-125590000D02*
X79215000Y-125590000D01*
X97115000Y-130890000D02*
X97115000Y-125590000D01*
X79215000Y-127240000D02*
G75*
G02*
X79215000Y-129240000I0J-1000000D01*
G01*
X47040000Y-121930000D02*
X47040000Y-131170000D01*
X47494000Y-121930000D02*
X47040000Y-121930000D01*
X47494000Y-131170000D02*
X47040000Y-131170000D01*
X49910000Y-121930000D02*
X49386000Y-121930000D01*
X49910000Y-121930000D02*
X49910000Y-131170000D01*
X49910000Y-131170000D02*
X49386000Y-131170000D01*
X250870000Y-70170000D02*
X250870000Y-71820000D01*
X250870000Y-73820000D02*
X250870000Y-75470000D01*
X250870000Y-75470000D02*
X271310000Y-75470000D01*
X271310000Y-70170000D02*
X250870000Y-70170000D01*
X271310000Y-75470000D02*
X271310000Y-70170000D01*
X250870000Y-71820000D02*
G75*
G02*
X250870000Y-73820000I0J-1000000D01*
G01*
X93259000Y-40750000D02*
X93925000Y-40750000D01*
X93259000Y-46090000D02*
X93259000Y-40750000D01*
X93259000Y-46090000D02*
X93925000Y-46090000D01*
X96035000Y-40750000D02*
X96701000Y-40750000D01*
X96035000Y-46090000D02*
X96701000Y-46090000D01*
X96701000Y-46090000D02*
X96701000Y-40750000D01*
X79850000Y-103810000D02*
X79850000Y-105460000D01*
X79850000Y-107460000D02*
X79850000Y-109110000D01*
X79850000Y-109110000D02*
X97750000Y-109110000D01*
X97750000Y-103810000D02*
X79850000Y-103810000D01*
X97750000Y-109110000D02*
X97750000Y-103810000D01*
X79850000Y-105460000D02*
G75*
G02*
X79850000Y-107460000I0J-1000000D01*
G01*
X180250000Y-25095000D02*
X180250000Y-45535000D01*
X180250000Y-45535000D02*
X181900000Y-45535000D01*
X183900000Y-45535000D02*
X185550000Y-45535000D01*
X185550000Y-25095000D02*
X180250000Y-25095000D01*
X185550000Y-45535000D02*
X185550000Y-25095000D01*
X181900000Y-45535000D02*
G75*
G02*
X183900000Y-45535000I1000000J0D01*
G01*
X250745000Y-115880000D02*
X250745000Y-117530000D01*
X250745000Y-119530000D02*
X250745000Y-121180000D01*
X250745000Y-121180000D02*
X271185000Y-121180000D01*
X271185000Y-115880000D02*
X250745000Y-115880000D01*
X271185000Y-121180000D02*
X271185000Y-115880000D01*
X250745000Y-117530000D02*
G75*
G02*
X250745000Y-119530000I0J-1000000D01*
G01*
X258120000Y-46733000D02*
X258120000Y-47257000D01*
X258120000Y-48345000D02*
X258120000Y-48855000D01*
X258120000Y-48875000D02*
X267360000Y-48875000D01*
X258130000Y-46675000D02*
X267370000Y-46675000D01*
X267360000Y-48398000D02*
X267360000Y-48852000D01*
X267370000Y-46721000D02*
X267370000Y-47245000D01*
X107865000Y-83740000D02*
X107865000Y-85390000D01*
X107865000Y-87390000D02*
X107865000Y-89040000D01*
X107865000Y-89040000D02*
X125765000Y-89040000D01*
X125765000Y-83740000D02*
X107865000Y-83740000D01*
X125765000Y-89040000D02*
X125765000Y-83740000D01*
X107865000Y-85390000D02*
G75*
G02*
X107865000Y-87390000I0J-1000000D01*
G01*
X146290000Y-50730000D02*
X146290000Y-71170000D01*
X146290000Y-71170000D02*
X151590000Y-71170000D01*
X147940000Y-50730000D02*
X146290000Y-50730000D01*
X151590000Y-50730000D02*
X149940000Y-50730000D01*
X151590000Y-71170000D02*
X151590000Y-50730000D01*
X149940000Y-50730000D02*
G75*
G02*
X147940000Y-50730000I-1000000J0D01*
G01*
X53500000Y-125650000D02*
X53500000Y-127300000D01*
X53500000Y-129300000D02*
X53500000Y-130950000D01*
X53500000Y-130950000D02*
X71400000Y-130950000D01*
X71400000Y-125650000D02*
X53500000Y-125650000D01*
X71400000Y-130950000D02*
X71400000Y-125650000D01*
X53500000Y-127300000D02*
G75*
G02*
X53500000Y-129300000I0J-1000000D01*
G01*
X164540000Y-25140000D02*
X164540000Y-45580000D01*
X164540000Y-45580000D02*
X166190000Y-45580000D01*
X168190000Y-45580000D02*
X169840000Y-45580000D01*
X169840000Y-25140000D02*
X164540000Y-25140000D01*
X169840000Y-45580000D02*
X169840000Y-25140000D01*
X166190000Y-45580000D02*
G75*
G02*
X168190000Y-45580000I1000000J0D01*
G01*
X212720000Y-25475000D02*
X212720000Y-45915000D01*
X212720000Y-45915000D02*
X214370000Y-45915000D01*
X216370000Y-45915000D02*
X218020000Y-45915000D01*
X218020000Y-25475000D02*
X212720000Y-25475000D01*
X218020000Y-45915000D02*
X218020000Y-25475000D01*
X214370000Y-45915000D02*
G75*
G02*
X216370000Y-45915000I1000000J0D01*
G01*
X85460000Y-74775000D02*
X85460000Y-74460000D01*
X85460000Y-77200000D02*
X85460000Y-76885000D01*
X90700000Y-74460000D02*
X85460000Y-74460000D01*
X90700000Y-74775000D02*
X90700000Y-74460000D01*
X90700000Y-77200000D02*
X85460000Y-77200000D01*
X90700000Y-77200000D02*
X90700000Y-76885000D01*
X146270000Y-26050000D02*
X146270000Y-46490000D01*
X146270000Y-46490000D02*
X147920000Y-46490000D01*
X149920000Y-46490000D02*
X151570000Y-46490000D01*
X151570000Y-26050000D02*
X146270000Y-26050000D01*
X151570000Y-46490000D02*
X151570000Y-26050000D01*
X147920000Y-46490000D02*
G75*
G02*
X149920000Y-46490000I1000000J0D01*
G01*
X135865000Y-125100000D02*
X135865000Y-126750000D01*
X135865000Y-128750000D02*
X135865000Y-130400000D01*
X135865000Y-130400000D02*
X153765000Y-130400000D01*
X153765000Y-125100000D02*
X135865000Y-125100000D01*
X153765000Y-130400000D02*
X153765000Y-125100000D01*
X135865000Y-126750000D02*
G75*
G02*
X135865000Y-128750000I0J-1000000D01*
G01*
X88350000Y-60940000D02*
X88350000Y-61255000D01*
X88350000Y-60940000D02*
X93590000Y-60940000D01*
X88350000Y-63365000D02*
X88350000Y-63680000D01*
X88350000Y-63680000D02*
X93590000Y-63680000D01*
X93590000Y-60940000D02*
X93590000Y-61255000D01*
X93590000Y-63365000D02*
X93590000Y-63680000D01*
X251030000Y-84940000D02*
X251030000Y-86590000D01*
X251030000Y-88590000D02*
X251030000Y-90240000D01*
X251030000Y-90240000D02*
X271470000Y-90240000D01*
X271470000Y-84940000D02*
X251030000Y-84940000D01*
X271470000Y-90240000D02*
X271470000Y-84940000D01*
X251030000Y-86590000D02*
G75*
G02*
X251030000Y-88590000I0J-1000000D01*
G01*
X71990000Y-116880000D02*
X71990000Y-111540000D01*
X71997000Y-111530000D02*
X72663000Y-111530000D01*
X72004000Y-116890000D02*
X72670000Y-116890000D01*
X74180000Y-111540000D02*
X74846000Y-111540000D01*
X74190000Y-116890000D02*
X74856000Y-116890000D01*
X74850000Y-116890000D02*
X74850000Y-111550000D01*
X79720000Y-57390000D02*
X88820000Y-57390000D01*
X79720000Y-57510000D02*
X79720000Y-57390000D01*
X80070000Y-48190000D02*
X80070000Y-57390000D01*
X80070000Y-57390000D02*
X88470000Y-57390000D01*
X82370000Y-57390000D02*
X82370000Y-57740000D01*
X82370000Y-57740000D02*
X82370000Y-57740000D01*
X86170000Y-57390000D02*
X86170000Y-57740000D01*
X86170000Y-57740000D02*
X86170000Y-57740000D01*
X88470000Y-48190000D02*
X80070000Y-48190000D01*
X88470000Y-57390000D02*
X88470000Y-48190000D01*
X88820000Y-57390000D02*
X88820000Y-57510000D01*
X88820000Y-57510000D02*
X79720000Y-57510000D01*
X164580000Y-53520000D02*
X164580000Y-55170000D01*
X164580000Y-57170000D02*
X164580000Y-58820000D01*
X164580000Y-58820000D02*
X185020000Y-58820000D01*
X185020000Y-53520000D02*
X164580000Y-53520000D01*
X185020000Y-58820000D02*
X185020000Y-53520000D01*
X164580000Y-55170000D02*
G75*
G02*
X164580000Y-57170000I0J-1000000D01*
G01*
X232710000Y-51415000D02*
X232710000Y-71855000D01*
X232710000Y-71855000D02*
X238010000Y-71855000D01*
X234360000Y-51415000D02*
X232710000Y-51415000D01*
X238010000Y-51415000D02*
X236360000Y-51415000D01*
X238010000Y-71855000D02*
X238010000Y-51415000D01*
X236360000Y-51415000D02*
G75*
G02*
X234360000Y-51415000I-1000000J0D01*
G01*
X78960000Y-67155000D02*
X78960000Y-73695000D01*
X78960000Y-73695000D02*
X79290000Y-73695000D01*
X79290000Y-67155000D02*
X78960000Y-67155000D01*
X81370000Y-67155000D02*
X81700000Y-67155000D01*
X81700000Y-67155000D02*
X81700000Y-73695000D01*
X81700000Y-73695000D02*
X81370000Y-73695000D01*
X53730000Y-103900000D02*
X53730000Y-105550000D01*
X53730000Y-107550000D02*
X53730000Y-109200000D01*
X53730000Y-109200000D02*
X71630000Y-109200000D01*
X71630000Y-103900000D02*
X53730000Y-103900000D01*
X71630000Y-109200000D02*
X71630000Y-103900000D01*
X53730000Y-105550000D02*
G75*
G02*
X53730000Y-107550000I0J-1000000D01*
G01*
X105180000Y-50560000D02*
X105180000Y-71000000D01*
X105180000Y-71000000D02*
X110480000Y-71000000D01*
X106830000Y-50560000D02*
X105180000Y-50560000D01*
X110480000Y-50560000D02*
X108830000Y-50560000D01*
X110480000Y-71000000D02*
X110480000Y-50560000D01*
X108830000Y-50560000D02*
G75*
G02*
X106830000Y-50560000I-1000000J0D01*
G01*
X53620000Y-83360000D02*
X53620000Y-85010000D01*
X53620000Y-87010000D02*
X53620000Y-88660000D01*
X53620000Y-88660000D02*
X74060000Y-88660000D01*
X74060000Y-83360000D02*
X53620000Y-83360000D01*
X74060000Y-88660000D02*
X74060000Y-83360000D01*
X53620000Y-85010000D02*
G75*
G02*
X53620000Y-87010000I0J-1000000D01*
G01*
X79405000Y-83740000D02*
X79405000Y-85390000D01*
X79405000Y-87390000D02*
X79405000Y-89040000D01*
X79405000Y-89040000D02*
X97305000Y-89040000D01*
X97305000Y-83740000D02*
X79405000Y-83740000D01*
X97305000Y-89040000D02*
X97305000Y-83740000D01*
X79405000Y-85390000D02*
G75*
G02*
X79405000Y-87390000I0J-1000000D01*
G01*
X202105000Y-82105000D02*
X202105000Y-87565000D01*
X202105000Y-89565000D02*
X202105000Y-95025000D01*
X202105000Y-95025000D02*
X232705000Y-95025000D01*
X232705000Y-82105000D02*
X202105000Y-82105000D01*
X232705000Y-95025000D02*
X232705000Y-82105000D01*
X202105000Y-87565000D02*
G75*
G02*
X202105000Y-89565000I0J-1000000D01*
G01*
X219860000Y-107050000D02*
X219860000Y-108700000D01*
X219860000Y-110700000D02*
X219860000Y-112350000D01*
X219860000Y-112350000D02*
X240300000Y-112350000D01*
X240300000Y-107050000D02*
X219860000Y-107050000D01*
X240300000Y-112350000D02*
X240300000Y-107050000D01*
X219860000Y-108700000D02*
G75*
G02*
X219860000Y-110700000I0J-1000000D01*
G01*
X215000000Y-51115000D02*
X215000000Y-71555000D01*
X215000000Y-71555000D02*
X220300000Y-71555000D01*
X216650000Y-51115000D02*
X215000000Y-51115000D01*
X220300000Y-51115000D02*
X218650000Y-51115000D01*
X220300000Y-71555000D02*
X220300000Y-51115000D01*
X218650000Y-51115000D02*
G75*
G02*
X216650000Y-51115000I-1000000J0D01*
G01*
%LPC*%
D13*
X65907630Y-26410000D02*
G75*
G02*
X62112370Y-26410000I-1897630J0D01*
G01*
X62112370Y-26410000D02*
G75*
G02*
X65907630Y-26410000I1897630J0D01*
G01*
D14*
X147940000Y-115230000D02*
X149250000Y-115230000D01*
X149250000Y-118350000D01*
X147940000Y-118350000D01*
X147940000Y-115230000D01*
G36*
X147940000Y-115230000D02*
G01*
X149250000Y-115230000D01*
X149250000Y-118350000D01*
X147940000Y-118350000D01*
X147940000Y-115230000D01*
G37*
X141670000Y-115240000D02*
X142980000Y-115240000D01*
X142980000Y-118360000D01*
X141670000Y-118360000D01*
X141670000Y-115240000D01*
G36*
X141670000Y-115240000D02*
G01*
X142980000Y-115240000D01*
X142980000Y-118360000D01*
X141670000Y-118360000D01*
X141670000Y-115240000D01*
G37*
D15*
X153208026Y-116190000D02*
G75*
G02*
X152359278Y-116190000I-424374J0D01*
G01*
X152359278Y-116190000D02*
G75*
G02*
X153208026Y-116190000I424374J0D01*
G01*
D16*
X135738051Y-116430000D02*
G75*
G02*
X134921949Y-116430000I-408051J0D01*
G01*
X134921949Y-116430000D02*
G75*
G02*
X135738051Y-116430000I408051J0D01*
G01*
D14*
X138490000Y-115220000D02*
X139800000Y-115220000D01*
X139800000Y-118340000D01*
X138490000Y-118340000D01*
X138490000Y-115220000D01*
G36*
X138490000Y-115220000D02*
G01*
X139800000Y-115220000D01*
X139800000Y-118340000D01*
X138490000Y-118340000D01*
X138490000Y-115220000D01*
G37*
X144980000Y-115230000D02*
X146290000Y-115230000D01*
X146290000Y-118350000D01*
X144980000Y-118350000D01*
X144980000Y-115230000D01*
G36*
X144980000Y-115230000D02*
G01*
X146290000Y-115230000D01*
X146290000Y-118350000D01*
X144980000Y-118350000D01*
X144980000Y-115230000D01*
G37*
D17*
X246790000Y-132120000D03*
X241960000Y-132140000D03*
D18*
X28620000Y-132000000D03*
D19*
X31160000Y-132000000D03*
X33700000Y-132000000D03*
X36240000Y-132000000D03*
X38780000Y-132000000D03*
X41320000Y-132000000D03*
X43860000Y-132000000D03*
X43860000Y-124380000D03*
X41320000Y-124380000D03*
X38780000Y-124380000D03*
X36240000Y-124380000D03*
X33700000Y-124380000D03*
X31160000Y-124380000D03*
X28620000Y-124380000D03*
D18*
X109040000Y-131900000D03*
D19*
X111580000Y-131900000D03*
X114120000Y-131900000D03*
X116660000Y-131900000D03*
X119200000Y-131900000D03*
X121740000Y-131900000D03*
X124280000Y-131900000D03*
X124280000Y-124280000D03*
X121740000Y-124280000D03*
X119200000Y-124280000D03*
X116660000Y-124280000D03*
X114120000Y-124280000D03*
X111580000Y-124280000D03*
X109040000Y-124280000D03*
D17*
X128430000Y-103710000D03*
X128450000Y-109600000D03*
D18*
X28550000Y-89720000D03*
D19*
X31090000Y-89720000D03*
X33630000Y-89720000D03*
X36170000Y-89720000D03*
X38710000Y-89720000D03*
X41250000Y-89720000D03*
X43790000Y-89720000D03*
X43790000Y-82100000D03*
X41250000Y-82100000D03*
X38710000Y-82100000D03*
X36170000Y-82100000D03*
X33630000Y-82100000D03*
X31090000Y-82100000D03*
X28550000Y-82100000D03*
D18*
X165040000Y-132160000D03*
D19*
X167580000Y-132160000D03*
X170120000Y-132160000D03*
X172660000Y-132160000D03*
X175200000Y-132160000D03*
X177740000Y-132160000D03*
X180280000Y-132160000D03*
X180280000Y-124540000D03*
X177740000Y-124540000D03*
X175200000Y-124540000D03*
X172660000Y-124540000D03*
X170120000Y-124540000D03*
X167580000Y-124540000D03*
X165040000Y-124540000D03*
D17*
X201460000Y-78792500D03*
X201420000Y-72422500D03*
D18*
X251060000Y-44950000D03*
D19*
X251060000Y-42410000D03*
X251060000Y-39870000D03*
X251060000Y-37330000D03*
X251060000Y-34790000D03*
X251060000Y-32250000D03*
X251060000Y-29710000D03*
X251060000Y-27170000D03*
X243440000Y-27170000D03*
X243440000Y-29710000D03*
X243440000Y-32250000D03*
X243440000Y-34790000D03*
X243440000Y-37330000D03*
X243440000Y-39870000D03*
X243440000Y-42410000D03*
X243440000Y-44950000D03*
D17*
X192675000Y-53440000D03*
X186355000Y-53510000D03*
D18*
X132580000Y-45110000D03*
D19*
X132580000Y-42570000D03*
X132580000Y-40030000D03*
X132580000Y-37490000D03*
X132580000Y-34950000D03*
X132580000Y-32410000D03*
X132580000Y-29870000D03*
X132580000Y-27330000D03*
X124960000Y-27330000D03*
X124960000Y-29870000D03*
X124960000Y-32410000D03*
X124960000Y-34950000D03*
X124960000Y-37490000D03*
X124960000Y-40030000D03*
X124960000Y-42570000D03*
X124960000Y-45110000D03*
D18*
X111990000Y-45125000D03*
D19*
X111990000Y-42585000D03*
X111990000Y-40045000D03*
X111990000Y-37505000D03*
X111990000Y-34965000D03*
X111990000Y-32425000D03*
X111990000Y-29885000D03*
X111990000Y-27345000D03*
X104370000Y-27345000D03*
X104370000Y-29885000D03*
X104370000Y-32425000D03*
X104370000Y-34965000D03*
X104370000Y-37505000D03*
X104370000Y-40045000D03*
X104370000Y-42585000D03*
X104370000Y-45125000D03*
D20*
X26250000Y-74610000D03*
D21*
X51250000Y-74610000D03*
D18*
X252090000Y-106910000D03*
D19*
X254630000Y-106910000D03*
X257170000Y-106910000D03*
X259710000Y-106910000D03*
X262250000Y-106910000D03*
X264790000Y-106910000D03*
X267330000Y-106910000D03*
X269870000Y-106910000D03*
X269870000Y-99290000D03*
X267330000Y-99290000D03*
X264790000Y-99290000D03*
X262250000Y-99290000D03*
X259710000Y-99290000D03*
X257170000Y-99290000D03*
X254630000Y-99290000D03*
X252090000Y-99290000D03*
D18*
X233210000Y-45200000D03*
D19*
X233210000Y-42660000D03*
X233210000Y-40120000D03*
X233210000Y-37580000D03*
X233210000Y-35040000D03*
X233210000Y-32500000D03*
X233210000Y-29960000D03*
X233210000Y-27420000D03*
X225590000Y-27420000D03*
X225590000Y-29960000D03*
X225590000Y-32500000D03*
X225590000Y-35040000D03*
X225590000Y-37580000D03*
X225590000Y-40120000D03*
X225590000Y-42660000D03*
X225590000Y-45200000D03*
D22*
X77060000Y-102460000D03*
D19*
X77040000Y-117390000D03*
D22*
X132090000Y-116010000D03*
D19*
X132090000Y-103310000D03*
D18*
X28605000Y-110870000D03*
D19*
X31145000Y-110870000D03*
X33685000Y-110870000D03*
X36225000Y-110870000D03*
X38765000Y-110870000D03*
X41305000Y-110870000D03*
X43845000Y-110870000D03*
X46385000Y-110870000D03*
X46385000Y-103250000D03*
X43845000Y-103250000D03*
X41305000Y-103250000D03*
X38765000Y-103250000D03*
X36225000Y-103250000D03*
X33685000Y-103250000D03*
X31145000Y-103250000D03*
X28605000Y-103250000D03*
D22*
X105180000Y-103130000D03*
D19*
X105210000Y-117020000D03*
D18*
X137070000Y-110600000D03*
D19*
X139610000Y-110600000D03*
X142150000Y-110600000D03*
X144690000Y-110600000D03*
X147230000Y-110600000D03*
X149770000Y-110600000D03*
X152310000Y-110600000D03*
X154850000Y-110600000D03*
X154850000Y-102980000D03*
X152310000Y-102980000D03*
X149770000Y-102980000D03*
X147230000Y-102980000D03*
X144690000Y-102980000D03*
X142150000Y-102980000D03*
X139610000Y-102980000D03*
X137070000Y-102980000D03*
D18*
X193295000Y-113570000D03*
D19*
X195835000Y-113570000D03*
X198375000Y-113570000D03*
X200915000Y-113570000D03*
X203455000Y-113570000D03*
X205995000Y-113570000D03*
X208535000Y-113570000D03*
X211075000Y-113570000D03*
X211075000Y-105950000D03*
X208535000Y-105950000D03*
X205995000Y-105950000D03*
X203455000Y-105950000D03*
X200915000Y-105950000D03*
X198375000Y-105950000D03*
X195835000Y-105950000D03*
X193295000Y-105950000D03*
D22*
X104770000Y-120110000D03*
D19*
X92070000Y-120110000D03*
D17*
X76490000Y-82710000D03*
X76540000Y-89200000D03*
X175210000Y-45330000D03*
X175170000Y-39710000D03*
X128340000Y-83300000D03*
X128390000Y-89890000D03*
D18*
X165450000Y-96240000D03*
D19*
X167990000Y-96240000D03*
X170530000Y-96240000D03*
X173070000Y-96240000D03*
X175610000Y-96240000D03*
X178150000Y-96240000D03*
X180690000Y-96240000D03*
X183230000Y-96240000D03*
X183230000Y-88620000D03*
X180690000Y-88620000D03*
X178150000Y-88620000D03*
X175610000Y-88620000D03*
X173070000Y-88620000D03*
X170530000Y-88620000D03*
X167990000Y-88620000D03*
X165450000Y-88620000D03*
D17*
X258550000Y-50230000D03*
X263620000Y-50180000D03*
X162785000Y-80197500D03*
X156325000Y-79127500D03*
X48340000Y-82520000D03*
X48340000Y-88900000D03*
D18*
X252360000Y-61540000D03*
D19*
X254900000Y-61540000D03*
X257440000Y-61540000D03*
X259980000Y-61540000D03*
X262520000Y-61540000D03*
X265060000Y-61540000D03*
X267600000Y-61540000D03*
X270140000Y-61540000D03*
X270140000Y-53920000D03*
X267600000Y-53920000D03*
X265060000Y-53920000D03*
X262520000Y-53920000D03*
X259980000Y-53920000D03*
X257440000Y-53920000D03*
X254900000Y-53920000D03*
X252360000Y-53920000D03*
D18*
X165650000Y-77910000D03*
D19*
X168190000Y-77910000D03*
X170730000Y-77910000D03*
X173270000Y-77910000D03*
X175810000Y-77910000D03*
X178350000Y-77910000D03*
X180890000Y-77910000D03*
X183430000Y-77910000D03*
X183430000Y-70290000D03*
X180890000Y-70290000D03*
X178350000Y-70290000D03*
X175810000Y-70290000D03*
X173270000Y-70290000D03*
X170730000Y-70290000D03*
X168190000Y-70290000D03*
X165650000Y-70290000D03*
D17*
X264520000Y-94530000D03*
X270270000Y-94490000D03*
X161850000Y-124350000D03*
X161870000Y-130730000D03*
D18*
X252100000Y-137260000D03*
D19*
X254640000Y-137260000D03*
X257180000Y-137260000D03*
X259720000Y-137260000D03*
X262260000Y-137260000D03*
X264800000Y-137260000D03*
X267340000Y-137260000D03*
X269880000Y-137260000D03*
X269880000Y-129640000D03*
X267340000Y-129640000D03*
X264800000Y-129640000D03*
X262260000Y-129640000D03*
X259720000Y-129640000D03*
X257180000Y-129640000D03*
X254640000Y-129640000D03*
X252100000Y-129640000D03*
D18*
X221490000Y-132590000D03*
D19*
X224030000Y-132590000D03*
X226570000Y-132590000D03*
X229110000Y-132590000D03*
X231650000Y-132590000D03*
X234190000Y-132590000D03*
X236730000Y-132590000D03*
X239270000Y-132590000D03*
X239270000Y-124970000D03*
X236730000Y-124970000D03*
X234190000Y-124970000D03*
X231650000Y-124970000D03*
X229110000Y-124970000D03*
X226570000Y-124970000D03*
X224030000Y-124970000D03*
X221490000Y-124970000D03*
D18*
X137315000Y-90380000D03*
D19*
X139855000Y-90380000D03*
X142395000Y-90380000D03*
X144935000Y-90380000D03*
X147475000Y-90380000D03*
X150015000Y-90380000D03*
X152555000Y-90380000D03*
X155095000Y-90380000D03*
X155095000Y-82760000D03*
X152555000Y-82760000D03*
X150015000Y-82760000D03*
X147475000Y-82760000D03*
X144935000Y-82760000D03*
X142395000Y-82760000D03*
X139855000Y-82760000D03*
X137315000Y-82760000D03*
D18*
X109430000Y-109880000D03*
D19*
X111970000Y-109880000D03*
X114510000Y-109880000D03*
X117050000Y-109880000D03*
X119590000Y-109880000D03*
X122130000Y-109880000D03*
X124670000Y-109880000D03*
X124670000Y-102260000D03*
X122130000Y-102260000D03*
X119590000Y-102260000D03*
X117050000Y-102260000D03*
X114510000Y-102260000D03*
X111970000Y-102260000D03*
X109430000Y-102260000D03*
D18*
X266770000Y-44950000D03*
D19*
X266770000Y-42410000D03*
X266770000Y-39870000D03*
X266770000Y-37330000D03*
X266770000Y-34790000D03*
X266770000Y-32250000D03*
X266770000Y-29710000D03*
X266770000Y-27170000D03*
X259150000Y-27170000D03*
X259150000Y-29710000D03*
X259150000Y-32250000D03*
X259150000Y-34790000D03*
X259150000Y-37330000D03*
X259150000Y-39870000D03*
X259150000Y-42410000D03*
X259150000Y-44950000D03*
D17*
X189550000Y-126920000D03*
X189610000Y-133210000D03*
D18*
X165430000Y-113480000D03*
D19*
X167970000Y-113480000D03*
X170510000Y-113480000D03*
X173050000Y-113480000D03*
X175590000Y-113480000D03*
X178130000Y-113480000D03*
X180670000Y-113480000D03*
X183210000Y-113480000D03*
X183210000Y-105860000D03*
X180670000Y-105860000D03*
X178130000Y-105860000D03*
X175590000Y-105860000D03*
X173050000Y-105860000D03*
X170510000Y-105860000D03*
X167970000Y-105860000D03*
X165430000Y-105860000D03*
D18*
X196500000Y-52625000D03*
D19*
X196500000Y-55165000D03*
X196500000Y-57705000D03*
X196500000Y-60245000D03*
X196500000Y-62785000D03*
X196500000Y-65325000D03*
X196500000Y-67865000D03*
X204120000Y-67865000D03*
X204120000Y-65325000D03*
X204120000Y-62785000D03*
X204120000Y-60245000D03*
X204120000Y-57705000D03*
X204120000Y-55165000D03*
X204120000Y-52625000D03*
D22*
X99325000Y-116900000D03*
X99325000Y-110760000D03*
X93680000Y-75740000D03*
D19*
X93690000Y-65630000D03*
D18*
X124810000Y-51950000D03*
D19*
X124810000Y-54490000D03*
X124810000Y-57030000D03*
X124810000Y-59570000D03*
X124810000Y-62110000D03*
X124810000Y-64650000D03*
X124810000Y-67190000D03*
X124810000Y-69730000D03*
X132430000Y-69730000D03*
X132430000Y-67190000D03*
X132430000Y-64650000D03*
X132430000Y-62110000D03*
X132430000Y-59570000D03*
X132430000Y-57030000D03*
X132430000Y-54490000D03*
X132430000Y-51950000D03*
D22*
X94080000Y-50150000D03*
X94070000Y-56250000D03*
D18*
X203910000Y-44585000D03*
D19*
X203910000Y-42045000D03*
X203910000Y-39505000D03*
X203910000Y-36965000D03*
X203910000Y-34425000D03*
X203910000Y-31885000D03*
X203910000Y-29345000D03*
X203910000Y-26805000D03*
X196290000Y-26805000D03*
X196290000Y-29345000D03*
X196290000Y-31885000D03*
X196290000Y-34425000D03*
X196290000Y-36965000D03*
X196290000Y-39505000D03*
X196290000Y-42045000D03*
X196290000Y-44585000D03*
D18*
X193015000Y-132370000D03*
D19*
X195555000Y-132370000D03*
X198095000Y-132370000D03*
X200635000Y-132370000D03*
X203175000Y-132370000D03*
X205715000Y-132370000D03*
X208255000Y-132370000D03*
X210795000Y-132370000D03*
X210795000Y-124750000D03*
X208255000Y-124750000D03*
X205715000Y-124750000D03*
X203175000Y-124750000D03*
X200635000Y-124750000D03*
X198095000Y-124750000D03*
X195555000Y-124750000D03*
X193015000Y-124750000D03*
D18*
X80545000Y-132050000D03*
D19*
X83085000Y-132050000D03*
X85625000Y-132050000D03*
X88165000Y-132050000D03*
X90705000Y-132050000D03*
X93245000Y-132050000D03*
X95785000Y-132050000D03*
X95785000Y-124430000D03*
X93245000Y-124430000D03*
X90705000Y-124430000D03*
X88165000Y-124430000D03*
X85625000Y-124430000D03*
X83085000Y-124430000D03*
X80545000Y-124430000D03*
D17*
X48420000Y-123200000D03*
X48460000Y-129840000D03*
D18*
X252200000Y-76630000D03*
D19*
X254740000Y-76630000D03*
X257280000Y-76630000D03*
X259820000Y-76630000D03*
X262360000Y-76630000D03*
X264900000Y-76630000D03*
X267440000Y-76630000D03*
X269980000Y-76630000D03*
X269980000Y-69010000D03*
X267440000Y-69010000D03*
X264900000Y-69010000D03*
X262360000Y-69010000D03*
X259820000Y-69010000D03*
X257280000Y-69010000D03*
X254740000Y-69010000D03*
X252200000Y-69010000D03*
D22*
X94980000Y-45920000D03*
X94980000Y-40920000D03*
D23*
X61050000Y-152810000D03*
D24*
X67908000Y-152810000D03*
X140933000Y-152810000D03*
X150458000Y-152810000D03*
X153633000Y-152810000D03*
X159983000Y-152810000D03*
X163158000Y-152810000D03*
X166333000Y-152810000D03*
X175858000Y-152810000D03*
X188558000Y-152810000D03*
X191733000Y-152810000D03*
X194908000Y-152810000D03*
X198083000Y-152810000D03*
X207608000Y-152810000D03*
D23*
X217641000Y-152810000D03*
D18*
X81180000Y-110270000D03*
D19*
X83720000Y-110270000D03*
X86260000Y-110270000D03*
X88800000Y-110270000D03*
X91340000Y-110270000D03*
X93880000Y-110270000D03*
X96420000Y-110270000D03*
X96420000Y-102650000D03*
X93880000Y-102650000D03*
X91340000Y-102650000D03*
X88800000Y-102650000D03*
X86260000Y-102650000D03*
X83720000Y-102650000D03*
X81180000Y-102650000D03*
D18*
X186710000Y-44205000D03*
D19*
X186710000Y-41665000D03*
X186710000Y-39125000D03*
X186710000Y-36585000D03*
X186710000Y-34045000D03*
X186710000Y-31505000D03*
X186710000Y-28965000D03*
X186710000Y-26425000D03*
X179090000Y-26425000D03*
X179090000Y-28965000D03*
X179090000Y-31505000D03*
X179090000Y-34045000D03*
X179090000Y-36585000D03*
X179090000Y-39125000D03*
X179090000Y-41665000D03*
X179090000Y-44205000D03*
D18*
X252075000Y-122340000D03*
D19*
X254615000Y-122340000D03*
X257155000Y-122340000D03*
X259695000Y-122340000D03*
X262235000Y-122340000D03*
X264775000Y-122340000D03*
X267315000Y-122340000D03*
X269855000Y-122340000D03*
X269855000Y-114720000D03*
X267315000Y-114720000D03*
X264775000Y-114720000D03*
X262235000Y-114720000D03*
X259695000Y-114720000D03*
X257155000Y-114720000D03*
X254615000Y-114720000D03*
X252075000Y-114720000D03*
D17*
X260220000Y-47775000D03*
X265240000Y-47765000D03*
D18*
X109195000Y-90200000D03*
D19*
X111735000Y-90200000D03*
X114275000Y-90200000D03*
X116815000Y-90200000D03*
X119355000Y-90200000D03*
X121895000Y-90200000D03*
X124435000Y-90200000D03*
X124435000Y-82580000D03*
X121895000Y-82580000D03*
X119355000Y-82580000D03*
X116815000Y-82580000D03*
X114275000Y-82580000D03*
X111735000Y-82580000D03*
X109195000Y-82580000D03*
D18*
X145130000Y-52060000D03*
D19*
X145130000Y-54600000D03*
X145130000Y-57140000D03*
X145130000Y-59680000D03*
X145130000Y-62220000D03*
X145130000Y-64760000D03*
X145130000Y-67300000D03*
X145130000Y-69840000D03*
X152750000Y-69840000D03*
X152750000Y-67300000D03*
X152750000Y-64760000D03*
X152750000Y-62220000D03*
X152750000Y-59680000D03*
X152750000Y-57140000D03*
X152750000Y-54600000D03*
X152750000Y-52060000D03*
D18*
X54830000Y-132110000D03*
D19*
X57370000Y-132110000D03*
X59910000Y-132110000D03*
X62450000Y-132110000D03*
X64990000Y-132110000D03*
X67530000Y-132110000D03*
X70070000Y-132110000D03*
X70070000Y-124490000D03*
X67530000Y-124490000D03*
X64990000Y-124490000D03*
X62450000Y-124490000D03*
X59910000Y-124490000D03*
X57370000Y-124490000D03*
X54830000Y-124490000D03*
D18*
X171000000Y-44250000D03*
D19*
X171000000Y-41710000D03*
X171000000Y-39170000D03*
X171000000Y-36630000D03*
X171000000Y-34090000D03*
X171000000Y-31550000D03*
X171000000Y-29010000D03*
X171000000Y-26470000D03*
X163380000Y-26470000D03*
X163380000Y-29010000D03*
X163380000Y-31550000D03*
X163380000Y-34090000D03*
X163380000Y-36630000D03*
X163380000Y-39170000D03*
X163380000Y-41710000D03*
X163380000Y-44250000D03*
D18*
X219180000Y-44585000D03*
D19*
X219180000Y-42045000D03*
X219180000Y-39505000D03*
X219180000Y-36965000D03*
X219180000Y-34425000D03*
X219180000Y-31885000D03*
X219180000Y-29345000D03*
X219180000Y-26805000D03*
X211560000Y-26805000D03*
X211560000Y-29345000D03*
X211560000Y-31885000D03*
X211560000Y-34425000D03*
X211560000Y-36965000D03*
X211560000Y-39505000D03*
X211560000Y-42045000D03*
X211560000Y-44585000D03*
D25*
X46407836Y-33435733D03*
D26*
X42638957Y-33343809D03*
X42815734Y-37027835D03*
D22*
X91660000Y-75820000D03*
X84520000Y-75820000D03*
D18*
X152730000Y-45160000D03*
D19*
X152730000Y-42620000D03*
X152730000Y-40080000D03*
X152730000Y-37540000D03*
X152730000Y-35000000D03*
X152730000Y-32460000D03*
X152730000Y-29920000D03*
X152730000Y-27380000D03*
X145110000Y-27380000D03*
X145110000Y-29920000D03*
X145110000Y-32460000D03*
X145110000Y-35000000D03*
X145110000Y-37540000D03*
X145110000Y-40080000D03*
X145110000Y-42620000D03*
X145110000Y-45160000D03*
D18*
X137195000Y-131560000D03*
D19*
X139735000Y-131560000D03*
X142275000Y-131560000D03*
X144815000Y-131560000D03*
X147355000Y-131560000D03*
X149895000Y-131560000D03*
X152435000Y-131560000D03*
X152435000Y-123940000D03*
X149895000Y-123940000D03*
X147355000Y-123940000D03*
X144815000Y-123940000D03*
X142275000Y-123940000D03*
X139735000Y-123940000D03*
X137195000Y-123940000D03*
D22*
X88470000Y-62310000D03*
X93470000Y-62310000D03*
D18*
X252360000Y-91400000D03*
D19*
X254900000Y-91400000D03*
X257440000Y-91400000D03*
X259980000Y-91400000D03*
X262520000Y-91400000D03*
X265060000Y-91400000D03*
X267600000Y-91400000D03*
X270140000Y-91400000D03*
X270140000Y-83780000D03*
X267600000Y-83780000D03*
X265060000Y-83780000D03*
X262520000Y-83780000D03*
X259980000Y-83780000D03*
X257440000Y-83780000D03*
X254900000Y-83780000D03*
X252360000Y-83780000D03*
D22*
X73430000Y-117500000D03*
X73470000Y-110970000D03*
D27*
X86170000Y-58690000D03*
X82370000Y-58690000D03*
D18*
X165910000Y-59980000D03*
D19*
X168450000Y-59980000D03*
X170990000Y-59980000D03*
X173530000Y-59980000D03*
X176070000Y-59980000D03*
X178610000Y-59980000D03*
X181150000Y-59980000D03*
X183690000Y-59980000D03*
X183690000Y-52360000D03*
X181150000Y-52360000D03*
X178610000Y-52360000D03*
X176070000Y-52360000D03*
X173530000Y-52360000D03*
X170990000Y-52360000D03*
X168450000Y-52360000D03*
X165910000Y-52360000D03*
D18*
X231550000Y-52745000D03*
D19*
X231550000Y-55285000D03*
X231550000Y-57825000D03*
X231550000Y-60365000D03*
X231550000Y-62905000D03*
X231550000Y-65445000D03*
X231550000Y-67985000D03*
X231550000Y-70525000D03*
X239170000Y-70525000D03*
X239170000Y-67985000D03*
X239170000Y-65445000D03*
X239170000Y-62905000D03*
X239170000Y-60365000D03*
X239170000Y-57825000D03*
X239170000Y-55285000D03*
X239170000Y-52745000D03*
D22*
X80340000Y-65295000D03*
D19*
X80290000Y-75565000D03*
D18*
X55060000Y-110360000D03*
D19*
X57600000Y-110360000D03*
X60140000Y-110360000D03*
X62680000Y-110360000D03*
X65220000Y-110360000D03*
X67760000Y-110360000D03*
X70300000Y-110360000D03*
X70300000Y-102740000D03*
X67760000Y-102740000D03*
X65220000Y-102740000D03*
X62680000Y-102740000D03*
X60140000Y-102740000D03*
X57600000Y-102740000D03*
X55060000Y-102740000D03*
D18*
X104020000Y-51890000D03*
D19*
X104020000Y-54430000D03*
X104020000Y-56970000D03*
X104020000Y-59510000D03*
X104020000Y-62050000D03*
X104020000Y-64590000D03*
X104020000Y-67130000D03*
X104020000Y-69670000D03*
X111640000Y-69670000D03*
X111640000Y-67130000D03*
X111640000Y-64590000D03*
X111640000Y-62050000D03*
X111640000Y-59510000D03*
X111640000Y-56970000D03*
X111640000Y-54430000D03*
X111640000Y-51890000D03*
D18*
X54950000Y-89820000D03*
D19*
X57490000Y-89820000D03*
X60030000Y-89820000D03*
X62570000Y-89820000D03*
X65110000Y-89820000D03*
X67650000Y-89820000D03*
X70190000Y-89820000D03*
X72730000Y-89820000D03*
X72730000Y-82200000D03*
X70190000Y-82200000D03*
X67650000Y-82200000D03*
X65110000Y-82200000D03*
X62570000Y-82200000D03*
X60030000Y-82200000D03*
X57490000Y-82200000D03*
X54950000Y-82200000D03*
D28*
X41138415Y-54780517D03*
D26*
X45381056Y-55431055D03*
X44730517Y-51188415D03*
D18*
X80735000Y-90200000D03*
D19*
X83275000Y-90200000D03*
X85815000Y-90200000D03*
X88355000Y-90200000D03*
X90895000Y-90200000D03*
X93435000Y-90200000D03*
X95975000Y-90200000D03*
X95975000Y-82580000D03*
X93435000Y-82580000D03*
X90895000Y-82580000D03*
X88355000Y-82580000D03*
X85815000Y-82580000D03*
X83275000Y-82580000D03*
X80735000Y-82580000D03*
D18*
X203435000Y-96185000D03*
D19*
X205975000Y-96185000D03*
X208515000Y-96185000D03*
X211055000Y-96185000D03*
X213595000Y-96185000D03*
X216135000Y-96185000D03*
X218675000Y-96185000D03*
X221215000Y-96185000D03*
X223755000Y-96185000D03*
X226295000Y-96185000D03*
X228835000Y-96185000D03*
X231375000Y-96185000D03*
X231375000Y-80945000D03*
X228835000Y-80945000D03*
X226295000Y-80945000D03*
X223755000Y-80945000D03*
X221215000Y-80945000D03*
X218675000Y-80945000D03*
X216135000Y-80945000D03*
X213595000Y-80945000D03*
X211055000Y-80945000D03*
X208515000Y-80945000D03*
X205975000Y-80945000D03*
X203435000Y-80945000D03*
D18*
X221190000Y-113510000D03*
D19*
X223730000Y-113510000D03*
X226270000Y-113510000D03*
X228810000Y-113510000D03*
X231350000Y-113510000D03*
X233890000Y-113510000D03*
X236430000Y-113510000D03*
X238970000Y-113510000D03*
X238970000Y-105890000D03*
X236430000Y-105890000D03*
X233890000Y-105890000D03*
X231350000Y-105890000D03*
X228810000Y-105890000D03*
X226270000Y-105890000D03*
X223730000Y-105890000D03*
X221190000Y-105890000D03*
D18*
X213840000Y-52445000D03*
D19*
X213840000Y-54985000D03*
X213840000Y-57525000D03*
X213840000Y-60065000D03*
X213840000Y-62605000D03*
X213840000Y-65145000D03*
X213840000Y-67685000D03*
X213840000Y-70225000D03*
X221460000Y-70225000D03*
X221460000Y-67685000D03*
X221460000Y-65145000D03*
X221460000Y-62605000D03*
X221460000Y-60065000D03*
X221460000Y-57525000D03*
X221460000Y-54985000D03*
X221460000Y-52445000D03*
G36*
X69757055Y-23379650D02*
G01*
X69824039Y-23399525D01*
X69869643Y-23452458D01*
X69880701Y-23502941D01*
X70149291Y-70575793D01*
X70129989Y-70642944D01*
X70077447Y-70689000D01*
X70025792Y-70700500D01*
X20605513Y-70899494D01*
X20538395Y-70880080D01*
X20492428Y-70827460D01*
X20481018Y-70774489D01*
X20660000Y-48719989D01*
X20660000Y-48670097D01*
X20656476Y-46429996D01*
X53272493Y-46429996D01*
X53272493Y-46430000D01*
X53292500Y-46703366D01*
X53292501Y-46703376D01*
X53352096Y-46970903D01*
X53352098Y-46970908D01*
X53450015Y-47226923D01*
X53584162Y-47465946D01*
X53584165Y-47465951D01*
X53751683Y-47682894D01*
X53751692Y-47682904D01*
X53949005Y-47873137D01*
X53949013Y-47873144D01*
X54171922Y-48032621D01*
X54171934Y-48032628D01*
X54415692Y-48157954D01*
X54415706Y-48157960D01*
X54675102Y-48246454D01*
X54675120Y-48246458D01*
X54944655Y-48296243D01*
X54944662Y-48296244D01*
X55218568Y-48306255D01*
X55491021Y-48276275D01*
X55491031Y-48276274D01*
X55756206Y-48206949D01*
X55756208Y-48206948D01*
X56008467Y-48099751D01*
X56242439Y-47956960D01*
X56242449Y-47956953D01*
X56453128Y-47781625D01*
X56453134Y-47781619D01*
X56636040Y-47577483D01*
X56787277Y-47348888D01*
X56903625Y-47100695D01*
X56903625Y-47100693D01*
X56982587Y-46838238D01*
X56982590Y-46838224D01*
X57022498Y-46567051D01*
X57022499Y-46567035D01*
X57025000Y-46430000D01*
X57022499Y-46292964D01*
X57022498Y-46292948D01*
X56982590Y-46021775D01*
X56982587Y-46021761D01*
X56903625Y-45759306D01*
X56903625Y-45759304D01*
X56787277Y-45511111D01*
X56636040Y-45282516D01*
X56453134Y-45078380D01*
X56453128Y-45078374D01*
X56242449Y-44903046D01*
X56242439Y-44903039D01*
X56008467Y-44760248D01*
X55756208Y-44653051D01*
X55756206Y-44653050D01*
X55491031Y-44583725D01*
X55491021Y-44583724D01*
X55218566Y-44553744D01*
X54944662Y-44563755D01*
X54944655Y-44563756D01*
X54675120Y-44613541D01*
X54675102Y-44613545D01*
X54415706Y-44702039D01*
X54415692Y-44702045D01*
X54171934Y-44827371D01*
X54171922Y-44827378D01*
X53949013Y-44986855D01*
X53949005Y-44986862D01*
X53751692Y-45177095D01*
X53751683Y-45177105D01*
X53584165Y-45394048D01*
X53584162Y-45394053D01*
X53450015Y-45633076D01*
X53352098Y-45889091D01*
X53352096Y-45889096D01*
X53292501Y-46156623D01*
X53292500Y-46156633D01*
X53272493Y-46429996D01*
X20656476Y-46429996D01*
X20650279Y-42489996D01*
X30552493Y-42489996D01*
X30552493Y-42490000D01*
X30572500Y-42763366D01*
X30572501Y-42763376D01*
X30632096Y-43030903D01*
X30632098Y-43030908D01*
X30730015Y-43286923D01*
X30864162Y-43525946D01*
X30864165Y-43525951D01*
X31031683Y-43742894D01*
X31031692Y-43742904D01*
X31229005Y-43933137D01*
X31229013Y-43933144D01*
X31451922Y-44092621D01*
X31451934Y-44092628D01*
X31695692Y-44217954D01*
X31695706Y-44217960D01*
X31955102Y-44306454D01*
X31955120Y-44306458D01*
X32224655Y-44356243D01*
X32224662Y-44356244D01*
X32498568Y-44366255D01*
X32771021Y-44336275D01*
X32771031Y-44336274D01*
X33036206Y-44266949D01*
X33036208Y-44266948D01*
X33288467Y-44159751D01*
X33522439Y-44016960D01*
X33522449Y-44016953D01*
X33733128Y-43841625D01*
X33733134Y-43841619D01*
X33916040Y-43637483D01*
X34067277Y-43408888D01*
X34183625Y-43160695D01*
X34183625Y-43160693D01*
X34262587Y-42898238D01*
X34262590Y-42898224D01*
X34302498Y-42627051D01*
X34302499Y-42627035D01*
X34305000Y-42490000D01*
X34302499Y-42352964D01*
X34302498Y-42352948D01*
X34262590Y-42081775D01*
X34262587Y-42081761D01*
X34183625Y-41819306D01*
X34183625Y-41819304D01*
X34067277Y-41571111D01*
X33916040Y-41342516D01*
X33733134Y-41138380D01*
X33733128Y-41138374D01*
X33522449Y-40963046D01*
X33522439Y-40963039D01*
X33288467Y-40820248D01*
X33036208Y-40713051D01*
X33036206Y-40713050D01*
X32771031Y-40643725D01*
X32771021Y-40643724D01*
X32498566Y-40613744D01*
X32224662Y-40623755D01*
X32224655Y-40623756D01*
X31955120Y-40673541D01*
X31955102Y-40673545D01*
X31695706Y-40762039D01*
X31695692Y-40762045D01*
X31451934Y-40887371D01*
X31451922Y-40887378D01*
X31229013Y-41046855D01*
X31229005Y-41046862D01*
X31031692Y-41237095D01*
X31031683Y-41237105D01*
X30864165Y-41454048D01*
X30864162Y-41454053D01*
X30730015Y-41693076D01*
X30632098Y-41949091D01*
X30632096Y-41949096D01*
X30572501Y-42216623D01*
X30572500Y-42216633D01*
X30552493Y-42489996D01*
X20650279Y-42489996D01*
X20620195Y-23364547D01*
X20639774Y-23297477D01*
X20692506Y-23251639D01*
X20744547Y-23240353D01*
X69757055Y-23379650D01*
G37*
G36*
X62392195Y-140809700D02*
G01*
X62437964Y-140862491D01*
X62449181Y-140914847D01*
X62430808Y-143716676D01*
X62410685Y-143783585D01*
X62357582Y-143828993D01*
X62306674Y-143839863D01*
X26434276Y-143800137D01*
X26367258Y-143780378D01*
X26321562Y-143727524D01*
X26310414Y-143675724D01*
X26319588Y-140923552D01*
X26339496Y-140856578D01*
X26392452Y-140811000D01*
X26443553Y-140799965D01*
X62325150Y-140790034D01*
X62392195Y-140809700D01*
G37*
%LPD*%
M02*
