G04 #@! TF.GenerationSoftware,KiCad,Pcbnew,8.0.6*
G04 #@! TF.CreationDate,2025-02-23T10:59:59+00:00*
G04 #@! TF.ProjectId,Northstart Floating point,4e6f7274-6873-4746-9172-7420466c6f61,rev?*
G04 #@! TF.SameCoordinates,Original*
G04 #@! TF.FileFunction,Profile,NP*
%FSLAX46Y46*%
G04 Gerber Fmt 4.6, Leading zero omitted, Abs format (unit mm)*
G04 Created by KiCad (PCBNEW 8.0.6) date 2025-02-23 10:59:59*
%MOMM*%
%LPD*%
G01*
G04 APERTURE LIST*
G04 #@! TA.AperFunction,Profile*
%ADD10C,0.152400*%
G04 #@! TD*
G04 APERTURE END LIST*
D10*
X34305000Y-42490000D02*
G75*
G02*
X30555000Y-42490000I-1875000J0D01*
G01*
X30555000Y-42490000D02*
G75*
G02*
X34305000Y-42490000I1875000J0D01*
G01*
X57025000Y-46430000D02*
G75*
G02*
X53275000Y-46430000I-1875000J0D01*
G01*
X53275000Y-46430000D02*
G75*
G02*
X57025000Y-46430000I1875000J0D01*
G01*
X220345000Y-157480000D02*
X58420000Y-157480000D01*
X274320000Y-149860000D02*
X274390000Y-22860000D01*
X20320000Y-29210000D02*
X20320000Y-149860000D01*
X58420000Y-149860000D02*
X20320000Y-149860000D01*
X274390000Y-22860000D02*
X20300000Y-22860000D01*
X220345000Y-149860000D02*
X220345000Y-157480000D01*
X20300000Y-22860000D02*
X20320000Y-29210000D01*
X58420000Y-157480000D02*
X58420000Y-149860000D01*
X274320000Y-149860000D02*
X220345000Y-149860000D01*
G36*
X69757055Y-23379650D02*
G01*
X69824039Y-23399525D01*
X69869643Y-23452458D01*
X69880701Y-23502941D01*
X70149291Y-70575793D01*
X70129989Y-70642944D01*
X70077447Y-70689000D01*
X70025792Y-70700500D01*
X20605513Y-70899494D01*
X20538395Y-70880080D01*
X20492428Y-70827460D01*
X20481018Y-70774489D01*
X20660000Y-48719989D01*
X20660000Y-48670097D01*
X20656476Y-46429996D01*
X53272493Y-46429996D01*
X53272493Y-46430000D01*
X53292500Y-46703366D01*
X53292501Y-46703376D01*
X53352096Y-46970903D01*
X53352098Y-46970908D01*
X53450015Y-47226923D01*
X53584162Y-47465946D01*
X53584165Y-47465951D01*
X53751683Y-47682894D01*
X53751692Y-47682904D01*
X53949005Y-47873137D01*
X53949013Y-47873144D01*
X54171922Y-48032621D01*
X54171934Y-48032628D01*
X54415692Y-48157954D01*
X54415706Y-48157960D01*
X54675102Y-48246454D01*
X54675120Y-48246458D01*
X54944655Y-48296243D01*
X54944662Y-48296244D01*
X55218568Y-48306255D01*
X55491021Y-48276275D01*
X55491031Y-48276274D01*
X55756206Y-48206949D01*
X55756208Y-48206948D01*
X56008467Y-48099751D01*
X56242439Y-47956960D01*
X56242449Y-47956953D01*
X56453128Y-47781625D01*
X56453134Y-47781619D01*
X56636040Y-47577483D01*
X56787277Y-47348888D01*
X56903625Y-47100695D01*
X56903625Y-47100693D01*
X56982587Y-46838238D01*
X56982590Y-46838224D01*
X57022498Y-46567051D01*
X57022499Y-46567035D01*
X57025000Y-46430000D01*
X57022499Y-46292964D01*
X57022498Y-46292948D01*
X56982590Y-46021775D01*
X56982587Y-46021761D01*
X56903625Y-45759306D01*
X56903625Y-45759304D01*
X56787277Y-45511111D01*
X56636040Y-45282516D01*
X56453134Y-45078380D01*
X56453128Y-45078374D01*
X56242449Y-44903046D01*
X56242439Y-44903039D01*
X56008467Y-44760248D01*
X55756208Y-44653051D01*
X55756206Y-44653050D01*
X55491031Y-44583725D01*
X55491021Y-44583724D01*
X55218566Y-44553744D01*
X54944662Y-44563755D01*
X54944655Y-44563756D01*
X54675120Y-44613541D01*
X54675102Y-44613545D01*
X54415706Y-44702039D01*
X54415692Y-44702045D01*
X54171934Y-44827371D01*
X54171922Y-44827378D01*
X53949013Y-44986855D01*
X53949005Y-44986862D01*
X53751692Y-45177095D01*
X53751683Y-45177105D01*
X53584165Y-45394048D01*
X53584162Y-45394053D01*
X53450015Y-45633076D01*
X53352098Y-45889091D01*
X53352096Y-45889096D01*
X53292501Y-46156623D01*
X53292500Y-46156633D01*
X53272493Y-46429996D01*
X20656476Y-46429996D01*
X20650279Y-42489996D01*
X30552493Y-42489996D01*
X30552493Y-42490000D01*
X30572500Y-42763366D01*
X30572501Y-42763376D01*
X30632096Y-43030903D01*
X30632098Y-43030908D01*
X30730015Y-43286923D01*
X30864162Y-43525946D01*
X30864165Y-43525951D01*
X31031683Y-43742894D01*
X31031692Y-43742904D01*
X31229005Y-43933137D01*
X31229013Y-43933144D01*
X31451922Y-44092621D01*
X31451934Y-44092628D01*
X31695692Y-44217954D01*
X31695706Y-44217960D01*
X31955102Y-44306454D01*
X31955120Y-44306458D01*
X32224655Y-44356243D01*
X32224662Y-44356244D01*
X32498568Y-44366255D01*
X32771021Y-44336275D01*
X32771031Y-44336274D01*
X33036206Y-44266949D01*
X33036208Y-44266948D01*
X33288467Y-44159751D01*
X33522439Y-44016960D01*
X33522449Y-44016953D01*
X33733128Y-43841625D01*
X33733134Y-43841619D01*
X33916040Y-43637483D01*
X34067277Y-43408888D01*
X34183625Y-43160695D01*
X34183625Y-43160693D01*
X34262587Y-42898238D01*
X34262590Y-42898224D01*
X34302498Y-42627051D01*
X34302499Y-42627035D01*
X34305000Y-42490000D01*
X34302499Y-42352964D01*
X34302498Y-42352948D01*
X34262590Y-42081775D01*
X34262587Y-42081761D01*
X34183625Y-41819306D01*
X34183625Y-41819304D01*
X34067277Y-41571111D01*
X33916040Y-41342516D01*
X33733134Y-41138380D01*
X33733128Y-41138374D01*
X33522449Y-40963046D01*
X33522439Y-40963039D01*
X33288467Y-40820248D01*
X33036208Y-40713051D01*
X33036206Y-40713050D01*
X32771031Y-40643725D01*
X32771021Y-40643724D01*
X32498566Y-40613744D01*
X32224662Y-40623755D01*
X32224655Y-40623756D01*
X31955120Y-40673541D01*
X31955102Y-40673545D01*
X31695706Y-40762039D01*
X31695692Y-40762045D01*
X31451934Y-40887371D01*
X31451922Y-40887378D01*
X31229013Y-41046855D01*
X31229005Y-41046862D01*
X31031692Y-41237095D01*
X31031683Y-41237105D01*
X30864165Y-41454048D01*
X30864162Y-41454053D01*
X30730015Y-41693076D01*
X30632098Y-41949091D01*
X30632096Y-41949096D01*
X30572501Y-42216623D01*
X30572500Y-42216633D01*
X30552493Y-42489996D01*
X20650279Y-42489996D01*
X20620195Y-23364547D01*
X20639774Y-23297477D01*
X20692506Y-23251639D01*
X20744547Y-23240353D01*
X69757055Y-23379650D01*
G37*
G36*
X62392195Y-140809700D02*
G01*
X62437964Y-140862491D01*
X62449181Y-140914847D01*
X62430808Y-143716676D01*
X62410685Y-143783585D01*
X62357582Y-143828993D01*
X62306674Y-143839863D01*
X26434276Y-143800137D01*
X26367258Y-143780378D01*
X26321562Y-143727524D01*
X26310414Y-143675724D01*
X26319588Y-140923552D01*
X26339496Y-140856578D01*
X26392452Y-140811000D01*
X26443553Y-140799965D01*
X62325150Y-140790034D01*
X62392195Y-140809700D01*
G37*
M02*
